<?xml version="1.0" encoding="UTF-8" standalone="no"?>
<!DOCTYPE svg PUBLIC "-//W3C//DTD SVG 1.1//EN"
 "http://www.w3.org/Graphics/SVG/1.1/DTD/svg11.dtd">
<!-- Generated by graphviz version 2.43.0 (0)
 -->
<!-- Title: G Pages: 1 -->
<svg width="814pt" height="962pt"
 viewBox="0.00 0.00 814.00 962.00" xmlns="http://www.w3.org/2000/svg" xmlns:xlink="http://www.w3.org/1999/xlink">
<g id="graph0" class="graph" transform="scale(1 1) rotate(0) translate(4 958)">
<title>G</title>
<polygon fill="white" stroke="transparent" points="-4,4 -4,-958 810,-958 810,4 -4,4"/>
<!-- data.aws_prefix_list.s3_pl -->
<g id="node1" class="node">
<title>data.aws_prefix_list.s3_pl</title>
<polygon fill="none" stroke="black" points="330,-360 150,-360 150,-324 330,-324 330,-360"/>
<text text-anchor="middle" x="240" y="-338.3" font-family="sans-serif" font-size="14.00">data.aws_prefix_list.s3_pl</text>
</g>
<!-- aws_db_parameter_group.mysql_standalone_parametergroup -->
<g id="node2" class="node">
<title>aws_db_parameter_group.mysql_standalone_parametergroup</title>
<polygon fill="none" stroke="black" points="806,-954 385,-954 385,-918 806,-918 806,-954"/>
<text text-anchor="middle" x="595.5" y="-932.3" font-family="sans-serif" font-size="14.00">aws_db_parameter_group.mysql_standalone_parametergroup</text>
</g>
<!-- aws_internet_gateway.igw -->
<g id="node3" class="node">
<title>aws_internet_gateway.igw</title>
<polygon fill="none" stroke="black" points="335,-144 145,-144 145,-108 335,-108 335,-144"/>
<text text-anchor="middle" x="240" y="-122.3" font-family="sans-serif" font-size="14.00">aws_internet_gateway.igw</text>
</g>
<!-- aws_vpc.vpc -->
<g id="node31" class="node">
<title>aws_vpc.vpc</title>
<polygon fill="none" stroke="black" points="95,-306 0,-306 0,-270 95,-270 95,-306"/>
<text text-anchor="middle" x="47.5" y="-284.3" font-family="sans-serif" font-size="14.00">aws_vpc.vpc</text>
</g>
<!-- aws_internet_gateway.igw&#45;&gt;aws_vpc.vpc -->
<g id="edge1" class="edge">
<title>aws_internet_gateway.igw&#45;&gt;aws_vpc.vpc</title>
<path fill="none" stroke="black" d="M145.76,-144.08C140.56,-146.67 135.59,-149.62 131,-153 94.21,-180.03 70.41,-228.87 58.25,-259.8"/>
<polygon fill="black" stroke="black" points="54.83,-258.96 54.57,-269.55 61.38,-261.43 54.83,-258.96"/>
</g>
<!-- aws_route.public_rt_igw -->
<g id="node4" class="node">
<title>aws_route.public_rt_igw</title>
<polygon fill="none" stroke="black" points="682.5,-90 508.5,-90 508.5,-54 682.5,-54 682.5,-90"/>
<text text-anchor="middle" x="595.5" y="-68.3" font-family="sans-serif" font-size="14.00">aws_route.public_rt_igw</text>
</g>
<!-- aws_route.public_rt_igw&#45;&gt;aws_internet_gateway.igw -->
<g id="edge2" class="edge">
<title>aws_route.public_rt_igw&#45;&gt;aws_internet_gateway.igw</title>
<path fill="none" stroke="black" d="M508.47,-81.96C470.54,-86.64 425.48,-92.6 385,-99 371.45,-101.14 357.23,-103.58 343.21,-106.09"/>
<polygon fill="black" stroke="black" points="342.26,-102.7 333.05,-107.93 343.51,-109.59 342.26,-102.7"/>
</g>
<!-- aws_route_table.public_rt -->
<g id="node6" class="node">
<title>aws_route_table.public_rt</title>
<polygon fill="none" stroke="black" points="332,-90 148,-90 148,-54 332,-54 332,-90"/>
<text text-anchor="middle" x="240" y="-68.3" font-family="sans-serif" font-size="14.00">aws_route_table.public_rt</text>
</g>
<!-- aws_route.public_rt_igw&#45;&gt;aws_route_table.public_rt -->
<g id="edge3" class="edge">
<title>aws_route.public_rt_igw&#45;&gt;aws_route_table.public_rt</title>
<path fill="none" stroke="black" d="M508.48,-72C458.27,-72 394.66,-72 342.07,-72"/>
<polygon fill="black" stroke="black" points="342.05,-68.5 332.05,-72 342.05,-75.5 342.05,-68.5"/>
</g>
<!-- aws_route_table.private_rt -->
<g id="node5" class="node">
<title>aws_route_table.private_rt</title>
<polygon fill="none" stroke="black" points="335,-630 145,-630 145,-594 335,-594 335,-630"/>
<text text-anchor="middle" x="240" y="-608.3" font-family="sans-serif" font-size="14.00">aws_route_table.private_rt</text>
</g>
<!-- aws_route_table.private_rt&#45;&gt;aws_vpc.vpc -->
<g id="edge4" class="edge">
<title>aws_route_table.private_rt&#45;&gt;aws_vpc.vpc</title>
<path fill="none" stroke="black" d="M182.36,-593.99C163.78,-585.63 144.47,-573.93 131,-558 70.01,-485.86 54.09,-369.32 49.95,-316.11"/>
<polygon fill="black" stroke="black" points="53.44,-315.78 49.25,-306.05 46.45,-316.27 53.44,-315.78"/>
</g>
<!-- aws_route_table.public_rt&#45;&gt;aws_vpc.vpc -->
<g id="edge5" class="edge">
<title>aws_route_table.public_rt&#45;&gt;aws_vpc.vpc</title>
<path fill="none" stroke="black" d="M147.79,-87.99C141.77,-91.06 136.09,-94.69 131,-99 81.46,-140.9 60.72,-218.19 52.83,-259.77"/>
<polygon fill="black" stroke="black" points="49.35,-259.31 51.05,-269.77 56.24,-260.54 49.35,-259.31"/>
</g>
<!-- aws_route_table_association.private_rt_1a -->
<g id="node7" class="node">
<title>aws_route_table_association.private_rt_1a</title>
<polygon fill="none" stroke="black" points="741,-684 450,-684 450,-648 741,-648 741,-684"/>
<text text-anchor="middle" x="595.5" y="-662.3" font-family="sans-serif" font-size="14.00">aws_route_table_association.private_rt_1a</text>
</g>
<!-- aws_route_table_association.private_rt_1a&#45;&gt;aws_route_table.private_rt -->
<g id="edge6" class="edge">
<title>aws_route_table_association.private_rt_1a&#45;&gt;aws_route_table.private_rt</title>
<path fill="none" stroke="black" d="M449.81,-648.45C428.06,-645.49 405.92,-642.31 385,-639 371.45,-636.86 357.23,-634.42 343.21,-631.91"/>
<polygon fill="black" stroke="black" points="343.51,-628.41 333.05,-630.07 342.26,-635.3 343.51,-628.41"/>
</g>
<!-- aws_subnet.private_subnet_1a -->
<g id="node27" class="node">
<title>aws_subnet.private_subnet_1a</title>
<polygon fill="none" stroke="black" points="349,-684 131,-684 131,-648 349,-648 349,-684"/>
<text text-anchor="middle" x="240" y="-662.3" font-family="sans-serif" font-size="14.00">aws_subnet.private_subnet_1a</text>
</g>
<!-- aws_route_table_association.private_rt_1a&#45;&gt;aws_subnet.private_subnet_1a -->
<g id="edge7" class="edge">
<title>aws_route_table_association.private_rt_1a&#45;&gt;aws_subnet.private_subnet_1a</title>
<path fill="none" stroke="black" d="M449.95,-666C419.83,-666 388.42,-666 359.37,-666"/>
<polygon fill="black" stroke="black" points="359.2,-662.5 349.2,-666 359.2,-669.5 359.2,-662.5"/>
</g>
<!-- aws_route_table_association.private_rt_1c -->
<g id="node8" class="node">
<title>aws_route_table_association.private_rt_1c</title>
<polygon fill="none" stroke="black" points="740.5,-630 450.5,-630 450.5,-594 740.5,-594 740.5,-630"/>
<text text-anchor="middle" x="595.5" y="-608.3" font-family="sans-serif" font-size="14.00">aws_route_table_association.private_rt_1c</text>
</g>
<!-- aws_route_table_association.private_rt_1c&#45;&gt;aws_route_table.private_rt -->
<g id="edge8" class="edge">
<title>aws_route_table_association.private_rt_1c&#45;&gt;aws_route_table.private_rt</title>
<path fill="none" stroke="black" d="M450.46,-612C415.23,-612 378.21,-612 345.25,-612"/>
<polygon fill="black" stroke="black" points="345.16,-608.5 335.16,-612 345.16,-615.5 345.16,-608.5"/>
</g>
<!-- aws_subnet.private_subnet_1c -->
<g id="node28" class="node">
<title>aws_subnet.private_subnet_1c</title>
<polygon fill="none" stroke="black" points="349,-549 131,-549 131,-513 349,-513 349,-549"/>
<text text-anchor="middle" x="240" y="-527.3" font-family="sans-serif" font-size="14.00">aws_subnet.private_subnet_1c</text>
</g>
<!-- aws_route_table_association.private_rt_1c&#45;&gt;aws_subnet.private_subnet_1c -->
<g id="edge9" class="edge">
<title>aws_route_table_association.private_rt_1c&#45;&gt;aws_subnet.private_subnet_1c</title>
<path fill="none" stroke="black" d="M450.28,-597.86C428.26,-594.43 405.91,-590.19 385,-585 352.9,-577.03 318.14,-564.12 290.82,-552.93"/>
<polygon fill="black" stroke="black" points="292.06,-549.65 281.48,-549.05 289.37,-556.12 292.06,-549.65"/>
</g>
<!-- aws_route_table_association.public_rt_1a -->
<g id="node9" class="node">
<title>aws_route_table_association.public_rt_1a</title>
<polygon fill="none" stroke="black" points="738,-36 453,-36 453,0 738,0 738,-36"/>
<text text-anchor="middle" x="595.5" y="-14.3" font-family="sans-serif" font-size="14.00">aws_route_table_association.public_rt_1a</text>
</g>
<!-- aws_route_table_association.public_rt_1a&#45;&gt;aws_route_table.public_rt -->
<g id="edge10" class="edge">
<title>aws_route_table_association.public_rt_1a&#45;&gt;aws_route_table.public_rt</title>
<path fill="none" stroke="black" d="M452.91,-35.13C430.17,-38.2 406.91,-41.54 385,-45 371.12,-47.19 356.52,-49.7 342.17,-52.28"/>
<polygon fill="black" stroke="black" points="341.49,-48.84 332.28,-54.07 342.74,-55.73 341.49,-48.84"/>
</g>
<!-- aws_subnet.public_subnet_1a -->
<g id="node29" class="node">
<title>aws_subnet.public_subnet_1a</title>
<polygon fill="none" stroke="black" points="346,-36 134,-36 134,0 346,0 346,-36"/>
<text text-anchor="middle" x="240" y="-14.3" font-family="sans-serif" font-size="14.00">aws_subnet.public_subnet_1a</text>
</g>
<!-- aws_route_table_association.public_rt_1a&#45;&gt;aws_subnet.public_subnet_1a -->
<g id="edge11" class="edge">
<title>aws_route_table_association.public_rt_1a&#45;&gt;aws_subnet.public_subnet_1a</title>
<path fill="none" stroke="black" d="M452.75,-18C420.74,-18 387.13,-18 356.36,-18"/>
<polygon fill="black" stroke="black" points="356.04,-14.5 346.04,-18 356.04,-21.5 356.04,-14.5"/>
</g>
<!-- aws_route_table_association.public_rt_1c -->
<g id="node10" class="node">
<title>aws_route_table_association.public_rt_1c</title>
<polygon fill="none" stroke="black" points="737.5,-144 453.5,-144 453.5,-108 737.5,-108 737.5,-144"/>
<text text-anchor="middle" x="595.5" y="-122.3" font-family="sans-serif" font-size="14.00">aws_route_table_association.public_rt_1c</text>
</g>
<!-- aws_route_table_association.public_rt_1c&#45;&gt;aws_route_table.public_rt -->
<g id="edge12" class="edge">
<title>aws_route_table_association.public_rt_1c&#45;&gt;aws_route_table.public_rt</title>
<path fill="none" stroke="black" d="M453.48,-108.95C430.56,-105.85 407.1,-102.49 385,-99 371.12,-96.81 356.52,-94.3 342.17,-91.72"/>
<polygon fill="black" stroke="black" points="342.74,-88.27 332.28,-89.93 341.49,-95.16 342.74,-88.27"/>
</g>
<!-- aws_subnet.public_subnet_1c -->
<g id="node30" class="node">
<title>aws_subnet.public_subnet_1c</title>
<polygon fill="none" stroke="black" points="346,-198 134,-198 134,-162 346,-162 346,-198"/>
<text text-anchor="middle" x="240" y="-176.3" font-family="sans-serif" font-size="14.00">aws_subnet.public_subnet_1c</text>
</g>
<!-- aws_route_table_association.public_rt_1c&#45;&gt;aws_subnet.public_subnet_1c -->
<g id="edge13" class="edge">
<title>aws_route_table_association.public_rt_1c&#45;&gt;aws_subnet.public_subnet_1c</title>
<path fill="none" stroke="black" d="M453.48,-143.05C430.56,-146.15 407.1,-149.51 385,-153 371.45,-155.14 357.23,-157.58 343.21,-160.09"/>
<polygon fill="black" stroke="black" points="342.26,-156.7 333.05,-161.93 343.51,-163.59 342.26,-156.7"/>
</g>
<!-- aws_security_group.app_sg -->
<g id="node11" class="node">
<title>aws_security_group.app_sg</title>
<polygon fill="none" stroke="black" points="337.5,-306 142.5,-306 142.5,-270 337.5,-270 337.5,-306"/>
<text text-anchor="middle" x="240" y="-284.3" font-family="sans-serif" font-size="14.00">aws_security_group.app_sg</text>
</g>
<!-- aws_security_group.app_sg&#45;&gt;aws_vpc.vpc -->
<g id="edge14" class="edge">
<title>aws_security_group.app_sg&#45;&gt;aws_vpc.vpc</title>
<path fill="none" stroke="black" d="M142.35,-288C129.68,-288 117.03,-288 105.31,-288"/>
<polygon fill="black" stroke="black" points="105.28,-284.5 95.28,-288 105.28,-291.5 105.28,-284.5"/>
</g>
<!-- aws_security_group.db_sg -->
<g id="node12" class="node">
<title>aws_security_group.db_sg</title>
<polygon fill="none" stroke="black" points="334,-252 146,-252 146,-216 334,-216 334,-252"/>
<text text-anchor="middle" x="240" y="-230.3" font-family="sans-serif" font-size="14.00">aws_security_group.db_sg</text>
</g>
<!-- aws_security_group.db_sg&#45;&gt;aws_vpc.vpc -->
<g id="edge15" class="edge">
<title>aws_security_group.db_sg&#45;&gt;aws_vpc.vpc</title>
<path fill="none" stroke="black" d="M163.87,-252.05C152.81,-254.92 141.59,-257.95 131,-261 122.48,-263.46 113.51,-266.21 104.76,-269"/>
<polygon fill="black" stroke="black" points="103.45,-265.74 95.01,-272.14 105.6,-272.4 103.45,-265.74"/>
</g>
<!-- aws_security_group.opmng_sg -->
<g id="node13" class="node">
<title>aws_security_group.opmng_sg</title>
<polygon fill="none" stroke="black" points="349,-792 131,-792 131,-756 349,-756 349,-792"/>
<text text-anchor="middle" x="240" y="-770.3" font-family="sans-serif" font-size="14.00">aws_security_group.opmng_sg</text>
</g>
<!-- aws_security_group.opmng_sg&#45;&gt;aws_vpc.vpc -->
<g id="edge16" class="edge">
<title>aws_security_group.opmng_sg&#45;&gt;aws_vpc.vpc</title>
<path fill="none" stroke="black" d="M202.86,-755.96C178.76,-742.04 148.42,-720.53 131,-693 52.88,-569.54 46.84,-386.27 47.64,-316.43"/>
<polygon fill="black" stroke="black" points="51.14,-316.28 47.81,-306.22 44.14,-316.16 51.14,-316.28"/>
</g>
<!-- aws_security_group.web_sg -->
<g id="node14" class="node">
<title>aws_security_group.web_sg</title>
<polygon fill="none" stroke="black" points="339.5,-468 140.5,-468 140.5,-432 339.5,-432 339.5,-468"/>
<text text-anchor="middle" x="240" y="-446.3" font-family="sans-serif" font-size="14.00">aws_security_group.web_sg</text>
</g>
<!-- aws_security_group.web_sg&#45;&gt;aws_vpc.vpc -->
<g id="edge17" class="edge">
<title>aws_security_group.web_sg&#45;&gt;aws_vpc.vpc</title>
<path fill="none" stroke="black" d="M212.94,-431.94C190.59,-416.1 157.84,-392.07 131,-369 110.59,-351.46 88.93,-330.08 72.93,-313.69"/>
<polygon fill="black" stroke="black" points="75.03,-310.83 65.56,-306.08 70,-315.7 75.03,-310.83"/>
</g>
<!-- aws_security_group_rule.app_in_tcp3000 -->
<g id="node15" class="node">
<title>aws_security_group_rule.app_in_tcp3000</title>
<polygon fill="none" stroke="black" points="738,-414 453,-414 453,-378 738,-378 738,-414"/>
<text text-anchor="middle" x="595.5" y="-392.3" font-family="sans-serif" font-size="14.00">aws_security_group_rule.app_in_tcp3000</text>
</g>
<!-- aws_security_group_rule.app_in_tcp3000&#45;&gt;aws_security_group.app_sg -->
<g id="edge18" class="edge">
<title>aws_security_group_rule.app_in_tcp3000&#45;&gt;aws_security_group.app_sg</title>
<path fill="none" stroke="black" d="M452.76,-394.39C428.91,-389.56 405.33,-381.62 385,-369 360.49,-353.79 372.58,-331.62 349,-315 346.89,-313.51 344.71,-312.11 342.47,-310.78"/>
<polygon fill="black" stroke="black" points="344.02,-307.65 333.55,-306.04 340.73,-313.83 344.02,-307.65"/>
</g>
<!-- aws_security_group_rule.app_in_tcp3000&#45;&gt;aws_security_group.web_sg -->
<g id="edge19" class="edge">
<title>aws_security_group_rule.app_in_tcp3000&#45;&gt;aws_security_group.web_sg</title>
<path fill="none" stroke="black" d="M452.91,-413.13C430.17,-416.2 406.91,-419.54 385,-423 371.45,-425.14 357.23,-427.58 343.21,-430.09"/>
<polygon fill="black" stroke="black" points="342.26,-426.7 333.05,-431.93 343.51,-433.59 342.26,-426.7"/>
</g>
<!-- aws_security_group_rule.app_out_http -->
<g id="node16" class="node">
<title>aws_security_group_rule.app_out_http</title>
<polygon fill="none" stroke="black" points="730,-306 461,-306 461,-270 730,-270 730,-306"/>
<text text-anchor="middle" x="595.5" y="-284.3" font-family="sans-serif" font-size="14.00">aws_security_group_rule.app_out_http</text>
</g>
<!-- aws_security_group_rule.app_out_http&#45;&gt;data.aws_prefix_list.s3_pl -->
<g id="edge20" class="edge">
<title>aws_security_group_rule.app_out_http&#45;&gt;data.aws_prefix_list.s3_pl</title>
<path fill="none" stroke="black" d="M460.78,-304.07C435.57,-307.43 409.45,-311.14 385,-315 370.61,-317.27 355.45,-319.88 340.58,-322.56"/>
<polygon fill="black" stroke="black" points="339.56,-319.19 330.35,-324.42 340.82,-326.08 339.56,-319.19"/>
</g>
<!-- aws_security_group_rule.app_out_http&#45;&gt;aws_security_group.app_sg -->
<g id="edge21" class="edge">
<title>aws_security_group_rule.app_out_http&#45;&gt;aws_security_group.app_sg</title>
<path fill="none" stroke="black" d="M460.86,-288C423.58,-288 383.57,-288 348.04,-288"/>
<polygon fill="black" stroke="black" points="347.66,-284.5 337.66,-288 347.66,-291.5 347.66,-284.5"/>
</g>
<!-- aws_security_group_rule.app_out_https -->
<g id="node17" class="node">
<title>aws_security_group_rule.app_out_https</title>
<polygon fill="none" stroke="black" points="733.5,-360 457.5,-360 457.5,-324 733.5,-324 733.5,-360"/>
<text text-anchor="middle" x="595.5" y="-338.3" font-family="sans-serif" font-size="14.00">aws_security_group_rule.app_out_https</text>
</g>
<!-- aws_security_group_rule.app_out_https&#45;&gt;data.aws_prefix_list.s3_pl -->
<g id="edge22" class="edge">
<title>aws_security_group_rule.app_out_https&#45;&gt;data.aws_prefix_list.s3_pl</title>
<path fill="none" stroke="black" d="M457.32,-342C418.29,-342 376.55,-342 340.25,-342"/>
<polygon fill="black" stroke="black" points="340.16,-338.5 330.16,-342 340.16,-345.5 340.16,-338.5"/>
</g>
<!-- aws_security_group_rule.app_out_https&#45;&gt;aws_security_group.app_sg -->
<g id="edge23" class="edge">
<title>aws_security_group_rule.app_out_https&#45;&gt;aws_security_group.app_sg</title>
<path fill="none" stroke="black" d="M457.42,-325.48C433.25,-322.24 408.36,-318.69 385,-315 371.45,-312.86 357.23,-310.42 343.21,-307.91"/>
<polygon fill="black" stroke="black" points="343.51,-304.41 333.05,-306.07 342.26,-311.3 343.51,-304.41"/>
</g>
<!-- aws_security_group_rule.app_out_tcp3306 -->
<g id="node18" class="node">
<title>aws_security_group_rule.app_out_tcp3306</title>
<polygon fill="none" stroke="black" points="743,-198 448,-198 448,-162 743,-162 743,-198"/>
<text text-anchor="middle" x="595.5" y="-176.3" font-family="sans-serif" font-size="14.00">aws_security_group_rule.app_out_tcp3306</text>
</g>
<!-- aws_security_group_rule.app_out_tcp3306&#45;&gt;aws_security_group.app_sg -->
<g id="edge24" class="edge">
<title>aws_security_group_rule.app_out_tcp3306&#45;&gt;aws_security_group.app_sg</title>
<path fill="none" stroke="black" d="M447.83,-182.66C425.67,-187.56 403.93,-195.25 385,-207 360.49,-222.21 372.58,-244.38 349,-261 346.89,-262.49 344.71,-263.89 342.47,-265.22"/>
<polygon fill="black" stroke="black" points="340.73,-262.17 333.55,-269.96 344.02,-268.35 340.73,-262.17"/>
</g>
<!-- aws_security_group_rule.app_out_tcp3306&#45;&gt;aws_security_group.db_sg -->
<g id="edge25" class="edge">
<title>aws_security_group_rule.app_out_tcp3306&#45;&gt;aws_security_group.db_sg</title>
<path fill="none" stroke="black" d="M447.83,-197.82C426.72,-200.7 405.28,-203.79 385,-207 371.45,-209.14 357.23,-211.58 343.21,-214.09"/>
<polygon fill="black" stroke="black" points="342.26,-210.7 333.05,-215.93 343.51,-217.59 342.26,-210.7"/>
</g>
<!-- aws_security_group_rule.db_in_tcp3306 -->
<g id="node19" class="node">
<title>aws_security_group_rule.db_in_tcp3306</title>
<polygon fill="none" stroke="black" points="734.5,-252 456.5,-252 456.5,-216 734.5,-216 734.5,-252"/>
<text text-anchor="middle" x="595.5" y="-230.3" font-family="sans-serif" font-size="14.00">aws_security_group_rule.db_in_tcp3306</text>
</g>
<!-- aws_security_group_rule.db_in_tcp3306&#45;&gt;aws_security_group.app_sg -->
<g id="edge26" class="edge">
<title>aws_security_group_rule.db_in_tcp3306&#45;&gt;aws_security_group.app_sg</title>
<path fill="none" stroke="black" d="M456.29,-250.67C432.48,-253.87 408,-257.36 385,-261 371.45,-263.14 357.23,-265.58 343.21,-268.09"/>
<polygon fill="black" stroke="black" points="342.26,-264.7 333.05,-269.93 343.51,-271.59 342.26,-264.7"/>
</g>
<!-- aws_security_group_rule.db_in_tcp3306&#45;&gt;aws_security_group.db_sg -->
<g id="edge27" class="edge">
<title>aws_security_group_rule.db_in_tcp3306&#45;&gt;aws_security_group.db_sg</title>
<path fill="none" stroke="black" d="M456.31,-234C419.03,-234 379.35,-234 344.34,-234"/>
<polygon fill="black" stroke="black" points="344.12,-230.5 334.12,-234 344.12,-237.5 344.12,-230.5"/>
</g>
<!-- aws_security_group_rule.opmng_in_ssh -->
<g id="node20" class="node">
<title>aws_security_group_rule.opmng_in_ssh</title>
<polygon fill="none" stroke="black" points="734,-846 457,-846 457,-810 734,-810 734,-846"/>
<text text-anchor="middle" x="595.5" y="-824.3" font-family="sans-serif" font-size="14.00">aws_security_group_rule.opmng_in_ssh</text>
</g>
<!-- aws_security_group_rule.opmng_in_ssh&#45;&gt;aws_security_group.opmng_sg -->
<g id="edge28" class="edge">
<title>aws_security_group_rule.opmng_in_ssh&#45;&gt;aws_security_group.opmng_sg</title>
<path fill="none" stroke="black" d="M456.85,-811.4C432.87,-808.18 408.18,-804.66 385,-801 371.45,-798.86 357.23,-796.42 343.21,-793.91"/>
<polygon fill="black" stroke="black" points="343.51,-790.41 333.05,-792.07 342.26,-797.3 343.51,-790.41"/>
</g>
<!-- aws_security_group_rule.opmng_in_tcp3000 -->
<g id="node21" class="node">
<title>aws_security_group_rule.opmng_in_tcp3000</title>
<polygon fill="none" stroke="black" points="749.5,-792 441.5,-792 441.5,-756 749.5,-756 749.5,-792"/>
<text text-anchor="middle" x="595.5" y="-770.3" font-family="sans-serif" font-size="14.00">aws_security_group_rule.opmng_in_tcp3000</text>
</g>
<!-- aws_security_group_rule.opmng_in_tcp3000&#45;&gt;aws_security_group.opmng_sg -->
<g id="edge29" class="edge">
<title>aws_security_group_rule.opmng_in_tcp3000&#45;&gt;aws_security_group.opmng_sg</title>
<path fill="none" stroke="black" d="M441.25,-774C413.84,-774 385.67,-774 359.42,-774"/>
<polygon fill="black" stroke="black" points="359.08,-770.5 349.08,-774 359.08,-777.5 359.08,-770.5"/>
</g>
<!-- aws_security_group_rule.opmng_out_http -->
<g id="node22" class="node">
<title>aws_security_group_rule.opmng_out_http</title>
<polygon fill="none" stroke="black" points="741.5,-738 449.5,-738 449.5,-702 741.5,-702 741.5,-738"/>
<text text-anchor="middle" x="595.5" y="-716.3" font-family="sans-serif" font-size="14.00">aws_security_group_rule.opmng_out_http</text>
</g>
<!-- aws_security_group_rule.opmng_out_http&#45;&gt;aws_security_group.opmng_sg -->
<g id="edge30" class="edge">
<title>aws_security_group_rule.opmng_out_http&#45;&gt;aws_security_group.opmng_sg</title>
<path fill="none" stroke="black" d="M449.24,-737.63C427.68,-740.56 405.74,-743.72 385,-747 371.45,-749.14 357.23,-751.58 343.21,-754.09"/>
<polygon fill="black" stroke="black" points="342.26,-750.7 333.05,-755.93 343.51,-757.59 342.26,-750.7"/>
</g>
<!-- aws_security_group_rule.opmng_out_https -->
<g id="node23" class="node">
<title>aws_security_group_rule.opmng_out_https</title>
<polygon fill="none" stroke="black" points="745,-900 446,-900 446,-864 745,-864 745,-900"/>
<text text-anchor="middle" x="595.5" y="-878.3" font-family="sans-serif" font-size="14.00">aws_security_group_rule.opmng_out_https</text>
</g>
<!-- aws_security_group_rule.opmng_out_https&#45;&gt;aws_security_group.opmng_sg -->
<g id="edge31" class="edge">
<title>aws_security_group_rule.opmng_out_https&#45;&gt;aws_security_group.opmng_sg</title>
<path fill="none" stroke="black" d="M445.82,-870.05C425.11,-866.31 404.32,-861.41 385,-855 344.71,-841.64 302.88,-816.66 274.76,-797.95"/>
<polygon fill="black" stroke="black" points="276.37,-794.82 266.13,-792.13 272.46,-800.62 276.37,-794.82"/>
</g>
<!-- aws_security_group_rule.web_in_http -->
<g id="node24" class="node">
<title>aws_security_group_rule.web_in_http</title>
<polygon fill="none" stroke="black" points="727,-522 464,-522 464,-486 727,-486 727,-522"/>
<text text-anchor="middle" x="595.5" y="-500.3" font-family="sans-serif" font-size="14.00">aws_security_group_rule.web_in_http</text>
</g>
<!-- aws_security_group_rule.web_in_http&#45;&gt;aws_security_group.web_sg -->
<g id="edge32" class="edge">
<title>aws_security_group_rule.web_in_http&#45;&gt;aws_security_group.web_sg</title>
<path fill="none" stroke="black" d="M463.86,-488.34C437.7,-484.87 410.45,-481.02 385,-477 371.45,-474.86 357.23,-472.42 343.21,-469.91"/>
<polygon fill="black" stroke="black" points="343.51,-466.41 333.05,-468.07 342.26,-473.3 343.51,-466.41"/>
</g>
<!-- aws_security_group_rule.web_in_https -->
<g id="node25" class="node">
<title>aws_security_group_rule.web_in_https</title>
<polygon fill="none" stroke="black" points="730.5,-576 460.5,-576 460.5,-540 730.5,-540 730.5,-576"/>
<text text-anchor="middle" x="595.5" y="-554.3" font-family="sans-serif" font-size="14.00">aws_security_group_rule.web_in_https</text>
</g>
<!-- aws_security_group_rule.web_in_https&#45;&gt;aws_security_group.web_sg -->
<g id="edge33" class="edge">
<title>aws_security_group_rule.web_in_https&#45;&gt;aws_security_group.web_sg</title>
<path fill="none" stroke="black" d="M460.26,-551.12C434.66,-546.92 408.53,-540.56 385,-531 366.47,-523.47 366.01,-514.51 349,-504 330.54,-492.59 309.35,-481.58 290.66,-472.51"/>
<polygon fill="black" stroke="black" points="291.95,-469.25 281.42,-468.09 288.93,-475.56 291.95,-469.25"/>
</g>
<!-- aws_security_group_rule.web_out_tcp3000 -->
<g id="node26" class="node">
<title>aws_security_group_rule.web_out_tcp3000</title>
<polygon fill="none" stroke="black" points="745,-468 446,-468 446,-432 745,-432 745,-468"/>
<text text-anchor="middle" x="595.5" y="-446.3" font-family="sans-serif" font-size="14.00">aws_security_group_rule.web_out_tcp3000</text>
</g>
<!-- aws_security_group_rule.web_out_tcp3000&#45;&gt;aws_security_group.app_sg -->
<g id="edge34" class="edge">
<title>aws_security_group_rule.web_out_tcp3000&#45;&gt;aws_security_group.app_sg</title>
<path fill="none" stroke="black" d="M445.89,-451.81C423.72,-446.41 402.49,-437.39 385,-423 345.93,-390.85 386.12,-349.38 349,-315 348,-314.08 346.98,-313.18 345.93,-312.32"/>
<polygon fill="black" stroke="black" points="347.62,-309.23 337.45,-306.26 343.55,-314.92 347.62,-309.23"/>
</g>
<!-- aws_security_group_rule.web_out_tcp3000&#45;&gt;aws_security_group.web_sg -->
<g id="edge35" class="edge">
<title>aws_security_group_rule.web_out_tcp3000&#45;&gt;aws_security_group.web_sg</title>
<path fill="none" stroke="black" d="M445.86,-450C413.63,-450 380.12,-450 349.77,-450"/>
<polygon fill="black" stroke="black" points="349.6,-446.5 339.6,-450 349.6,-453.5 349.6,-446.5"/>
</g>
<!-- aws_subnet.private_subnet_1a&#45;&gt;aws_vpc.vpc -->
<g id="edge36" class="edge">
<title>aws_subnet.private_subnet_1a&#45;&gt;aws_vpc.vpc</title>
<path fill="none" stroke="black" d="M141.69,-647.81C137.85,-645.22 134.26,-642.3 131,-639 85.44,-592.8 59.57,-391.25 51.37,-316.25"/>
<polygon fill="black" stroke="black" points="54.84,-315.71 50.29,-306.14 47.88,-316.45 54.84,-315.71"/>
</g>
<!-- aws_subnet.private_subnet_1c&#45;&gt;aws_vpc.vpc -->
<g id="edge37" class="edge">
<title>aws_subnet.private_subnet_1c&#45;&gt;aws_vpc.vpc</title>
<path fill="none" stroke="black" d="M185.31,-512.97C166.25,-504.46 145.87,-492.66 131,-477 86.77,-430.4 64.01,-356.25 54.35,-316.08"/>
<polygon fill="black" stroke="black" points="57.72,-315.13 52.07,-306.17 50.9,-316.7 57.72,-315.13"/>
</g>
<!-- aws_subnet.public_subnet_1a&#45;&gt;aws_vpc.vpc -->
<g id="edge38" class="edge">
<title>aws_subnet.public_subnet_1a&#45;&gt;aws_vpc.vpc</title>
<path fill="none" stroke="black" d="M142.57,-36.28C138.44,-38.84 134.55,-41.73 131,-45 68.56,-102.5 53.36,-209 49.68,-259.72"/>
<polygon fill="black" stroke="black" points="46.17,-259.75 49.04,-269.95 53.15,-260.19 46.17,-259.75"/>
</g>
<!-- aws_subnet.public_subnet_1c&#45;&gt;aws_vpc.vpc -->
<g id="edge39" class="edge">
<title>aws_subnet.public_subnet_1c&#45;&gt;aws_vpc.vpc</title>
<path fill="none" stroke="black" d="M150.26,-198.01C143.57,-200.62 137.07,-203.6 131,-207 106.4,-220.78 83.95,-243.83 68.71,-261.82"/>
<polygon fill="black" stroke="black" points="65.89,-259.74 62.23,-269.68 71.29,-264.2 65.89,-259.74"/>
</g>
</g>
</svg>
