<?xml version="1.0" encoding="UTF-8" standalone="no"?>
<!DOCTYPE svg PUBLIC "-//W3C//DTD SVG 1.1//EN"
 "http://www.w3.org/Graphics/SVG/1.1/DTD/svg11.dtd">
<!-- Generated by graphviz version 2.43.0 (0)
 -->
<!-- Title: G Pages: 1 -->
<svg width="1157pt" height="1162pt"
 viewBox="0.00 0.00 1157.00 1162.00" xmlns="http://www.w3.org/2000/svg" xmlns:xlink="http://www.w3.org/1999/xlink">
<g id="graph0" class="graph" transform="scale(1 1) rotate(0) translate(4 1158)">
<title>G</title>
<polygon fill="white" stroke="transparent" points="-4,4 -4,-1158 1153,-1158 1153,4 -4,4"/>
<!-- data.aws_prefix_list.s3_pl -->
<g id="node1" class="node">
<title>data.aws_prefix_list.s3_pl</title>
<polygon fill="none" stroke="black" points="351.5,-533 158.5,-533 158.5,-497 351.5,-497 351.5,-533"/>
<text text-anchor="middle" x="255" y="-511.3" font-family="sans-serif" font-size="14.00">data.aws_prefix_list.s3_pl</text>
</g>
<!-- aws_db_instance.mysql_standalone -->
<g id="node2" class="node">
<title>aws_db_instance.mysql_standalone</title>
<polygon fill="none" stroke="black" points="1149,-244 886,-244 886,-208 1149,-208 1149,-244"/>
<text text-anchor="middle" x="1017.5" y="-222.3" font-family="sans-serif" font-size="14.00">aws_db_instance.mysql_standalone</text>
</g>
<!-- aws_db_option_group.mysql_standalone_optiongroup -->
<g id="node3" class="node">
<title>aws_db_option_group.mysql_standalone_optiongroup</title>
<polygon fill="none" stroke="black" points="821,-36 435,-36 435,0 821,0 821,-36"/>
<text text-anchor="middle" x="628" y="-14.3" font-family="sans-serif" font-size="14.00">aws_db_option_group.mysql_standalone_optiongroup</text>
</g>
<!-- aws_db_instance.mysql_standalone&#45;&gt;aws_db_option_group.mysql_standalone_optiongroup -->
<g id="edge1" class="edge">
<title>aws_db_instance.mysql_standalone&#45;&gt;aws_db_option_group.mysql_standalone_optiongroup</title>
<path fill="none" stroke="black" d="M1006.14,-208C983.38,-170.33 925.02,-83.52 850,-45 843.82,-41.83 837.42,-38.97 830.86,-36.39"/>
<polygon fill="black" stroke="black" points="831.73,-32.98 821.14,-32.82 829.31,-39.55 831.73,-32.98"/>
</g>
<!-- aws_db_parameter_group.mysql_standalone_parametergroup -->
<g id="node4" class="node">
<title>aws_db_parameter_group.mysql_standalone_parametergroup</title>
<polygon fill="none" stroke="black" points="850,-560 406,-560 406,-524 850,-524 850,-560"/>
<text text-anchor="middle" x="628" y="-538.3" font-family="sans-serif" font-size="14.00">aws_db_parameter_group.mysql_standalone_parametergroup</text>
</g>
<!-- aws_db_instance.mysql_standalone&#45;&gt;aws_db_parameter_group.mysql_standalone_parametergroup -->
<g id="edge2" class="edge">
<title>aws_db_instance.mysql_standalone&#45;&gt;aws_db_parameter_group.mysql_standalone_parametergroup</title>
<path fill="none" stroke="black" d="M1012.13,-244.14C998.48,-296.4 951.39,-447.87 850,-515 848,-516.32 845.97,-517.6 843.91,-518.82"/>
<polygon fill="black" stroke="black" points="841.76,-516.01 834.7,-523.91 845.15,-522.14 841.76,-516.01"/>
</g>
<!-- aws_db_subnet_group.mysql_standalone_subnetgroup -->
<g id="node5" class="node">
<title>aws_db_subnet_group.mysql_standalone_subnetgroup</title>
<polygon fill="none" stroke="black" points="825.5,-668 430.5,-668 430.5,-632 825.5,-632 825.5,-668"/>
<text text-anchor="middle" x="628" y="-646.3" font-family="sans-serif" font-size="14.00">aws_db_subnet_group.mysql_standalone_subnetgroup</text>
</g>
<!-- aws_db_instance.mysql_standalone&#45;&gt;aws_db_subnet_group.mysql_standalone_subnetgroup -->
<g id="edge3" class="edge">
<title>aws_db_instance.mysql_standalone&#45;&gt;aws_db_subnet_group.mysql_standalone_subnetgroup</title>
<path fill="none" stroke="black" d="M1015.09,-244.02C1009.04,-307.93 979.35,-525.15 850,-623 845.11,-626.7 839.98,-630.04 834.66,-633.06"/>
<polygon fill="black" stroke="black" points="832.76,-630.1 825.53,-637.84 836.01,-636.3 832.76,-630.1"/>
</g>
<!-- aws_security_group.db_sg -->
<g id="node15" class="node">
<title>aws_security_group.db_sg</title>
<polygon fill="none" stroke="black" points="354.5,-398 155.5,-398 155.5,-362 354.5,-362 354.5,-398"/>
<text text-anchor="middle" x="255" y="-376.3" font-family="sans-serif" font-size="14.00">aws_security_group.db_sg</text>
</g>
<!-- aws_db_instance.mysql_standalone&#45;&gt;aws_security_group.db_sg -->
<g id="edge4" class="edge">
<title>aws_db_instance.mysql_standalone&#45;&gt;aws_security_group.db_sg</title>
<path fill="none" stroke="black" d="M885.83,-216.35C731.39,-207.3 485.32,-200.95 406,-245 380.78,-259 390.09,-278.3 370,-299 348.18,-321.48 319.4,-341.87 296.22,-356.57"/>
<polygon fill="black" stroke="black" points="294.27,-353.66 287.63,-361.92 297.97,-359.6 294.27,-353.66"/>
</g>
<!-- random_string.db_password -->
<g id="node35" class="node">
<title>random_string.db_password</title>
<polygon fill="none" stroke="black" points="734.5,-198 521.5,-198 521.5,-162 734.5,-162 734.5,-198"/>
<text text-anchor="middle" x="628" y="-176.3" font-family="sans-serif" font-size="14.00">random_string.db_password</text>
</g>
<!-- aws_db_instance.mysql_standalone&#45;&gt;random_string.db_password -->
<g id="edge5" class="edge">
<title>aws_db_instance.mysql_standalone&#45;&gt;random_string.db_password</title>
<path fill="none" stroke="black" d="M885.85,-210.49C840.09,-205.06 789.07,-199 744.63,-193.73"/>
<polygon fill="black" stroke="black" points="745,-190.25 734.66,-192.54 744.18,-197.2 745,-190.25"/>
</g>
<!-- aws_subnet.private_subnet_1a -->
<g id="node30" class="node">
<title>aws_subnet.private_subnet_1a</title>
<polygon fill="none" stroke="black" points="370,-695 140,-695 140,-659 370,-659 370,-695"/>
<text text-anchor="middle" x="255" y="-673.3" font-family="sans-serif" font-size="14.00">aws_subnet.private_subnet_1a</text>
</g>
<!-- aws_db_subnet_group.mysql_standalone_subnetgroup&#45;&gt;aws_subnet.private_subnet_1a -->
<g id="edge6" class="edge">
<title>aws_db_subnet_group.mysql_standalone_subnetgroup&#45;&gt;aws_subnet.private_subnet_1a</title>
<path fill="none" stroke="black" d="M430.37,-664.31C413.56,-665.53 396.88,-666.75 380.87,-667.91"/>
<polygon fill="black" stroke="black" points="380.17,-664.45 370.45,-668.67 380.68,-671.44 380.17,-664.45"/>
</g>
<!-- aws_subnet.private_subnet_1c -->
<g id="node31" class="node">
<title>aws_subnet.private_subnet_1c</title>
<polygon fill="none" stroke="black" points="370,-641 140,-641 140,-605 370,-605 370,-641"/>
<text text-anchor="middle" x="255" y="-619.3" font-family="sans-serif" font-size="14.00">aws_subnet.private_subnet_1c</text>
</g>
<!-- aws_db_subnet_group.mysql_standalone_subnetgroup&#45;&gt;aws_subnet.private_subnet_1c -->
<g id="edge7" class="edge">
<title>aws_db_subnet_group.mysql_standalone_subnetgroup&#45;&gt;aws_subnet.private_subnet_1c</title>
<path fill="none" stroke="black" d="M430.37,-635.69C413.56,-634.47 396.88,-633.25 380.87,-632.09"/>
<polygon fill="black" stroke="black" points="380.68,-628.56 370.45,-631.33 380.17,-635.55 380.68,-628.56"/>
</g>
<!-- aws_internet_gateway.igw -->
<g id="node6" class="node">
<title>aws_internet_gateway.igw</title>
<polygon fill="none" stroke="black" points="353,-965 157,-965 157,-929 353,-929 353,-965"/>
<text text-anchor="middle" x="255" y="-943.3" font-family="sans-serif" font-size="14.00">aws_internet_gateway.igw</text>
</g>
<!-- aws_vpc.vpc -->
<g id="node34" class="node">
<title>aws_vpc.vpc</title>
<polygon fill="none" stroke="black" points="104,-749 0,-749 0,-713 104,-713 104,-749"/>
<text text-anchor="middle" x="52" y="-727.3" font-family="sans-serif" font-size="14.00">aws_vpc.vpc</text>
</g>
<!-- aws_internet_gateway.igw&#45;&gt;aws_vpc.vpc -->
<g id="edge8" class="edge">
<title>aws_internet_gateway.igw&#45;&gt;aws_vpc.vpc</title>
<path fill="none" stroke="black" d="M156.74,-930.77C150.77,-927.75 145.12,-924.19 140,-920 89.22,-878.43 66.7,-800.67 57.9,-759.02"/>
<polygon fill="black" stroke="black" points="61.29,-758.14 55.9,-749.02 54.43,-759.51 61.29,-758.14"/>
</g>
<!-- aws_route.public_rt_igw -->
<g id="node7" class="node">
<title>aws_route.public_rt_igw</title>
<polygon fill="none" stroke="black" points="719,-938 537,-938 537,-902 719,-902 719,-938"/>
<text text-anchor="middle" x="628" y="-916.3" font-family="sans-serif" font-size="14.00">aws_route.public_rt_igw</text>
</g>
<!-- aws_route.public_rt_igw&#45;&gt;aws_internet_gateway.igw -->
<g id="edge9" class="edge">
<title>aws_route.public_rt_igw&#45;&gt;aws_internet_gateway.igw</title>
<path fill="none" stroke="black" d="M536.72,-926.57C484.42,-930.38 418.27,-935.19 363.32,-939.19"/>
<polygon fill="black" stroke="black" points="362.92,-935.71 353.2,-939.93 363.43,-942.69 362.92,-935.71"/>
</g>
<!-- aws_route_table.public_rt -->
<g id="node9" class="node">
<title>aws_route_table.public_rt</title>
<polygon fill="none" stroke="black" points="351,-857 159,-857 159,-821 351,-821 351,-857"/>
<text text-anchor="middle" x="255" y="-835.3" font-family="sans-serif" font-size="14.00">aws_route_table.public_rt</text>
</g>
<!-- aws_route.public_rt_igw&#45;&gt;aws_route_table.public_rt -->
<g id="edge10" class="edge">
<title>aws_route.public_rt_igw&#45;&gt;aws_route_table.public_rt</title>
<path fill="none" stroke="black" d="M536.99,-919.53C495.81,-916.7 447.15,-909.56 406,-893 387.45,-885.53 388.11,-874.48 370,-866 365.85,-864.05 361.54,-862.24 357.14,-860.56"/>
<polygon fill="black" stroke="black" points="357.98,-857.14 347.38,-857.06 355.62,-863.73 357.98,-857.14"/>
</g>
<!-- aws_route_table.private_rt -->
<g id="node8" class="node">
<title>aws_route_table.private_rt</title>
<polygon fill="none" stroke="black" points="354.5,-749 155.5,-749 155.5,-713 354.5,-713 354.5,-749"/>
<text text-anchor="middle" x="255" y="-727.3" font-family="sans-serif" font-size="14.00">aws_route_table.private_rt</text>
</g>
<!-- aws_route_table.private_rt&#45;&gt;aws_vpc.vpc -->
<g id="edge11" class="edge">
<title>aws_route_table.private_rt&#45;&gt;aws_vpc.vpc</title>
<path fill="none" stroke="black" d="M155.27,-731C141.32,-731 127.33,-731 114.37,-731"/>
<polygon fill="black" stroke="black" points="114.22,-727.5 104.22,-731 114.22,-734.5 114.22,-727.5"/>
</g>
<!-- aws_route_table.public_rt&#45;&gt;aws_vpc.vpc -->
<g id="edge12" class="edge">
<title>aws_route_table.public_rt&#45;&gt;aws_vpc.vpc</title>
<path fill="none" stroke="black" d="M160.14,-820.99C153.16,-818.39 146.37,-815.41 140,-812 114.28,-798.24 90.44,-774.98 74.24,-756.91"/>
<polygon fill="black" stroke="black" points="76.57,-754.25 67.36,-749.02 71.3,-758.86 76.57,-754.25"/>
</g>
<!-- aws_route_table_association.private_rt_1a -->
<g id="node10" class="node">
<title>aws_route_table_association.private_rt_1a</title>
<polygon fill="none" stroke="black" points="781.5,-776 474.5,-776 474.5,-740 781.5,-740 781.5,-776"/>
<text text-anchor="middle" x="628" y="-754.3" font-family="sans-serif" font-size="14.00">aws_route_table_association.private_rt_1a</text>
</g>
<!-- aws_route_table_association.private_rt_1a&#45;&gt;aws_route_table.private_rt -->
<g id="edge13" class="edge">
<title>aws_route_table_association.private_rt_1a&#45;&gt;aws_route_table.private_rt</title>
<path fill="none" stroke="black" d="M474.49,-746.9C437.66,-744.22 399.03,-741.41 364.67,-738.91"/>
<polygon fill="black" stroke="black" points="364.86,-735.41 354.63,-738.18 364.35,-742.39 364.86,-735.41"/>
</g>
<!-- aws_route_table_association.private_rt_1a&#45;&gt;aws_subnet.private_subnet_1a -->
<g id="edge14" class="edge">
<title>aws_route_table_association.private_rt_1a&#45;&gt;aws_subnet.private_subnet_1a</title>
<path fill="none" stroke="black" d="M474.27,-749.92C450.89,-745.69 427.43,-739.62 406,-731 387.45,-723.53 388.11,-712.48 370,-704 365.85,-702.05 361.54,-700.24 357.14,-698.56"/>
<polygon fill="black" stroke="black" points="357.98,-695.14 347.38,-695.06 355.62,-701.73 357.98,-695.14"/>
</g>
<!-- aws_route_table_association.private_rt_1c -->
<g id="node11" class="node">
<title>aws_route_table_association.private_rt_1c</title>
<polygon fill="none" stroke="black" points="781,-722 475,-722 475,-686 781,-686 781,-722"/>
<text text-anchor="middle" x="628" y="-700.3" font-family="sans-serif" font-size="14.00">aws_route_table_association.private_rt_1c</text>
</g>
<!-- aws_route_table_association.private_rt_1c&#45;&gt;aws_route_table.private_rt -->
<g id="edge15" class="edge">
<title>aws_route_table_association.private_rt_1c&#45;&gt;aws_route_table.private_rt</title>
<path fill="none" stroke="black" d="M474.76,-715.08C437.81,-717.77 399.04,-720.59 364.58,-723.1"/>
<polygon fill="black" stroke="black" points="364.22,-719.61 354.5,-723.83 364.73,-726.6 364.22,-719.61"/>
</g>
<!-- aws_route_table_association.private_rt_1c&#45;&gt;aws_subnet.private_subnet_1c -->
<g id="edge16" class="edge">
<title>aws_route_table_association.private_rt_1c&#45;&gt;aws_subnet.private_subnet_1c</title>
<path fill="none" stroke="black" d="M474.86,-696.03C451.28,-691.79 427.61,-685.69 406,-677 387.45,-669.53 388.11,-658.48 370,-650 365.85,-648.05 361.54,-646.24 357.14,-644.56"/>
<polygon fill="black" stroke="black" points="357.98,-641.14 347.38,-641.06 355.62,-647.73 357.98,-641.14"/>
</g>
<!-- aws_route_table_association.public_rt_1a -->
<g id="node12" class="node">
<title>aws_route_table_association.public_rt_1a</title>
<polygon fill="none" stroke="black" points="778,-884 478,-884 478,-848 778,-848 778,-884"/>
<text text-anchor="middle" x="628" y="-862.3" font-family="sans-serif" font-size="14.00">aws_route_table_association.public_rt_1a</text>
</g>
<!-- aws_route_table_association.public_rt_1a&#45;&gt;aws_route_table.public_rt -->
<g id="edge17" class="edge">
<title>aws_route_table_association.public_rt_1a&#45;&gt;aws_route_table.public_rt</title>
<path fill="none" stroke="black" d="M477.97,-855.15C438.84,-852.31 397.45,-849.29 361.15,-846.65"/>
<polygon fill="black" stroke="black" points="361.28,-843.15 351.05,-845.92 360.77,-850.13 361.28,-843.15"/>
</g>
<!-- aws_subnet.public_subnet_1a -->
<g id="node32" class="node">
<title>aws_subnet.public_subnet_1a</title>
<polygon fill="none" stroke="black" points="367,-911 143,-911 143,-875 367,-875 367,-911"/>
<text text-anchor="middle" x="255" y="-889.3" font-family="sans-serif" font-size="14.00">aws_subnet.public_subnet_1a</text>
</g>
<!-- aws_route_table_association.public_rt_1a&#45;&gt;aws_subnet.public_subnet_1a -->
<g id="edge18" class="edge">
<title>aws_route_table_association.public_rt_1a&#45;&gt;aws_subnet.public_subnet_1a</title>
<path fill="none" stroke="black" d="M477.97,-876.85C444.61,-879.27 409.61,-881.82 377.53,-884.16"/>
<polygon fill="black" stroke="black" points="376.94,-880.69 367.22,-884.91 377.44,-887.67 376.94,-880.69"/>
</g>
<!-- aws_route_table_association.public_rt_1c -->
<g id="node13" class="node">
<title>aws_route_table_association.public_rt_1c</title>
<polygon fill="none" stroke="black" points="777.5,-830 478.5,-830 478.5,-794 777.5,-794 777.5,-830"/>
<text text-anchor="middle" x="628" y="-808.3" font-family="sans-serif" font-size="14.00">aws_route_table_association.public_rt_1c</text>
</g>
<!-- aws_route_table_association.public_rt_1c&#45;&gt;aws_route_table.public_rt -->
<g id="edge19" class="edge">
<title>aws_route_table_association.public_rt_1c&#45;&gt;aws_route_table.public_rt</title>
<path fill="none" stroke="black" d="M478.24,-822.83C439.08,-825.68 397.65,-828.69 361.3,-831.34"/>
<polygon fill="black" stroke="black" points="360.91,-827.86 351.19,-832.07 361.42,-834.84 360.91,-827.86"/>
</g>
<!-- aws_subnet.public_subnet_1c -->
<g id="node33" class="node">
<title>aws_subnet.public_subnet_1c</title>
<polygon fill="none" stroke="black" points="366.5,-803 143.5,-803 143.5,-767 366.5,-767 366.5,-803"/>
<text text-anchor="middle" x="255" y="-781.3" font-family="sans-serif" font-size="14.00">aws_subnet.public_subnet_1c</text>
</g>
<!-- aws_route_table_association.public_rt_1c&#45;&gt;aws_subnet.public_subnet_1c -->
<g id="edge20" class="edge">
<title>aws_route_table_association.public_rt_1c&#45;&gt;aws_subnet.public_subnet_1c</title>
<path fill="none" stroke="black" d="M478.24,-801.17C444.59,-798.72 409.25,-796.15 376.91,-793.8"/>
<polygon fill="black" stroke="black" points="376.75,-790.28 366.52,-793.04 376.24,-797.26 376.75,-790.28"/>
</g>
<!-- aws_security_group.app_sg -->
<g id="node14" class="node">
<title>aws_security_group.app_sg</title>
<polygon fill="none" stroke="black" points="358.5,-452 151.5,-452 151.5,-416 358.5,-416 358.5,-452"/>
<text text-anchor="middle" x="255" y="-430.3" font-family="sans-serif" font-size="14.00">aws_security_group.app_sg</text>
</g>
<!-- aws_security_group.app_sg&#45;&gt;aws_vpc.vpc -->
<g id="edge21" class="edge">
<title>aws_security_group.app_sg&#45;&gt;aws_vpc.vpc</title>
<path fill="none" stroke="black" d="M194.09,-452.02C174.7,-460.34 154.48,-472.01 140,-488 83.1,-550.8 62.79,-653.44 56.06,-702.77"/>
<polygon fill="black" stroke="black" points="52.58,-702.37 54.79,-712.73 59.53,-703.26 52.58,-702.37"/>
</g>
<!-- aws_security_group.db_sg&#45;&gt;aws_vpc.vpc -->
<g id="edge22" class="edge">
<title>aws_security_group.db_sg&#45;&gt;aws_vpc.vpc</title>
<path fill="none" stroke="black" d="M155.36,-395.58C149.79,-398.76 144.6,-402.54 140,-407 97.07,-448.67 67.01,-632.14 56.81,-702.97"/>
<polygon fill="black" stroke="black" points="53.34,-702.56 55.4,-712.95 60.27,-703.54 53.34,-702.56"/>
</g>
<!-- aws_security_group.opmng_sg -->
<g id="node16" class="node">
<title>aws_security_group.opmng_sg</title>
<polygon fill="none" stroke="black" points="370,-1046 140,-1046 140,-1010 370,-1010 370,-1046"/>
<text text-anchor="middle" x="255" y="-1024.3" font-family="sans-serif" font-size="14.00">aws_security_group.opmng_sg</text>
</g>
<!-- aws_security_group.opmng_sg&#45;&gt;aws_vpc.vpc -->
<g id="edge23" class="edge">
<title>aws_security_group.opmng_sg&#45;&gt;aws_vpc.vpc</title>
<path fill="none" stroke="black" d="M194.09,-1009.98C174.7,-1001.66 154.48,-989.99 140,-974 83.1,-911.2 62.79,-808.56 56.06,-759.23"/>
<polygon fill="black" stroke="black" points="59.53,-758.74 54.79,-749.27 52.58,-759.63 59.53,-758.74"/>
</g>
<!-- aws_security_group.web_sg -->
<g id="node17" class="node">
<title>aws_security_group.web_sg</title>
<polygon fill="none" stroke="black" points="359.5,-290 150.5,-290 150.5,-254 359.5,-254 359.5,-290"/>
<text text-anchor="middle" x="255" y="-268.3" font-family="sans-serif" font-size="14.00">aws_security_group.web_sg</text>
</g>
<!-- aws_security_group.web_sg&#45;&gt;aws_vpc.vpc -->
<g id="edge24" class="edge">
<title>aws_security_group.web_sg&#45;&gt;aws_vpc.vpc</title>
<path fill="none" stroke="black" d="M215.54,-290.01C190.3,-303.79 158.63,-325.15 140,-353 64.45,-465.93 53.95,-635.66 52.89,-702.5"/>
<polygon fill="black" stroke="black" points="49.39,-702.65 52.79,-712.68 56.39,-702.71 49.39,-702.65"/>
</g>
<!-- aws_security_group_rule.app_in_tcp3000 -->
<g id="node18" class="node">
<title>aws_security_group_rule.app_in_tcp3000</title>
<polygon fill="none" stroke="black" points="779,-344 477,-344 477,-308 779,-308 779,-344"/>
<text text-anchor="middle" x="628" y="-322.3" font-family="sans-serif" font-size="14.00">aws_security_group_rule.app_in_tcp3000</text>
</g>
<!-- aws_security_group_rule.app_in_tcp3000&#45;&gt;aws_security_group.app_sg -->
<g id="edge25" class="edge">
<title>aws_security_group_rule.app_in_tcp3000&#45;&gt;aws_security_group.app_sg</title>
<path fill="none" stroke="black" d="M476.94,-326.71C451.98,-331.66 427.31,-339.87 406,-353 381.44,-368.13 393.68,-390.53 370,-407 367.88,-408.47 365.69,-409.87 363.45,-411.19"/>
<polygon fill="black" stroke="black" points="361.72,-408.14 354.52,-415.9 365,-414.32 361.72,-408.14"/>
</g>
<!-- aws_security_group_rule.app_in_tcp3000&#45;&gt;aws_security_group.web_sg -->
<g id="edge26" class="edge">
<title>aws_security_group_rule.app_in_tcp3000&#45;&gt;aws_security_group.web_sg</title>
<path fill="none" stroke="black" d="M476.76,-308.8C453.05,-305.76 428.84,-302.45 406,-299 391.65,-296.83 376.57,-294.36 361.72,-291.8"/>
<polygon fill="black" stroke="black" points="361.94,-288.29 351.49,-290.02 360.74,-295.18 361.94,-288.29"/>
</g>
<!-- aws_security_group_rule.app_out_http -->
<g id="node19" class="node">
<title>aws_security_group_rule.app_out_http</title>
<polygon fill="none" stroke="black" points="769,-614 487,-614 487,-578 769,-578 769,-614"/>
<text text-anchor="middle" x="628" y="-592.3" font-family="sans-serif" font-size="14.00">aws_security_group_rule.app_out_http</text>
</g>
<!-- aws_security_group_rule.app_out_http&#45;&gt;data.aws_prefix_list.s3_pl -->
<g id="edge27" class="edge">
<title>aws_security_group_rule.app_out_http&#45;&gt;data.aws_prefix_list.s3_pl</title>
<path fill="none" stroke="black" d="M486.75,-583.67C459.76,-579.94 431.85,-575.15 406,-569 372.49,-561.03 336.12,-548.05 307.58,-536.81"/>
<polygon fill="black" stroke="black" points="308.81,-533.53 298.22,-533.08 306.21,-540.03 308.81,-533.53"/>
</g>
<!-- aws_security_group_rule.app_out_http&#45;&gt;aws_security_group.app_sg -->
<g id="edge28" class="edge">
<title>aws_security_group_rule.app_out_http&#45;&gt;aws_security_group.app_sg</title>
<path fill="none" stroke="black" d="M486.74,-600.46C457.92,-595.7 429.3,-586.24 406,-569 374.33,-545.57 397.52,-516.19 370,-488 356.96,-474.65 339.97,-464.2 323.11,-456.2"/>
<polygon fill="black" stroke="black" points="324.33,-452.91 313.78,-452.01 321.46,-459.3 324.33,-452.91"/>
</g>
<!-- aws_security_group_rule.app_out_https -->
<g id="node20" class="node">
<title>aws_security_group_rule.app_out_https</title>
<polygon fill="none" stroke="black" points="773,-506 483,-506 483,-470 773,-470 773,-506"/>
<text text-anchor="middle" x="628" y="-484.3" font-family="sans-serif" font-size="14.00">aws_security_group_rule.app_out_https</text>
</g>
<!-- aws_security_group_rule.app_out_https&#45;&gt;data.aws_prefix_list.s3_pl -->
<g id="edge29" class="edge">
<title>aws_security_group_rule.app_out_https&#45;&gt;data.aws_prefix_list.s3_pl</title>
<path fill="none" stroke="black" d="M482.77,-498.5C442.57,-501.42 399.66,-504.55 362.1,-507.28"/>
<polygon fill="black" stroke="black" points="361.37,-503.82 351.65,-508.04 361.88,-510.8 361.37,-503.82"/>
</g>
<!-- aws_security_group_rule.app_out_https&#45;&gt;aws_security_group.app_sg -->
<g id="edge30" class="edge">
<title>aws_security_group_rule.app_out_https&#45;&gt;aws_security_group.app_sg</title>
<path fill="none" stroke="black" d="M482.99,-471.6C457.32,-468.34 430.84,-464.75 406,-461 391.65,-458.83 376.57,-456.36 361.72,-453.8"/>
<polygon fill="black" stroke="black" points="361.94,-450.29 351.49,-452.02 360.74,-457.18 361.94,-450.29"/>
</g>
<!-- aws_security_group_rule.app_out_tcp3306 -->
<g id="node21" class="node">
<title>aws_security_group_rule.app_out_tcp3306</title>
<polygon fill="none" stroke="black" points="783.5,-452 472.5,-452 472.5,-416 783.5,-416 783.5,-452"/>
<text text-anchor="middle" x="628" y="-430.3" font-family="sans-serif" font-size="14.00">aws_security_group_rule.app_out_tcp3306</text>
</g>
<!-- aws_security_group_rule.app_out_tcp3306&#45;&gt;aws_security_group.app_sg -->
<g id="edge31" class="edge">
<title>aws_security_group_rule.app_out_tcp3306&#45;&gt;aws_security_group.app_sg</title>
<path fill="none" stroke="black" d="M472.35,-434C437.57,-434 401.31,-434 368.63,-434"/>
<polygon fill="black" stroke="black" points="368.61,-430.5 358.61,-434 368.61,-437.5 368.61,-430.5"/>
</g>
<!-- aws_security_group_rule.app_out_tcp3306&#45;&gt;aws_security_group.db_sg -->
<g id="edge32" class="edge">
<title>aws_security_group_rule.app_out_tcp3306&#45;&gt;aws_security_group.db_sg</title>
<path fill="none" stroke="black" d="M472.29,-416.23C450.02,-413.34 427.4,-410.23 406,-407 391.65,-404.83 376.57,-402.36 361.72,-399.8"/>
<polygon fill="black" stroke="black" points="361.94,-396.29 351.49,-398.02 360.74,-403.18 361.94,-396.29"/>
</g>
<!-- aws_security_group_rule.db_in_tcp3306 -->
<g id="node22" class="node">
<title>aws_security_group_rule.db_in_tcp3306</title>
<polygon fill="none" stroke="black" points="774.5,-398 481.5,-398 481.5,-362 774.5,-362 774.5,-398"/>
<text text-anchor="middle" x="628" y="-376.3" font-family="sans-serif" font-size="14.00">aws_security_group_rule.db_in_tcp3306</text>
</g>
<!-- aws_security_group_rule.db_in_tcp3306&#45;&gt;aws_security_group.app_sg -->
<g id="edge33" class="edge">
<title>aws_security_group_rule.db_in_tcp3306&#45;&gt;aws_security_group.app_sg</title>
<path fill="none" stroke="black" d="M481.22,-396.63C456.1,-399.83 430.27,-403.34 406,-407 391.65,-409.17 376.57,-411.64 361.72,-414.2"/>
<polygon fill="black" stroke="black" points="360.74,-410.82 351.49,-415.98 361.94,-417.71 360.74,-410.82"/>
</g>
<!-- aws_security_group_rule.db_in_tcp3306&#45;&gt;aws_security_group.db_sg -->
<g id="edge34" class="edge">
<title>aws_security_group_rule.db_in_tcp3306&#45;&gt;aws_security_group.db_sg</title>
<path fill="none" stroke="black" d="M481.44,-380C442.56,-380 401.23,-380 364.72,-380"/>
<polygon fill="black" stroke="black" points="364.55,-376.5 354.55,-380 364.55,-383.5 364.55,-376.5"/>
</g>
<!-- aws_security_group_rule.opmng_in_ssh -->
<g id="node23" class="node">
<title>aws_security_group_rule.opmng_in_ssh</title>
<polygon fill="none" stroke="black" points="773,-1046 483,-1046 483,-1010 773,-1010 773,-1046"/>
<text text-anchor="middle" x="628" y="-1024.3" font-family="sans-serif" font-size="14.00">aws_security_group_rule.opmng_in_ssh</text>
</g>
<!-- aws_security_group_rule.opmng_in_ssh&#45;&gt;aws_security_group.opmng_sg -->
<g id="edge35" class="edge">
<title>aws_security_group_rule.opmng_in_ssh&#45;&gt;aws_security_group.opmng_sg</title>
<path fill="none" stroke="black" d="M482.77,-1028C448.91,-1028 413.13,-1028 380.24,-1028"/>
<polygon fill="black" stroke="black" points="380.13,-1024.5 370.13,-1028 380.13,-1031.5 380.13,-1024.5"/>
</g>
<!-- aws_security_group_rule.opmng_in_tcp3000 -->
<g id="node24" class="node">
<title>aws_security_group_rule.opmng_in_tcp3000</title>
<polygon fill="none" stroke="black" points="790,-992 466,-992 466,-956 790,-956 790,-992"/>
<text text-anchor="middle" x="628" y="-970.3" font-family="sans-serif" font-size="14.00">aws_security_group_rule.opmng_in_tcp3000</text>
</g>
<!-- aws_security_group_rule.opmng_in_tcp3000&#45;&gt;aws_security_group.opmng_sg -->
<g id="edge36" class="edge">
<title>aws_security_group_rule.opmng_in_tcp3000&#45;&gt;aws_security_group.opmng_sg</title>
<path fill="none" stroke="black" d="M470.5,-992.01C448.81,-994.83 426.83,-997.86 406,-1001 391.65,-1003.17 376.57,-1005.64 361.72,-1008.2"/>
<polygon fill="black" stroke="black" points="360.74,-1004.82 351.49,-1009.98 361.94,-1011.71 360.74,-1004.82"/>
</g>
<!-- aws_security_group_rule.opmng_out_http -->
<g id="node25" class="node">
<title>aws_security_group_rule.opmng_out_http</title>
<polygon fill="none" stroke="black" points="780.5,-1154 475.5,-1154 475.5,-1118 780.5,-1118 780.5,-1154"/>
<text text-anchor="middle" x="628" y="-1132.3" font-family="sans-serif" font-size="14.00">aws_security_group_rule.opmng_out_http</text>
</g>
<!-- aws_security_group_rule.opmng_out_http&#45;&gt;aws_security_group.opmng_sg -->
<g id="edge37" class="edge">
<title>aws_security_group_rule.opmng_out_http&#45;&gt;aws_security_group.opmng_sg</title>
<path fill="none" stroke="black" d="M475.29,-1125.08C451.78,-1121.22 428.01,-1116.01 406,-1109 364.09,-1095.65 320.28,-1070.5 290.91,-1051.75"/>
<polygon fill="black" stroke="black" points="292.57,-1048.66 282.27,-1046.16 288.76,-1054.53 292.57,-1048.66"/>
</g>
<!-- aws_security_group_rule.opmng_out_https -->
<g id="node26" class="node">
<title>aws_security_group_rule.opmng_out_https</title>
<polygon fill="none" stroke="black" points="784,-1100 472,-1100 472,-1064 784,-1064 784,-1100"/>
<text text-anchor="middle" x="628" y="-1078.3" font-family="sans-serif" font-size="14.00">aws_security_group_rule.opmng_out_https</text>
</g>
<!-- aws_security_group_rule.opmng_out_https&#45;&gt;aws_security_group.opmng_sg -->
<g id="edge38" class="edge">
<title>aws_security_group_rule.opmng_out_https&#45;&gt;aws_security_group.opmng_sg</title>
<path fill="none" stroke="black" d="M471.99,-1064.19C449.82,-1061.31 427.31,-1058.22 406,-1055 391.65,-1052.83 376.57,-1050.36 361.72,-1047.8"/>
<polygon fill="black" stroke="black" points="361.94,-1044.29 351.49,-1046.02 360.74,-1051.18 361.94,-1044.29"/>
</g>
<!-- aws_security_group_rule.web_in_http -->
<g id="node27" class="node">
<title>aws_security_group_rule.web_in_http</title>
<polygon fill="none" stroke="black" points="765.5,-144 490.5,-144 490.5,-108 765.5,-108 765.5,-144"/>
<text text-anchor="middle" x="628" y="-122.3" font-family="sans-serif" font-size="14.00">aws_security_group_rule.web_in_http</text>
</g>
<!-- aws_security_group_rule.web_in_http&#45;&gt;aws_security_group.web_sg -->
<g id="edge39" class="edge">
<title>aws_security_group_rule.web_in_http&#45;&gt;aws_security_group.web_sg</title>
<path fill="none" stroke="black" d="M490.44,-130.84C461.79,-135.1 432.3,-142 406,-153 354.98,-174.34 306.93,-218.2 279.53,-246.29"/>
<polygon fill="black" stroke="black" points="276.76,-244.13 272.36,-253.77 281.81,-248.97 276.76,-244.13"/>
</g>
<!-- aws_security_group_rule.web_in_https -->
<g id="node28" class="node">
<title>aws_security_group_rule.web_in_https</title>
<polygon fill="none" stroke="black" points="769,-90 487,-90 487,-54 769,-54 769,-90"/>
<text text-anchor="middle" x="628" y="-68.3" font-family="sans-serif" font-size="14.00">aws_security_group_rule.web_in_https</text>
</g>
<!-- aws_security_group_rule.web_in_https&#45;&gt;aws_security_group.web_sg -->
<g id="edge40" class="edge">
<title>aws_security_group_rule.web_in_https&#45;&gt;aws_security_group.web_sg</title>
<path fill="none" stroke="black" d="M486.98,-73.49C458.99,-78.02 430.65,-85.88 406,-99 342.32,-132.89 293.55,-205.65 270.55,-245.15"/>
<polygon fill="black" stroke="black" points="267.43,-243.56 265.52,-253.98 273.52,-247.02 267.43,-243.56"/>
</g>
<!-- aws_security_group_rule.web_out_tcp3000 -->
<g id="node29" class="node">
<title>aws_security_group_rule.web_out_tcp3000</title>
<polygon fill="none" stroke="black" points="785,-290 471,-290 471,-254 785,-254 785,-290"/>
<text text-anchor="middle" x="628" y="-268.3" font-family="sans-serif" font-size="14.00">aws_security_group_rule.web_out_tcp3000</text>
</g>
<!-- aws_security_group_rule.web_out_tcp3000&#45;&gt;aws_security_group.app_sg -->
<g id="edge41" class="edge">
<title>aws_security_group_rule.web_out_tcp3000&#45;&gt;aws_security_group.app_sg</title>
<path fill="none" stroke="black" d="M470.86,-268.82C447.27,-274.35 424.63,-283.77 406,-299 366.83,-331.02 407.34,-372.85 370,-407 368.85,-408.05 367.67,-409.06 366.46,-410.04"/>
<polygon fill="black" stroke="black" points="364.22,-407.33 358.05,-415.94 368.24,-413.06 364.22,-407.33"/>
</g>
<!-- aws_security_group_rule.web_out_tcp3000&#45;&gt;aws_security_group.web_sg -->
<g id="edge42" class="edge">
<title>aws_security_group_rule.web_out_tcp3000&#45;&gt;aws_security_group.web_sg</title>
<path fill="none" stroke="black" d="M470.74,-272C436.88,-272 401.68,-272 369.82,-272"/>
<polygon fill="black" stroke="black" points="369.6,-268.5 359.6,-272 369.6,-275.5 369.6,-268.5"/>
</g>
<!-- aws_subnet.private_subnet_1a&#45;&gt;aws_vpc.vpc -->
<g id="edge43" class="edge">
<title>aws_subnet.private_subnet_1a&#45;&gt;aws_vpc.vpc</title>
<path fill="none" stroke="black" d="M174.71,-695.04C163.04,-697.91 151.18,-700.94 140,-704 131.58,-706.3 122.74,-708.87 114.06,-711.47"/>
<polygon fill="black" stroke="black" points="112.9,-708.17 104.35,-714.42 114.94,-714.86 112.9,-708.17"/>
</g>
<!-- aws_subnet.private_subnet_1c&#45;&gt;aws_vpc.vpc -->
<g id="edge44" class="edge">
<title>aws_subnet.private_subnet_1c&#45;&gt;aws_vpc.vpc</title>
<path fill="none" stroke="black" d="M160.14,-641.01C153.16,-643.61 146.37,-646.59 140,-650 114.28,-663.76 90.44,-687.02 74.24,-705.09"/>
<polygon fill="black" stroke="black" points="71.3,-703.14 67.36,-712.98 76.57,-707.75 71.3,-703.14"/>
</g>
<!-- aws_subnet.public_subnet_1a&#45;&gt;aws_vpc.vpc -->
<g id="edge45" class="edge">
<title>aws_subnet.public_subnet_1a&#45;&gt;aws_vpc.vpc</title>
<path fill="none" stroke="black" d="M155.42,-874.99C150,-872.39 144.82,-869.41 140,-866 101.79,-838.98 76.29,-789.36 63.25,-758.39"/>
<polygon fill="black" stroke="black" points="66.46,-756.99 59.46,-749.05 59.98,-759.63 66.46,-756.99"/>
</g>
<!-- aws_subnet.public_subnet_1c&#45;&gt;aws_vpc.vpc -->
<g id="edge46" class="edge">
<title>aws_subnet.public_subnet_1c&#45;&gt;aws_vpc.vpc</title>
<path fill="none" stroke="black" d="M174.71,-766.96C163.04,-764.09 151.18,-761.06 140,-758 131.58,-755.7 122.74,-753.13 114.06,-750.53"/>
<polygon fill="black" stroke="black" points="114.94,-747.14 104.35,-747.58 112.9,-753.83 114.94,-747.14"/>
</g>
</g>
</svg>
