<?xml version="1.0" encoding="UTF-8" standalone="no"?>
<!DOCTYPE svg PUBLIC "-//W3C//DTD SVG 1.1//EN"
 "http://www.w3.org/Graphics/SVG/1.1/DTD/svg11.dtd">
<!-- Generated by graphviz version 2.43.0 (0)
 -->
<!-- Title: G Pages: 1 -->
<svg width="684pt" height="314pt"
 viewBox="0.00 0.00 684.00 314.00" xmlns="http://www.w3.org/2000/svg" xmlns:xlink="http://www.w3.org/1999/xlink">
<g id="graph0" class="graph" transform="scale(1 1) rotate(0) translate(4 310)">
<title>G</title>
<polygon fill="white" stroke="transparent" points="-4,4 -4,-310 680,-310 680,4 -4,4"/>
<!-- aws_route_table.private_rt -->
<g id="node1" class="node">
<title>aws_route_table.private_rt</title>
<polygon fill="none" stroke="black" points="335,-90 145,-90 145,-54 335,-54 335,-90"/>
<text text-anchor="middle" x="240" y="-68.3" font-family="sans-serif" font-size="14.00">aws_route_table.private_rt</text>
</g>
<!-- aws_vpc.vpc -->
<g id="node11" class="node">
<title>aws_vpc.vpc</title>
<polygon fill="none" stroke="black" points="95,-171 0,-171 0,-135 95,-135 95,-171"/>
<text text-anchor="middle" x="47.5" y="-149.3" font-family="sans-serif" font-size="14.00">aws_vpc.vpc</text>
</g>
<!-- aws_route_table.private_rt&#45;&gt;aws_vpc.vpc -->
<g id="edge1" class="edge">
<title>aws_route_table.private_rt&#45;&gt;aws_vpc.vpc</title>
<path fill="none" stroke="black" d="M154.93,-90.05C146.72,-92.7 138.61,-95.67 131,-99 113.04,-106.86 94.64,-118.49 79.78,-128.95"/>
<polygon fill="black" stroke="black" points="77.54,-126.25 71.48,-134.93 81.64,-131.93 77.54,-126.25"/>
</g>
<!-- aws_route_table.public_rt -->
<g id="node2" class="node">
<title>aws_route_table.public_rt</title>
<polygon fill="none" stroke="black" points="332,-252 148,-252 148,-216 332,-216 332,-252"/>
<text text-anchor="middle" x="240" y="-230.3" font-family="sans-serif" font-size="14.00">aws_route_table.public_rt</text>
</g>
<!-- aws_route_table.public_rt&#45;&gt;aws_vpc.vpc -->
<g id="edge2" class="edge">
<title>aws_route_table.public_rt&#45;&gt;aws_vpc.vpc</title>
<path fill="none" stroke="black" d="M154.93,-215.95C146.72,-213.3 138.61,-210.33 131,-207 113.04,-199.14 94.64,-187.51 79.78,-177.05"/>
<polygon fill="black" stroke="black" points="81.64,-174.07 71.48,-171.07 77.54,-179.75 81.64,-174.07"/>
</g>
<!-- aws_route_table_association.private_rt_1a -->
<g id="node3" class="node">
<title>aws_route_table_association.private_rt_1a</title>
<polygon fill="none" stroke="black" points="676,-144 385,-144 385,-108 676,-108 676,-144"/>
<text text-anchor="middle" x="530.5" y="-122.3" font-family="sans-serif" font-size="14.00">aws_route_table_association.private_rt_1a</text>
</g>
<!-- aws_route_table_association.private_rt_1a&#45;&gt;aws_route_table.private_rt -->
<g id="edge3" class="edge">
<title>aws_route_table_association.private_rt_1a&#45;&gt;aws_route_table.private_rt</title>
<path fill="none" stroke="black" d="M433.03,-107.94C404.9,-102.68 374.03,-96.9 345.43,-91.55"/>
<polygon fill="black" stroke="black" points="345.89,-88.07 335.42,-89.67 344.6,-94.95 345.89,-88.07"/>
</g>
<!-- aws_subnet.private_subnet_1a -->
<g id="node7" class="node">
<title>aws_subnet.private_subnet_1a</title>
<polygon fill="none" stroke="black" points="349,-144 131,-144 131,-108 349,-108 349,-144"/>
<text text-anchor="middle" x="240" y="-122.3" font-family="sans-serif" font-size="14.00">aws_subnet.private_subnet_1a</text>
</g>
<!-- aws_route_table_association.private_rt_1a&#45;&gt;aws_subnet.private_subnet_1a -->
<g id="edge4" class="edge">
<title>aws_route_table_association.private_rt_1a&#45;&gt;aws_subnet.private_subnet_1a</title>
<path fill="none" stroke="black" d="M384.83,-126C376.33,-126 367.84,-126 359.46,-126"/>
<polygon fill="black" stroke="black" points="359.32,-122.5 349.32,-126 359.32,-129.5 359.32,-122.5"/>
</g>
<!-- aws_route_table_association.private_rt_1c -->
<g id="node4" class="node">
<title>aws_route_table_association.private_rt_1c</title>
<polygon fill="none" stroke="black" points="675.5,-63 385.5,-63 385.5,-27 675.5,-27 675.5,-63"/>
<text text-anchor="middle" x="530.5" y="-41.3" font-family="sans-serif" font-size="14.00">aws_route_table_association.private_rt_1c</text>
</g>
<!-- aws_route_table_association.private_rt_1c&#45;&gt;aws_route_table.private_rt -->
<g id="edge5" class="edge">
<title>aws_route_table_association.private_rt_1c&#45;&gt;aws_route_table.private_rt</title>
<path fill="none" stroke="black" d="M385.25,-58.5C371.8,-59.76 358.35,-61.02 345.37,-62.23"/>
<polygon fill="black" stroke="black" points="344.7,-58.78 335.07,-63.2 345.35,-65.75 344.7,-58.78"/>
</g>
<!-- aws_subnet.private_subnet_1c -->
<g id="node8" class="node">
<title>aws_subnet.private_subnet_1c</title>
<polygon fill="none" stroke="black" points="349,-36 131,-36 131,0 349,0 349,-36"/>
<text text-anchor="middle" x="240" y="-14.3" font-family="sans-serif" font-size="14.00">aws_subnet.private_subnet_1c</text>
</g>
<!-- aws_route_table_association.private_rt_1c&#45;&gt;aws_subnet.private_subnet_1c -->
<g id="edge6" class="edge">
<title>aws_route_table_association.private_rt_1c&#45;&gt;aws_subnet.private_subnet_1c</title>
<path fill="none" stroke="black" d="M385.25,-31.5C376.54,-30.69 367.84,-29.87 359.25,-29.07"/>
<polygon fill="black" stroke="black" points="359.53,-25.58 349.25,-28.13 358.88,-32.55 359.53,-25.58"/>
</g>
<!-- aws_route_table_association.public_rt_1a -->
<g id="node5" class="node">
<title>aws_route_table_association.public_rt_1a</title>
<polygon fill="none" stroke="black" points="673,-279 388,-279 388,-243 673,-243 673,-279"/>
<text text-anchor="middle" x="530.5" y="-257.3" font-family="sans-serif" font-size="14.00">aws_route_table_association.public_rt_1a</text>
</g>
<!-- aws_route_table_association.public_rt_1a&#45;&gt;aws_route_table.public_rt -->
<g id="edge7" class="edge">
<title>aws_route_table_association.public_rt_1a&#45;&gt;aws_route_table.public_rt</title>
<path fill="none" stroke="black" d="M387.79,-247.74C372.39,-246.3 356.95,-244.85 342.18,-243.47"/>
<polygon fill="black" stroke="black" points="342.34,-239.97 332.06,-242.52 341.69,-246.94 342.34,-239.97"/>
</g>
<!-- aws_subnet.public_subnet_1a -->
<g id="node9" class="node">
<title>aws_subnet.public_subnet_1a</title>
<polygon fill="none" stroke="black" points="346,-306 134,-306 134,-270 346,-270 346,-306"/>
<text text-anchor="middle" x="240" y="-284.3" font-family="sans-serif" font-size="14.00">aws_subnet.public_subnet_1a</text>
</g>
<!-- aws_route_table_association.public_rt_1a&#45;&gt;aws_subnet.public_subnet_1a -->
<g id="edge8" class="edge">
<title>aws_route_table_association.public_rt_1a&#45;&gt;aws_subnet.public_subnet_1a</title>
<path fill="none" stroke="black" d="M387.79,-274.26C377.31,-275.24 366.82,-276.22 356.53,-277.19"/>
<polygon fill="black" stroke="black" points="355.95,-273.73 346.32,-278.14 356.6,-280.7 355.95,-273.73"/>
</g>
<!-- aws_route_table_association.public_rt_1c -->
<g id="node6" class="node">
<title>aws_route_table_association.public_rt_1c</title>
<polygon fill="none" stroke="black" points="672.5,-198 388.5,-198 388.5,-162 672.5,-162 672.5,-198"/>
<text text-anchor="middle" x="530.5" y="-176.3" font-family="sans-serif" font-size="14.00">aws_route_table_association.public_rt_1c</text>
</g>
<!-- aws_route_table_association.public_rt_1c&#45;&gt;aws_route_table.public_rt -->
<g id="edge9" class="edge">
<title>aws_route_table_association.public_rt_1c&#45;&gt;aws_route_table.public_rt</title>
<path fill="none" stroke="black" d="M433.03,-198.06C403.75,-203.54 371.5,-209.57 341.92,-215.11"/>
<polygon fill="black" stroke="black" points="341.19,-211.69 332.01,-216.97 342.48,-218.57 341.19,-211.69"/>
</g>
<!-- aws_subnet.public_subnet_1c -->
<g id="node10" class="node">
<title>aws_subnet.public_subnet_1c</title>
<polygon fill="none" stroke="black" points="346,-198 134,-198 134,-162 346,-162 346,-198"/>
<text text-anchor="middle" x="240" y="-176.3" font-family="sans-serif" font-size="14.00">aws_subnet.public_subnet_1c</text>
</g>
<!-- aws_route_table_association.public_rt_1c&#45;&gt;aws_subnet.public_subnet_1c -->
<g id="edge10" class="edge">
<title>aws_route_table_association.public_rt_1c&#45;&gt;aws_subnet.public_subnet_1c</title>
<path fill="none" stroke="black" d="M388.21,-180C377.5,-180 366.76,-180 356.25,-180"/>
<polygon fill="black" stroke="black" points="356.24,-176.5 346.24,-180 356.24,-183.5 356.24,-176.5"/>
</g>
<!-- aws_subnet.private_subnet_1a&#45;&gt;aws_vpc.vpc -->
<g id="edge11" class="edge">
<title>aws_subnet.private_subnet_1a&#45;&gt;aws_vpc.vpc</title>
<path fill="none" stroke="black" d="M130.95,-141.31C122.21,-142.55 113.62,-143.77 105.47,-144.93"/>
<polygon fill="black" stroke="black" points="104.83,-141.48 95.42,-146.35 105.81,-148.41 104.83,-141.48"/>
</g>
<!-- aws_subnet.private_subnet_1c&#45;&gt;aws_vpc.vpc -->
<g id="edge12" class="edge">
<title>aws_subnet.private_subnet_1c&#45;&gt;aws_vpc.vpc</title>
<path fill="none" stroke="black" d="M147.51,-36.03C141.73,-38.63 136.17,-41.6 131,-45 100.23,-65.23 76.32,-100.93 62.34,-125.72"/>
<polygon fill="black" stroke="black" points="59.19,-124.18 57.47,-134.64 65.33,-127.54 59.19,-124.18"/>
</g>
<!-- aws_subnet.public_subnet_1a&#45;&gt;aws_vpc.vpc -->
<g id="edge13" class="edge">
<title>aws_subnet.public_subnet_1a&#45;&gt;aws_vpc.vpc</title>
<path fill="none" stroke="black" d="M147.51,-269.97C141.73,-267.37 136.17,-264.4 131,-261 100.23,-240.77 76.32,-205.07 62.34,-180.28"/>
<polygon fill="black" stroke="black" points="65.33,-178.46 57.47,-171.36 59.19,-181.82 65.33,-178.46"/>
</g>
<!-- aws_subnet.public_subnet_1c&#45;&gt;aws_vpc.vpc -->
<g id="edge14" class="edge">
<title>aws_subnet.public_subnet_1c&#45;&gt;aws_vpc.vpc</title>
<path fill="none" stroke="black" d="M134,-165.12C124.1,-163.71 114.34,-162.33 105.15,-161.03"/>
<polygon fill="black" stroke="black" points="105.45,-157.54 95.05,-159.6 104.46,-164.47 105.45,-157.54"/>
</g>
</g>
</svg>
