<?xml version="1.0" encoding="UTF-8" standalone="no"?>
<!DOCTYPE svg PUBLIC "-//W3C//DTD SVG 1.1//EN"
 "http://www.w3.org/Graphics/SVG/1.1/DTD/svg11.dtd">
<!-- Generated by graphviz version 2.43.0 (0)
 -->
<!-- Title: G Pages: 1 -->
<svg width="1226pt" height="1108pt"
 viewBox="0.00 0.00 1226.00 1108.00" xmlns="http://www.w3.org/2000/svg" xmlns:xlink="http://www.w3.org/1999/xlink">
<g id="graph0" class="graph" transform="scale(1 1) rotate(0) translate(4 1104)">
<title>G</title>
<polygon fill="white" stroke="transparent" points="-4,4 -4,-1104 1222,-1104 1222,4 -4,4"/>
<!-- data.aws_prefix_list.s3_pl -->
<g id="node1" class="node">
<title>data.aws_prefix_list.s3_pl</title>
<polygon fill="none" stroke="black" points="330,-468 150,-468 150,-432 330,-432 330,-468"/>
<text text-anchor="middle" x="240" y="-446.3" font-family="sans-serif" font-size="14.00">data.aws_prefix_list.s3_pl</text>
</g>
<!-- aws_db_instance.mysql_standalone -->
<g id="node2" class="node">
<title>aws_db_instance.mysql_standalone</title>
<polygon fill="none" stroke="black" points="1132,-576 883,-576 883,-540 1132,-540 1132,-576"/>
<text text-anchor="middle" x="1007.5" y="-554.3" font-family="sans-serif" font-size="14.00">aws_db_instance.mysql_standalone</text>
</g>
<!-- aws_db_option_group.mysql_standalone_optiongroup -->
<g id="node3" class="node">
<title>aws_db_option_group.mysql_standalone_optiongroup</title>
<polygon fill="none" stroke="black" points="757,-522 389,-522 389,-486 757,-486 757,-522"/>
<text text-anchor="middle" x="573" y="-500.3" font-family="sans-serif" font-size="14.00">aws_db_option_group.mysql_standalone_optiongroup</text>
</g>
<!-- aws_db_instance.mysql_standalone&#45;&gt;aws_db_option_group.mysql_standalone_optiongroup -->
<g id="edge1" class="edge">
<title>aws_db_instance.mysql_standalone&#45;&gt;aws_db_option_group.mysql_standalone_optiongroup</title>
<path fill="none" stroke="black" d="M882.85,-542.56C834.76,-536.56 779.13,-529.61 728.44,-523.28"/>
<polygon fill="black" stroke="black" points="728.73,-519.79 718.37,-522.03 727.86,-526.74 728.73,-519.79"/>
</g>
<!-- aws_db_subnet_group.mysql_standalone_subnetgroup -->
<g id="node5" class="node">
<title>aws_db_subnet_group.mysql_standalone_subnetgroup</title>
<polygon fill="none" stroke="black" points="761,-36 385,-36 385,0 761,0 761,-36"/>
<text text-anchor="middle" x="573" y="-14.3" font-family="sans-serif" font-size="14.00">aws_db_subnet_group.mysql_standalone_subnetgroup</text>
</g>
<!-- aws_db_instance.mysql_standalone&#45;&gt;aws_db_subnet_group.mysql_standalone_subnetgroup -->
<g id="edge2" class="edge">
<title>aws_db_instance.mysql_standalone&#45;&gt;aws_db_subnet_group.mysql_standalone_subnetgroup</title>
<path fill="none" stroke="black" d="M1003.97,-539.87C992.41,-464.62 937.41,-174.68 761,-45 759.32,-43.76 757.6,-42.57 755.85,-41.42"/>
<polygon fill="black" stroke="black" points="757.26,-38.18 746.89,-36.02 753.65,-44.18 757.26,-38.18"/>
</g>
<!-- aws_security_group.db_sg -->
<g id="node15" class="node">
<title>aws_security_group.db_sg</title>
<polygon fill="none" stroke="black" points="334,-668 146,-668 146,-632 334,-632 334,-668"/>
<text text-anchor="middle" x="240" y="-646.3" font-family="sans-serif" font-size="14.00">aws_security_group.db_sg</text>
</g>
<!-- aws_db_instance.mysql_standalone&#45;&gt;aws_security_group.db_sg -->
<g id="edge3" class="edge">
<title>aws_db_instance.mysql_standalone&#45;&gt;aws_security_group.db_sg</title>
<path fill="none" stroke="black" d="M882.9,-551.57C852.07,-555.62 821,-565.25 797,-585 757.93,-617.15 802.05,-663.42 761,-693 693.22,-741.86 466.74,-710.35 385,-693 367.87,-689.37 365.56,-682.7 349,-677 342.74,-674.84 336.22,-672.78 329.62,-670.83"/>
<polygon fill="black" stroke="black" points="330.5,-667.44 319.92,-668.04 328.56,-674.16 330.5,-667.44"/>
</g>
<!-- random_string.db_password -->
<g id="node35" class="node">
<title>random_string.db_password</title>
<polygon fill="none" stroke="black" points="673.5,-630 472.5,-630 472.5,-594 673.5,-594 673.5,-630"/>
<text text-anchor="middle" x="573" y="-608.3" font-family="sans-serif" font-size="14.00">random_string.db_password</text>
</g>
<!-- aws_db_instance.mysql_standalone&#45;&gt;random_string.db_password -->
<g id="edge4" class="edge">
<title>aws_db_instance.mysql_standalone&#45;&gt;random_string.db_password</title>
<path fill="none" stroke="black" d="M882.85,-573.44C820.07,-581.28 744.44,-590.72 683.74,-598.3"/>
<polygon fill="black" stroke="black" points="683.23,-594.83 673.74,-599.55 684.1,-601.78 683.23,-594.83"/>
</g>
<!-- aws_db_parameter_group.mysql_standalone_parametergroup -->
<g id="node4" class="node">
<title>aws_db_parameter_group.mysql_standalone_parametergroup</title>
<polygon fill="none" stroke="black" points="1218,-630 797,-630 797,-594 1218,-594 1218,-630"/>
<text text-anchor="middle" x="1007.5" y="-608.3" font-family="sans-serif" font-size="14.00">aws_db_parameter_group.mysql_standalone_parametergroup</text>
</g>
<!-- aws_subnet.private_subnet_1a -->
<g id="node30" class="node">
<title>aws_subnet.private_subnet_1a</title>
<polygon fill="none" stroke="black" points="349,-144 131,-144 131,-108 349,-108 349,-144"/>
<text text-anchor="middle" x="240" y="-122.3" font-family="sans-serif" font-size="14.00">aws_subnet.private_subnet_1a</text>
</g>
<!-- aws_db_subnet_group.mysql_standalone_subnetgroup&#45;&gt;aws_subnet.private_subnet_1a -->
<g id="edge5" class="edge">
<title>aws_db_subnet_group.mysql_standalone_subnetgroup&#45;&gt;aws_subnet.private_subnet_1a</title>
<path fill="none" stroke="black" d="M401.49,-36.02C395.79,-38.69 390.27,-41.67 385,-45 360.61,-60.4 372.58,-82.38 349,-99 346.89,-100.49 344.71,-101.89 342.47,-103.22"/>
<polygon fill="black" stroke="black" points="340.73,-100.17 333.55,-107.96 344.02,-106.35 340.73,-100.17"/>
</g>
<!-- aws_subnet.private_subnet_1c -->
<g id="node31" class="node">
<title>aws_subnet.private_subnet_1c</title>
<polygon fill="none" stroke="black" points="349,-90 131,-90 131,-54 349,-54 349,-90"/>
<text text-anchor="middle" x="240" y="-68.3" font-family="sans-serif" font-size="14.00">aws_subnet.private_subnet_1c</text>
</g>
<!-- aws_db_subnet_group.mysql_standalone_subnetgroup&#45;&gt;aws_subnet.private_subnet_1c -->
<g id="edge6" class="edge">
<title>aws_db_subnet_group.mysql_standalone_subnetgroup&#45;&gt;aws_subnet.private_subnet_1c</title>
<path fill="none" stroke="black" d="M442.12,-36.03C422.95,-38.9 403.45,-41.94 385,-45 371.67,-47.21 357.68,-49.67 343.87,-52.17"/>
<polygon fill="black" stroke="black" points="343.06,-48.76 333.85,-54 344.32,-55.64 343.06,-48.76"/>
</g>
<!-- aws_internet_gateway.igw -->
<g id="node6" class="node">
<title>aws_internet_gateway.igw</title>
<polygon fill="none" stroke="black" points="335,-884 145,-884 145,-848 335,-848 335,-884"/>
<text text-anchor="middle" x="240" y="-862.3" font-family="sans-serif" font-size="14.00">aws_internet_gateway.igw</text>
</g>
<!-- aws_vpc.vpc -->
<g id="node34" class="node">
<title>aws_vpc.vpc</title>
<polygon fill="none" stroke="black" points="95,-668 0,-668 0,-632 95,-632 95,-668"/>
<text text-anchor="middle" x="47.5" y="-646.3" font-family="sans-serif" font-size="14.00">aws_vpc.vpc</text>
</g>
<!-- aws_internet_gateway.igw&#45;&gt;aws_vpc.vpc -->
<g id="edge7" class="edge">
<title>aws_internet_gateway.igw&#45;&gt;aws_vpc.vpc</title>
<path fill="none" stroke="black" d="M144.94,-848.5C139.97,-845.77 135.28,-842.62 131,-839 81.46,-797.1 60.72,-719.81 52.83,-678.23"/>
<polygon fill="black" stroke="black" points="56.24,-677.46 51.05,-668.23 49.35,-678.69 56.24,-677.46"/>
</g>
<!-- aws_route.public_rt_igw -->
<g id="node7" class="node">
<title>aws_route.public_rt_igw</title>
<polygon fill="none" stroke="black" points="660,-884 486,-884 486,-848 660,-848 660,-884"/>
<text text-anchor="middle" x="573" y="-862.3" font-family="sans-serif" font-size="14.00">aws_route.public_rt_igw</text>
</g>
<!-- aws_route.public_rt_igw&#45;&gt;aws_internet_gateway.igw -->
<g id="edge8" class="edge">
<title>aws_route.public_rt_igw&#45;&gt;aws_internet_gateway.igw</title>
<path fill="none" stroke="black" d="M485.9,-866C442.89,-866 390.51,-866 345.25,-866"/>
<polygon fill="black" stroke="black" points="345.11,-862.5 335.1,-866 345.1,-869.5 345.11,-862.5"/>
</g>
<!-- aws_route_table.public_rt -->
<g id="node9" class="node">
<title>aws_route_table.public_rt</title>
<polygon fill="none" stroke="black" points="332,-776 148,-776 148,-740 332,-740 332,-776"/>
<text text-anchor="middle" x="240" y="-754.3" font-family="sans-serif" font-size="14.00">aws_route_table.public_rt</text>
</g>
<!-- aws_route.public_rt_igw&#45;&gt;aws_route_table.public_rt -->
<g id="edge9" class="edge">
<title>aws_route.public_rt_igw&#45;&gt;aws_route_table.public_rt</title>
<path fill="none" stroke="black" d="M485.86,-868.25C452.22,-865.53 414.68,-857.74 385,-839 360.61,-823.6 372.58,-801.62 349,-785 346.47,-783.22 343.84,-781.56 341.13,-780"/>
<polygon fill="black" stroke="black" points="342.7,-776.88 332.21,-775.41 339.5,-783.1 342.7,-776.88"/>
</g>
<!-- aws_route_table.private_rt -->
<g id="node8" class="node">
<title>aws_route_table.private_rt</title>
<polygon fill="none" stroke="black" points="335,-198 145,-198 145,-162 335,-162 335,-198"/>
<text text-anchor="middle" x="240" y="-176.3" font-family="sans-serif" font-size="14.00">aws_route_table.private_rt</text>
</g>
<!-- aws_route_table.private_rt&#45;&gt;aws_vpc.vpc -->
<g id="edge10" class="edge">
<title>aws_route_table.private_rt&#45;&gt;aws_vpc.vpc</title>
<path fill="none" stroke="black" d="M202.93,-198.08C178.86,-212.02 148.53,-233.54 131,-261 55.87,-378.69 47.96,-553.21 47.95,-621.31"/>
<polygon fill="black" stroke="black" points="44.45,-621.69 48.01,-631.67 51.45,-621.65 44.45,-621.69"/>
</g>
<!-- aws_route_table.public_rt&#45;&gt;aws_vpc.vpc -->
<g id="edge11" class="edge">
<title>aws_route_table.public_rt&#45;&gt;aws_vpc.vpc</title>
<path fill="none" stroke="black" d="M150.26,-739.99C143.57,-737.38 137.07,-734.4 131,-731 106.4,-717.22 83.95,-694.17 68.71,-676.18"/>
<polygon fill="black" stroke="black" points="71.29,-673.8 62.23,-668.32 65.89,-678.26 71.29,-673.8"/>
</g>
<!-- aws_route_table_association.private_rt_1a -->
<g id="node10" class="node">
<title>aws_route_table_association.private_rt_1a</title>
<polygon fill="none" stroke="black" points="718.5,-144 427.5,-144 427.5,-108 718.5,-108 718.5,-144"/>
<text text-anchor="middle" x="573" y="-122.3" font-family="sans-serif" font-size="14.00">aws_route_table_association.private_rt_1a</text>
</g>
<!-- aws_route_table_association.private_rt_1a&#45;&gt;aws_route_table.private_rt -->
<g id="edge12" class="edge">
<title>aws_route_table_association.private_rt_1a&#45;&gt;aws_route_table.private_rt</title>
<path fill="none" stroke="black" d="M442.12,-144.03C422.95,-146.9 403.45,-149.94 385,-153 371.67,-155.21 357.68,-157.67 343.87,-160.17"/>
<polygon fill="black" stroke="black" points="343.06,-156.76 333.85,-162 344.32,-163.64 343.06,-156.76"/>
</g>
<!-- aws_route_table_association.private_rt_1a&#45;&gt;aws_subnet.private_subnet_1a -->
<g id="edge13" class="edge">
<title>aws_route_table_association.private_rt_1a&#45;&gt;aws_subnet.private_subnet_1a</title>
<path fill="none" stroke="black" d="M427.3,-126C404.52,-126 381.21,-126 359.12,-126"/>
<polygon fill="black" stroke="black" points="359.07,-122.5 349.07,-126 359.07,-129.5 359.07,-122.5"/>
</g>
<!-- aws_route_table_association.private_rt_1c -->
<g id="node11" class="node">
<title>aws_route_table_association.private_rt_1c</title>
<polygon fill="none" stroke="black" points="718,-90 428,-90 428,-54 718,-54 718,-90"/>
<text text-anchor="middle" x="573" y="-68.3" font-family="sans-serif" font-size="14.00">aws_route_table_association.private_rt_1c</text>
</g>
<!-- aws_route_table_association.private_rt_1c&#45;&gt;aws_route_table.private_rt -->
<g id="edge14" class="edge">
<title>aws_route_table_association.private_rt_1c&#45;&gt;aws_route_table.private_rt</title>
<path fill="none" stroke="black" d="M427.66,-80.15C412.59,-84.65 398.04,-90.77 385,-99 360.61,-114.4 372.58,-136.38 349,-153 346.89,-154.49 344.71,-155.89 342.47,-157.22"/>
<polygon fill="black" stroke="black" points="340.73,-154.17 333.55,-161.96 344.02,-160.35 340.73,-154.17"/>
</g>
<!-- aws_route_table_association.private_rt_1c&#45;&gt;aws_subnet.private_subnet_1c -->
<g id="edge15" class="edge">
<title>aws_route_table_association.private_rt_1c&#45;&gt;aws_subnet.private_subnet_1c</title>
<path fill="none" stroke="black" d="M427.78,-72C404.97,-72 381.61,-72 359.47,-72"/>
<polygon fill="black" stroke="black" points="359.39,-68.5 349.39,-72 359.39,-75.5 359.39,-68.5"/>
</g>
<!-- aws_route_table_association.public_rt_1a -->
<g id="node12" class="node">
<title>aws_route_table_association.public_rt_1a</title>
<polygon fill="none" stroke="black" points="715.5,-830 430.5,-830 430.5,-794 715.5,-794 715.5,-830"/>
<text text-anchor="middle" x="573" y="-808.3" font-family="sans-serif" font-size="14.00">aws_route_table_association.public_rt_1a</text>
</g>
<!-- aws_route_table_association.public_rt_1a&#45;&gt;aws_route_table.public_rt -->
<g id="edge16" class="edge">
<title>aws_route_table_association.public_rt_1a&#45;&gt;aws_route_table.public_rt</title>
<path fill="none" stroke="black" d="M442.12,-793.97C422.95,-791.1 403.45,-788.06 385,-785 371.14,-782.7 356.55,-780.14 342.2,-777.53"/>
<polygon fill="black" stroke="black" points="342.78,-774.08 332.31,-775.72 341.52,-780.96 342.78,-774.08"/>
</g>
<!-- aws_subnet.public_subnet_1a -->
<g id="node32" class="node">
<title>aws_subnet.public_subnet_1a</title>
<polygon fill="none" stroke="black" points="346,-830 134,-830 134,-794 346,-794 346,-830"/>
<text text-anchor="middle" x="240" y="-808.3" font-family="sans-serif" font-size="14.00">aws_subnet.public_subnet_1a</text>
</g>
<!-- aws_route_table_association.public_rt_1a&#45;&gt;aws_subnet.public_subnet_1a -->
<g id="edge17" class="edge">
<title>aws_route_table_association.public_rt_1a&#45;&gt;aws_subnet.public_subnet_1a</title>
<path fill="none" stroke="black" d="M430.19,-812C405.62,-812 380.34,-812 356.58,-812"/>
<polygon fill="black" stroke="black" points="356.5,-808.5 346.5,-812 356.5,-815.5 356.5,-808.5"/>
</g>
<!-- aws_route_table_association.public_rt_1c -->
<g id="node13" class="node">
<title>aws_route_table_association.public_rt_1c</title>
<polygon fill="none" stroke="black" points="715,-776 431,-776 431,-740 715,-740 715,-776"/>
<text text-anchor="middle" x="573" y="-754.3" font-family="sans-serif" font-size="14.00">aws_route_table_association.public_rt_1c</text>
</g>
<!-- aws_route_table_association.public_rt_1c&#45;&gt;aws_route_table.public_rt -->
<g id="edge18" class="edge">
<title>aws_route_table_association.public_rt_1c&#45;&gt;aws_route_table.public_rt</title>
<path fill="none" stroke="black" d="M430.67,-758C400.93,-758 370.13,-758 342.22,-758"/>
<polygon fill="black" stroke="black" points="342.08,-754.5 332.08,-758 342.08,-761.5 342.08,-754.5"/>
</g>
<!-- aws_subnet.public_subnet_1c -->
<g id="node33" class="node">
<title>aws_subnet.public_subnet_1c</title>
<polygon fill="none" stroke="black" points="346,-722 134,-722 134,-686 346,-686 346,-722"/>
<text text-anchor="middle" x="240" y="-700.3" font-family="sans-serif" font-size="14.00">aws_subnet.public_subnet_1c</text>
</g>
<!-- aws_route_table_association.public_rt_1c&#45;&gt;aws_subnet.public_subnet_1c -->
<g id="edge19" class="edge">
<title>aws_route_table_association.public_rt_1c&#45;&gt;aws_subnet.public_subnet_1c</title>
<path fill="none" stroke="black" d="M461.32,-739.94C427.54,-734.43 390.32,-728.36 356.24,-722.8"/>
<polygon fill="black" stroke="black" points="356.68,-719.33 346.25,-721.17 355.55,-726.24 356.68,-719.33"/>
</g>
<!-- aws_security_group.app_sg -->
<g id="node14" class="node">
<title>aws_security_group.app_sg</title>
<polygon fill="none" stroke="black" points="337.5,-414 142.5,-414 142.5,-378 337.5,-378 337.5,-414"/>
<text text-anchor="middle" x="240" y="-392.3" font-family="sans-serif" font-size="14.00">aws_security_group.app_sg</text>
</g>
<!-- aws_security_group.app_sg&#45;&gt;aws_vpc.vpc -->
<g id="edge20" class="edge">
<title>aws_security_group.app_sg&#45;&gt;aws_vpc.vpc</title>
<path fill="none" stroke="black" d="M143.15,-414.07C138.82,-416.68 134.73,-419.64 131,-423 72.36,-475.85 55.35,-573.73 50.46,-621.83"/>
<polygon fill="black" stroke="black" points="46.96,-621.57 49.54,-631.85 53.94,-622.21 46.96,-621.57"/>
</g>
<!-- aws_security_group.db_sg&#45;&gt;aws_vpc.vpc -->
<g id="edge21" class="edge">
<title>aws_security_group.db_sg&#45;&gt;aws_vpc.vpc</title>
<path fill="none" stroke="black" d="M145.98,-650C132.12,-650 118.2,-650 105.38,-650"/>
<polygon fill="black" stroke="black" points="105.37,-646.5 95.37,-650 105.37,-653.5 105.37,-646.5"/>
</g>
<!-- aws_security_group.opmng_sg -->
<g id="node16" class="node">
<title>aws_security_group.opmng_sg</title>
<polygon fill="none" stroke="black" points="349,-992 131,-992 131,-956 349,-956 349,-992"/>
<text text-anchor="middle" x="240" y="-970.3" font-family="sans-serif" font-size="14.00">aws_security_group.opmng_sg</text>
</g>
<!-- aws_security_group.opmng_sg&#45;&gt;aws_vpc.vpc -->
<g id="edge22" class="edge">
<title>aws_security_group.opmng_sg&#45;&gt;aws_vpc.vpc</title>
<path fill="none" stroke="black" d="M205.19,-956C181.41,-941.77 150.47,-919.85 131,-893 81.89,-825.26 60.44,-726.14 52.49,-678.13"/>
<polygon fill="black" stroke="black" points="55.93,-677.48 50.91,-668.15 49.02,-678.57 55.93,-677.48"/>
</g>
<!-- aws_security_group.web_sg -->
<g id="node17" class="node">
<title>aws_security_group.web_sg</title>
<polygon fill="none" stroke="black" points="339.5,-306 140.5,-306 140.5,-270 339.5,-270 339.5,-306"/>
<text text-anchor="middle" x="240" y="-284.3" font-family="sans-serif" font-size="14.00">aws_security_group.web_sg</text>
</g>
<!-- aws_security_group.web_sg&#45;&gt;aws_vpc.vpc -->
<g id="edge23" class="edge">
<title>aws_security_group.web_sg&#45;&gt;aws_vpc.vpc</title>
<path fill="none" stroke="black" d="M204.35,-306.06C180.47,-320.19 149.77,-341.94 131,-369 75.15,-449.52 56.64,-568.06 50.89,-621.74"/>
<polygon fill="black" stroke="black" points="47.39,-621.58 49.88,-631.88 54.36,-622.28 47.39,-621.58"/>
</g>
<!-- aws_security_group_rule.app_in_tcp3000 -->
<g id="node18" class="node">
<title>aws_security_group_rule.app_in_tcp3000</title>
<polygon fill="none" stroke="black" points="715.5,-360 430.5,-360 430.5,-324 715.5,-324 715.5,-360"/>
<text text-anchor="middle" x="573" y="-338.3" font-family="sans-serif" font-size="14.00">aws_security_group_rule.app_in_tcp3000</text>
</g>
<!-- aws_security_group_rule.app_in_tcp3000&#45;&gt;aws_security_group.app_sg -->
<g id="edge24" class="edge">
<title>aws_security_group_rule.app_in_tcp3000&#45;&gt;aws_security_group.app_sg</title>
<path fill="none" stroke="black" d="M442.12,-360.03C422.95,-362.9 403.45,-365.94 385,-369 371.67,-371.21 357.68,-373.67 343.87,-376.17"/>
<polygon fill="black" stroke="black" points="343.06,-372.76 333.85,-378 344.32,-379.64 343.06,-372.76"/>
</g>
<!-- aws_security_group_rule.app_in_tcp3000&#45;&gt;aws_security_group.web_sg -->
<g id="edge25" class="edge">
<title>aws_security_group_rule.app_in_tcp3000&#45;&gt;aws_security_group.web_sg</title>
<path fill="none" stroke="black" d="M442.12,-323.97C422.95,-321.1 403.45,-318.06 385,-315 371.67,-312.79 357.68,-310.33 343.87,-307.83"/>
<polygon fill="black" stroke="black" points="344.32,-304.36 333.85,-306 343.06,-311.24 344.32,-304.36"/>
</g>
<!-- aws_security_group_rule.app_out_http -->
<g id="node19" class="node">
<title>aws_security_group_rule.app_out_http</title>
<polygon fill="none" stroke="black" points="707.5,-468 438.5,-468 438.5,-432 707.5,-432 707.5,-468"/>
<text text-anchor="middle" x="573" y="-446.3" font-family="sans-serif" font-size="14.00">aws_security_group_rule.app_out_http</text>
</g>
<!-- aws_security_group_rule.app_out_http&#45;&gt;data.aws_prefix_list.s3_pl -->
<g id="edge26" class="edge">
<title>aws_security_group_rule.app_out_http&#45;&gt;data.aws_prefix_list.s3_pl</title>
<path fill="none" stroke="black" d="M438.32,-450C405.6,-450 371.15,-450 340.36,-450"/>
<polygon fill="black" stroke="black" points="340.06,-446.5 330.06,-450 340.06,-453.5 340.06,-446.5"/>
</g>
<!-- aws_security_group_rule.app_out_http&#45;&gt;aws_security_group.app_sg -->
<g id="edge27" class="edge">
<title>aws_security_group_rule.app_out_http&#45;&gt;aws_security_group.app_sg</title>
<path fill="none" stroke="black" d="M442.12,-431.97C422.95,-429.1 403.45,-426.06 385,-423 371.67,-420.79 357.68,-418.33 343.87,-415.83"/>
<polygon fill="black" stroke="black" points="344.32,-412.36 333.85,-414 343.06,-419.24 344.32,-412.36"/>
</g>
<!-- aws_security_group_rule.app_out_https -->
<g id="node20" class="node">
<title>aws_security_group_rule.app_out_https</title>
<polygon fill="none" stroke="black" points="711,-414 435,-414 435,-378 711,-378 711,-414"/>
<text text-anchor="middle" x="573" y="-392.3" font-family="sans-serif" font-size="14.00">aws_security_group_rule.app_out_https</text>
</g>
<!-- aws_security_group_rule.app_out_https&#45;&gt;data.aws_prefix_list.s3_pl -->
<g id="edge28" class="edge">
<title>aws_security_group_rule.app_out_https&#45;&gt;data.aws_prefix_list.s3_pl</title>
<path fill="none" stroke="black" d="M442.12,-414.03C422.95,-416.9 403.45,-419.94 385,-423 370.39,-425.42 354.97,-428.14 339.87,-430.9"/>
<polygon fill="black" stroke="black" points="339.21,-427.46 330,-432.71 340.47,-434.34 339.21,-427.46"/>
</g>
<!-- aws_security_group_rule.app_out_https&#45;&gt;aws_security_group.app_sg -->
<g id="edge29" class="edge">
<title>aws_security_group_rule.app_out_https&#45;&gt;aws_security_group.app_sg</title>
<path fill="none" stroke="black" d="M434.98,-396C405.83,-396 375.47,-396 347.66,-396"/>
<polygon fill="black" stroke="black" points="347.54,-392.5 337.54,-396 347.54,-399.5 347.54,-392.5"/>
</g>
<!-- aws_security_group_rule.app_out_tcp3306 -->
<g id="node21" class="node">
<title>aws_security_group_rule.app_out_tcp3306</title>
<polygon fill="none" stroke="black" points="720.5,-576 425.5,-576 425.5,-540 720.5,-540 720.5,-576"/>
<text text-anchor="middle" x="573" y="-554.3" font-family="sans-serif" font-size="14.00">aws_security_group_rule.app_out_tcp3306</text>
</g>
<!-- aws_security_group_rule.app_out_tcp3306&#45;&gt;aws_security_group.app_sg -->
<g id="edge30" class="edge">
<title>aws_security_group_rule.app_out_tcp3306&#45;&gt;aws_security_group.app_sg</title>
<path fill="none" stroke="black" d="M425.25,-553.17C410.62,-548.05 396.83,-540.89 385,-531 346.18,-498.55 386.12,-457.38 349,-423 348,-422.08 346.98,-421.18 345.93,-420.32"/>
<polygon fill="black" stroke="black" points="347.62,-417.23 337.45,-414.26 343.55,-422.92 347.62,-417.23"/>
</g>
<!-- aws_security_group_rule.app_out_tcp3306&#45;&gt;aws_security_group.db_sg -->
<g id="edge31" class="edge">
<title>aws_security_group_rule.app_out_tcp3306&#45;&gt;aws_security_group.db_sg</title>
<path fill="none" stroke="black" d="M425.42,-575.13C411.65,-577.94 397.99,-581.21 385,-585 349.39,-595.38 311.23,-612.93 283.14,-627.18"/>
<polygon fill="black" stroke="black" points="281.31,-624.18 274.02,-631.87 284.51,-630.41 281.31,-624.18"/>
</g>
<!-- aws_security_group_rule.db_in_tcp3306 -->
<g id="node22" class="node">
<title>aws_security_group_rule.db_in_tcp3306</title>
<polygon fill="none" stroke="black" points="712,-684 434,-684 434,-648 712,-648 712,-684"/>
<text text-anchor="middle" x="573" y="-662.3" font-family="sans-serif" font-size="14.00">aws_security_group_rule.db_in_tcp3306</text>
</g>
<!-- aws_security_group_rule.db_in_tcp3306&#45;&gt;aws_security_group.app_sg -->
<g id="edge32" class="edge">
<title>aws_security_group_rule.db_in_tcp3306&#45;&gt;aws_security_group.app_sg</title>
<path fill="none" stroke="black" d="M433.85,-666.41C415.63,-660.97 398.6,-652.31 385,-639 315.44,-570.93 415.02,-494.51 349,-423 347.93,-421.85 346.83,-420.74 345.68,-419.67"/>
<polygon fill="black" stroke="black" points="347.64,-416.76 337.63,-413.28 343.29,-422.24 347.64,-416.76"/>
</g>
<!-- aws_security_group_rule.db_in_tcp3306&#45;&gt;aws_security_group.db_sg -->
<g id="edge33" class="edge">
<title>aws_security_group_rule.db_in_tcp3306&#45;&gt;aws_security_group.db_sg</title>
<path fill="none" stroke="black" d="M433.54,-659.31C403.72,-657.87 372.7,-656.37 344.49,-655"/>
<polygon fill="black" stroke="black" points="344.38,-651.49 334.23,-654.51 344.05,-658.49 344.38,-651.49"/>
</g>
<!-- aws_security_group_rule.opmng_in_ssh -->
<g id="node23" class="node">
<title>aws_security_group_rule.opmng_in_ssh</title>
<polygon fill="none" stroke="black" points="711.5,-1046 434.5,-1046 434.5,-1010 711.5,-1010 711.5,-1046"/>
<text text-anchor="middle" x="573" y="-1024.3" font-family="sans-serif" font-size="14.00">aws_security_group_rule.opmng_in_ssh</text>
</g>
<!-- aws_security_group_rule.opmng_in_ssh&#45;&gt;aws_security_group.opmng_sg -->
<g id="edge34" class="edge">
<title>aws_security_group_rule.opmng_in_ssh&#45;&gt;aws_security_group.opmng_sg</title>
<path fill="none" stroke="black" d="M442.12,-1009.97C422.95,-1007.1 403.45,-1004.06 385,-1001 371.67,-998.79 357.68,-996.33 343.87,-993.83"/>
<polygon fill="black" stroke="black" points="344.32,-990.36 333.85,-992 343.06,-997.24 344.32,-990.36"/>
</g>
<!-- aws_security_group_rule.opmng_in_tcp3000 -->
<g id="node24" class="node">
<title>aws_security_group_rule.opmng_in_tcp3000</title>
<polygon fill="none" stroke="black" points="727,-992 419,-992 419,-956 727,-956 727,-992"/>
<text text-anchor="middle" x="573" y="-970.3" font-family="sans-serif" font-size="14.00">aws_security_group_rule.opmng_in_tcp3000</text>
</g>
<!-- aws_security_group_rule.opmng_in_tcp3000&#45;&gt;aws_security_group.opmng_sg -->
<g id="edge35" class="edge">
<title>aws_security_group_rule.opmng_in_tcp3000&#45;&gt;aws_security_group.opmng_sg</title>
<path fill="none" stroke="black" d="M418.61,-974C398.6,-974 378.34,-974 359.03,-974"/>
<polygon fill="black" stroke="black" points="359.02,-970.5 349.02,-974 359.02,-977.5 359.02,-970.5"/>
</g>
<!-- aws_security_group_rule.opmng_out_http -->
<g id="node25" class="node">
<title>aws_security_group_rule.opmng_out_http</title>
<polygon fill="none" stroke="black" points="719,-938 427,-938 427,-902 719,-902 719,-938"/>
<text text-anchor="middle" x="573" y="-916.3" font-family="sans-serif" font-size="14.00">aws_security_group_rule.opmng_out_http</text>
</g>
<!-- aws_security_group_rule.opmng_out_http&#45;&gt;aws_security_group.opmng_sg -->
<g id="edge36" class="edge">
<title>aws_security_group_rule.opmng_out_http&#45;&gt;aws_security_group.opmng_sg</title>
<path fill="none" stroke="black" d="M442.12,-938.03C422.95,-940.9 403.45,-943.94 385,-947 371.67,-949.21 357.68,-951.67 343.87,-954.17"/>
<polygon fill="black" stroke="black" points="343.06,-950.76 333.85,-956 344.32,-957.64 343.06,-950.76"/>
</g>
<!-- aws_security_group_rule.opmng_out_https -->
<g id="node26" class="node">
<title>aws_security_group_rule.opmng_out_https</title>
<polygon fill="none" stroke="black" points="722.5,-1100 423.5,-1100 423.5,-1064 722.5,-1064 722.5,-1100"/>
<text text-anchor="middle" x="573" y="-1078.3" font-family="sans-serif" font-size="14.00">aws_security_group_rule.opmng_out_https</text>
</g>
<!-- aws_security_group_rule.opmng_out_https&#45;&gt;aws_security_group.opmng_sg -->
<g id="edge37" class="edge">
<title>aws_security_group_rule.opmng_out_https&#45;&gt;aws_security_group.opmng_sg</title>
<path fill="none" stroke="black" d="M423.3,-1065.68C410.2,-1062.7 397.27,-1059.17 385,-1055 344.94,-1041.37 303.22,-1016.55 275.07,-997.96"/>
<polygon fill="black" stroke="black" points="276.68,-994.83 266.42,-992.17 272.78,-1000.64 276.68,-994.83"/>
</g>
<!-- aws_security_group_rule.web_in_http -->
<g id="node27" class="node">
<title>aws_security_group_rule.web_in_http</title>
<polygon fill="none" stroke="black" points="704.5,-252 441.5,-252 441.5,-216 704.5,-216 704.5,-252"/>
<text text-anchor="middle" x="573" y="-230.3" font-family="sans-serif" font-size="14.00">aws_security_group_rule.web_in_http</text>
</g>
<!-- aws_security_group_rule.web_in_http&#45;&gt;aws_security_group.web_sg -->
<g id="edge38" class="edge">
<title>aws_security_group_rule.web_in_http&#45;&gt;aws_security_group.web_sg</title>
<path fill="none" stroke="black" d="M442.12,-252.03C422.95,-254.9 403.45,-257.94 385,-261 371.67,-263.21 357.68,-265.67 343.87,-268.17"/>
<polygon fill="black" stroke="black" points="343.06,-264.76 333.85,-270 344.32,-271.64 343.06,-264.76"/>
</g>
<!-- aws_security_group_rule.web_in_https -->
<g id="node28" class="node">
<title>aws_security_group_rule.web_in_https</title>
<polygon fill="none" stroke="black" points="708,-198 438,-198 438,-162 708,-162 708,-198"/>
<text text-anchor="middle" x="573" y="-176.3" font-family="sans-serif" font-size="14.00">aws_security_group_rule.web_in_https</text>
</g>
<!-- aws_security_group_rule.web_in_https&#45;&gt;aws_security_group.web_sg -->
<g id="edge39" class="edge">
<title>aws_security_group_rule.web_in_https&#45;&gt;aws_security_group.web_sg</title>
<path fill="none" stroke="black" d="M437.77,-193.25C419.78,-196.8 401.77,-201.3 385,-207 344.94,-220.63 303.22,-245.45 275.07,-264.04"/>
<polygon fill="black" stroke="black" points="272.78,-261.36 266.42,-269.83 276.68,-267.17 272.78,-261.36"/>
</g>
<!-- aws_security_group_rule.web_out_tcp3000 -->
<g id="node29" class="node">
<title>aws_security_group_rule.web_out_tcp3000</title>
<polygon fill="none" stroke="black" points="722.5,-306 423.5,-306 423.5,-270 722.5,-270 722.5,-306"/>
<text text-anchor="middle" x="573" y="-284.3" font-family="sans-serif" font-size="14.00">aws_security_group_rule.web_out_tcp3000</text>
</g>
<!-- aws_security_group_rule.web_out_tcp3000&#45;&gt;aws_security_group.app_sg -->
<g id="edge40" class="edge">
<title>aws_security_group_rule.web_out_tcp3000&#45;&gt;aws_security_group.app_sg</title>
<path fill="none" stroke="black" d="M423.3,-304.32C410.2,-307.3 397.27,-310.83 385,-315 344.94,-328.63 303.22,-353.45 275.07,-372.04"/>
<polygon fill="black" stroke="black" points="272.78,-369.36 266.42,-377.83 276.68,-375.17 272.78,-369.36"/>
</g>
<!-- aws_security_group_rule.web_out_tcp3000&#45;&gt;aws_security_group.web_sg -->
<g id="edge41" class="edge">
<title>aws_security_group_rule.web_out_tcp3000&#45;&gt;aws_security_group.web_sg</title>
<path fill="none" stroke="black" d="M423.44,-288C398.74,-288 373.53,-288 350.04,-288"/>
<polygon fill="black" stroke="black" points="349.74,-284.5 339.74,-288 349.74,-291.5 349.74,-284.5"/>
</g>
<!-- aws_subnet.private_subnet_1a&#45;&gt;aws_vpc.vpc -->
<g id="edge42" class="edge">
<title>aws_subnet.private_subnet_1a&#45;&gt;aws_vpc.vpc</title>
<path fill="none" stroke="black" d="M140.95,-144.27C137.36,-146.83 134.01,-149.73 131,-153 67.11,-222.25 52.33,-526.95 49.25,-621.75"/>
<polygon fill="black" stroke="black" points="45.75,-621.65 48.94,-631.75 52.74,-621.86 45.75,-621.65"/>
</g>
<!-- aws_subnet.private_subnet_1c&#45;&gt;aws_vpc.vpc -->
<g id="edge43" class="edge">
<title>aws_subnet.private_subnet_1c&#45;&gt;aws_vpc.vpc</title>
<path fill="none" stroke="black" d="M140.88,-90.21C137.31,-92.79 133.99,-95.71 131,-99 60.26,-176.9 50.17,-520.38 48.74,-621.75"/>
<polygon fill="black" stroke="black" points="45.24,-621.8 48.61,-631.84 52.24,-621.88 45.24,-621.8"/>
</g>
<!-- aws_subnet.public_subnet_1a&#45;&gt;aws_vpc.vpc -->
<g id="edge44" class="edge">
<title>aws_subnet.public_subnet_1a&#45;&gt;aws_vpc.vpc</title>
<path fill="none" stroke="black" d="M145.76,-793.92C140.56,-791.33 135.59,-788.38 131,-785 94.21,-757.97 70.41,-709.13 58.25,-678.2"/>
<polygon fill="black" stroke="black" points="61.38,-676.57 54.57,-668.45 54.83,-679.04 61.38,-676.57"/>
</g>
<!-- aws_subnet.public_subnet_1c&#45;&gt;aws_vpc.vpc -->
<g id="edge45" class="edge">
<title>aws_subnet.public_subnet_1c&#45;&gt;aws_vpc.vpc</title>
<path fill="none" stroke="black" d="M163.87,-685.95C152.81,-683.08 141.59,-680.05 131,-677 122.48,-674.54 113.51,-671.79 104.76,-669"/>
<polygon fill="black" stroke="black" points="105.6,-665.6 95.01,-665.86 103.45,-672.26 105.6,-665.6"/>
</g>
</g>
</svg>
