<?xml version="1.0" encoding="UTF-8" standalone="no"?>
<!DOCTYPE svg PUBLIC "-//W3C//DTD SVG 1.1//EN"
 "http://www.w3.org/Graphics/SVG/1.1/DTD/svg11.dtd">
<!-- Generated by graphviz version 2.43.0 (0)
 -->
<!-- Title: G Pages: 1 -->
<svg width="814pt" height="1124pt"
 viewBox="0.00 0.00 814.00 1124.00" xmlns="http://www.w3.org/2000/svg" xmlns:xlink="http://www.w3.org/1999/xlink">
<g id="graph0" class="graph" transform="scale(1 1) rotate(0) translate(4 1120)">
<title>G</title>
<polygon fill="white" stroke="transparent" points="-4,4 -4,-1120 810,-1120 810,4 -4,4"/>
<!-- data.aws_prefix_list.s3_pl -->
<g id="node1" class="node">
<title>data.aws_prefix_list.s3_pl</title>
<polygon fill="none" stroke="black" points="330,-468 150,-468 150,-432 330,-432 330,-468"/>
<text text-anchor="middle" x="240" y="-446.3" font-family="sans-serif" font-size="14.00">data.aws_prefix_list.s3_pl</text>
</g>
<!-- aws_db_option_group.mysql_standalone_optiongroup -->
<g id="node2" class="node">
<title>aws_db_option_group.mysql_standalone_optiongroup</title>
<polygon fill="none" stroke="black" points="779.5,-1008 411.5,-1008 411.5,-972 779.5,-972 779.5,-1008"/>
<text text-anchor="middle" x="595.5" y="-986.3" font-family="sans-serif" font-size="14.00">aws_db_option_group.mysql_standalone_optiongroup</text>
</g>
<!-- aws_db_parameter_group.mysql_standalone_parametergroup -->
<g id="node3" class="node">
<title>aws_db_parameter_group.mysql_standalone_parametergroup</title>
<polygon fill="none" stroke="black" points="806,-1062 385,-1062 385,-1026 806,-1026 806,-1062"/>
<text text-anchor="middle" x="595.5" y="-1040.3" font-family="sans-serif" font-size="14.00">aws_db_parameter_group.mysql_standalone_parametergroup</text>
</g>
<!-- aws_db_subnet_group.mysql_standalone_subnetgroup -->
<g id="node4" class="node">
<title>aws_db_subnet_group.mysql_standalone_subnetgroup</title>
<polygon fill="none" stroke="black" points="783.5,-252 407.5,-252 407.5,-216 783.5,-216 783.5,-252"/>
<text text-anchor="middle" x="595.5" y="-230.3" font-family="sans-serif" font-size="14.00">aws_db_subnet_group.mysql_standalone_subnetgroup</text>
</g>
<!-- aws_subnet.private_subnet_1a -->
<g id="node29" class="node">
<title>aws_subnet.private_subnet_1a</title>
<polygon fill="none" stroke="black" points="349,-252 131,-252 131,-216 349,-216 349,-252"/>
<text text-anchor="middle" x="240" y="-230.3" font-family="sans-serif" font-size="14.00">aws_subnet.private_subnet_1a</text>
</g>
<!-- aws_db_subnet_group.mysql_standalone_subnetgroup&#45;&gt;aws_subnet.private_subnet_1a -->
<g id="edge1" class="edge">
<title>aws_db_subnet_group.mysql_standalone_subnetgroup&#45;&gt;aws_subnet.private_subnet_1a</title>
<path fill="none" stroke="black" d="M407.4,-234C391.1,-234 374.91,-234 359.4,-234"/>
<polygon fill="black" stroke="black" points="359.31,-230.5 349.31,-234 359.31,-237.5 359.31,-230.5"/>
</g>
<!-- aws_subnet.private_subnet_1c -->
<g id="node30" class="node">
<title>aws_subnet.private_subnet_1c</title>
<polygon fill="none" stroke="black" points="349,-360 131,-360 131,-324 349,-324 349,-360"/>
<text text-anchor="middle" x="240" y="-338.3" font-family="sans-serif" font-size="14.00">aws_subnet.private_subnet_1c</text>
</g>
<!-- aws_db_subnet_group.mysql_standalone_subnetgroup&#45;&gt;aws_subnet.private_subnet_1c -->
<g id="edge2" class="edge">
<title>aws_db_subnet_group.mysql_standalone_subnetgroup&#45;&gt;aws_subnet.private_subnet_1c</title>
<path fill="none" stroke="black" d="M407.32,-249.44C399.57,-252.77 392.09,-256.6 385,-261 360.49,-276.21 372.58,-298.38 349,-315 346.89,-316.49 344.71,-317.89 342.47,-319.22"/>
<polygon fill="black" stroke="black" points="340.73,-316.17 333.55,-323.96 344.02,-322.35 340.73,-316.17"/>
</g>
<!-- aws_internet_gateway.igw -->
<g id="node5" class="node">
<title>aws_internet_gateway.igw</title>
<polygon fill="none" stroke="black" points="335,-198 145,-198 145,-162 335,-162 335,-198"/>
<text text-anchor="middle" x="240" y="-176.3" font-family="sans-serif" font-size="14.00">aws_internet_gateway.igw</text>
</g>
<!-- aws_vpc.vpc -->
<g id="node33" class="node">
<title>aws_vpc.vpc</title>
<polygon fill="none" stroke="black" points="95,-306 0,-306 0,-270 95,-270 95,-306"/>
<text text-anchor="middle" x="47.5" y="-284.3" font-family="sans-serif" font-size="14.00">aws_vpc.vpc</text>
</g>
<!-- aws_internet_gateway.igw&#45;&gt;aws_vpc.vpc -->
<g id="edge3" class="edge">
<title>aws_internet_gateway.igw&#45;&gt;aws_vpc.vpc</title>
<path fill="none" stroke="black" d="M150.26,-198.01C143.57,-200.62 137.07,-203.6 131,-207 106.4,-220.78 83.95,-243.83 68.71,-261.82"/>
<polygon fill="black" stroke="black" points="65.89,-259.74 62.23,-269.68 71.29,-264.2 65.89,-259.74"/>
</g>
<!-- aws_route.public_rt_igw -->
<g id="node6" class="node">
<title>aws_route.public_rt_igw</title>
<polygon fill="none" stroke="black" points="682.5,-144 508.5,-144 508.5,-108 682.5,-108 682.5,-144"/>
<text text-anchor="middle" x="595.5" y="-122.3" font-family="sans-serif" font-size="14.00">aws_route.public_rt_igw</text>
</g>
<!-- aws_route.public_rt_igw&#45;&gt;aws_internet_gateway.igw -->
<g id="edge4" class="edge">
<title>aws_route.public_rt_igw&#45;&gt;aws_internet_gateway.igw</title>
<path fill="none" stroke="black" d="M508.47,-135.96C470.54,-140.64 425.48,-146.6 385,-153 371.45,-155.14 357.23,-157.58 343.21,-160.09"/>
<polygon fill="black" stroke="black" points="342.26,-156.7 333.05,-161.93 343.51,-163.59 342.26,-156.7"/>
</g>
<!-- aws_route_table.public_rt -->
<g id="node8" class="node">
<title>aws_route_table.public_rt</title>
<polygon fill="none" stroke="black" points="332,-144 148,-144 148,-108 332,-108 332,-144"/>
<text text-anchor="middle" x="240" y="-122.3" font-family="sans-serif" font-size="14.00">aws_route_table.public_rt</text>
</g>
<!-- aws_route.public_rt_igw&#45;&gt;aws_route_table.public_rt -->
<g id="edge5" class="edge">
<title>aws_route.public_rt_igw&#45;&gt;aws_route_table.public_rt</title>
<path fill="none" stroke="black" d="M508.48,-126C458.27,-126 394.66,-126 342.07,-126"/>
<polygon fill="black" stroke="black" points="342.05,-122.5 332.05,-126 342.05,-129.5 342.05,-122.5"/>
</g>
<!-- aws_route_table.private_rt -->
<g id="node7" class="node">
<title>aws_route_table.private_rt</title>
<polygon fill="none" stroke="black" points="335,-306 145,-306 145,-270 335,-270 335,-306"/>
<text text-anchor="middle" x="240" y="-284.3" font-family="sans-serif" font-size="14.00">aws_route_table.private_rt</text>
</g>
<!-- aws_route_table.private_rt&#45;&gt;aws_vpc.vpc -->
<g id="edge6" class="edge">
<title>aws_route_table.private_rt&#45;&gt;aws_vpc.vpc</title>
<path fill="none" stroke="black" d="M144.87,-288C131.39,-288 117.89,-288 105.43,-288"/>
<polygon fill="black" stroke="black" points="105.24,-284.5 95.24,-288 105.24,-291.5 105.24,-284.5"/>
</g>
<!-- aws_route_table.public_rt&#45;&gt;aws_vpc.vpc -->
<g id="edge7" class="edge">
<title>aws_route_table.public_rt&#45;&gt;aws_vpc.vpc</title>
<path fill="none" stroke="black" d="M147.89,-143.05C141.92,-145.87 136.22,-149.17 131,-153 94.21,-180.03 70.41,-228.87 58.25,-259.8"/>
<polygon fill="black" stroke="black" points="54.83,-258.96 54.57,-269.55 61.38,-261.43 54.83,-258.96"/>
</g>
<!-- aws_route_table_association.private_rt_1a -->
<g id="node9" class="node">
<title>aws_route_table_association.private_rt_1a</title>
<polygon fill="none" stroke="black" points="741,-198 450,-198 450,-162 741,-162 741,-198"/>
<text text-anchor="middle" x="595.5" y="-176.3" font-family="sans-serif" font-size="14.00">aws_route_table_association.private_rt_1a</text>
</g>
<!-- aws_route_table_association.private_rt_1a&#45;&gt;aws_route_table.private_rt -->
<g id="edge8" class="edge">
<title>aws_route_table_association.private_rt_1a&#45;&gt;aws_route_table.private_rt</title>
<path fill="none" stroke="black" d="M449.74,-182.24C426.93,-187.12 404.47,-194.91 385,-207 360.49,-222.21 372.58,-244.38 349,-261 346.89,-262.49 344.71,-263.89 342.47,-265.22"/>
<polygon fill="black" stroke="black" points="340.73,-262.17 333.55,-269.96 344.02,-268.35 340.73,-262.17"/>
</g>
<!-- aws_route_table_association.private_rt_1a&#45;&gt;aws_subnet.private_subnet_1a -->
<g id="edge9" class="edge">
<title>aws_route_table_association.private_rt_1a&#45;&gt;aws_subnet.private_subnet_1a</title>
<path fill="none" stroke="black" d="M449.81,-197.55C428.06,-200.51 405.92,-203.69 385,-207 371.45,-209.14 357.23,-211.58 343.21,-214.09"/>
<polygon fill="black" stroke="black" points="342.26,-210.7 333.05,-215.93 343.51,-217.59 342.26,-210.7"/>
</g>
<!-- aws_route_table_association.private_rt_1c -->
<g id="node10" class="node">
<title>aws_route_table_association.private_rt_1c</title>
<polygon fill="none" stroke="black" points="740.5,-306 450.5,-306 450.5,-270 740.5,-270 740.5,-306"/>
<text text-anchor="middle" x="595.5" y="-284.3" font-family="sans-serif" font-size="14.00">aws_route_table_association.private_rt_1c</text>
</g>
<!-- aws_route_table_association.private_rt_1c&#45;&gt;aws_route_table.private_rt -->
<g id="edge10" class="edge">
<title>aws_route_table_association.private_rt_1c&#45;&gt;aws_route_table.private_rt</title>
<path fill="none" stroke="black" d="M450.46,-288C415.23,-288 378.21,-288 345.25,-288"/>
<polygon fill="black" stroke="black" points="345.16,-284.5 335.16,-288 345.16,-291.5 345.16,-284.5"/>
</g>
<!-- aws_route_table_association.private_rt_1c&#45;&gt;aws_subnet.private_subnet_1c -->
<g id="edge11" class="edge">
<title>aws_route_table_association.private_rt_1c&#45;&gt;aws_subnet.private_subnet_1c</title>
<path fill="none" stroke="black" d="M450.37,-305.47C428.44,-308.45 406.1,-311.67 385,-315 371.45,-317.14 357.23,-319.58 343.21,-322.09"/>
<polygon fill="black" stroke="black" points="342.26,-318.7 333.05,-323.93 343.51,-325.59 342.26,-318.7"/>
</g>
<!-- aws_route_table_association.public_rt_1a -->
<g id="node11" class="node">
<title>aws_route_table_association.public_rt_1a</title>
<polygon fill="none" stroke="black" points="738,-90 453,-90 453,-54 738,-54 738,-90"/>
<text text-anchor="middle" x="595.5" y="-68.3" font-family="sans-serif" font-size="14.00">aws_route_table_association.public_rt_1a</text>
</g>
<!-- aws_route_table_association.public_rt_1a&#45;&gt;aws_route_table.public_rt -->
<g id="edge12" class="edge">
<title>aws_route_table_association.public_rt_1a&#45;&gt;aws_route_table.public_rt</title>
<path fill="none" stroke="black" d="M452.91,-89.13C430.17,-92.2 406.91,-95.54 385,-99 371.12,-101.19 356.52,-103.7 342.17,-106.28"/>
<polygon fill="black" stroke="black" points="341.49,-102.84 332.28,-108.07 342.74,-109.73 341.49,-102.84"/>
</g>
<!-- aws_subnet.public_subnet_1a -->
<g id="node31" class="node">
<title>aws_subnet.public_subnet_1a</title>
<polygon fill="none" stroke="black" points="346,-90 134,-90 134,-54 346,-54 346,-90"/>
<text text-anchor="middle" x="240" y="-68.3" font-family="sans-serif" font-size="14.00">aws_subnet.public_subnet_1a</text>
</g>
<!-- aws_route_table_association.public_rt_1a&#45;&gt;aws_subnet.public_subnet_1a -->
<g id="edge13" class="edge">
<title>aws_route_table_association.public_rt_1a&#45;&gt;aws_subnet.public_subnet_1a</title>
<path fill="none" stroke="black" d="M452.75,-72C420.74,-72 387.13,-72 356.36,-72"/>
<polygon fill="black" stroke="black" points="356.04,-68.5 346.04,-72 356.04,-75.5 356.04,-68.5"/>
</g>
<!-- aws_route_table_association.public_rt_1c -->
<g id="node12" class="node">
<title>aws_route_table_association.public_rt_1c</title>
<polygon fill="none" stroke="black" points="737.5,-36 453.5,-36 453.5,0 737.5,0 737.5,-36"/>
<text text-anchor="middle" x="595.5" y="-14.3" font-family="sans-serif" font-size="14.00">aws_route_table_association.public_rt_1c</text>
</g>
<!-- aws_route_table_association.public_rt_1c&#45;&gt;aws_route_table.public_rt -->
<g id="edge14" class="edge">
<title>aws_route_table_association.public_rt_1c&#45;&gt;aws_route_table.public_rt</title>
<path fill="none" stroke="black" d="M453.3,-19.5C429.27,-24.32 405.49,-32.28 385,-45 360.49,-60.21 372.58,-82.38 349,-99 346.47,-100.78 343.84,-102.44 341.13,-104"/>
<polygon fill="black" stroke="black" points="339.5,-100.9 332.21,-108.59 342.7,-107.12 339.5,-100.9"/>
</g>
<!-- aws_subnet.public_subnet_1c -->
<g id="node32" class="node">
<title>aws_subnet.public_subnet_1c</title>
<polygon fill="none" stroke="black" points="346,-36 134,-36 134,0 346,0 346,-36"/>
<text text-anchor="middle" x="240" y="-14.3" font-family="sans-serif" font-size="14.00">aws_subnet.public_subnet_1c</text>
</g>
<!-- aws_route_table_association.public_rt_1c&#45;&gt;aws_subnet.public_subnet_1c -->
<g id="edge15" class="edge">
<title>aws_route_table_association.public_rt_1c&#45;&gt;aws_subnet.public_subnet_1c</title>
<path fill="none" stroke="black" d="M453.26,-18C421.13,-18 387.36,-18 356.44,-18"/>
<polygon fill="black" stroke="black" points="356.07,-14.5 346.07,-18 356.07,-21.5 356.07,-14.5"/>
</g>
<!-- aws_security_group.app_sg -->
<g id="node13" class="node">
<title>aws_security_group.app_sg</title>
<polygon fill="none" stroke="black" points="337.5,-522 142.5,-522 142.5,-486 337.5,-486 337.5,-522"/>
<text text-anchor="middle" x="240" y="-500.3" font-family="sans-serif" font-size="14.00">aws_security_group.app_sg</text>
</g>
<!-- aws_security_group.app_sg&#45;&gt;aws_vpc.vpc -->
<g id="edge16" class="edge">
<title>aws_security_group.app_sg&#45;&gt;aws_vpc.vpc</title>
<path fill="none" stroke="black" d="M143.91,-485.93C139.33,-483.33 134.98,-480.37 131,-477 81.46,-435.1 60.72,-357.81 52.83,-316.23"/>
<polygon fill="black" stroke="black" points="56.24,-315.46 51.05,-306.23 49.35,-316.69 56.24,-315.46"/>
</g>
<!-- aws_security_group.db_sg -->
<g id="node14" class="node">
<title>aws_security_group.db_sg</title>
<polygon fill="none" stroke="black" points="334,-414 146,-414 146,-378 334,-378 334,-414"/>
<text text-anchor="middle" x="240" y="-392.3" font-family="sans-serif" font-size="14.00">aws_security_group.db_sg</text>
</g>
<!-- aws_security_group.db_sg&#45;&gt;aws_vpc.vpc -->
<g id="edge17" class="edge">
<title>aws_security_group.db_sg&#45;&gt;aws_vpc.vpc</title>
<path fill="none" stroke="black" d="M150.26,-377.99C143.57,-375.38 137.07,-372.4 131,-369 106.4,-355.22 83.95,-332.17 68.71,-314.18"/>
<polygon fill="black" stroke="black" points="71.29,-311.8 62.23,-306.32 65.89,-316.26 71.29,-311.8"/>
</g>
<!-- aws_security_group.opmng_sg -->
<g id="node15" class="node">
<title>aws_security_group.opmng_sg</title>
<polygon fill="none" stroke="black" points="349,-846 131,-846 131,-810 349,-810 349,-846"/>
<text text-anchor="middle" x="240" y="-824.3" font-family="sans-serif" font-size="14.00">aws_security_group.opmng_sg</text>
</g>
<!-- aws_security_group.opmng_sg&#45;&gt;aws_vpc.vpc -->
<g id="edge18" class="edge">
<title>aws_security_group.opmng_sg&#45;&gt;aws_vpc.vpc</title>
<path fill="none" stroke="black" d="M226.23,-809.86C203.81,-777.18 157.23,-705.64 131,-639 85.58,-523.61 61.05,-376.61 52.28,-316.03"/>
<polygon fill="black" stroke="black" points="55.74,-315.49 50.87,-306.08 48.81,-316.47 55.74,-315.49"/>
</g>
<!-- aws_security_group.web_sg -->
<g id="node16" class="node">
<title>aws_security_group.web_sg</title>
<polygon fill="none" stroke="black" points="339.5,-630 140.5,-630 140.5,-594 339.5,-594 339.5,-630"/>
<text text-anchor="middle" x="240" y="-608.3" font-family="sans-serif" font-size="14.00">aws_security_group.web_sg</text>
</g>
<!-- aws_security_group.web_sg&#45;&gt;aws_vpc.vpc -->
<g id="edge19" class="edge">
<title>aws_security_group.web_sg&#45;&gt;aws_vpc.vpc</title>
<path fill="none" stroke="black" d="M205.19,-594C181.41,-579.77 150.47,-557.85 131,-531 81.89,-463.26 60.44,-364.14 52.49,-316.13"/>
<polygon fill="black" stroke="black" points="55.93,-315.48 50.91,-306.15 49.02,-316.57 55.93,-315.48"/>
</g>
<!-- aws_security_group_rule.app_in_tcp3000 -->
<g id="node17" class="node">
<title>aws_security_group_rule.app_in_tcp3000</title>
<polygon fill="none" stroke="black" points="738,-576 453,-576 453,-540 738,-540 738,-576"/>
<text text-anchor="middle" x="595.5" y="-554.3" font-family="sans-serif" font-size="14.00">aws_security_group_rule.app_in_tcp3000</text>
</g>
<!-- aws_security_group_rule.app_in_tcp3000&#45;&gt;aws_security_group.app_sg -->
<g id="edge20" class="edge">
<title>aws_security_group_rule.app_in_tcp3000&#45;&gt;aws_security_group.app_sg</title>
<path fill="none" stroke="black" d="M452.91,-540.87C430.17,-537.8 406.91,-534.46 385,-531 371.45,-528.86 357.23,-526.42 343.21,-523.91"/>
<polygon fill="black" stroke="black" points="343.51,-520.41 333.05,-522.07 342.26,-527.3 343.51,-520.41"/>
</g>
<!-- aws_security_group_rule.app_in_tcp3000&#45;&gt;aws_security_group.web_sg -->
<g id="edge21" class="edge">
<title>aws_security_group_rule.app_in_tcp3000&#45;&gt;aws_security_group.web_sg</title>
<path fill="none" stroke="black" d="M452.91,-575.13C430.17,-578.2 406.91,-581.54 385,-585 371.45,-587.14 357.23,-589.58 343.21,-592.09"/>
<polygon fill="black" stroke="black" points="342.26,-588.7 333.05,-593.93 343.51,-595.59 342.26,-588.7"/>
</g>
<!-- aws_security_group_rule.app_out_http -->
<g id="node18" class="node">
<title>aws_security_group_rule.app_out_http</title>
<polygon fill="none" stroke="black" points="730,-468 461,-468 461,-432 730,-432 730,-468"/>
<text text-anchor="middle" x="595.5" y="-446.3" font-family="sans-serif" font-size="14.00">aws_security_group_rule.app_out_http</text>
</g>
<!-- aws_security_group_rule.app_out_http&#45;&gt;data.aws_prefix_list.s3_pl -->
<g id="edge22" class="edge">
<title>aws_security_group_rule.app_out_http&#45;&gt;data.aws_prefix_list.s3_pl</title>
<path fill="none" stroke="black" d="M460.86,-450C420.91,-450 377.84,-450 340.5,-450"/>
<polygon fill="black" stroke="black" points="340.13,-446.5 330.13,-450 340.13,-453.5 340.13,-446.5"/>
</g>
<!-- aws_security_group_rule.app_out_http&#45;&gt;aws_security_group.app_sg -->
<g id="edge23" class="edge">
<title>aws_security_group_rule.app_out_http&#45;&gt;aws_security_group.app_sg</title>
<path fill="none" stroke="black" d="M460.78,-466.07C435.57,-469.43 409.45,-473.14 385,-477 371.45,-479.14 357.23,-481.58 343.21,-484.09"/>
<polygon fill="black" stroke="black" points="342.26,-480.7 333.05,-485.93 343.51,-487.59 342.26,-480.7"/>
</g>
<!-- aws_security_group_rule.app_out_https -->
<g id="node19" class="node">
<title>aws_security_group_rule.app_out_https</title>
<polygon fill="none" stroke="black" points="733.5,-522 457.5,-522 457.5,-486 733.5,-486 733.5,-522"/>
<text text-anchor="middle" x="595.5" y="-500.3" font-family="sans-serif" font-size="14.00">aws_security_group_rule.app_out_https</text>
</g>
<!-- aws_security_group_rule.app_out_https&#45;&gt;data.aws_prefix_list.s3_pl -->
<g id="edge24" class="edge">
<title>aws_security_group_rule.app_out_https&#45;&gt;data.aws_prefix_list.s3_pl</title>
<path fill="none" stroke="black" d="M457.42,-487.48C433.25,-484.24 408.36,-480.69 385,-477 370.61,-474.73 355.45,-472.12 340.58,-469.44"/>
<polygon fill="black" stroke="black" points="340.82,-465.92 330.35,-467.58 339.56,-472.81 340.82,-465.92"/>
</g>
<!-- aws_security_group_rule.app_out_https&#45;&gt;aws_security_group.app_sg -->
<g id="edge25" class="edge">
<title>aws_security_group_rule.app_out_https&#45;&gt;aws_security_group.app_sg</title>
<path fill="none" stroke="black" d="M457.32,-504C420.93,-504 382.19,-504 347.69,-504"/>
<polygon fill="black" stroke="black" points="347.6,-500.5 337.6,-504 347.6,-507.5 347.6,-500.5"/>
</g>
<!-- aws_security_group_rule.app_out_tcp3306 -->
<g id="node20" class="node">
<title>aws_security_group_rule.app_out_tcp3306</title>
<polygon fill="none" stroke="black" points="743,-414 448,-414 448,-378 743,-378 743,-414"/>
<text text-anchor="middle" x="595.5" y="-392.3" font-family="sans-serif" font-size="14.00">aws_security_group_rule.app_out_tcp3306</text>
</g>
<!-- aws_security_group_rule.app_out_tcp3306&#45;&gt;aws_security_group.app_sg -->
<g id="edge26" class="edge">
<title>aws_security_group_rule.app_out_tcp3306&#45;&gt;aws_security_group.app_sg</title>
<path fill="none" stroke="black" d="M447.83,-398.66C425.67,-403.56 403.93,-411.25 385,-423 360.49,-438.21 372.58,-460.38 349,-477 346.89,-478.49 344.71,-479.89 342.47,-481.22"/>
<polygon fill="black" stroke="black" points="340.73,-478.17 333.55,-485.96 344.02,-484.35 340.73,-478.17"/>
</g>
<!-- aws_security_group_rule.app_out_tcp3306&#45;&gt;aws_security_group.db_sg -->
<g id="edge27" class="edge">
<title>aws_security_group_rule.app_out_tcp3306&#45;&gt;aws_security_group.db_sg</title>
<path fill="none" stroke="black" d="M447.91,-396C413.14,-396 376.77,-396 344.39,-396"/>
<polygon fill="black" stroke="black" points="344.02,-392.5 334.02,-396 344.02,-399.5 344.02,-392.5"/>
</g>
<!-- aws_security_group_rule.db_in_tcp3306 -->
<g id="node21" class="node">
<title>aws_security_group_rule.db_in_tcp3306</title>
<polygon fill="none" stroke="black" points="734.5,-360 456.5,-360 456.5,-324 734.5,-324 734.5,-360"/>
<text text-anchor="middle" x="595.5" y="-338.3" font-family="sans-serif" font-size="14.00">aws_security_group_rule.db_in_tcp3306</text>
</g>
<!-- aws_security_group_rule.db_in_tcp3306&#45;&gt;aws_security_group.app_sg -->
<g id="edge28" class="edge">
<title>aws_security_group_rule.db_in_tcp3306&#45;&gt;aws_security_group.app_sg</title>
<path fill="none" stroke="black" d="M456.45,-337.89C430.52,-342.88 405.25,-352.34 385,-369 345.93,-401.15 386.12,-442.62 349,-477 348,-477.92 346.98,-478.82 345.93,-479.68"/>
<polygon fill="black" stroke="black" points="343.55,-477.08 337.45,-485.74 347.62,-482.77 343.55,-477.08"/>
</g>
<!-- aws_security_group_rule.db_in_tcp3306&#45;&gt;aws_security_group.db_sg -->
<g id="edge29" class="edge">
<title>aws_security_group_rule.db_in_tcp3306&#45;&gt;aws_security_group.db_sg</title>
<path fill="none" stroke="black" d="M456.29,-358.67C432.48,-361.87 408,-365.36 385,-369 371.45,-371.14 357.23,-373.58 343.21,-376.09"/>
<polygon fill="black" stroke="black" points="342.26,-372.7 333.05,-377.93 343.51,-379.59 342.26,-372.7"/>
</g>
<!-- aws_security_group_rule.opmng_in_ssh -->
<g id="node22" class="node">
<title>aws_security_group_rule.opmng_in_ssh</title>
<polygon fill="none" stroke="black" points="734,-954 457,-954 457,-918 734,-918 734,-954"/>
<text text-anchor="middle" x="595.5" y="-932.3" font-family="sans-serif" font-size="14.00">aws_security_group_rule.opmng_in_ssh</text>
</g>
<!-- aws_security_group_rule.opmng_in_ssh&#45;&gt;aws_security_group.opmng_sg -->
<g id="edge30" class="edge">
<title>aws_security_group_rule.opmng_in_ssh&#45;&gt;aws_security_group.opmng_sg</title>
<path fill="none" stroke="black" d="M456.72,-925.92C432.46,-921.98 407.71,-916.53 385,-909 344.71,-895.64 302.88,-870.66 274.76,-851.95"/>
<polygon fill="black" stroke="black" points="276.37,-848.82 266.13,-846.13 272.46,-854.62 276.37,-848.82"/>
</g>
<!-- aws_security_group_rule.opmng_in_tcp3000 -->
<g id="node23" class="node">
<title>aws_security_group_rule.opmng_in_tcp3000</title>
<polygon fill="none" stroke="black" points="749.5,-900 441.5,-900 441.5,-864 749.5,-864 749.5,-900"/>
<text text-anchor="middle" x="595.5" y="-878.3" font-family="sans-serif" font-size="14.00">aws_security_group_rule.opmng_in_tcp3000</text>
</g>
<!-- aws_security_group_rule.opmng_in_tcp3000&#45;&gt;aws_security_group.opmng_sg -->
<g id="edge31" class="edge">
<title>aws_security_group_rule.opmng_in_tcp3000&#45;&gt;aws_security_group.opmng_sg</title>
<path fill="none" stroke="black" d="M446.42,-863.99C425.76,-861.16 404.83,-858.13 385,-855 371.45,-852.86 357.23,-850.42 343.21,-847.91"/>
<polygon fill="black" stroke="black" points="343.51,-844.41 333.05,-846.07 342.26,-851.3 343.51,-844.41"/>
</g>
<!-- aws_security_group_rule.opmng_out_http -->
<g id="node24" class="node">
<title>aws_security_group_rule.opmng_out_http</title>
<polygon fill="none" stroke="black" points="741.5,-846 449.5,-846 449.5,-810 741.5,-810 741.5,-846"/>
<text text-anchor="middle" x="595.5" y="-824.3" font-family="sans-serif" font-size="14.00">aws_security_group_rule.opmng_out_http</text>
</g>
<!-- aws_security_group_rule.opmng_out_http&#45;&gt;aws_security_group.opmng_sg -->
<g id="edge32" class="edge">
<title>aws_security_group_rule.opmng_out_http&#45;&gt;aws_security_group.opmng_sg</title>
<path fill="none" stroke="black" d="M449.44,-828C419.44,-828 388.18,-828 359.28,-828"/>
<polygon fill="black" stroke="black" points="359.16,-824.5 349.16,-828 359.16,-831.5 359.16,-824.5"/>
</g>
<!-- aws_security_group_rule.opmng_out_https -->
<g id="node25" class="node">
<title>aws_security_group_rule.opmng_out_https</title>
<polygon fill="none" stroke="black" points="745,-792 446,-792 446,-756 745,-756 745,-792"/>
<text text-anchor="middle" x="595.5" y="-770.3" font-family="sans-serif" font-size="14.00">aws_security_group_rule.opmng_out_https</text>
</g>
<!-- aws_security_group_rule.opmng_out_https&#45;&gt;aws_security_group.opmng_sg -->
<g id="edge33" class="edge">
<title>aws_security_group_rule.opmng_out_https&#45;&gt;aws_security_group.opmng_sg</title>
<path fill="none" stroke="black" d="M446.42,-792.01C425.76,-794.84 404.83,-797.87 385,-801 371.45,-803.14 357.23,-805.58 343.21,-808.09"/>
<polygon fill="black" stroke="black" points="342.26,-804.7 333.05,-809.93 343.51,-811.59 342.26,-804.7"/>
</g>
<!-- aws_security_group_rule.web_in_http -->
<g id="node26" class="node">
<title>aws_security_group_rule.web_in_http</title>
<polygon fill="none" stroke="black" points="727,-738 464,-738 464,-702 727,-702 727,-738"/>
<text text-anchor="middle" x="595.5" y="-716.3" font-family="sans-serif" font-size="14.00">aws_security_group_rule.web_in_http</text>
</g>
<!-- aws_security_group_rule.web_in_http&#45;&gt;aws_security_group.web_sg -->
<g id="edge34" class="edge">
<title>aws_security_group_rule.web_in_http&#45;&gt;aws_security_group.web_sg</title>
<path fill="none" stroke="black" d="M463.96,-711.05C437.41,-707.05 409.97,-701.28 385,-693 344.71,-679.64 302.88,-654.66 274.76,-635.95"/>
<polygon fill="black" stroke="black" points="276.37,-632.82 266.13,-630.13 272.46,-638.62 276.37,-632.82"/>
</g>
<!-- aws_security_group_rule.web_in_https -->
<g id="node27" class="node">
<title>aws_security_group_rule.web_in_https</title>
<polygon fill="none" stroke="black" points="730.5,-684 460.5,-684 460.5,-648 730.5,-648 730.5,-684"/>
<text text-anchor="middle" x="595.5" y="-662.3" font-family="sans-serif" font-size="14.00">aws_security_group_rule.web_in_https</text>
</g>
<!-- aws_security_group_rule.web_in_https&#45;&gt;aws_security_group.web_sg -->
<g id="edge35" class="edge">
<title>aws_security_group_rule.web_in_https&#45;&gt;aws_security_group.web_sg</title>
<path fill="none" stroke="black" d="M460.22,-649.85C435.19,-646.51 409.27,-642.84 385,-639 371.45,-636.86 357.23,-634.42 343.21,-631.91"/>
<polygon fill="black" stroke="black" points="343.51,-628.41 333.05,-630.07 342.26,-635.3 343.51,-628.41"/>
</g>
<!-- aws_security_group_rule.web_out_tcp3000 -->
<g id="node28" class="node">
<title>aws_security_group_rule.web_out_tcp3000</title>
<polygon fill="none" stroke="black" points="745,-630 446,-630 446,-594 745,-594 745,-630"/>
<text text-anchor="middle" x="595.5" y="-608.3" font-family="sans-serif" font-size="14.00">aws_security_group_rule.web_out_tcp3000</text>
</g>
<!-- aws_security_group_rule.web_out_tcp3000&#45;&gt;aws_security_group.app_sg -->
<g id="edge36" class="edge">
<title>aws_security_group_rule.web_out_tcp3000&#45;&gt;aws_security_group.app_sg</title>
<path fill="none" stroke="black" d="M445.82,-600.05C425.11,-596.31 404.32,-591.41 385,-585 344.71,-571.64 302.88,-546.66 274.76,-527.95"/>
<polygon fill="black" stroke="black" points="276.37,-524.82 266.13,-522.13 272.46,-530.62 276.37,-524.82"/>
</g>
<!-- aws_security_group_rule.web_out_tcp3000&#45;&gt;aws_security_group.web_sg -->
<g id="edge37" class="edge">
<title>aws_security_group_rule.web_out_tcp3000&#45;&gt;aws_security_group.web_sg</title>
<path fill="none" stroke="black" d="M445.86,-612C413.63,-612 380.12,-612 349.77,-612"/>
<polygon fill="black" stroke="black" points="349.6,-608.5 339.6,-612 349.6,-615.5 349.6,-608.5"/>
</g>
<!-- aws_subnet.private_subnet_1a&#45;&gt;aws_vpc.vpc -->
<g id="edge38" class="edge">
<title>aws_subnet.private_subnet_1a&#45;&gt;aws_vpc.vpc</title>
<path fill="none" stroke="black" d="M163.87,-252.05C152.81,-254.92 141.59,-257.95 131,-261 122.48,-263.46 113.51,-266.21 104.76,-269"/>
<polygon fill="black" stroke="black" points="103.45,-265.74 95.01,-272.14 105.6,-272.4 103.45,-265.74"/>
</g>
<!-- aws_subnet.private_subnet_1c&#45;&gt;aws_vpc.vpc -->
<g id="edge39" class="edge">
<title>aws_subnet.private_subnet_1c&#45;&gt;aws_vpc.vpc</title>
<path fill="none" stroke="black" d="M163.87,-323.95C152.81,-321.08 141.59,-318.05 131,-315 122.48,-312.54 113.51,-309.79 104.76,-307"/>
<polygon fill="black" stroke="black" points="105.6,-303.6 95.01,-303.86 103.45,-310.26 105.6,-303.6"/>
</g>
<!-- aws_subnet.public_subnet_1a&#45;&gt;aws_vpc.vpc -->
<g id="edge40" class="edge">
<title>aws_subnet.public_subnet_1a&#45;&gt;aws_vpc.vpc</title>
<path fill="none" stroke="black" d="M143.91,-90.07C139.33,-92.67 134.98,-95.63 131,-99 81.46,-140.9 60.72,-218.19 52.83,-259.77"/>
<polygon fill="black" stroke="black" points="49.35,-259.31 51.05,-269.77 56.24,-260.54 49.35,-259.31"/>
</g>
<!-- aws_subnet.public_subnet_1c&#45;&gt;aws_vpc.vpc -->
<g id="edge41" class="edge">
<title>aws_subnet.public_subnet_1c&#45;&gt;aws_vpc.vpc</title>
<path fill="none" stroke="black" d="M142.57,-36.28C138.44,-38.84 134.55,-41.73 131,-45 68.56,-102.5 53.36,-209 49.68,-259.72"/>
<polygon fill="black" stroke="black" points="46.17,-259.75 49.04,-269.95 53.15,-260.19 46.17,-259.75"/>
</g>
<!-- random_string.db_password -->
<g id="node34" class="node">
<title>random_string.db_password</title>
<polygon fill="none" stroke="black" points="696,-1116 495,-1116 495,-1080 696,-1080 696,-1116"/>
<text text-anchor="middle" x="595.5" y="-1094.3" font-family="sans-serif" font-size="14.00">random_string.db_password</text>
</g>
</g>
</svg>
