<?xml version="1.0" encoding="UTF-8" standalone="no"?>
<!DOCTYPE svg PUBLIC "-//W3C//DTD SVG 1.1//EN"
 "http://www.w3.org/Graphics/SVG/1.1/DTD/svg11.dtd">
<!-- Generated by graphviz version 2.43.0 (0)
 -->
<!-- Title: G Pages: 1 -->
<svg width="357pt" height="206pt"
 viewBox="0.00 0.00 357.00 206.00" xmlns="http://www.w3.org/2000/svg" xmlns:xlink="http://www.w3.org/1999/xlink">
<g id="graph0" class="graph" transform="scale(1 1) rotate(0) translate(4 202)">
<title>G</title>
<polygon fill="white" stroke="transparent" points="-4,4 -4,-202 353,-202 353,4 -4,4"/>
<!-- aws_subnet.private_subnet_1a -->
<g id="node1" class="node">
<title>aws_subnet.private_subnet_1a</title>
<polygon fill="none" stroke="black" points="349,-198 131,-198 131,-162 349,-162 349,-198"/>
<text text-anchor="middle" x="240" y="-176.3" font-family="sans-serif" font-size="14.00">aws_subnet.private_subnet_1a</text>
</g>
<!-- aws_vpc.vpc -->
<g id="node5" class="node">
<title>aws_vpc.vpc</title>
<polygon fill="none" stroke="black" points="95,-117 0,-117 0,-81 95,-81 95,-117"/>
<text text-anchor="middle" x="47.5" y="-95.3" font-family="sans-serif" font-size="14.00">aws_vpc.vpc</text>
</g>
<!-- aws_subnet.private_subnet_1a&#45;&gt;aws_vpc.vpc -->
<g id="edge1" class="edge">
<title>aws_subnet.private_subnet_1a&#45;&gt;aws_vpc.vpc</title>
<path fill="none" stroke="black" d="M154.93,-161.95C146.72,-159.3 138.61,-156.33 131,-153 113.04,-145.14 94.64,-133.51 79.78,-123.05"/>
<polygon fill="black" stroke="black" points="81.64,-120.07 71.48,-117.07 77.54,-125.75 81.64,-120.07"/>
</g>
<!-- aws_subnet.private_subnet_1c -->
<g id="node2" class="node">
<title>aws_subnet.private_subnet_1c</title>
<polygon fill="none" stroke="black" points="349,-144 131,-144 131,-108 349,-108 349,-144"/>
<text text-anchor="middle" x="240" y="-122.3" font-family="sans-serif" font-size="14.00">aws_subnet.private_subnet_1c</text>
</g>
<!-- aws_subnet.private_subnet_1c&#45;&gt;aws_vpc.vpc -->
<g id="edge2" class="edge">
<title>aws_subnet.private_subnet_1c&#45;&gt;aws_vpc.vpc</title>
<path fill="none" stroke="black" d="M130.95,-110.69C122.21,-109.45 113.62,-108.23 105.47,-107.07"/>
<polygon fill="black" stroke="black" points="105.81,-103.59 95.42,-105.65 104.83,-110.52 105.81,-103.59"/>
</g>
<!-- aws_subnet.public_subnet_1a -->
<g id="node3" class="node">
<title>aws_subnet.public_subnet_1a</title>
<polygon fill="none" stroke="black" points="346,-90 134,-90 134,-54 346,-54 346,-90"/>
<text text-anchor="middle" x="240" y="-68.3" font-family="sans-serif" font-size="14.00">aws_subnet.public_subnet_1a</text>
</g>
<!-- aws_subnet.public_subnet_1a&#45;&gt;aws_vpc.vpc -->
<g id="edge3" class="edge">
<title>aws_subnet.public_subnet_1a&#45;&gt;aws_vpc.vpc</title>
<path fill="none" stroke="black" d="M134,-86.88C124.1,-88.29 114.34,-89.67 105.15,-90.97"/>
<polygon fill="black" stroke="black" points="104.46,-87.53 95.05,-92.4 105.45,-94.46 104.46,-87.53"/>
</g>
<!-- aws_subnet.public_subnet_1c -->
<g id="node4" class="node">
<title>aws_subnet.public_subnet_1c</title>
<polygon fill="none" stroke="black" points="346,-36 134,-36 134,0 346,0 346,-36"/>
<text text-anchor="middle" x="240" y="-14.3" font-family="sans-serif" font-size="14.00">aws_subnet.public_subnet_1c</text>
</g>
<!-- aws_subnet.public_subnet_1c&#45;&gt;aws_vpc.vpc -->
<g id="edge4" class="edge">
<title>aws_subnet.public_subnet_1c&#45;&gt;aws_vpc.vpc</title>
<path fill="none" stroke="black" d="M154.93,-36.05C146.72,-38.7 138.61,-41.67 131,-45 113.04,-52.86 94.64,-64.49 79.78,-74.95"/>
<polygon fill="black" stroke="black" points="77.54,-72.25 71.48,-80.93 81.64,-77.93 77.54,-72.25"/>
</g>
</g>
</svg>
