<?xml version="1.0" encoding="UTF-8" standalone="no"?>
<!DOCTYPE svg PUBLIC "-//W3C//DTD SVG 1.1//EN"
 "http://www.w3.org/Graphics/SVG/1.1/DTD/svg11.dtd">
<!-- Generated by graphviz version 2.43.0 (0)
 -->
<!-- Title: G Pages: 1 -->
<svg width="1157pt" height="1216pt"
 viewBox="0.00 0.00 1157.00 1216.00" xmlns="http://www.w3.org/2000/svg" xmlns:xlink="http://www.w3.org/1999/xlink">
<g id="graph0" class="graph" transform="scale(1 1) rotate(0) translate(4 1212)">
<title>G</title>
<polygon fill="white" stroke="transparent" points="-4,4 -4,-1212 1153,-1212 1153,4 -4,4"/>
<!-- data.aws_ami.app -->
<g id="node1" class="node">
<title>data.aws_ami.app</title>
<polygon fill="none" stroke="black" points="326,-884 184,-884 184,-848 326,-848 326,-884"/>
<text text-anchor="middle" x="255" y="-862.3" font-family="sans-serif" font-size="14.00">data.aws_ami.app</text>
</g>
<!-- data.aws_prefix_list.s3_pl -->
<g id="node2" class="node">
<title>data.aws_prefix_list.s3_pl</title>
<polygon fill="none" stroke="black" points="351.5,-136 158.5,-136 158.5,-100 351.5,-100 351.5,-136"/>
<text text-anchor="middle" x="255" y="-114.3" font-family="sans-serif" font-size="14.00">data.aws_prefix_list.s3_pl</text>
</g>
<!-- aws_db_instance.mysql_standalone -->
<g id="node3" class="node">
<title>aws_db_instance.mysql_standalone</title>
<polygon fill="none" stroke="black" points="1149,-236 886,-236 886,-200 1149,-200 1149,-236"/>
<text text-anchor="middle" x="1017.5" y="-214.3" font-family="sans-serif" font-size="14.00">aws_db_instance.mysql_standalone</text>
</g>
<!-- aws_db_option_group.mysql_standalone_optiongroup -->
<g id="node4" class="node">
<title>aws_db_option_group.mysql_standalone_optiongroup</title>
<polygon fill="none" stroke="black" points="821,-36 435,-36 435,0 821,0 821,-36"/>
<text text-anchor="middle" x="628" y="-14.3" font-family="sans-serif" font-size="14.00">aws_db_option_group.mysql_standalone_optiongroup</text>
</g>
<!-- aws_db_instance.mysql_standalone&#45;&gt;aws_db_option_group.mysql_standalone_optiongroup -->
<g id="edge1" class="edge">
<title>aws_db_instance.mysql_standalone&#45;&gt;aws_db_option_group.mysql_standalone_optiongroup</title>
<path fill="none" stroke="black" d="M1005.4,-199.96C981.86,-163.52 923.1,-81.5 850,-45 843.78,-41.9 837.35,-39.1 830.77,-36.57"/>
<polygon fill="black" stroke="black" points="831.6,-33.15 821.01,-33.07 829.24,-39.74 831.6,-33.15"/>
</g>
<!-- aws_db_parameter_group.mysql_standalone_parametergroup -->
<g id="node5" class="node">
<title>aws_db_parameter_group.mysql_standalone_parametergroup</title>
<polygon fill="none" stroke="black" points="850,-776 406,-776 406,-740 850,-740 850,-776"/>
<text text-anchor="middle" x="628" y="-754.3" font-family="sans-serif" font-size="14.00">aws_db_parameter_group.mysql_standalone_parametergroup</text>
</g>
<!-- aws_db_instance.mysql_standalone&#45;&gt;aws_db_parameter_group.mysql_standalone_parametergroup -->
<g id="edge2" class="edge">
<title>aws_db_instance.mysql_standalone&#45;&gt;aws_db_parameter_group.mysql_standalone_parametergroup</title>
<path fill="none" stroke="black" d="M1016.96,-236.25C1017.79,-311.4 1010.06,-599.1 850,-731 848.79,-732 847.56,-732.97 846.31,-733.92"/>
<polygon fill="black" stroke="black" points="844.05,-731.24 837.87,-739.84 848.06,-736.97 844.05,-731.24"/>
</g>
<!-- aws_db_subnet_group.mysql_standalone_subnetgroup -->
<g id="node6" class="node">
<title>aws_db_subnet_group.mysql_standalone_subnetgroup</title>
<polygon fill="none" stroke="black" points="825.5,-1208 430.5,-1208 430.5,-1172 825.5,-1172 825.5,-1208"/>
<text text-anchor="middle" x="628" y="-1186.3" font-family="sans-serif" font-size="14.00">aws_db_subnet_group.mysql_standalone_subnetgroup</text>
</g>
<!-- aws_db_instance.mysql_standalone&#45;&gt;aws_db_subnet_group.mysql_standalone_subnetgroup -->
<g id="edge3" class="edge">
<title>aws_db_instance.mysql_standalone&#45;&gt;aws_db_subnet_group.mysql_standalone_subnetgroup</title>
<path fill="none" stroke="black" d="M1016.12,-236.28C1013.23,-356.18 990.81,-1029.44 850,-1163 845.17,-1167.58 839.99,-1171.67 834.52,-1175.31"/>
<polygon fill="black" stroke="black" points="832.44,-1172.48 825.72,-1180.67 836.08,-1178.46 832.44,-1172.48"/>
</g>
<!-- aws_security_group.db_sg -->
<g id="node18" class="node">
<title>aws_security_group.db_sg</title>
<polygon fill="none" stroke="black" points="354.5,-304 155.5,-304 155.5,-268 354.5,-268 354.5,-304"/>
<text text-anchor="middle" x="255" y="-282.3" font-family="sans-serif" font-size="14.00">aws_security_group.db_sg</text>
</g>
<!-- aws_db_instance.mysql_standalone&#45;&gt;aws_security_group.db_sg -->
<g id="edge4" class="edge">
<title>aws_db_instance.mysql_standalone&#45;&gt;aws_security_group.db_sg</title>
<path fill="none" stroke="black" d="M989.37,-199.99C957.56,-180.03 902.47,-149.09 850,-137 753.85,-114.85 497.22,-99.39 406,-137 345.93,-161.76 297.22,-223.51 272.88,-259.26"/>
<polygon fill="black" stroke="black" points="269.85,-257.49 267.22,-267.76 275.68,-261.37 269.85,-257.49"/>
</g>
<!-- random_string.db_password -->
<g id="node38" class="node">
<title>random_string.db_password</title>
<polygon fill="none" stroke="black" points="734.5,-236 521.5,-236 521.5,-200 734.5,-200 734.5,-236"/>
<text text-anchor="middle" x="628" y="-214.3" font-family="sans-serif" font-size="14.00">random_string.db_password</text>
</g>
<!-- aws_db_instance.mysql_standalone&#45;&gt;random_string.db_password -->
<g id="edge5" class="edge">
<title>aws_db_instance.mysql_standalone&#45;&gt;random_string.db_password</title>
<path fill="none" stroke="black" d="M885.85,-218C840.19,-218 789.28,-218 744.91,-218"/>
<polygon fill="black" stroke="black" points="744.66,-214.5 734.66,-218 744.66,-221.5 744.66,-214.5"/>
</g>
<!-- aws_subnet.private_subnet_1a -->
<g id="node33" class="node">
<title>aws_subnet.private_subnet_1a</title>
<polygon fill="none" stroke="black" points="370,-1154 140,-1154 140,-1118 370,-1118 370,-1154"/>
<text text-anchor="middle" x="255" y="-1132.3" font-family="sans-serif" font-size="14.00">aws_subnet.private_subnet_1a</text>
</g>
<!-- aws_db_subnet_group.mysql_standalone_subnetgroup&#45;&gt;aws_subnet.private_subnet_1a -->
<g id="edge6" class="edge">
<title>aws_db_subnet_group.mysql_standalone_subnetgroup&#45;&gt;aws_subnet.private_subnet_1a</title>
<path fill="none" stroke="black" d="M470.5,-1171.99C448.81,-1169.17 426.83,-1166.14 406,-1163 391.65,-1160.83 376.57,-1158.36 361.72,-1155.8"/>
<polygon fill="black" stroke="black" points="361.94,-1152.29 351.49,-1154.02 360.74,-1159.18 361.94,-1152.29"/>
</g>
<!-- aws_subnet.private_subnet_1c -->
<g id="node34" class="node">
<title>aws_subnet.private_subnet_1c</title>
<polygon fill="none" stroke="black" points="370,-1100 140,-1100 140,-1064 370,-1064 370,-1100"/>
<text text-anchor="middle" x="255" y="-1078.3" font-family="sans-serif" font-size="14.00">aws_subnet.private_subnet_1c</text>
</g>
<!-- aws_db_subnet_group.mysql_standalone_subnetgroup&#45;&gt;aws_subnet.private_subnet_1c -->
<g id="edge7" class="edge">
<title>aws_db_subnet_group.mysql_standalone_subnetgroup&#45;&gt;aws_subnet.private_subnet_1c</title>
<path fill="none" stroke="black" d="M430.38,-1175.43C421.91,-1171.88 413.73,-1167.76 406,-1163 381.44,-1147.87 393.68,-1125.47 370,-1109 367.88,-1107.53 365.69,-1106.13 363.45,-1104.81"/>
<polygon fill="black" stroke="black" points="365,-1101.68 354.52,-1100.1 361.72,-1107.86 365,-1101.68"/>
</g>
<!-- aws_instance.app_server -->
<g id="node7" class="node">
<title>aws_instance.app_server</title>
<polygon fill="none" stroke="black" points="723.5,-830 532.5,-830 532.5,-794 723.5,-794 723.5,-830"/>
<text text-anchor="middle" x="628" y="-808.3" font-family="sans-serif" font-size="14.00">aws_instance.app_server</text>
</g>
<!-- aws_instance.app_server&#45;&gt;data.aws_ami.app -->
<g id="edge8" class="edge">
<title>aws_instance.app_server&#45;&gt;data.aws_ami.app</title>
<path fill="none" stroke="black" d="M532.47,-822.36C493.27,-826.96 447.37,-832.75 406,-839 383.21,-842.44 358.56,-846.67 335.96,-850.74"/>
<polygon fill="black" stroke="black" points="335.28,-847.31 326.07,-852.54 336.53,-854.2 335.28,-847.31"/>
</g>
<!-- aws_key_pair.keypair -->
<g id="node9" class="node">
<title>aws_key_pair.keypair</title>
<polygon fill="none" stroke="black" points="336,-830 174,-830 174,-794 336,-794 336,-830"/>
<text text-anchor="middle" x="255" y="-808.3" font-family="sans-serif" font-size="14.00">aws_key_pair.keypair</text>
</g>
<!-- aws_instance.app_server&#45;&gt;aws_key_pair.keypair -->
<g id="edge9" class="edge">
<title>aws_instance.app_server&#45;&gt;aws_key_pair.keypair</title>
<path fill="none" stroke="black" d="M532.42,-812C475.33,-812 402.97,-812 346.6,-812"/>
<polygon fill="black" stroke="black" points="346.27,-808.5 336.27,-812 346.27,-815.5 346.27,-808.5"/>
</g>
<!-- aws_security_group.app_sg -->
<g id="node17" class="node">
<title>aws_security_group.app_sg</title>
<polygon fill="none" stroke="black" points="358.5,-385 151.5,-385 151.5,-349 358.5,-349 358.5,-385"/>
<text text-anchor="middle" x="255" y="-363.3" font-family="sans-serif" font-size="14.00">aws_security_group.app_sg</text>
</g>
<!-- aws_instance.app_server&#45;&gt;aws_security_group.app_sg -->
<g id="edge10" class="edge">
<title>aws_instance.app_server&#45;&gt;aws_security_group.app_sg</title>
<path fill="none" stroke="black" d="M532.38,-825.18C488.17,-825.8 438.28,-817.63 406,-785 355.06,-733.5 404.47,-524.71 370,-461 353.78,-431.03 323.7,-406.85 298.51,-390.53"/>
<polygon fill="black" stroke="black" points="300.16,-387.43 289.83,-385.08 296.44,-393.36 300.16,-387.43"/>
</g>
<!-- aws_security_group.opmng_sg -->
<g id="node19" class="node">
<title>aws_security_group.opmng_sg</title>
<polygon fill="none" stroke="black" points="370,-938 140,-938 140,-902 370,-902 370,-938"/>
<text text-anchor="middle" x="255" y="-916.3" font-family="sans-serif" font-size="14.00">aws_security_group.opmng_sg</text>
</g>
<!-- aws_instance.app_server&#45;&gt;aws_security_group.opmng_sg -->
<g id="edge11" class="edge">
<title>aws_instance.app_server&#45;&gt;aws_security_group.opmng_sg</title>
<path fill="none" stroke="black" d="M532.25,-806.4C490.81,-808.11 443.27,-816.04 406,-839 381.44,-854.13 393.68,-876.53 370,-893 367.88,-894.47 365.69,-895.87 363.45,-897.19"/>
<polygon fill="black" stroke="black" points="361.72,-894.14 354.52,-901.9 365,-900.32 361.72,-894.14"/>
</g>
<!-- aws_subnet.public_subnet_1a -->
<g id="node35" class="node">
<title>aws_subnet.public_subnet_1a</title>
<polygon fill="none" stroke="black" points="367,-776 143,-776 143,-740 367,-740 367,-776"/>
<text text-anchor="middle" x="255" y="-754.3" font-family="sans-serif" font-size="14.00">aws_subnet.public_subnet_1a</text>
</g>
<!-- aws_instance.app_server&#45;&gt;aws_subnet.public_subnet_1a -->
<g id="edge12" class="edge">
<title>aws_instance.app_server&#45;&gt;aws_subnet.public_subnet_1a</title>
<path fill="none" stroke="black" d="M532.47,-801.64C493.27,-797.04 447.37,-791.25 406,-785 391.65,-782.83 376.57,-780.36 361.72,-777.8"/>
<polygon fill="black" stroke="black" points="361.94,-774.29 351.49,-776.02 360.74,-781.18 361.94,-774.29"/>
</g>
<!-- aws_internet_gateway.igw -->
<g id="node8" class="node">
<title>aws_internet_gateway.igw</title>
<polygon fill="none" stroke="black" points="353,-722 157,-722 157,-686 353,-686 353,-722"/>
<text text-anchor="middle" x="255" y="-700.3" font-family="sans-serif" font-size="14.00">aws_internet_gateway.igw</text>
</g>
<!-- aws_vpc.vpc -->
<g id="node37" class="node">
<title>aws_vpc.vpc</title>
<polygon fill="none" stroke="black" points="104,-722 0,-722 0,-686 104,-686 104,-722"/>
<text text-anchor="middle" x="52" y="-700.3" font-family="sans-serif" font-size="14.00">aws_vpc.vpc</text>
</g>
<!-- aws_internet_gateway.igw&#45;&gt;aws_vpc.vpc -->
<g id="edge13" class="edge">
<title>aws_internet_gateway.igw&#45;&gt;aws_vpc.vpc</title>
<path fill="none" stroke="black" d="M156.74,-704C142.21,-704 127.58,-704 114.09,-704"/>
<polygon fill="black" stroke="black" points="114,-700.5 104,-704 114,-707.5 114,-700.5"/>
</g>
<!-- aws_route.public_rt_igw -->
<g id="node10" class="node">
<title>aws_route.public_rt_igw</title>
<polygon fill="none" stroke="black" points="719,-668 537,-668 537,-632 719,-632 719,-668"/>
<text text-anchor="middle" x="628" y="-646.3" font-family="sans-serif" font-size="14.00">aws_route.public_rt_igw</text>
</g>
<!-- aws_route.public_rt_igw&#45;&gt;aws_internet_gateway.igw -->
<g id="edge14" class="edge">
<title>aws_route.public_rt_igw&#45;&gt;aws_internet_gateway.igw</title>
<path fill="none" stroke="black" d="M536.79,-659.85C496.67,-664.54 448.9,-670.52 406,-677 391.65,-679.17 376.57,-681.64 361.72,-684.2"/>
<polygon fill="black" stroke="black" points="360.74,-680.82 351.49,-685.98 361.94,-687.71 360.74,-680.82"/>
</g>
<!-- aws_route_table.public_rt -->
<g id="node12" class="node">
<title>aws_route_table.public_rt</title>
<polygon fill="none" stroke="black" points="351,-668 159,-668 159,-632 351,-632 351,-668"/>
<text text-anchor="middle" x="255" y="-646.3" font-family="sans-serif" font-size="14.00">aws_route_table.public_rt</text>
</g>
<!-- aws_route.public_rt_igw&#45;&gt;aws_route_table.public_rt -->
<g id="edge15" class="edge">
<title>aws_route.public_rt_igw&#45;&gt;aws_route_table.public_rt</title>
<path fill="none" stroke="black" d="M536.72,-650C483.81,-650 416.74,-650 361.42,-650"/>
<polygon fill="black" stroke="black" points="361.23,-646.5 351.23,-650 361.23,-653.5 361.23,-646.5"/>
</g>
<!-- aws_route_table.private_rt -->
<g id="node11" class="node">
<title>aws_route_table.private_rt</title>
<polygon fill="none" stroke="black" points="354.5,-1046 155.5,-1046 155.5,-1010 354.5,-1010 354.5,-1046"/>
<text text-anchor="middle" x="255" y="-1024.3" font-family="sans-serif" font-size="14.00">aws_route_table.private_rt</text>
</g>
<!-- aws_route_table.private_rt&#45;&gt;aws_vpc.vpc -->
<g id="edge16" class="edge">
<title>aws_route_table.private_rt&#45;&gt;aws_vpc.vpc</title>
<path fill="none" stroke="black" d="M217.64,-1009.87C192.7,-995.78 160.53,-974.09 140,-947 89.18,-879.93 66.1,-780.49 57.41,-732.27"/>
<polygon fill="black" stroke="black" points="60.83,-731.5 55.68,-722.25 53.93,-732.69 60.83,-731.5"/>
</g>
<!-- aws_route_table.public_rt&#45;&gt;aws_vpc.vpc -->
<g id="edge17" class="edge">
<title>aws_route_table.public_rt&#45;&gt;aws_vpc.vpc</title>
<path fill="none" stroke="black" d="M174.71,-668.04C163.04,-670.91 151.18,-673.94 140,-677 131.58,-679.3 122.74,-681.87 114.06,-684.47"/>
<polygon fill="black" stroke="black" points="112.9,-681.17 104.35,-687.42 114.94,-687.86 112.9,-681.17"/>
</g>
<!-- aws_route_table_association.private_rt_1a -->
<g id="node13" class="node">
<title>aws_route_table_association.private_rt_1a</title>
<polygon fill="none" stroke="black" points="781.5,-1154 474.5,-1154 474.5,-1118 781.5,-1118 781.5,-1154"/>
<text text-anchor="middle" x="628" y="-1132.3" font-family="sans-serif" font-size="14.00">aws_route_table_association.private_rt_1a</text>
</g>
<!-- aws_route_table_association.private_rt_1a&#45;&gt;aws_route_table.private_rt -->
<g id="edge18" class="edge">
<title>aws_route_table_association.private_rt_1a&#45;&gt;aws_route_table.private_rt</title>
<path fill="none" stroke="black" d="M474.34,-1134.76C450.27,-1129.77 426.57,-1121.67 406,-1109 381.44,-1093.87 393.68,-1071.47 370,-1055 367.88,-1053.53 365.69,-1052.13 363.45,-1050.81"/>
<polygon fill="black" stroke="black" points="365,-1047.68 354.52,-1046.1 361.72,-1053.86 365,-1047.68"/>
</g>
<!-- aws_route_table_association.private_rt_1a&#45;&gt;aws_subnet.private_subnet_1a -->
<g id="edge19" class="edge">
<title>aws_route_table_association.private_rt_1a&#45;&gt;aws_subnet.private_subnet_1a</title>
<path fill="none" stroke="black" d="M474.49,-1136C443.16,-1136 410.53,-1136 380.33,-1136"/>
<polygon fill="black" stroke="black" points="380.19,-1132.5 370.19,-1136 380.19,-1139.5 380.19,-1132.5"/>
</g>
<!-- aws_route_table_association.private_rt_1c -->
<g id="node14" class="node">
<title>aws_route_table_association.private_rt_1c</title>
<polygon fill="none" stroke="black" points="781,-1100 475,-1100 475,-1064 781,-1064 781,-1100"/>
<text text-anchor="middle" x="628" y="-1078.3" font-family="sans-serif" font-size="14.00">aws_route_table_association.private_rt_1c</text>
</g>
<!-- aws_route_table_association.private_rt_1c&#45;&gt;aws_route_table.private_rt -->
<g id="edge20" class="edge">
<title>aws_route_table_association.private_rt_1c&#45;&gt;aws_route_table.private_rt</title>
<path fill="none" stroke="black" d="M474.97,-1064.57C451.84,-1061.59 428.26,-1058.36 406,-1055 391.65,-1052.83 376.57,-1050.36 361.72,-1047.8"/>
<polygon fill="black" stroke="black" points="361.94,-1044.29 351.49,-1046.02 360.74,-1051.18 361.94,-1044.29"/>
</g>
<!-- aws_route_table_association.private_rt_1c&#45;&gt;aws_subnet.private_subnet_1c -->
<g id="edge21" class="edge">
<title>aws_route_table_association.private_rt_1c&#45;&gt;aws_subnet.private_subnet_1c</title>
<path fill="none" stroke="black" d="M474.76,-1082C443.32,-1082 410.56,-1082 380.25,-1082"/>
<polygon fill="black" stroke="black" points="380.08,-1078.5 370.08,-1082 380.08,-1085.5 380.08,-1078.5"/>
</g>
<!-- aws_route_table_association.public_rt_1a -->
<g id="node15" class="node">
<title>aws_route_table_association.public_rt_1a</title>
<polygon fill="none" stroke="black" points="778,-722 478,-722 478,-686 778,-686 778,-722"/>
<text text-anchor="middle" x="628" y="-700.3" font-family="sans-serif" font-size="14.00">aws_route_table_association.public_rt_1a</text>
</g>
<!-- aws_route_table_association.public_rt_1a&#45;&gt;aws_route_table.public_rt -->
<g id="edge22" class="edge">
<title>aws_route_table_association.public_rt_1a&#45;&gt;aws_route_table.public_rt</title>
<path fill="none" stroke="black" d="M477.95,-686.96C453.86,-683.87 429.22,-680.51 406,-677 391.41,-674.8 376.05,-672.27 360.96,-669.67"/>
<polygon fill="black" stroke="black" points="361.54,-666.22 351.09,-667.95 360.34,-673.11 361.54,-666.22"/>
</g>
<!-- aws_route_table_association.public_rt_1a&#45;&gt;aws_subnet.public_subnet_1a -->
<g id="edge23" class="edge">
<title>aws_route_table_association.public_rt_1a&#45;&gt;aws_subnet.public_subnet_1a</title>
<path fill="none" stroke="black" d="M477.95,-721.04C453.86,-724.13 429.22,-727.49 406,-731 391.65,-733.17 376.57,-735.64 361.72,-738.2"/>
<polygon fill="black" stroke="black" points="360.74,-734.82 351.49,-739.98 361.94,-741.71 360.74,-734.82"/>
</g>
<!-- aws_route_table_association.public_rt_1c -->
<g id="node16" class="node">
<title>aws_route_table_association.public_rt_1c</title>
<polygon fill="none" stroke="black" points="777.5,-614 478.5,-614 478.5,-578 777.5,-578 777.5,-614"/>
<text text-anchor="middle" x="628" y="-592.3" font-family="sans-serif" font-size="14.00">aws_route_table_association.public_rt_1c</text>
</g>
<!-- aws_route_table_association.public_rt_1c&#45;&gt;aws_route_table.public_rt -->
<g id="edge24" class="edge">
<title>aws_route_table_association.public_rt_1c&#45;&gt;aws_route_table.public_rt</title>
<path fill="none" stroke="black" d="M478.25,-613.01C454.07,-616.11 429.31,-619.48 406,-623 391.41,-625.2 376.05,-627.73 360.96,-630.33"/>
<polygon fill="black" stroke="black" points="360.34,-626.89 351.09,-632.05 361.54,-633.78 360.34,-626.89"/>
</g>
<!-- aws_subnet.public_subnet_1c -->
<g id="node36" class="node">
<title>aws_subnet.public_subnet_1c</title>
<polygon fill="none" stroke="black" points="366.5,-614 143.5,-614 143.5,-578 366.5,-578 366.5,-614"/>
<text text-anchor="middle" x="255" y="-592.3" font-family="sans-serif" font-size="14.00">aws_subnet.public_subnet_1c</text>
</g>
<!-- aws_route_table_association.public_rt_1c&#45;&gt;aws_subnet.public_subnet_1c -->
<g id="edge25" class="edge">
<title>aws_route_table_association.public_rt_1c&#45;&gt;aws_subnet.public_subnet_1c</title>
<path fill="none" stroke="black" d="M478.24,-596C444.59,-596 409.25,-596 376.91,-596"/>
<polygon fill="black" stroke="black" points="376.52,-592.5 366.52,-596 376.52,-599.5 376.52,-592.5"/>
</g>
<!-- aws_security_group.app_sg&#45;&gt;aws_vpc.vpc -->
<g id="edge26" class="edge">
<title>aws_security_group.app_sg&#45;&gt;aws_vpc.vpc</title>
<path fill="none" stroke="black" d="M223.94,-385.14C198.4,-401.94 162.42,-429.1 140,-461 91.74,-529.68 67.52,-627.97 58,-675.75"/>
<polygon fill="black" stroke="black" points="54.54,-675.21 56.09,-685.69 61.42,-676.53 54.54,-675.21"/>
</g>
<!-- aws_security_group.db_sg&#45;&gt;aws_vpc.vpc -->
<g id="edge27" class="edge">
<title>aws_security_group.db_sg&#45;&gt;aws_vpc.vpc</title>
<path fill="none" stroke="black" d="M191,-304.04C172.18,-312.24 153.11,-323.84 140,-340 97.48,-392.42 66.67,-599.54 56.57,-675.7"/>
<polygon fill="black" stroke="black" points="53.06,-675.59 55.23,-685.96 60,-676.49 53.06,-675.59"/>
</g>
<!-- aws_security_group.opmng_sg&#45;&gt;aws_vpc.vpc -->
<g id="edge28" class="edge">
<title>aws_security_group.opmng_sg&#45;&gt;aws_vpc.vpc</title>
<path fill="none" stroke="black" d="M153.2,-901.89C148.53,-899.3 144.09,-896.35 140,-893 89.22,-851.43 66.7,-773.67 57.9,-732.02"/>
<polygon fill="black" stroke="black" points="61.29,-731.14 55.9,-722.02 54.43,-732.51 61.29,-731.14"/>
</g>
<!-- aws_security_group.web_sg -->
<g id="node20" class="node">
<title>aws_security_group.web_sg</title>
<polygon fill="none" stroke="black" points="359.5,-506 150.5,-506 150.5,-470 359.5,-470 359.5,-506"/>
<text text-anchor="middle" x="255" y="-484.3" font-family="sans-serif" font-size="14.00">aws_security_group.web_sg</text>
</g>
<!-- aws_security_group.web_sg&#45;&gt;aws_vpc.vpc -->
<g id="edge29" class="edge">
<title>aws_security_group.web_sg&#45;&gt;aws_vpc.vpc</title>
<path fill="none" stroke="black" d="M222.01,-506.12C197.67,-520.94 164.32,-543.55 140,-569 108.5,-601.96 81.75,-647.89 66.53,-676.78"/>
<polygon fill="black" stroke="black" points="63.3,-675.39 61.82,-685.88 69.52,-678.6 63.3,-675.39"/>
</g>
<!-- aws_security_group_rule.app_in_tcp3000 -->
<g id="node21" class="node">
<title>aws_security_group_rule.app_in_tcp3000</title>
<polygon fill="none" stroke="black" points="779,-398 477,-398 477,-362 779,-362 779,-398"/>
<text text-anchor="middle" x="628" y="-376.3" font-family="sans-serif" font-size="14.00">aws_security_group_rule.app_in_tcp3000</text>
</g>
<!-- aws_security_group_rule.app_in_tcp3000&#45;&gt;aws_security_group.app_sg -->
<g id="edge30" class="edge">
<title>aws_security_group_rule.app_in_tcp3000&#45;&gt;aws_security_group.app_sg</title>
<path fill="none" stroke="black" d="M476.9,-374.74C440.93,-373.48 403.11,-372.15 369.14,-370.96"/>
<polygon fill="black" stroke="black" points="368.84,-367.45 358.72,-370.6 368.59,-374.45 368.84,-367.45"/>
</g>
<!-- aws_security_group_rule.app_in_tcp3000&#45;&gt;aws_security_group.web_sg -->
<g id="edge31" class="edge">
<title>aws_security_group_rule.app_in_tcp3000&#45;&gt;aws_security_group.web_sg</title>
<path fill="none" stroke="black" d="M476.77,-390.68C452.77,-394.57 428.47,-399.84 406,-407 364.09,-420.35 320.28,-445.5 290.91,-464.25"/>
<polygon fill="black" stroke="black" points="288.76,-461.47 282.27,-469.84 292.57,-467.34 288.76,-461.47"/>
</g>
<!-- aws_security_group_rule.app_out_http -->
<g id="node22" class="node">
<title>aws_security_group_rule.app_out_http</title>
<polygon fill="none" stroke="black" points="769,-182 487,-182 487,-146 769,-146 769,-182"/>
<text text-anchor="middle" x="628" y="-160.3" font-family="sans-serif" font-size="14.00">aws_security_group_rule.app_out_http</text>
</g>
<!-- aws_security_group_rule.app_out_http&#45;&gt;data.aws_prefix_list.s3_pl -->
<g id="edge32" class="edge">
<title>aws_security_group_rule.app_out_http&#45;&gt;data.aws_prefix_list.s3_pl</title>
<path fill="none" stroke="black" d="M486.74,-146.61C445.39,-141.48 400.86,-135.96 362.04,-131.15"/>
<polygon fill="black" stroke="black" points="362.13,-127.63 351.78,-129.88 361.27,-134.58 362.13,-127.63"/>
</g>
<!-- aws_security_group_rule.app_out_http&#45;&gt;aws_security_group.app_sg -->
<g id="edge33" class="edge">
<title>aws_security_group_rule.app_out_http&#45;&gt;aws_security_group.app_sg</title>
<path fill="none" stroke="black" d="M486.98,-156.97C457.57,-161.72 428.64,-171.83 406,-191 362.86,-227.54 406.75,-270.04 370,-313 358.52,-326.42 342.95,-336.75 327.01,-344.6"/>
<polygon fill="black" stroke="black" points="325.23,-341.57 317.62,-348.94 328.16,-347.92 325.23,-341.57"/>
</g>
<!-- aws_security_group_rule.app_out_https -->
<g id="node23" class="node">
<title>aws_security_group_rule.app_out_https</title>
<polygon fill="none" stroke="black" points="773,-90 483,-90 483,-54 773,-54 773,-90"/>
<text text-anchor="middle" x="628" y="-68.3" font-family="sans-serif" font-size="14.00">aws_security_group_rule.app_out_https</text>
</g>
<!-- aws_security_group_rule.app_out_https&#45;&gt;data.aws_prefix_list.s3_pl -->
<g id="edge34" class="edge">
<title>aws_security_group_rule.app_out_https&#45;&gt;data.aws_prefix_list.s3_pl</title>
<path fill="none" stroke="black" d="M482.77,-89.88C442.4,-94.89 399.29,-100.23 361.62,-104.9"/>
<polygon fill="black" stroke="black" points="361.14,-101.44 351.65,-106.14 362.01,-108.38 361.14,-101.44"/>
</g>
<!-- aws_security_group_rule.app_out_https&#45;&gt;aws_security_group.app_sg -->
<g id="edge35" class="edge">
<title>aws_security_group_rule.app_out_https&#45;&gt;aws_security_group.app_sg</title>
<path fill="none" stroke="black" d="M483.37,-90.02C454.4,-99.8 426.57,-114.62 406,-137 351.97,-195.79 419.27,-250.18 370,-313 359.38,-326.54 344.54,-336.86 329.07,-344.65"/>
<polygon fill="black" stroke="black" points="327.48,-341.53 319.91,-348.95 330.45,-347.87 327.48,-341.53"/>
</g>
<!-- aws_security_group_rule.app_out_tcp3306 -->
<g id="node24" class="node">
<title>aws_security_group_rule.app_out_tcp3306</title>
<polygon fill="none" stroke="black" points="783.5,-290 472.5,-290 472.5,-254 783.5,-254 783.5,-290"/>
<text text-anchor="middle" x="628" y="-268.3" font-family="sans-serif" font-size="14.00">aws_security_group_rule.app_out_tcp3306</text>
</g>
<!-- aws_security_group_rule.app_out_tcp3306&#45;&gt;aws_security_group.app_sg -->
<g id="edge36" class="edge">
<title>aws_security_group_rule.app_out_tcp3306&#45;&gt;aws_security_group.app_sg</title>
<path fill="none" stroke="black" d="M472.44,-284.79C449.94,-288.41 427.21,-293.05 406,-299 395.4,-301.97 343.27,-325.98 303.41,-344.63"/>
<polygon fill="black" stroke="black" points="301.92,-341.47 294.35,-348.88 304.89,-347.81 301.92,-341.47"/>
</g>
<!-- aws_security_group_rule.app_out_tcp3306&#45;&gt;aws_security_group.db_sg -->
<g id="edge37" class="edge">
<title>aws_security_group_rule.app_out_tcp3306&#45;&gt;aws_security_group.db_sg</title>
<path fill="none" stroke="black" d="M472.35,-277.84C436.22,-279.2 398.49,-280.62 364.84,-281.89"/>
<polygon fill="black" stroke="black" points="364.39,-278.41 354.53,-282.28 364.66,-285.4 364.39,-278.41"/>
</g>
<!-- aws_security_group_rule.db_in_tcp3306 -->
<g id="node25" class="node">
<title>aws_security_group_rule.db_in_tcp3306</title>
<polygon fill="none" stroke="black" points="774.5,-344 481.5,-344 481.5,-308 774.5,-308 774.5,-344"/>
<text text-anchor="middle" x="628" y="-322.3" font-family="sans-serif" font-size="14.00">aws_security_group_rule.db_in_tcp3306</text>
</g>
<!-- aws_security_group_rule.db_in_tcp3306&#45;&gt;aws_security_group.app_sg -->
<g id="edge38" class="edge">
<title>aws_security_group_rule.db_in_tcp3306&#45;&gt;aws_security_group.app_sg</title>
<path fill="none" stroke="black" d="M481.44,-342.09C444.11,-346.21 404.53,-350.59 369.11,-354.5"/>
<polygon fill="black" stroke="black" points="368.31,-351.07 358.76,-355.64 369.08,-358.02 368.31,-351.07"/>
</g>
<!-- aws_security_group_rule.db_in_tcp3306&#45;&gt;aws_security_group.db_sg -->
<g id="edge39" class="edge">
<title>aws_security_group_rule.db_in_tcp3306&#45;&gt;aws_security_group.db_sg</title>
<path fill="none" stroke="black" d="M481.44,-310.31C442.56,-306.11 401.23,-301.66 364.72,-297.72"/>
<polygon fill="black" stroke="black" points="364.87,-294.22 354.55,-296.63 364.12,-301.18 364.87,-294.22"/>
</g>
<!-- aws_security_group_rule.opmng_in_ssh -->
<g id="node26" class="node">
<title>aws_security_group_rule.opmng_in_ssh</title>
<polygon fill="none" stroke="black" points="773,-884 483,-884 483,-848 773,-848 773,-884"/>
<text text-anchor="middle" x="628" y="-862.3" font-family="sans-serif" font-size="14.00">aws_security_group_rule.opmng_in_ssh</text>
</g>
<!-- aws_security_group_rule.opmng_in_ssh&#45;&gt;aws_security_group.opmng_sg -->
<g id="edge40" class="edge">
<title>aws_security_group_rule.opmng_in_ssh&#45;&gt;aws_security_group.opmng_sg</title>
<path fill="none" stroke="black" d="M482.99,-882.4C457.32,-885.66 430.84,-889.25 406,-893 391.65,-895.17 376.57,-897.64 361.72,-900.2"/>
<polygon fill="black" stroke="black" points="360.74,-896.82 351.49,-901.98 361.94,-903.71 360.74,-896.82"/>
</g>
<!-- aws_security_group_rule.opmng_in_tcp3000 -->
<g id="node27" class="node">
<title>aws_security_group_rule.opmng_in_tcp3000</title>
<polygon fill="none" stroke="black" points="790,-1046 466,-1046 466,-1010 790,-1010 790,-1046"/>
<text text-anchor="middle" x="628" y="-1024.3" font-family="sans-serif" font-size="14.00">aws_security_group_rule.opmng_in_tcp3000</text>
</g>
<!-- aws_security_group_rule.opmng_in_tcp3000&#45;&gt;aws_security_group.opmng_sg -->
<g id="edge41" class="edge">
<title>aws_security_group_rule.opmng_in_tcp3000&#45;&gt;aws_security_group.opmng_sg</title>
<path fill="none" stroke="black" d="M465.84,-1015.46C445.44,-1011.79 425.06,-1007.07 406,-1001 364.09,-987.65 320.28,-962.5 290.91,-943.75"/>
<polygon fill="black" stroke="black" points="292.57,-940.66 282.27,-938.16 288.76,-946.53 292.57,-940.66"/>
</g>
<!-- aws_security_group_rule.opmng_out_http -->
<g id="node28" class="node">
<title>aws_security_group_rule.opmng_out_http</title>
<polygon fill="none" stroke="black" points="780.5,-992 475.5,-992 475.5,-956 780.5,-956 780.5,-992"/>
<text text-anchor="middle" x="628" y="-970.3" font-family="sans-serif" font-size="14.00">aws_security_group_rule.opmng_out_http</text>
</g>
<!-- aws_security_group_rule.opmng_out_http&#45;&gt;aws_security_group.opmng_sg -->
<g id="edge42" class="edge">
<title>aws_security_group_rule.opmng_out_http&#45;&gt;aws_security_group.opmng_sg</title>
<path fill="none" stroke="black" d="M475.27,-956.61C452.04,-953.62 428.36,-950.38 406,-947 391.65,-944.83 376.57,-942.36 361.72,-939.8"/>
<polygon fill="black" stroke="black" points="361.94,-936.29 351.49,-938.02 360.74,-943.18 361.94,-936.29"/>
</g>
<!-- aws_security_group_rule.opmng_out_https -->
<g id="node29" class="node">
<title>aws_security_group_rule.opmng_out_https</title>
<polygon fill="none" stroke="black" points="784,-938 472,-938 472,-902 784,-902 784,-938"/>
<text text-anchor="middle" x="628" y="-916.3" font-family="sans-serif" font-size="14.00">aws_security_group_rule.opmng_out_https</text>
</g>
<!-- aws_security_group_rule.opmng_out_https&#45;&gt;aws_security_group.opmng_sg -->
<g id="edge43" class="edge">
<title>aws_security_group_rule.opmng_out_https&#45;&gt;aws_security_group.opmng_sg</title>
<path fill="none" stroke="black" d="M471.81,-920C441.35,-920 409.77,-920 380.47,-920"/>
<polygon fill="black" stroke="black" points="380.21,-916.5 370.21,-920 380.21,-923.5 380.21,-916.5"/>
</g>
<!-- aws_security_group_rule.web_in_http -->
<g id="node30" class="node">
<title>aws_security_group_rule.web_in_http</title>
<polygon fill="none" stroke="black" points="765.5,-560 490.5,-560 490.5,-524 765.5,-524 765.5,-560"/>
<text text-anchor="middle" x="628" y="-538.3" font-family="sans-serif" font-size="14.00">aws_security_group_rule.web_in_http</text>
</g>
<!-- aws_security_group_rule.web_in_http&#45;&gt;aws_security_group.web_sg -->
<g id="edge44" class="edge">
<title>aws_security_group_rule.web_in_http&#45;&gt;aws_security_group.web_sg</title>
<path fill="none" stroke="black" d="M490.38,-526.53C462.42,-523.03 433.23,-519.11 406,-515 391.65,-512.83 376.57,-510.36 361.72,-507.8"/>
<polygon fill="black" stroke="black" points="361.94,-504.29 351.49,-506.02 360.74,-511.18 361.94,-504.29"/>
</g>
<!-- aws_security_group_rule.web_in_https -->
<g id="node31" class="node">
<title>aws_security_group_rule.web_in_https</title>
<polygon fill="none" stroke="black" points="769,-506 487,-506 487,-470 769,-470 769,-506"/>
<text text-anchor="middle" x="628" y="-484.3" font-family="sans-serif" font-size="14.00">aws_security_group_rule.web_in_https</text>
</g>
<!-- aws_security_group_rule.web_in_https&#45;&gt;aws_security_group.web_sg -->
<g id="edge45" class="edge">
<title>aws_security_group_rule.web_in_https&#45;&gt;aws_security_group.web_sg</title>
<path fill="none" stroke="black" d="M486.74,-488C448.2,-488 406.88,-488 370.01,-488"/>
<polygon fill="black" stroke="black" points="369.73,-484.5 359.73,-488 369.73,-491.5 369.73,-484.5"/>
</g>
<!-- aws_security_group_rule.web_out_tcp3000 -->
<g id="node32" class="node">
<title>aws_security_group_rule.web_out_tcp3000</title>
<polygon fill="none" stroke="black" points="785,-452 471,-452 471,-416 785,-416 785,-452"/>
<text text-anchor="middle" x="628" y="-430.3" font-family="sans-serif" font-size="14.00">aws_security_group_rule.web_out_tcp3000</text>
</g>
<!-- aws_security_group_rule.web_out_tcp3000&#45;&gt;aws_security_group.app_sg -->
<g id="edge46" class="edge">
<title>aws_security_group_rule.web_out_tcp3000&#45;&gt;aws_security_group.app_sg</title>
<path fill="none" stroke="black" d="M470.82,-417.67C448.98,-414.59 426.87,-411.04 406,-407 379.6,-401.89 351,-394.69 325.92,-387.81"/>
<polygon fill="black" stroke="black" points="326.71,-384.39 316.13,-385.09 324.83,-391.14 326.71,-384.39"/>
</g>
<!-- aws_security_group_rule.web_out_tcp3000&#45;&gt;aws_security_group.web_sg -->
<g id="edge47" class="edge">
<title>aws_security_group_rule.web_out_tcp3000&#45;&gt;aws_security_group.web_sg</title>
<path fill="none" stroke="black" d="M470.8,-451.97C449.01,-454.8 426.93,-457.84 406,-461 391.65,-463.17 376.57,-465.64 361.72,-468.2"/>
<polygon fill="black" stroke="black" points="360.74,-464.82 351.49,-469.98 361.94,-471.71 360.74,-464.82"/>
</g>
<!-- aws_subnet.private_subnet_1a&#45;&gt;aws_vpc.vpc -->
<g id="edge48" class="edge">
<title>aws_subnet.private_subnet_1a&#45;&gt;aws_vpc.vpc</title>
<path fill="none" stroke="black" d="M150.73,-1117.92C146.88,-1115.3 143.27,-1112.34 140,-1109 86.98,-1054.85 62.29,-815.35 55.22,-732.4"/>
<polygon fill="black" stroke="black" points="58.71,-732.1 54.39,-722.42 51.73,-732.68 58.71,-732.1"/>
</g>
<!-- aws_subnet.private_subnet_1c&#45;&gt;aws_vpc.vpc -->
<g id="edge49" class="edge">
<title>aws_subnet.private_subnet_1c&#45;&gt;aws_vpc.vpc</title>
<path fill="none" stroke="black" d="M151.11,-1063.96C147.13,-1061.33 143.4,-1058.36 140,-1055 93.75,-1009.23 65.35,-807.42 56.23,-732.3"/>
<polygon fill="black" stroke="black" points="59.68,-731.69 55.02,-722.17 52.73,-732.51 59.68,-731.69"/>
</g>
<!-- aws_subnet.public_subnet_1a&#45;&gt;aws_vpc.vpc -->
<g id="edge50" class="edge">
<title>aws_subnet.public_subnet_1a&#45;&gt;aws_vpc.vpc</title>
<path fill="none" stroke="black" d="M174.71,-739.96C163.04,-737.09 151.18,-734.06 140,-731 131.58,-728.7 122.74,-726.13 114.06,-723.53"/>
<polygon fill="black" stroke="black" points="114.94,-720.14 104.35,-720.58 112.9,-726.83 114.94,-720.14"/>
</g>
<!-- aws_subnet.public_subnet_1c&#45;&gt;aws_vpc.vpc -->
<g id="edge51" class="edge">
<title>aws_subnet.public_subnet_1c&#45;&gt;aws_vpc.vpc</title>
<path fill="none" stroke="black" d="M160.14,-614.01C153.16,-616.61 146.37,-619.59 140,-623 114.28,-636.76 90.44,-660.02 74.24,-678.09"/>
<polygon fill="black" stroke="black" points="71.3,-676.14 67.36,-685.98 76.57,-680.75 71.3,-676.14"/>
</g>
</g>
</svg>
