<?xml version="1.0" encoding="UTF-8" standalone="no"?>
<!DOCTYPE svg PUBLIC "-//W3C//DTD SVG 1.1//EN"
 "http://www.w3.org/Graphics/SVG/1.1/DTD/svg11.dtd">
<!-- Generated by graphviz version 2.43.0 (0)
 -->
<!-- Title: G Pages: 1 -->
<svg width="1364pt" height="206pt"
 viewBox="0.00 0.00 1364.00 206.00" xmlns="http://www.w3.org/2000/svg" xmlns:xlink="http://www.w3.org/1999/xlink">
<g id="graph0" class="graph" transform="scale(1 1) rotate(0) translate(4 202)">
<title>G</title>
<polygon fill="white" stroke="transparent" points="-4,4 -4,-202 1360,-202 1360,4 -4,4"/>
<!-- data.aws_iam_policy_document.billing_deny -->
<g id="node1" class="node">
<title>data.aws_iam_policy_document.billing_deny</title>
<polygon fill="none" stroke="black" points="377,-198 54,-198 54,-162 377,-162 377,-198"/>
<text text-anchor="middle" x="215.5" y="-176.3" font-family="sans-serif" font-size="14.00">data.aws_iam_policy_document.billing_deny</text>
</g>
<!-- data.aws_iam_policy_document.ec2_rebootable -->
<g id="node2" class="node">
<title>data.aws_iam_policy_document.ec2_rebootable</title>
<polygon fill="none" stroke="black" points="387.5,-90 43.5,-90 43.5,-54 387.5,-54 387.5,-90"/>
<text text-anchor="middle" x="215.5" y="-68.3" font-family="sans-serif" font-size="14.00">data.aws_iam_policy_document.ec2_rebootable</text>
</g>
<!-- data.aws_iam_policy_document.iam_change_own_password -->
<g id="node3" class="node">
<title>data.aws_iam_policy_document.iam_change_own_password</title>
<polygon fill="none" stroke="black" points="431,-36 0,-36 0,0 431,0 431,-36"/>
<text text-anchor="middle" x="215.5" y="-14.3" font-family="sans-serif" font-size="14.00">data.aws_iam_policy_document.iam_change_own_password</text>
</g>
<!-- aws_iam_group.developers -->
<g id="node4" class="node">
<title>aws_iam_group.developers</title>
<polygon fill="none" stroke="black" points="727.5,-144 523.5,-144 523.5,-108 727.5,-108 727.5,-144"/>
<text text-anchor="middle" x="625.5" y="-122.3" font-family="sans-serif" font-size="14.00">aws_iam_group.developers</text>
</g>
<!-- aws_iam_group_policy_attachment.developers_billing_deny -->
<g id="node5" class="node">
<title>aws_iam_group_policy_attachment.developers_billing_deny</title>
<polygon fill="none" stroke="black" points="1302,-198 874,-198 874,-162 1302,-162 1302,-198"/>
<text text-anchor="middle" x="1088" y="-176.3" font-family="sans-serif" font-size="14.00">aws_iam_group_policy_attachment.developers_billing_deny</text>
</g>
<!-- aws_iam_group_policy_attachment.developers_billing_deny&#45;&gt;aws_iam_group.developers -->
<g id="edge1" class="edge">
<title>aws_iam_group_policy_attachment.developers_billing_deny&#45;&gt;aws_iam_group.developers</title>
<path fill="none" stroke="black" d="M899.81,-161.98C873.01,-159.13 845.79,-156.1 820,-153 793.42,-149.8 764.84,-146.01 738.02,-142.3"/>
<polygon fill="black" stroke="black" points="738.22,-138.79 727.84,-140.88 737.26,-145.72 738.22,-138.79"/>
</g>
<!-- aws_iam_policy.billing_deny -->
<g id="node9" class="node">
<title>aws_iam_policy.billing_deny</title>
<polygon fill="none" stroke="black" points="730,-198 521,-198 521,-162 730,-162 730,-198"/>
<text text-anchor="middle" x="625.5" y="-176.3" font-family="sans-serif" font-size="14.00">aws_iam_policy.billing_deny</text>
</g>
<!-- aws_iam_group_policy_attachment.developers_billing_deny&#45;&gt;aws_iam_policy.billing_deny -->
<g id="edge2" class="edge">
<title>aws_iam_group_policy_attachment.developers_billing_deny&#45;&gt;aws_iam_policy.billing_deny</title>
<path fill="none" stroke="black" d="M873.94,-180C827.81,-180 780.76,-180 740.24,-180"/>
<polygon fill="black" stroke="black" points="740.08,-176.5 730.08,-180 740.08,-183.5 740.08,-176.5"/>
</g>
<!-- aws_iam_group_policy_attachment.developers_ec2_rebootable -->
<g id="node6" class="node">
<title>aws_iam_group_policy_attachment.developers_ec2_rebootable</title>
<polygon fill="none" stroke="black" points="1312.5,-90 863.5,-90 863.5,-54 1312.5,-54 1312.5,-90"/>
<text text-anchor="middle" x="1088" y="-68.3" font-family="sans-serif" font-size="14.00">aws_iam_group_policy_attachment.developers_ec2_rebootable</text>
</g>
<!-- aws_iam_group_policy_attachment.developers_ec2_rebootable&#45;&gt;aws_iam_group.developers -->
<g id="edge3" class="edge">
<title>aws_iam_group_policy_attachment.developers_ec2_rebootable&#45;&gt;aws_iam_group.developers</title>
<path fill="none" stroke="black" d="M899.81,-90.02C873.01,-92.87 845.79,-95.9 820,-99 793.42,-102.2 764.84,-105.99 738.02,-109.7"/>
<polygon fill="black" stroke="black" points="737.26,-106.28 727.84,-111.12 738.22,-113.21 737.26,-106.28"/>
</g>
<!-- aws_iam_policy.ec2_rebootable -->
<g id="node10" class="node">
<title>aws_iam_policy.ec2_rebootable</title>
<polygon fill="none" stroke="black" points="740.5,-90 510.5,-90 510.5,-54 740.5,-54 740.5,-90"/>
<text text-anchor="middle" x="625.5" y="-68.3" font-family="sans-serif" font-size="14.00">aws_iam_policy.ec2_rebootable</text>
</g>
<!-- aws_iam_group_policy_attachment.developers_ec2_rebootable&#45;&gt;aws_iam_policy.ec2_rebootable -->
<g id="edge4" class="edge">
<title>aws_iam_group_policy_attachment.developers_ec2_rebootable&#45;&gt;aws_iam_policy.ec2_rebootable</title>
<path fill="none" stroke="black" d="M863.49,-72C824.7,-72 785.65,-72 750.76,-72"/>
<polygon fill="black" stroke="black" points="750.55,-68.5 740.55,-72 750.55,-75.5 750.55,-68.5"/>
</g>
<!-- aws_iam_group_policy_attachment.developers_iam_change_own_password -->
<g id="node7" class="node">
<title>aws_iam_group_policy_attachment.developers_iam_change_own_password</title>
<polygon fill="none" stroke="black" points="1356,-36 820,-36 820,0 1356,0 1356,-36"/>
<text text-anchor="middle" x="1088" y="-14.3" font-family="sans-serif" font-size="14.00">aws_iam_group_policy_attachment.developers_iam_change_own_password</text>
</g>
<!-- aws_iam_group_policy_attachment.developers_iam_change_own_password&#45;&gt;aws_iam_group.developers -->
<g id="edge5" class="edge">
<title>aws_iam_group_policy_attachment.developers_iam_change_own_password&#45;&gt;aws_iam_group.developers</title>
<path fill="none" stroke="black" d="M836.66,-36.05C830.95,-38.78 825.39,-41.76 820,-45 795.29,-59.87 808.19,-83.28 784,-99 770,-108.1 753.88,-114.41 737.4,-118.75"/>
<polygon fill="black" stroke="black" points="736.59,-115.34 727.68,-121.07 738.22,-122.15 736.59,-115.34"/>
</g>
<!-- aws_iam_policy.iam_change_own_password -->
<g id="node11" class="node">
<title>aws_iam_policy.iam_change_own_password</title>
<polygon fill="none" stroke="black" points="784,-36 467,-36 467,0 784,0 784,-36"/>
<text text-anchor="middle" x="625.5" y="-14.3" font-family="sans-serif" font-size="14.00">aws_iam_policy.iam_change_own_password</text>
</g>
<!-- aws_iam_group_policy_attachment.developers_iam_change_own_password&#45;&gt;aws_iam_policy.iam_change_own_password -->
<g id="edge6" class="edge">
<title>aws_iam_group_policy_attachment.developers_iam_change_own_password&#45;&gt;aws_iam_policy.iam_change_own_password</title>
<path fill="none" stroke="black" d="M819.79,-18C811.19,-18 802.66,-18 794.24,-18"/>
<polygon fill="black" stroke="black" points="794.05,-14.5 784.05,-18 794.05,-21.5 794.05,-14.5"/>
</g>
<!-- aws_iam_group_policy_attachment.developers_readonly_policy -->
<g id="node8" class="node">
<title>aws_iam_group_policy_attachment.developers_readonly_policy</title>
<polygon fill="none" stroke="black" points="1314,-144 862,-144 862,-108 1314,-108 1314,-144"/>
<text text-anchor="middle" x="1088" y="-122.3" font-family="sans-serif" font-size="14.00">aws_iam_group_policy_attachment.developers_readonly_policy</text>
</g>
<!-- aws_iam_group_policy_attachment.developers_readonly_policy&#45;&gt;aws_iam_group.developers -->
<g id="edge7" class="edge">
<title>aws_iam_group_policy_attachment.developers_readonly_policy&#45;&gt;aws_iam_group.developers</title>
<path fill="none" stroke="black" d="M861.81,-126C818.75,-126 775.46,-126 737.96,-126"/>
<polygon fill="black" stroke="black" points="737.54,-122.5 727.54,-126 737.54,-129.5 737.54,-122.5"/>
</g>
<!-- aws_iam_policy.billing_deny&#45;&gt;data.aws_iam_policy_document.billing_deny -->
<g id="edge8" class="edge">
<title>aws_iam_policy.billing_deny&#45;&gt;data.aws_iam_policy_document.billing_deny</title>
<path fill="none" stroke="black" d="M520.75,-180C480.26,-180 432.75,-180 387.47,-180"/>
<polygon fill="black" stroke="black" points="387.24,-176.5 377.24,-180 387.24,-183.5 387.24,-176.5"/>
</g>
<!-- aws_iam_policy.ec2_rebootable&#45;&gt;data.aws_iam_policy_document.ec2_rebootable -->
<g id="edge9" class="edge">
<title>aws_iam_policy.ec2_rebootable&#45;&gt;data.aws_iam_policy_document.ec2_rebootable</title>
<path fill="none" stroke="black" d="M510.31,-72C475.36,-72 436.01,-72 397.75,-72"/>
<polygon fill="black" stroke="black" points="397.52,-68.5 387.52,-72 397.52,-75.5 397.52,-68.5"/>
</g>
<!-- aws_iam_policy.iam_change_own_password&#45;&gt;data.aws_iam_policy_document.iam_change_own_password -->
<g id="edge10" class="edge">
<title>aws_iam_policy.iam_change_own_password&#45;&gt;data.aws_iam_policy_document.iam_change_own_password</title>
<path fill="none" stroke="black" d="M466.76,-18C458.38,-18 449.88,-18 441.34,-18"/>
<polygon fill="black" stroke="black" points="441.3,-14.5 431.3,-18 441.3,-21.5 441.3,-14.5"/>
</g>
</g>
</svg>
