<?xml version="1.0" encoding="UTF-8" standalone="no"?>
<!DOCTYPE svg PUBLIC "-//W3C//DTD SVG 1.1//EN"
 "http://www.w3.org/Graphics/SVG/1.1/DTD/svg11.dtd">
<!-- Generated by graphviz version 2.43.0 (0)
 -->
<!-- Title: G Pages: 1 -->
<svg width="819pt" height="206pt"
 viewBox="0.00 0.00 819.00 206.00" xmlns="http://www.w3.org/2000/svg" xmlns:xlink="http://www.w3.org/1999/xlink">
<g id="graph0" class="graph" transform="scale(1 1) rotate(0) translate(4 202)">
<title>G</title>
<polygon fill="white" stroke="transparent" points="-4,4 -4,-202 815,-202 815,4 -4,4"/>
<!-- data.aws_iam_policy_document.billing_deny -->
<g id="node1" class="node">
<title>data.aws_iam_policy_document.billing_deny</title>
<polygon fill="none" stroke="black" points="333.5,-36 10.5,-36 10.5,0 333.5,0 333.5,-36"/>
<text text-anchor="middle" x="172" y="-14.3" font-family="sans-serif" font-size="14.00">data.aws_iam_policy_document.billing_deny</text>
</g>
<!-- data.aws_iam_policy_document.ec2_rebootable -->
<g id="node2" class="node">
<title>data.aws_iam_policy_document.ec2_rebootable</title>
<polygon fill="none" stroke="black" points="344,-117 0,-117 0,-81 344,-81 344,-117"/>
<text text-anchor="middle" x="172" y="-95.3" font-family="sans-serif" font-size="14.00">data.aws_iam_policy_document.ec2_rebootable</text>
</g>
<!-- data.aws_iam_policy_document.iam_change_own_password -->
<g id="node3" class="node">
<title>data.aws_iam_policy_document.iam_change_own_password</title>
<polygon fill="none" stroke="black" points="811,-198 380,-198 380,-162 811,-162 811,-198"/>
<text text-anchor="middle" x="595.5" y="-176.3" font-family="sans-serif" font-size="14.00">data.aws_iam_policy_document.iam_change_own_password</text>
</g>
<!-- aws_iam_policy.billing_deny -->
<g id="node4" class="node">
<title>aws_iam_policy.billing_deny</title>
<polygon fill="none" stroke="black" points="700,-36 491,-36 491,0 700,0 700,-36"/>
<text text-anchor="middle" x="595.5" y="-14.3" font-family="sans-serif" font-size="14.00">aws_iam_policy.billing_deny</text>
</g>
<!-- aws_iam_policy.billing_deny&#45;&gt;data.aws_iam_policy_document.billing_deny -->
<g id="edge1" class="edge">
<title>aws_iam_policy.billing_deny&#45;&gt;data.aws_iam_policy_document.billing_deny</title>
<path fill="none" stroke="black" d="M490.85,-18C446.61,-18 393.79,-18 344.04,-18"/>
<polygon fill="black" stroke="black" points="343.81,-14.5 333.8,-18 343.8,-21.5 343.81,-14.5"/>
</g>
<!-- aws_iam_policy.ec2_rebootable -->
<g id="node5" class="node">
<title>aws_iam_policy.ec2_rebootable</title>
<polygon fill="none" stroke="black" points="710.5,-144 480.5,-144 480.5,-108 710.5,-108 710.5,-144"/>
<text text-anchor="middle" x="595.5" y="-122.3" font-family="sans-serif" font-size="14.00">aws_iam_policy.ec2_rebootable</text>
</g>
<!-- aws_iam_policy.ec2_rebootable&#45;&gt;data.aws_iam_policy_document.ec2_rebootable -->
<g id="edge2" class="edge">
<title>aws_iam_policy.ec2_rebootable&#45;&gt;data.aws_iam_policy_document.ec2_rebootable</title>
<path fill="none" stroke="black" d="M480.44,-118.69C441.53,-116.2 397.02,-113.35 354.16,-110.6"/>
<polygon fill="black" stroke="black" points="354.39,-107.11 344.18,-109.97 353.94,-114.1 354.39,-107.11"/>
</g>
<!-- aws_iam_policy.iam_change_own_password -->
<g id="node6" class="node">
<title>aws_iam_policy.iam_change_own_password</title>
<polygon fill="none" stroke="black" points="754,-90 437,-90 437,-54 754,-54 754,-90"/>
<text text-anchor="middle" x="595.5" y="-68.3" font-family="sans-serif" font-size="14.00">aws_iam_policy.iam_change_own_password</text>
</g>
<!-- aws_iam_policy.iam_change_own_password&#45;&gt;data.aws_iam_policy_document.ec2_rebootable -->
<g id="edge3" class="edge">
<title>aws_iam_policy.iam_change_own_password&#45;&gt;data.aws_iam_policy_document.ec2_rebootable</title>
<path fill="none" stroke="black" d="M436.95,-82.09C409.98,-83.82 381.77,-85.63 354.24,-87.39"/>
<polygon fill="black" stroke="black" points="353.89,-83.91 344.13,-88.04 354.34,-90.89 353.89,-83.91"/>
</g>
</g>
</svg>
