<?xml version="1.0" encoding="UTF-8" standalone="no"?>
<!DOCTYPE svg PUBLIC "-//W3C//DTD SVG 1.1//EN"
 "http://www.w3.org/Graphics/SVG/1.1/DTD/svg11.dtd">
<!-- Generated by graphviz version 2.43.0 (0)
 -->
<!-- Title: G Pages: 1 -->
<svg width="1460pt" height="1351pt"
 viewBox="0.00 0.00 1460.00 1351.00" xmlns="http://www.w3.org/2000/svg" xmlns:xlink="http://www.w3.org/1999/xlink">
<g id="graph0" class="graph" transform="scale(1 1) rotate(0) translate(4 1347)">
<title>G</title>
<polygon fill="white" stroke="transparent" points="-4,4 -4,-1347 1456,-1347 1456,4 -4,4"/>
<!-- data.aws_ami.app -->
<g id="node1" class="node">
<title>data.aws_ami.app</title>
<polygon fill="none" stroke="black" points="389.5,-884 247.5,-884 247.5,-848 389.5,-848 389.5,-884"/>
<text text-anchor="middle" x="318.5" y="-862.3" font-family="sans-serif" font-size="14.00">data.aws_ami.app</text>
</g>
<!-- data.aws_iam_policy_document.ec2_assume_role -->
<g id="node2" class="node">
<title>data.aws_iam_policy_document.ec2_assume_role</title>
<polygon fill="none" stroke="black" points="497,-1262 140,-1262 140,-1226 497,-1226 497,-1262"/>
<text text-anchor="middle" x="318.5" y="-1240.3" font-family="sans-serif" font-size="14.00">data.aws_iam_policy_document.ec2_assume_role</text>
</g>
<!-- data.aws_prefix_list.s3_pl -->
<g id="node3" class="node">
<title>data.aws_prefix_list.s3_pl</title>
<polygon fill="none" stroke="black" points="415,-136 222,-136 222,-100 415,-100 415,-136"/>
<text text-anchor="middle" x="318.5" y="-114.3" font-family="sans-serif" font-size="14.00">data.aws_prefix_list.s3_pl</text>
</g>
<!-- aws_db_instance.mysql_standalone -->
<g id="node4" class="node">
<title>aws_db_instance.mysql_standalone</title>
<polygon fill="none" stroke="black" points="1364,-236 1101,-236 1101,-200 1364,-200 1364,-236"/>
<text text-anchor="middle" x="1232.5" y="-214.3" font-family="sans-serif" font-size="14.00">aws_db_instance.mysql_standalone</text>
</g>
<!-- aws_db_option_group.mysql_standalone_optiongroup -->
<g id="node5" class="node">
<title>aws_db_option_group.mysql_standalone_optiongroup</title>
<polygon fill="none" stroke="black" points="948,-36 562,-36 562,0 948,0 948,-36"/>
<text text-anchor="middle" x="755" y="-14.3" font-family="sans-serif" font-size="14.00">aws_db_option_group.mysql_standalone_optiongroup</text>
</g>
<!-- aws_db_instance.mysql_standalone&#45;&gt;aws_db_option_group.mysql_standalone_optiongroup -->
<g id="edge1" class="edge">
<title>aws_db_instance.mysql_standalone&#45;&gt;aws_db_option_group.mysql_standalone_optiongroup</title>
<path fill="none" stroke="black" d="M1211.96,-199.73C1171.64,-163.25 1074.78,-81.72 977,-45 970.74,-42.65 964.32,-40.49 957.78,-38.51"/>
<polygon fill="black" stroke="black" points="958.71,-35.14 948.13,-35.74 956.77,-41.87 958.71,-35.14"/>
</g>
<!-- aws_db_parameter_group.mysql_standalone_parametergroup -->
<g id="node6" class="node">
<title>aws_db_parameter_group.mysql_standalone_parametergroup</title>
<polygon fill="none" stroke="black" points="977,-776 533,-776 533,-740 977,-740 977,-776"/>
<text text-anchor="middle" x="755" y="-754.3" font-family="sans-serif" font-size="14.00">aws_db_parameter_group.mysql_standalone_parametergroup</text>
</g>
<!-- aws_db_instance.mysql_standalone&#45;&gt;aws_db_parameter_group.mysql_standalone_parametergroup -->
<g id="edge2" class="edge">
<title>aws_db_instance.mysql_standalone&#45;&gt;aws_db_parameter_group.mysql_standalone_parametergroup</title>
<path fill="none" stroke="black" d="M1228.72,-236.25C1216.11,-312.01 1156.95,-603.64 977,-731 975.28,-732.21 973.54,-733.39 971.77,-734.53"/>
<polygon fill="black" stroke="black" points="969.55,-731.78 962.74,-739.89 973.12,-737.79 969.55,-731.78"/>
</g>
<!-- aws_db_subnet_group.mysql_standalone_subnetgroup -->
<g id="node7" class="node">
<title>aws_db_subnet_group.mysql_standalone_subnetgroup</title>
<polygon fill="none" stroke="black" points="952.5,-1208 557.5,-1208 557.5,-1172 952.5,-1172 952.5,-1208"/>
<text text-anchor="middle" x="755" y="-1186.3" font-family="sans-serif" font-size="14.00">aws_db_subnet_group.mysql_standalone_subnetgroup</text>
</g>
<!-- aws_db_instance.mysql_standalone&#45;&gt;aws_db_subnet_group.mysql_standalone_subnetgroup -->
<g id="edge3" class="edge">
<title>aws_db_instance.mysql_standalone&#45;&gt;aws_db_subnet_group.mysql_standalone_subnetgroup</title>
<path fill="none" stroke="black" d="M1229.33,-236.37C1214.69,-356.87 1126.51,-1033.28 977,-1163 972.11,-1167.24 966.92,-1171.04 961.49,-1174.44"/>
<polygon fill="black" stroke="black" points="959.68,-1171.44 952.75,-1179.46 963.17,-1177.51 959.68,-1171.44"/>
</g>
<!-- aws_security_group.db_sg -->
<g id="node24" class="node">
<title>aws_security_group.db_sg</title>
<polygon fill="none" stroke="black" points="418,-304 219,-304 219,-268 418,-268 418,-304"/>
<text text-anchor="middle" x="318.5" y="-282.3" font-family="sans-serif" font-size="14.00">aws_security_group.db_sg</text>
</g>
<!-- aws_db_instance.mysql_standalone&#45;&gt;aws_security_group.db_sg -->
<g id="edge4" class="edge">
<title>aws_db_instance.mysql_standalone&#45;&gt;aws_security_group.db_sg</title>
<path fill="none" stroke="black" d="M1188.8,-199.93C1139.02,-179.92 1053.75,-148.92 977,-137 782,-106.72 721.25,-77.81 533,-137 455.51,-161.37 381.6,-224.95 344.43,-260.69"/>
<polygon fill="black" stroke="black" points="341.79,-258.38 337.07,-267.86 346.67,-263.39 341.79,-258.38"/>
</g>
<!-- random_string.db_password -->
<g id="node44" class="node">
<title>random_string.db_password</title>
<polygon fill="none" stroke="black" points="861.5,-236 648.5,-236 648.5,-200 861.5,-200 861.5,-236"/>
<text text-anchor="middle" x="755" y="-214.3" font-family="sans-serif" font-size="14.00">random_string.db_password</text>
</g>
<!-- aws_db_instance.mysql_standalone&#45;&gt;random_string.db_password -->
<g id="edge5" class="edge">
<title>aws_db_instance.mysql_standalone&#45;&gt;random_string.db_password</title>
<path fill="none" stroke="black" d="M1100.94,-218C1029.27,-218 941.16,-218 871.94,-218"/>
<polygon fill="black" stroke="black" points="871.86,-214.5 861.86,-218 871.86,-221.5 871.86,-214.5"/>
</g>
<!-- aws_subnet.private_subnet_1a -->
<g id="node39" class="node">
<title>aws_subnet.private_subnet_1a</title>
<polygon fill="none" stroke="black" points="433.5,-1154 203.5,-1154 203.5,-1118 433.5,-1118 433.5,-1154"/>
<text text-anchor="middle" x="318.5" y="-1132.3" font-family="sans-serif" font-size="14.00">aws_subnet.private_subnet_1a</text>
</g>
<!-- aws_db_subnet_group.mysql_standalone_subnetgroup&#45;&gt;aws_subnet.private_subnet_1a -->
<g id="edge6" class="edge">
<title>aws_db_subnet_group.mysql_standalone_subnetgroup&#45;&gt;aws_subnet.private_subnet_1a</title>
<path fill="none" stroke="black" d="M605.69,-1171.97C581.4,-1168.99 556.49,-1165.92 533,-1163 504.15,-1159.41 473.1,-1155.51 443.87,-1151.82"/>
<polygon fill="black" stroke="black" points="443.97,-1148.3 433.61,-1150.52 443.1,-1155.25 443.97,-1148.3"/>
</g>
<!-- aws_subnet.private_subnet_1c -->
<g id="node40" class="node">
<title>aws_subnet.private_subnet_1c</title>
<polygon fill="none" stroke="black" points="433.5,-1100 203.5,-1100 203.5,-1064 433.5,-1064 433.5,-1100"/>
<text text-anchor="middle" x="318.5" y="-1078.3" font-family="sans-serif" font-size="14.00">aws_subnet.private_subnet_1c</text>
</g>
<!-- aws_db_subnet_group.mysql_standalone_subnetgroup&#45;&gt;aws_subnet.private_subnet_1c -->
<g id="edge7" class="edge">
<title>aws_db_subnet_group.mysql_standalone_subnetgroup&#45;&gt;aws_subnet.private_subnet_1c</title>
<path fill="none" stroke="black" d="M557.38,-1175.43C548.91,-1171.88 540.73,-1167.76 533,-1163 508.44,-1147.87 521.33,-1124.49 497,-1109 480.99,-1098.81 462.55,-1091.94 443.75,-1087.38"/>
<polygon fill="black" stroke="black" points="444.42,-1083.95 433.9,-1085.21 442.91,-1090.78 444.42,-1083.95"/>
</g>
<!-- aws_iam_role.app_iam_role -->
<g id="node8" class="node">
<title>aws_iam_role.app_iam_role</title>
<polygon fill="none" stroke="black" points="856.5,-1262 653.5,-1262 653.5,-1226 856.5,-1226 856.5,-1262"/>
<text text-anchor="middle" x="755" y="-1240.3" font-family="sans-serif" font-size="14.00">aws_iam_role.app_iam_role</text>
</g>
<!-- aws_iam_role.app_iam_role&#45;&gt;data.aws_iam_policy_document.ec2_assume_role -->
<g id="edge8" class="edge">
<title>aws_iam_role.app_iam_role&#45;&gt;data.aws_iam_policy_document.ec2_assume_role</title>
<path fill="none" stroke="black" d="M653.5,-1244C609.91,-1244 557.4,-1244 507.05,-1244"/>
<polygon fill="black" stroke="black" points="507.02,-1240.5 497.02,-1244 507.02,-1247.5 507.02,-1240.5"/>
</g>
<!-- aws_iam_role_policy_attachment.app_iam_role_ec2_readonly -->
<g id="node9" class="node">
<title>aws_iam_role_policy_attachment.app_iam_role_ec2_readonly</title>
<polygon fill="none" stroke="black" points="1450,-1343 1015,-1343 1015,-1307 1450,-1307 1450,-1343"/>
<text text-anchor="middle" x="1232.5" y="-1321.3" font-family="sans-serif" font-size="14.00">aws_iam_role_policy_attachment.app_iam_role_ec2_readonly</text>
</g>
<!-- aws_iam_role_policy_attachment.app_iam_role_ec2_readonly&#45;&gt;aws_iam_role.app_iam_role -->
<g id="edge9" class="edge">
<title>aws_iam_role_policy_attachment.app_iam_role_ec2_readonly&#45;&gt;aws_iam_role.app_iam_role</title>
<path fill="none" stroke="black" d="M1072.85,-1306.99C1052.67,-1304.23 1032.32,-1301.22 1013,-1298 956.2,-1288.54 892.89,-1275.27 843.32,-1264.25"/>
<polygon fill="black" stroke="black" points="843.8,-1260.77 833.28,-1262.01 842.28,-1267.61 843.8,-1260.77"/>
</g>
<!-- aws_iam_role_policy_attachment.app_iam_role_s3_readonly -->
<g id="node10" class="node">
<title>aws_iam_role_policy_attachment.app_iam_role_s3_readonly</title>
<polygon fill="none" stroke="black" points="1446,-1289 1019,-1289 1019,-1253 1446,-1253 1446,-1289"/>
<text text-anchor="middle" x="1232.5" y="-1267.3" font-family="sans-serif" font-size="14.00">aws_iam_role_policy_attachment.app_iam_role_s3_readonly</text>
</g>
<!-- aws_iam_role_policy_attachment.app_iam_role_s3_readonly&#45;&gt;aws_iam_role.app_iam_role -->
<g id="edge10" class="edge">
<title>aws_iam_role_policy_attachment.app_iam_role_s3_readonly&#45;&gt;aws_iam_role.app_iam_role</title>
<path fill="none" stroke="black" d="M1018.78,-1258.92C966.25,-1255.94 912.08,-1252.86 866.66,-1250.28"/>
<polygon fill="black" stroke="black" points="866.69,-1246.78 856.51,-1249.71 866.3,-1253.77 866.69,-1246.78"/>
</g>
<!-- aws_iam_role_policy_attachment.app_iam_role_ssm_readonly -->
<g id="node11" class="node">
<title>aws_iam_role_policy_attachment.app_iam_role_ssm_readonly</title>
<polygon fill="none" stroke="black" points="1452,-1235 1013,-1235 1013,-1199 1452,-1199 1452,-1235"/>
<text text-anchor="middle" x="1232.5" y="-1213.3" font-family="sans-serif" font-size="14.00">aws_iam_role_policy_attachment.app_iam_role_ssm_readonly</text>
</g>
<!-- aws_iam_role_policy_attachment.app_iam_role_ssm_readonly&#45;&gt;aws_iam_role.app_iam_role -->
<g id="edge11" class="edge">
<title>aws_iam_role_policy_attachment.app_iam_role_ssm_readonly&#45;&gt;aws_iam_role.app_iam_role</title>
<path fill="none" stroke="black" d="M1012.89,-1229.41C962.19,-1232.29 910.33,-1235.24 866.6,-1237.72"/>
<polygon fill="black" stroke="black" points="866.32,-1234.23 856.53,-1238.29 866.71,-1241.22 866.32,-1234.23"/>
</g>
<!-- aws_iam_role_policy_attachment.app_iam_ssm_managed -->
<g id="node12" class="node">
<title>aws_iam_role_policy_attachment.app_iam_ssm_managed</title>
<polygon fill="none" stroke="black" points="1438.5,-1181 1026.5,-1181 1026.5,-1145 1438.5,-1145 1438.5,-1181"/>
<text text-anchor="middle" x="1232.5" y="-1159.3" font-family="sans-serif" font-size="14.00">aws_iam_role_policy_attachment.app_iam_ssm_managed</text>
</g>
<!-- aws_iam_role_policy_attachment.app_iam_ssm_managed&#45;&gt;aws_iam_role.app_iam_role -->
<g id="edge12" class="edge">
<title>aws_iam_role_policy_attachment.app_iam_ssm_managed&#45;&gt;aws_iam_role.app_iam_role</title>
<path fill="none" stroke="black" d="M1038.8,-1181.05C1029.97,-1183.67 1021.33,-1186.64 1013,-1190 994.45,-1197.48 995.55,-1209.53 977,-1217 942.58,-1230.85 902.91,-1238.11 866.76,-1241.77"/>
<polygon fill="black" stroke="black" points="866.3,-1238.3 856.66,-1242.71 866.94,-1245.27 866.3,-1238.3"/>
</g>
<!-- aws_instance.app_server -->
<g id="node13" class="node">
<title>aws_instance.app_server</title>
<polygon fill="none" stroke="black" points="850.5,-830 659.5,-830 659.5,-794 850.5,-794 850.5,-830"/>
<text text-anchor="middle" x="755" y="-808.3" font-family="sans-serif" font-size="14.00">aws_instance.app_server</text>
</g>
<!-- aws_instance.app_server&#45;&gt;data.aws_ami.app -->
<g id="edge13" class="edge">
<title>aws_instance.app_server&#45;&gt;data.aws_ami.app</title>
<path fill="none" stroke="black" d="M659.35,-823.47C620.23,-828.24 574.43,-833.85 533,-839 488.91,-844.48 439.71,-850.7 399.66,-855.78"/>
<polygon fill="black" stroke="black" points="399.17,-852.32 389.69,-857.05 400.05,-859.26 399.17,-852.32"/>
</g>
<!-- aws_key_pair.keypair -->
<g id="node15" class="node">
<title>aws_key_pair.keypair</title>
<polygon fill="none" stroke="black" points="399.5,-830 237.5,-830 237.5,-794 399.5,-794 399.5,-830"/>
<text text-anchor="middle" x="318.5" y="-808.3" font-family="sans-serif" font-size="14.00">aws_key_pair.keypair</text>
</g>
<!-- aws_instance.app_server&#45;&gt;aws_key_pair.keypair -->
<g id="edge14" class="edge">
<title>aws_instance.app_server&#45;&gt;aws_key_pair.keypair</title>
<path fill="none" stroke="black" d="M659.45,-812C585.3,-812 482.77,-812 409.75,-812"/>
<polygon fill="black" stroke="black" points="409.64,-808.5 399.64,-812 409.64,-815.5 409.64,-808.5"/>
</g>
<!-- aws_security_group.app_sg -->
<g id="node23" class="node">
<title>aws_security_group.app_sg</title>
<polygon fill="none" stroke="black" points="422,-385 215,-385 215,-349 422,-349 422,-385"/>
<text text-anchor="middle" x="318.5" y="-363.3" font-family="sans-serif" font-size="14.00">aws_security_group.app_sg</text>
</g>
<!-- aws_instance.app_server&#45;&gt;aws_security_group.app_sg -->
<g id="edge15" class="edge">
<title>aws_instance.app_server&#45;&gt;aws_security_group.app_sg</title>
<path fill="none" stroke="black" d="M659.38,-825.18C615.17,-825.8 565.28,-817.63 533,-785 482.06,-733.5 537.74,-520.9 497,-461 473.24,-426.06 432.2,-403.14 395.57,-388.68"/>
<polygon fill="black" stroke="black" points="396.46,-385.28 385.87,-385.01 393.98,-391.82 396.46,-385.28"/>
</g>
<!-- aws_security_group.opmng_sg -->
<g id="node25" class="node">
<title>aws_security_group.opmng_sg</title>
<polygon fill="none" stroke="black" points="433.5,-938 203.5,-938 203.5,-902 433.5,-902 433.5,-938"/>
<text text-anchor="middle" x="318.5" y="-916.3" font-family="sans-serif" font-size="14.00">aws_security_group.opmng_sg</text>
</g>
<!-- aws_instance.app_server&#45;&gt;aws_security_group.opmng_sg -->
<g id="edge16" class="edge">
<title>aws_instance.app_server&#45;&gt;aws_security_group.opmng_sg</title>
<path fill="none" stroke="black" d="M659.25,-806.4C617.81,-808.11 570.27,-816.04 533,-839 508.44,-854.13 521.33,-877.51 497,-893 480.99,-903.19 462.55,-910.06 443.75,-914.62"/>
<polygon fill="black" stroke="black" points="442.91,-911.22 433.9,-916.79 444.42,-918.05 442.91,-911.22"/>
</g>
<!-- aws_subnet.public_subnet_1a -->
<g id="node41" class="node">
<title>aws_subnet.public_subnet_1a</title>
<polygon fill="none" stroke="black" points="430.5,-776 206.5,-776 206.5,-740 430.5,-740 430.5,-776"/>
<text text-anchor="middle" x="318.5" y="-754.3" font-family="sans-serif" font-size="14.00">aws_subnet.public_subnet_1a</text>
</g>
<!-- aws_instance.app_server&#45;&gt;aws_subnet.public_subnet_1a -->
<g id="edge17" class="edge">
<title>aws_instance.app_server&#45;&gt;aws_subnet.public_subnet_1a</title>
<path fill="none" stroke="black" d="M659.35,-800.53C620.23,-795.76 574.43,-790.15 533,-785 503.1,-781.28 470.86,-777.23 440.71,-773.42"/>
<polygon fill="black" stroke="black" points="440.93,-769.92 430.57,-772.14 440.06,-776.86 440.93,-769.92"/>
</g>
<!-- aws_internet_gateway.igw -->
<g id="node14" class="node">
<title>aws_internet_gateway.igw</title>
<polygon fill="none" stroke="black" points="416.5,-722 220.5,-722 220.5,-686 416.5,-686 416.5,-722"/>
<text text-anchor="middle" x="318.5" y="-700.3" font-family="sans-serif" font-size="14.00">aws_internet_gateway.igw</text>
</g>
<!-- aws_vpc.vpc -->
<g id="node43" class="node">
<title>aws_vpc.vpc</title>
<polygon fill="none" stroke="black" points="104,-722 0,-722 0,-686 104,-686 104,-722"/>
<text text-anchor="middle" x="52" y="-700.3" font-family="sans-serif" font-size="14.00">aws_vpc.vpc</text>
</g>
<!-- aws_internet_gateway.igw&#45;&gt;aws_vpc.vpc -->
<g id="edge18" class="edge">
<title>aws_internet_gateway.igw&#45;&gt;aws_vpc.vpc</title>
<path fill="none" stroke="black" d="M220.14,-704C184.8,-704 145.89,-704 114.51,-704"/>
<polygon fill="black" stroke="black" points="114.17,-700.5 104.17,-704 114.17,-707.5 114.17,-700.5"/>
</g>
<!-- aws_route.public_rt_igw -->
<g id="node16" class="node">
<title>aws_route.public_rt_igw</title>
<polygon fill="none" stroke="black" points="846,-668 664,-668 664,-632 846,-632 846,-668"/>
<text text-anchor="middle" x="755" y="-646.3" font-family="sans-serif" font-size="14.00">aws_route.public_rt_igw</text>
</g>
<!-- aws_route.public_rt_igw&#45;&gt;aws_internet_gateway.igw -->
<g id="edge19" class="edge">
<title>aws_route.public_rt_igw&#45;&gt;aws_internet_gateway.igw</title>
<path fill="none" stroke="black" d="M663.94,-660.92C623.84,-665.8 576.06,-671.65 533,-677 498.41,-681.3 460.68,-686.05 426.69,-690.35"/>
<polygon fill="black" stroke="black" points="426.22,-686.89 416.74,-691.61 427.1,-693.83 426.22,-686.89"/>
</g>
<!-- aws_route_table.public_rt -->
<g id="node18" class="node">
<title>aws_route_table.public_rt</title>
<polygon fill="none" stroke="black" points="414.5,-668 222.5,-668 222.5,-632 414.5,-632 414.5,-668"/>
<text text-anchor="middle" x="318.5" y="-646.3" font-family="sans-serif" font-size="14.00">aws_route_table.public_rt</text>
</g>
<!-- aws_route.public_rt_igw&#45;&gt;aws_route_table.public_rt -->
<g id="edge20" class="edge">
<title>aws_route.public_rt_igw&#45;&gt;aws_route_table.public_rt</title>
<path fill="none" stroke="black" d="M663.97,-650C594.41,-650 497.99,-650 424.84,-650"/>
<polygon fill="black" stroke="black" points="424.68,-646.5 414.68,-650 424.68,-653.5 424.68,-646.5"/>
</g>
<!-- aws_route_table.private_rt -->
<g id="node17" class="node">
<title>aws_route_table.private_rt</title>
<polygon fill="none" stroke="black" points="418,-1046 219,-1046 219,-1010 418,-1010 418,-1046"/>
<text text-anchor="middle" x="318.5" y="-1024.3" font-family="sans-serif" font-size="14.00">aws_route_table.private_rt</text>
</g>
<!-- aws_route_table.private_rt&#45;&gt;aws_vpc.vpc -->
<g id="edge21" class="edge">
<title>aws_route_table.private_rt&#45;&gt;aws_vpc.vpc</title>
<path fill="none" stroke="black" d="M246.38,-1009.97C210.27,-997.57 168.19,-977.68 140,-947 82.65,-884.6 62.56,-781.78 55.97,-732.31"/>
<polygon fill="black" stroke="black" points="59.43,-731.81 54.73,-722.32 52.49,-732.68 59.43,-731.81"/>
</g>
<!-- aws_route_table.public_rt&#45;&gt;aws_vpc.vpc -->
<g id="edge22" class="edge">
<title>aws_route_table.public_rt&#45;&gt;aws_vpc.vpc</title>
<path fill="none" stroke="black" d="M222.12,-661.82C195.39,-665.86 166.43,-670.92 140,-677 131.49,-678.96 122.6,-681.32 113.9,-683.84"/>
<polygon fill="black" stroke="black" points="112.77,-680.52 104.18,-686.72 114.76,-687.23 112.77,-680.52"/>
</g>
<!-- aws_route_table_association.private_rt_1a -->
<g id="node19" class="node">
<title>aws_route_table_association.private_rt_1a</title>
<polygon fill="none" stroke="black" points="908.5,-1154 601.5,-1154 601.5,-1118 908.5,-1118 908.5,-1154"/>
<text text-anchor="middle" x="755" y="-1132.3" font-family="sans-serif" font-size="14.00">aws_route_table_association.private_rt_1a</text>
</g>
<!-- aws_route_table_association.private_rt_1a&#45;&gt;aws_route_table.private_rt -->
<g id="edge23" class="edge">
<title>aws_route_table_association.private_rt_1a&#45;&gt;aws_route_table.private_rt</title>
<path fill="none" stroke="black" d="M601.34,-1134.76C577.27,-1129.77 553.57,-1121.67 533,-1109 508.44,-1093.87 521.33,-1070.49 497,-1055 476.55,-1041.98 452.14,-1034.38 428.06,-1030.11"/>
<polygon fill="black" stroke="black" points="428.57,-1026.64 418.14,-1028.53 427.46,-1033.56 428.57,-1026.64"/>
</g>
<!-- aws_route_table_association.private_rt_1a&#45;&gt;aws_subnet.private_subnet_1a -->
<g id="edge24" class="edge">
<title>aws_route_table_association.private_rt_1a&#45;&gt;aws_subnet.private_subnet_1a</title>
<path fill="none" stroke="black" d="M601.42,-1136C549.84,-1136 492.9,-1136 443.77,-1136"/>
<polygon fill="black" stroke="black" points="443.74,-1132.5 433.74,-1136 443.74,-1139.5 443.74,-1132.5"/>
</g>
<!-- aws_route_table_association.private_rt_1c -->
<g id="node20" class="node">
<title>aws_route_table_association.private_rt_1c</title>
<polygon fill="none" stroke="black" points="908,-1100 602,-1100 602,-1064 908,-1064 908,-1100"/>
<text text-anchor="middle" x="755" y="-1078.3" font-family="sans-serif" font-size="14.00">aws_route_table_association.private_rt_1c</text>
</g>
<!-- aws_route_table_association.private_rt_1c&#45;&gt;aws_route_table.private_rt -->
<g id="edge25" class="edge">
<title>aws_route_table_association.private_rt_1c&#45;&gt;aws_route_table.private_rt</title>
<path fill="none" stroke="black" d="M605.69,-1063.97C581.4,-1060.99 556.49,-1057.92 533,-1055 498.98,-1050.77 461.92,-1046.1 428.37,-1041.86"/>
<polygon fill="black" stroke="black" points="428.44,-1038.34 418.07,-1040.55 427.56,-1045.28 428.44,-1038.34"/>
</g>
<!-- aws_route_table_association.private_rt_1c&#45;&gt;aws_subnet.private_subnet_1c -->
<g id="edge26" class="edge">
<title>aws_route_table_association.private_rt_1c&#45;&gt;aws_subnet.private_subnet_1c</title>
<path fill="none" stroke="black" d="M601.73,-1082C550.01,-1082 492.87,-1082 443.62,-1082"/>
<polygon fill="black" stroke="black" points="443.55,-1078.5 433.55,-1082 443.55,-1085.5 443.55,-1078.5"/>
</g>
<!-- aws_route_table_association.public_rt_1a -->
<g id="node21" class="node">
<title>aws_route_table_association.public_rt_1a</title>
<polygon fill="none" stroke="black" points="905,-722 605,-722 605,-686 905,-686 905,-722"/>
<text text-anchor="middle" x="755" y="-700.3" font-family="sans-serif" font-size="14.00">aws_route_table_association.public_rt_1a</text>
</g>
<!-- aws_route_table_association.public_rt_1a&#45;&gt;aws_route_table.public_rt -->
<g id="edge27" class="edge">
<title>aws_route_table_association.public_rt_1a&#45;&gt;aws_route_table.public_rt</title>
<path fill="none" stroke="black" d="M605.69,-685.97C581.4,-682.99 556.49,-679.92 533,-677 497.74,-672.62 459.21,-667.76 424.7,-663.39"/>
<polygon fill="black" stroke="black" points="424.97,-659.9 414.61,-662.12 424.09,-666.84 424.97,-659.9"/>
</g>
<!-- aws_route_table_association.public_rt_1a&#45;&gt;aws_subnet.public_subnet_1a -->
<g id="edge28" class="edge">
<title>aws_route_table_association.public_rt_1a&#45;&gt;aws_subnet.public_subnet_1a</title>
<path fill="none" stroke="black" d="M605.69,-722.03C581.4,-725.01 556.49,-728.08 533,-731 503.1,-734.72 470.86,-738.77 440.71,-742.58"/>
<polygon fill="black" stroke="black" points="440.06,-739.14 430.57,-743.86 440.93,-746.08 440.06,-739.14"/>
</g>
<!-- aws_route_table_association.public_rt_1c -->
<g id="node22" class="node">
<title>aws_route_table_association.public_rt_1c</title>
<polygon fill="none" stroke="black" points="904.5,-614 605.5,-614 605.5,-578 904.5,-578 904.5,-614"/>
<text text-anchor="middle" x="755" y="-592.3" font-family="sans-serif" font-size="14.00">aws_route_table_association.public_rt_1c</text>
</g>
<!-- aws_route_table_association.public_rt_1c&#45;&gt;aws_route_table.public_rt -->
<g id="edge29" class="edge">
<title>aws_route_table_association.public_rt_1c&#45;&gt;aws_route_table.public_rt</title>
<path fill="none" stroke="black" d="M605.69,-614.03C581.4,-617.01 556.49,-620.08 533,-623 497.74,-627.38 459.21,-632.24 424.7,-636.61"/>
<polygon fill="black" stroke="black" points="424.09,-633.16 414.61,-637.88 424.97,-640.1 424.09,-633.16"/>
</g>
<!-- aws_subnet.public_subnet_1c -->
<g id="node42" class="node">
<title>aws_subnet.public_subnet_1c</title>
<polygon fill="none" stroke="black" points="430,-614 207,-614 207,-578 430,-578 430,-614"/>
<text text-anchor="middle" x="318.5" y="-592.3" font-family="sans-serif" font-size="14.00">aws_subnet.public_subnet_1c</text>
</g>
<!-- aws_route_table_association.public_rt_1c&#45;&gt;aws_subnet.public_subnet_1c -->
<g id="edge30" class="edge">
<title>aws_route_table_association.public_rt_1c&#45;&gt;aws_subnet.public_subnet_1c</title>
<path fill="none" stroke="black" d="M605.38,-596C551.58,-596 491.53,-596 440.4,-596"/>
<polygon fill="black" stroke="black" points="440.3,-592.5 430.3,-596 440.3,-599.5 440.3,-592.5"/>
</g>
<!-- aws_security_group.app_sg&#45;&gt;aws_vpc.vpc -->
<g id="edge31" class="edge">
<title>aws_security_group.app_sg&#45;&gt;aws_vpc.vpc</title>
<path fill="none" stroke="black" d="M259.63,-385.16C220.98,-399.97 171.62,-424.49 140,-461 84.63,-524.92 63.62,-626.66 56.4,-675.72"/>
<polygon fill="black" stroke="black" points="52.89,-675.52 54.99,-685.91 59.82,-676.48 52.89,-675.52"/>
</g>
<!-- aws_security_group.db_sg&#45;&gt;aws_vpc.vpc -->
<g id="edge32" class="edge">
<title>aws_security_group.db_sg&#45;&gt;aws_vpc.vpc</title>
<path fill="none" stroke="black" d="M218.69,-297.14C189.88,-304.95 160.64,-318.07 140,-340 93.74,-389.16 65.26,-598.31 56.17,-675.36"/>
<polygon fill="black" stroke="black" points="52.65,-675.39 54.97,-685.73 59.6,-676.2 52.65,-675.39"/>
</g>
<!-- aws_security_group.opmng_sg&#45;&gt;aws_vpc.vpc -->
<g id="edge33" class="edge">
<title>aws_security_group.opmng_sg&#45;&gt;aws_vpc.vpc</title>
<path fill="none" stroke="black" d="M203.4,-919.4C180.73,-914.87 158.31,-906.78 140,-893 87.32,-853.35 65.53,-774.16 57.37,-731.97"/>
<polygon fill="black" stroke="black" points="60.8,-731.3 55.57,-722.09 53.92,-732.55 60.8,-731.3"/>
</g>
<!-- aws_security_group.web_sg -->
<g id="node26" class="node">
<title>aws_security_group.web_sg</title>
<polygon fill="none" stroke="black" points="423,-506 214,-506 214,-470 423,-470 423,-506"/>
<text text-anchor="middle" x="318.5" y="-484.3" font-family="sans-serif" font-size="14.00">aws_security_group.web_sg</text>
</g>
<!-- aws_security_group.web_sg&#45;&gt;aws_vpc.vpc -->
<g id="edge34" class="edge">
<title>aws_security_group.web_sg&#45;&gt;aws_vpc.vpc</title>
<path fill="none" stroke="black" d="M256.71,-506.01C219.95,-519.12 173.81,-539.75 140,-569 105.14,-599.16 79.02,-646.66 64.89,-676.53"/>
<polygon fill="black" stroke="black" points="61.57,-675.39 60.57,-685.94 67.93,-678.32 61.57,-675.39"/>
</g>
<!-- aws_security_group_rule.app_in_tcp3000 -->
<g id="node27" class="node">
<title>aws_security_group_rule.app_in_tcp3000</title>
<polygon fill="none" stroke="black" points="906,-398 604,-398 604,-362 906,-362 906,-398"/>
<text text-anchor="middle" x="755" y="-376.3" font-family="sans-serif" font-size="14.00">aws_security_group_rule.app_in_tcp3000</text>
</g>
<!-- aws_security_group_rule.app_in_tcp3000&#45;&gt;aws_security_group.app_sg -->
<g id="edge35" class="edge">
<title>aws_security_group_rule.app_in_tcp3000&#45;&gt;aws_security_group.app_sg</title>
<path fill="none" stroke="black" d="M603.86,-375.51C547.64,-373.83 484.76,-371.94 432.46,-370.38"/>
<polygon fill="black" stroke="black" points="432.24,-366.87 422.14,-370.07 432.03,-373.87 432.24,-366.87"/>
</g>
<!-- aws_security_group_rule.app_in_tcp3000&#45;&gt;aws_security_group.web_sg -->
<g id="edge36" class="edge">
<title>aws_security_group_rule.app_in_tcp3000&#45;&gt;aws_security_group.web_sg</title>
<path fill="none" stroke="black" d="M603.92,-393.38C580.02,-396.93 555.7,-401.39 533,-407 474.68,-421.4 410.59,-447.14 368,-465.74"/>
<polygon fill="black" stroke="black" points="366.46,-462.6 358.72,-469.83 369.28,-469 366.46,-462.6"/>
</g>
<!-- aws_security_group_rule.app_out_http -->
<g id="node28" class="node">
<title>aws_security_group_rule.app_out_http</title>
<polygon fill="none" stroke="black" points="896,-182 614,-182 614,-146 896,-146 896,-182"/>
<text text-anchor="middle" x="755" y="-160.3" font-family="sans-serif" font-size="14.00">aws_security_group_rule.app_out_http</text>
</g>
<!-- aws_security_group_rule.app_out_http&#45;&gt;data.aws_prefix_list.s3_pl -->
<g id="edge37" class="edge">
<title>aws_security_group_rule.app_out_http&#45;&gt;data.aws_prefix_list.s3_pl</title>
<path fill="none" stroke="black" d="M613.83,-149.16C552.53,-142.67 481.83,-135.19 425.08,-129.18"/>
<polygon fill="black" stroke="black" points="425.33,-125.68 415.02,-128.11 424.59,-132.65 425.33,-125.68"/>
</g>
<!-- aws_security_group_rule.app_out_http&#45;&gt;aws_security_group.app_sg -->
<g id="edge38" class="edge">
<title>aws_security_group_rule.app_out_http&#45;&gt;aws_security_group.app_sg</title>
<path fill="none" stroke="black" d="M613.98,-156.97C584.57,-161.72 555.64,-171.83 533,-191 489.86,-227.54 536.81,-272.86 497,-313 479.28,-330.87 455.84,-342.86 431.83,-350.9"/>
<polygon fill="black" stroke="black" points="430.75,-347.57 422.25,-353.89 432.84,-354.25 430.75,-347.57"/>
</g>
<!-- aws_security_group_rule.app_out_https -->
<g id="node29" class="node">
<title>aws_security_group_rule.app_out_https</title>
<polygon fill="none" stroke="black" points="900,-90 610,-90 610,-54 900,-54 900,-90"/>
<text text-anchor="middle" x="755" y="-68.3" font-family="sans-serif" font-size="14.00">aws_security_group_rule.app_out_https</text>
</g>
<!-- aws_security_group_rule.app_out_https&#45;&gt;data.aws_prefix_list.s3_pl -->
<g id="edge39" class="edge">
<title>aws_security_group_rule.app_out_https&#45;&gt;data.aws_prefix_list.s3_pl</title>
<path fill="none" stroke="black" d="M609.92,-87.25C549.69,-93.63 480.96,-100.91 425.49,-106.78"/>
<polygon fill="black" stroke="black" points="424.87,-103.33 415.29,-107.86 425.6,-110.29 424.87,-103.33"/>
</g>
<!-- aws_security_group_rule.app_out_https&#45;&gt;aws_security_group.app_sg -->
<g id="edge40" class="edge">
<title>aws_security_group_rule.app_out_https&#45;&gt;aws_security_group.app_sg</title>
<path fill="none" stroke="black" d="M610.37,-90.02C581.4,-99.8 553.57,-114.62 533,-137 478.97,-195.79 550.75,-253.96 497,-313 479.87,-331.82 456.4,-344.16 432.14,-352.24"/>
<polygon fill="black" stroke="black" points="430.97,-348.94 422.45,-355.24 433.04,-355.63 430.97,-348.94"/>
</g>
<!-- aws_security_group_rule.app_out_tcp3306 -->
<g id="node30" class="node">
<title>aws_security_group_rule.app_out_tcp3306</title>
<polygon fill="none" stroke="black" points="910.5,-290 599.5,-290 599.5,-254 910.5,-254 910.5,-290"/>
<text text-anchor="middle" x="755" y="-268.3" font-family="sans-serif" font-size="14.00">aws_security_group_rule.app_out_tcp3306</text>
</g>
<!-- aws_security_group_rule.app_out_tcp3306&#45;&gt;aws_security_group.app_sg -->
<g id="edge41" class="edge">
<title>aws_security_group_rule.app_out_tcp3306&#45;&gt;aws_security_group.app_sg</title>
<path fill="none" stroke="black" d="M599.43,-285.89C576.98,-289.35 554.27,-293.65 533,-299 516.35,-303.18 513.22,-307.39 497,-313 463.07,-324.74 425.03,-336.49 392.9,-346.02"/>
<polygon fill="black" stroke="black" points="391.73,-342.72 383.13,-348.91 393.71,-349.43 391.73,-342.72"/>
</g>
<!-- aws_security_group_rule.app_out_tcp3306&#45;&gt;aws_security_group.db_sg -->
<g id="edge42" class="edge">
<title>aws_security_group_rule.app_out_tcp3306&#45;&gt;aws_security_group.db_sg</title>
<path fill="none" stroke="black" d="M599.28,-276.99C542.71,-278.81 479.95,-280.83 428.23,-282.5"/>
<polygon fill="black" stroke="black" points="427.92,-279 418.04,-282.82 428.15,-286 427.92,-279"/>
</g>
<!-- aws_security_group_rule.db_in_tcp3306 -->
<g id="node31" class="node">
<title>aws_security_group_rule.db_in_tcp3306</title>
<polygon fill="none" stroke="black" points="901.5,-344 608.5,-344 608.5,-308 901.5,-308 901.5,-344"/>
<text text-anchor="middle" x="755" y="-322.3" font-family="sans-serif" font-size="14.00">aws_security_group_rule.db_in_tcp3306</text>
</g>
<!-- aws_security_group_rule.db_in_tcp3306&#45;&gt;aws_security_group.app_sg -->
<g id="edge43" class="edge">
<title>aws_security_group_rule.db_in_tcp3306&#45;&gt;aws_security_group.app_sg</title>
<path fill="none" stroke="black" d="M608.41,-339.74C551.07,-345.15 486.22,-351.27 432.52,-356.34"/>
<polygon fill="black" stroke="black" points="431.91,-352.88 422.28,-357.3 432.56,-359.85 431.91,-352.88"/>
</g>
<!-- aws_security_group_rule.db_in_tcp3306&#45;&gt;aws_security_group.db_sg -->
<g id="edge44" class="edge">
<title>aws_security_group_rule.db_in_tcp3306&#45;&gt;aws_security_group.db_sg</title>
<path fill="none" stroke="black" d="M608.41,-312.6C549.56,-307.18 482.8,-301.03 428.29,-296.02"/>
<polygon fill="black" stroke="black" points="428.54,-292.52 418.26,-295.09 427.9,-299.49 428.54,-292.52"/>
</g>
<!-- aws_security_group_rule.opmng_in_ssh -->
<g id="node32" class="node">
<title>aws_security_group_rule.opmng_in_ssh</title>
<polygon fill="none" stroke="black" points="900,-884 610,-884 610,-848 900,-848 900,-884"/>
<text text-anchor="middle" x="755" y="-862.3" font-family="sans-serif" font-size="14.00">aws_security_group_rule.opmng_in_ssh</text>
</g>
<!-- aws_security_group_rule.opmng_in_ssh&#45;&gt;aws_security_group.opmng_sg -->
<g id="edge45" class="edge">
<title>aws_security_group_rule.opmng_in_ssh&#45;&gt;aws_security_group.opmng_sg</title>
<path fill="none" stroke="black" d="M609.85,-883.52C584.25,-886.66 557.84,-889.91 533,-893 504.15,-896.59 473.1,-900.49 443.87,-904.18"/>
<polygon fill="black" stroke="black" points="443.1,-900.75 433.61,-905.48 443.97,-907.7 443.1,-900.75"/>
</g>
<!-- aws_security_group_rule.opmng_in_tcp3000 -->
<g id="node33" class="node">
<title>aws_security_group_rule.opmng_in_tcp3000</title>
<polygon fill="none" stroke="black" points="917,-1046 593,-1046 593,-1010 917,-1010 917,-1046"/>
<text text-anchor="middle" x="755" y="-1024.3" font-family="sans-serif" font-size="14.00">aws_security_group_rule.opmng_in_tcp3000</text>
</g>
<!-- aws_security_group_rule.opmng_in_tcp3000&#45;&gt;aws_security_group.opmng_sg -->
<g id="edge46" class="edge">
<title>aws_security_group_rule.opmng_in_tcp3000&#45;&gt;aws_security_group.opmng_sg</title>
<path fill="none" stroke="black" d="M592.93,-1012.93C572.62,-1009.68 552.23,-1005.75 533,-1001 474.68,-986.6 410.59,-960.86 368,-942.26"/>
<polygon fill="black" stroke="black" points="369.28,-939 358.72,-938.17 366.46,-945.4 369.28,-939"/>
</g>
<!-- aws_security_group_rule.opmng_out_http -->
<g id="node34" class="node">
<title>aws_security_group_rule.opmng_out_http</title>
<polygon fill="none" stroke="black" points="907.5,-992 602.5,-992 602.5,-956 907.5,-956 907.5,-992"/>
<text text-anchor="middle" x="755" y="-970.3" font-family="sans-serif" font-size="14.00">aws_security_group_rule.opmng_out_http</text>
</g>
<!-- aws_security_group_rule.opmng_out_http&#45;&gt;aws_security_group.opmng_sg -->
<g id="edge47" class="edge">
<title>aws_security_group_rule.opmng_out_http&#45;&gt;aws_security_group.opmng_sg</title>
<path fill="none" stroke="black" d="M605.69,-955.97C581.4,-952.99 556.49,-949.92 533,-947 504.15,-943.41 473.1,-939.51 443.87,-935.82"/>
<polygon fill="black" stroke="black" points="443.97,-932.3 433.61,-934.52 443.1,-939.25 443.97,-932.3"/>
</g>
<!-- aws_security_group_rule.opmng_out_https -->
<g id="node35" class="node">
<title>aws_security_group_rule.opmng_out_https</title>
<polygon fill="none" stroke="black" points="911,-938 599,-938 599,-902 911,-902 911,-938"/>
<text text-anchor="middle" x="755" y="-916.3" font-family="sans-serif" font-size="14.00">aws_security_group_rule.opmng_out_https</text>
</g>
<!-- aws_security_group_rule.opmng_out_https&#45;&gt;aws_security_group.opmng_sg -->
<g id="edge48" class="edge">
<title>aws_security_group_rule.opmng_out_https&#45;&gt;aws_security_group.opmng_sg</title>
<path fill="none" stroke="black" d="M598.98,-920C548.12,-920 492.3,-920 444.01,-920"/>
<polygon fill="black" stroke="black" points="443.82,-916.5 433.82,-920 443.82,-923.5 443.82,-916.5"/>
</g>
<!-- aws_security_group_rule.web_in_http -->
<g id="node36" class="node">
<title>aws_security_group_rule.web_in_http</title>
<polygon fill="none" stroke="black" points="892.5,-560 617.5,-560 617.5,-524 892.5,-524 892.5,-560"/>
<text text-anchor="middle" x="755" y="-538.3" font-family="sans-serif" font-size="14.00">aws_security_group_rule.web_in_http</text>
</g>
<!-- aws_security_group_rule.web_in_http&#45;&gt;aws_security_group.web_sg -->
<g id="edge49" class="edge">
<title>aws_security_group_rule.web_in_http&#45;&gt;aws_security_group.web_sg</title>
<path fill="none" stroke="black" d="M617.24,-525.38C589.36,-521.97 560.23,-518.39 533,-515 500.72,-510.99 465.69,-506.58 433.53,-502.51"/>
<polygon fill="black" stroke="black" points="433.55,-498.99 423.19,-501.2 432.68,-505.93 433.55,-498.99"/>
</g>
<!-- aws_security_group_rule.web_in_https -->
<g id="node37" class="node">
<title>aws_security_group_rule.web_in_https</title>
<polygon fill="none" stroke="black" points="896,-506 614,-506 614,-470 896,-470 896,-506"/>
<text text-anchor="middle" x="755" y="-484.3" font-family="sans-serif" font-size="14.00">aws_security_group_rule.web_in_https</text>
</g>
<!-- aws_security_group_rule.web_in_https&#45;&gt;aws_security_group.web_sg -->
<g id="edge50" class="edge">
<title>aws_security_group_rule.web_in_https&#45;&gt;aws_security_group.web_sg</title>
<path fill="none" stroke="black" d="M613.83,-488C555.46,-488 488.56,-488 433.31,-488"/>
<polygon fill="black" stroke="black" points="433.13,-484.5 423.13,-488 433.13,-491.5 433.13,-484.5"/>
</g>
<!-- aws_security_group_rule.web_out_tcp3000 -->
<g id="node38" class="node">
<title>aws_security_group_rule.web_out_tcp3000</title>
<polygon fill="none" stroke="black" points="912,-452 598,-452 598,-416 912,-416 912,-452"/>
<text text-anchor="middle" x="755" y="-430.3" font-family="sans-serif" font-size="14.00">aws_security_group_rule.web_out_tcp3000</text>
</g>
<!-- aws_security_group_rule.web_out_tcp3000&#45;&gt;aws_security_group.app_sg -->
<g id="edge51" class="edge">
<title>aws_security_group_rule.web_out_tcp3000&#45;&gt;aws_security_group.app_sg</title>
<path fill="none" stroke="black" d="M597.78,-416.17C575.99,-413.32 553.91,-410.23 533,-407 495.53,-401.21 454.56,-393.79 418.61,-386.93"/>
<polygon fill="black" stroke="black" points="419.1,-383.46 408.62,-385.01 417.78,-390.33 419.1,-383.46"/>
</g>
<!-- aws_security_group_rule.web_out_tcp3000&#45;&gt;aws_security_group.web_sg -->
<g id="edge52" class="edge">
<title>aws_security_group_rule.web_out_tcp3000&#45;&gt;aws_security_group.web_sg</title>
<path fill="none" stroke="black" d="M605.69,-452.03C581.4,-455.01 556.49,-458.08 533,-461 500.72,-465.01 465.69,-469.42 433.53,-473.49"/>
<polygon fill="black" stroke="black" points="432.68,-470.07 423.19,-474.8 433.55,-477.01 432.68,-470.07"/>
</g>
<!-- aws_subnet.private_subnet_1a&#45;&gt;aws_vpc.vpc -->
<g id="edge53" class="edge">
<title>aws_subnet.private_subnet_1a&#45;&gt;aws_vpc.vpc</title>
<path fill="none" stroke="black" d="M203.23,-1138.81C179.9,-1134.21 157.25,-1125.24 140,-1109 84.74,-1057 61.47,-815.53 55,-732.29"/>
<polygon fill="black" stroke="black" points="58.47,-731.78 54.22,-722.07 51.49,-732.3 58.47,-731.78"/>
</g>
<!-- aws_subnet.private_subnet_1c&#45;&gt;aws_vpc.vpc -->
<g id="edge54" class="edge">
<title>aws_subnet.private_subnet_1c&#45;&gt;aws_vpc.vpc</title>
<path fill="none" stroke="black" d="M203.14,-1084.31C179.96,-1079.71 157.39,-1070.86 140,-1055 91.92,-1011.15 64.66,-808.15 56.03,-732.51"/>
<polygon fill="black" stroke="black" points="59.48,-731.86 54.89,-722.31 52.52,-732.63 59.48,-731.86"/>
</g>
<!-- aws_subnet.public_subnet_1a&#45;&gt;aws_vpc.vpc -->
<g id="edge55" class="edge">
<title>aws_subnet.public_subnet_1a&#45;&gt;aws_vpc.vpc</title>
<path fill="none" stroke="black" d="M206.23,-743.69C184.17,-740.12 161.26,-735.89 140,-731 131.49,-729.04 122.6,-726.68 113.9,-724.16"/>
<polygon fill="black" stroke="black" points="114.76,-720.77 104.18,-721.28 112.77,-727.48 114.76,-720.77"/>
</g>
<!-- aws_subnet.public_subnet_1c&#45;&gt;aws_vpc.vpc -->
<g id="edge56" class="edge">
<title>aws_subnet.public_subnet_1c&#45;&gt;aws_vpc.vpc</title>
<path fill="none" stroke="black" d="M206.94,-602.4C184.04,-606.56 160.63,-613.03 140,-623 113.58,-635.77 89.66,-659.35 73.62,-677.79"/>
<polygon fill="black" stroke="black" points="70.6,-675.94 66.83,-685.84 75.95,-680.46 70.6,-675.94"/>
</g>
</g>
</svg>
