<?xml version="1.0" encoding="UTF-8" standalone="no"?>
<!DOCTYPE svg PUBLIC "-//W3C//DTD SVG 1.1//EN"
 "http://www.w3.org/Graphics/SVG/1.1/DTD/svg11.dtd">
<!-- Generated by graphviz version 2.43.0 (0)
 -->
<!-- Title: G Pages: 1 -->
<svg width="701pt" height="908pt"
 viewBox="0.00 0.00 701.00 908.00" xmlns="http://www.w3.org/2000/svg" xmlns:xlink="http://www.w3.org/1999/xlink">
<g id="graph0" class="graph" transform="scale(1 1) rotate(0) translate(4 904)">
<title>G</title>
<polygon fill="white" stroke="transparent" points="-4,4 -4,-904 697,-904 697,4 -4,4"/>
<!-- data.aws_prefix_list.s3_pl -->
<g id="node1" class="node">
<title>data.aws_prefix_list.s3_pl</title>
<polygon fill="none" stroke="black" points="330,-360 150,-360 150,-324 330,-324 330,-360"/>
<text text-anchor="middle" x="240" y="-338.3" font-family="sans-serif" font-size="14.00">data.aws_prefix_list.s3_pl</text>
</g>
<!-- aws_internet_gateway.igw -->
<g id="node2" class="node">
<title>aws_internet_gateway.igw</title>
<polygon fill="none" stroke="black" points="335,-144 145,-144 145,-108 335,-108 335,-144"/>
<text text-anchor="middle" x="240" y="-122.3" font-family="sans-serif" font-size="14.00">aws_internet_gateway.igw</text>
</g>
<!-- aws_vpc.vpc -->
<g id="node30" class="node">
<title>aws_vpc.vpc</title>
<polygon fill="none" stroke="black" points="95,-306 0,-306 0,-270 95,-270 95,-306"/>
<text text-anchor="middle" x="47.5" y="-284.3" font-family="sans-serif" font-size="14.00">aws_vpc.vpc</text>
</g>
<!-- aws_internet_gateway.igw&#45;&gt;aws_vpc.vpc -->
<g id="edge1" class="edge">
<title>aws_internet_gateway.igw&#45;&gt;aws_vpc.vpc</title>
<path fill="none" stroke="black" d="M145.76,-144.08C140.56,-146.67 135.59,-149.62 131,-153 94.21,-180.03 70.41,-228.87 58.25,-259.8"/>
<polygon fill="black" stroke="black" points="54.83,-258.96 54.57,-269.55 61.38,-261.43 54.83,-258.96"/>
</g>
<!-- aws_route.public_rt_igw -->
<g id="node3" class="node">
<title>aws_route.public_rt_igw</title>
<polygon fill="none" stroke="black" points="626,-90 452,-90 452,-54 626,-54 626,-90"/>
<text text-anchor="middle" x="539" y="-68.3" font-family="sans-serif" font-size="14.00">aws_route.public_rt_igw</text>
</g>
<!-- aws_route.public_rt_igw&#45;&gt;aws_internet_gateway.igw -->
<g id="edge2" class="edge">
<title>aws_route.public_rt_igw&#45;&gt;aws_internet_gateway.igw</title>
<path fill="none" stroke="black" d="M451.79,-87.05C429.99,-90.9 406.63,-95.06 385,-99 372.14,-101.34 358.64,-103.83 345.27,-106.31"/>
<polygon fill="black" stroke="black" points="344.28,-102.94 335.09,-108.21 345.56,-109.82 344.28,-102.94"/>
</g>
<!-- aws_route_table.public_rt -->
<g id="node5" class="node">
<title>aws_route_table.public_rt</title>
<polygon fill="none" stroke="black" points="332,-90 148,-90 148,-54 332,-54 332,-90"/>
<text text-anchor="middle" x="240" y="-68.3" font-family="sans-serif" font-size="14.00">aws_route_table.public_rt</text>
</g>
<!-- aws_route.public_rt_igw&#45;&gt;aws_route_table.public_rt -->
<g id="edge3" class="edge">
<title>aws_route.public_rt_igw&#45;&gt;aws_route_table.public_rt</title>
<path fill="none" stroke="black" d="M451.7,-72C417.56,-72 378.07,-72 342.57,-72"/>
<polygon fill="black" stroke="black" points="342.18,-68.5 332.18,-72 342.18,-75.5 342.18,-68.5"/>
</g>
<!-- aws_route_table.private_rt -->
<g id="node4" class="node">
<title>aws_route_table.private_rt</title>
<polygon fill="none" stroke="black" points="335,-630 145,-630 145,-594 335,-594 335,-630"/>
<text text-anchor="middle" x="240" y="-608.3" font-family="sans-serif" font-size="14.00">aws_route_table.private_rt</text>
</g>
<!-- aws_route_table.private_rt&#45;&gt;aws_vpc.vpc -->
<g id="edge4" class="edge">
<title>aws_route_table.private_rt&#45;&gt;aws_vpc.vpc</title>
<path fill="none" stroke="black" d="M182.36,-593.99C163.78,-585.63 144.47,-573.93 131,-558 70.01,-485.86 54.09,-369.32 49.95,-316.11"/>
<polygon fill="black" stroke="black" points="53.44,-315.78 49.25,-306.05 46.45,-316.27 53.44,-315.78"/>
</g>
<!-- aws_route_table.public_rt&#45;&gt;aws_vpc.vpc -->
<g id="edge5" class="edge">
<title>aws_route_table.public_rt&#45;&gt;aws_vpc.vpc</title>
<path fill="none" stroke="black" d="M147.79,-87.99C141.77,-91.06 136.09,-94.69 131,-99 81.46,-140.9 60.72,-218.19 52.83,-259.77"/>
<polygon fill="black" stroke="black" points="49.35,-259.31 51.05,-269.77 56.24,-260.54 49.35,-259.31"/>
</g>
<!-- aws_route_table_association.private_rt_1a -->
<g id="node6" class="node">
<title>aws_route_table_association.private_rt_1a</title>
<polygon fill="none" stroke="black" points="684.5,-684 393.5,-684 393.5,-648 684.5,-648 684.5,-684"/>
<text text-anchor="middle" x="539" y="-662.3" font-family="sans-serif" font-size="14.00">aws_route_table_association.private_rt_1a</text>
</g>
<!-- aws_route_table_association.private_rt_1a&#45;&gt;aws_route_table.private_rt -->
<g id="edge6" class="edge">
<title>aws_route_table_association.private_rt_1a&#45;&gt;aws_route_table.private_rt</title>
<path fill="none" stroke="black" d="M435.1,-648C418.35,-645.02 401.19,-641.95 385,-639 372.14,-636.66 358.64,-634.17 345.27,-631.69"/>
<polygon fill="black" stroke="black" points="345.56,-628.18 335.09,-629.79 344.28,-635.06 345.56,-628.18"/>
</g>
<!-- aws_subnet.private_subnet_1a -->
<g id="node26" class="node">
<title>aws_subnet.private_subnet_1a</title>
<polygon fill="none" stroke="black" points="349,-684 131,-684 131,-648 349,-648 349,-684"/>
<text text-anchor="middle" x="240" y="-662.3" font-family="sans-serif" font-size="14.00">aws_subnet.private_subnet_1a</text>
</g>
<!-- aws_route_table_association.private_rt_1a&#45;&gt;aws_subnet.private_subnet_1a -->
<g id="edge7" class="edge">
<title>aws_route_table_association.private_rt_1a&#45;&gt;aws_subnet.private_subnet_1a</title>
<path fill="none" stroke="black" d="M393.42,-666C382.01,-666 370.57,-666 359.37,-666"/>
<polygon fill="black" stroke="black" points="359.16,-662.5 349.16,-666 359.16,-669.5 359.16,-662.5"/>
</g>
<!-- aws_route_table_association.private_rt_1c -->
<g id="node7" class="node">
<title>aws_route_table_association.private_rt_1c</title>
<polygon fill="none" stroke="black" points="684,-630 394,-630 394,-594 684,-594 684,-630"/>
<text text-anchor="middle" x="539" y="-608.3" font-family="sans-serif" font-size="14.00">aws_route_table_association.private_rt_1c</text>
</g>
<!-- aws_route_table_association.private_rt_1c&#45;&gt;aws_route_table.private_rt -->
<g id="edge8" class="edge">
<title>aws_route_table_association.private_rt_1c&#45;&gt;aws_route_table.private_rt</title>
<path fill="none" stroke="black" d="M393.85,-612C377.48,-612 361.05,-612 345.33,-612"/>
<polygon fill="black" stroke="black" points="345.12,-608.5 335.12,-612 345.12,-615.5 345.12,-608.5"/>
</g>
<!-- aws_subnet.private_subnet_1c -->
<g id="node27" class="node">
<title>aws_subnet.private_subnet_1c</title>
<polygon fill="none" stroke="black" points="349,-549 131,-549 131,-513 349,-513 349,-549"/>
<text text-anchor="middle" x="240" y="-527.3" font-family="sans-serif" font-size="14.00">aws_subnet.private_subnet_1c</text>
</g>
<!-- aws_route_table_association.private_rt_1c&#45;&gt;aws_subnet.private_subnet_1c -->
<g id="edge9" class="edge">
<title>aws_route_table_association.private_rt_1c&#45;&gt;aws_subnet.private_subnet_1c</title>
<path fill="none" stroke="black" d="M422.62,-593.99C409.85,-591.3 397.1,-588.31 385,-585 353.55,-576.41 319.34,-563.73 292.16,-552.81"/>
<polygon fill="black" stroke="black" points="293.44,-549.55 282.86,-549.04 290.81,-556.04 293.44,-549.55"/>
</g>
<!-- aws_route_table_association.public_rt_1a -->
<g id="node8" class="node">
<title>aws_route_table_association.public_rt_1a</title>
<polygon fill="none" stroke="black" points="681.5,-36 396.5,-36 396.5,0 681.5,0 681.5,-36"/>
<text text-anchor="middle" x="539" y="-14.3" font-family="sans-serif" font-size="14.00">aws_route_table_association.public_rt_1a</text>
</g>
<!-- aws_route_table_association.public_rt_1a&#45;&gt;aws_route_table.public_rt -->
<g id="edge10" class="edge">
<title>aws_route_table_association.public_rt_1a&#45;&gt;aws_route_table.public_rt</title>
<path fill="none" stroke="black" d="M435.1,-36C418.35,-38.98 401.19,-42.05 385,-45 371.07,-47.53 356.39,-50.24 341.95,-52.93"/>
<polygon fill="black" stroke="black" points="341.19,-49.51 332,-54.79 342.47,-56.39 341.19,-49.51"/>
</g>
<!-- aws_subnet.public_subnet_1a -->
<g id="node28" class="node">
<title>aws_subnet.public_subnet_1a</title>
<polygon fill="none" stroke="black" points="346,-36 134,-36 134,0 346,0 346,-36"/>
<text text-anchor="middle" x="240" y="-14.3" font-family="sans-serif" font-size="14.00">aws_subnet.public_subnet_1a</text>
</g>
<!-- aws_route_table_association.public_rt_1a&#45;&gt;aws_subnet.public_subnet_1a -->
<g id="edge11" class="edge">
<title>aws_route_table_association.public_rt_1a&#45;&gt;aws_subnet.public_subnet_1a</title>
<path fill="none" stroke="black" d="M396.46,-18C383.14,-18 369.74,-18 356.7,-18"/>
<polygon fill="black" stroke="black" points="356.33,-14.5 346.33,-18 356.33,-21.5 356.33,-14.5"/>
</g>
<!-- aws_route_table_association.public_rt_1c -->
<g id="node9" class="node">
<title>aws_route_table_association.public_rt_1c</title>
<polygon fill="none" stroke="black" points="681,-144 397,-144 397,-108 681,-108 681,-144"/>
<text text-anchor="middle" x="539" y="-122.3" font-family="sans-serif" font-size="14.00">aws_route_table_association.public_rt_1c</text>
</g>
<!-- aws_route_table_association.public_rt_1c&#45;&gt;aws_route_table.public_rt -->
<g id="edge12" class="edge">
<title>aws_route_table_association.public_rt_1c&#45;&gt;aws_route_table.public_rt</title>
<path fill="none" stroke="black" d="M435.1,-108C418.35,-105.02 401.19,-101.95 385,-99 371.07,-96.47 356.39,-93.76 341.95,-91.07"/>
<polygon fill="black" stroke="black" points="342.47,-87.61 332,-89.21 341.19,-94.49 342.47,-87.61"/>
</g>
<!-- aws_subnet.public_subnet_1c -->
<g id="node29" class="node">
<title>aws_subnet.public_subnet_1c</title>
<polygon fill="none" stroke="black" points="346,-198 134,-198 134,-162 346,-162 346,-198"/>
<text text-anchor="middle" x="240" y="-176.3" font-family="sans-serif" font-size="14.00">aws_subnet.public_subnet_1c</text>
</g>
<!-- aws_route_table_association.public_rt_1c&#45;&gt;aws_subnet.public_subnet_1c -->
<g id="edge13" class="edge">
<title>aws_route_table_association.public_rt_1c&#45;&gt;aws_subnet.public_subnet_1c</title>
<path fill="none" stroke="black" d="M435.1,-144C418.35,-146.98 401.19,-150.05 385,-153 372.44,-155.29 359.26,-157.71 346.2,-160.14"/>
<polygon fill="black" stroke="black" points="345.44,-156.72 336.25,-161.99 346.72,-163.6 345.44,-156.72"/>
</g>
<!-- aws_security_group.app_sg -->
<g id="node10" class="node">
<title>aws_security_group.app_sg</title>
<polygon fill="none" stroke="black" points="337.5,-306 142.5,-306 142.5,-270 337.5,-270 337.5,-306"/>
<text text-anchor="middle" x="240" y="-284.3" font-family="sans-serif" font-size="14.00">aws_security_group.app_sg</text>
</g>
<!-- aws_security_group.app_sg&#45;&gt;aws_vpc.vpc -->
<g id="edge14" class="edge">
<title>aws_security_group.app_sg&#45;&gt;aws_vpc.vpc</title>
<path fill="none" stroke="black" d="M142.35,-288C129.68,-288 117.03,-288 105.31,-288"/>
<polygon fill="black" stroke="black" points="105.28,-284.5 95.28,-288 105.28,-291.5 105.28,-284.5"/>
</g>
<!-- aws_security_group.db_sg -->
<g id="node11" class="node">
<title>aws_security_group.db_sg</title>
<polygon fill="none" stroke="black" points="334,-252 146,-252 146,-216 334,-216 334,-252"/>
<text text-anchor="middle" x="240" y="-230.3" font-family="sans-serif" font-size="14.00">aws_security_group.db_sg</text>
</g>
<!-- aws_security_group.db_sg&#45;&gt;aws_vpc.vpc -->
<g id="edge15" class="edge">
<title>aws_security_group.db_sg&#45;&gt;aws_vpc.vpc</title>
<path fill="none" stroke="black" d="M163.87,-252.05C152.81,-254.92 141.59,-257.95 131,-261 122.48,-263.46 113.51,-266.21 104.76,-269"/>
<polygon fill="black" stroke="black" points="103.45,-265.74 95.01,-272.14 105.6,-272.4 103.45,-265.74"/>
</g>
<!-- aws_security_group.opmng_sg -->
<g id="node12" class="node">
<title>aws_security_group.opmng_sg</title>
<polygon fill="none" stroke="black" points="349,-792 131,-792 131,-756 349,-756 349,-792"/>
<text text-anchor="middle" x="240" y="-770.3" font-family="sans-serif" font-size="14.00">aws_security_group.opmng_sg</text>
</g>
<!-- aws_security_group.opmng_sg&#45;&gt;aws_vpc.vpc -->
<g id="edge16" class="edge">
<title>aws_security_group.opmng_sg&#45;&gt;aws_vpc.vpc</title>
<path fill="none" stroke="black" d="M202.86,-755.96C178.76,-742.04 148.42,-720.53 131,-693 52.88,-569.54 46.84,-386.27 47.64,-316.43"/>
<polygon fill="black" stroke="black" points="51.14,-316.28 47.81,-306.22 44.14,-316.16 51.14,-316.28"/>
</g>
<!-- aws_security_group.web_sg -->
<g id="node13" class="node">
<title>aws_security_group.web_sg</title>
<polygon fill="none" stroke="black" points="339.5,-468 140.5,-468 140.5,-432 339.5,-432 339.5,-468"/>
<text text-anchor="middle" x="240" y="-446.3" font-family="sans-serif" font-size="14.00">aws_security_group.web_sg</text>
</g>
<!-- aws_security_group.web_sg&#45;&gt;aws_vpc.vpc -->
<g id="edge17" class="edge">
<title>aws_security_group.web_sg&#45;&gt;aws_vpc.vpc</title>
<path fill="none" stroke="black" d="M212.94,-431.94C190.59,-416.1 157.84,-392.07 131,-369 110.59,-351.46 88.93,-330.08 72.93,-313.69"/>
<polygon fill="black" stroke="black" points="75.03,-310.83 65.56,-306.08 70,-315.7 75.03,-310.83"/>
</g>
<!-- aws_security_group_rule.app_in_tcp3000 -->
<g id="node14" class="node">
<title>aws_security_group_rule.app_in_tcp3000</title>
<polygon fill="none" stroke="black" points="681.5,-414 396.5,-414 396.5,-378 681.5,-378 681.5,-414"/>
<text text-anchor="middle" x="539" y="-392.3" font-family="sans-serif" font-size="14.00">aws_security_group_rule.app_in_tcp3000</text>
</g>
<!-- aws_security_group_rule.app_in_tcp3000&#45;&gt;aws_security_group.app_sg -->
<g id="edge18" class="edge">
<title>aws_security_group_rule.app_in_tcp3000&#45;&gt;aws_security_group.app_sg</title>
<path fill="none" stroke="black" d="M401.02,-377.87C395.45,-375.26 390.08,-372.32 385,-369 360.85,-353.22 372.58,-331.62 349,-315 346.89,-313.51 344.71,-312.11 342.47,-310.78"/>
<polygon fill="black" stroke="black" points="344.02,-307.65 333.55,-306.04 340.73,-313.83 344.02,-307.65"/>
</g>
<!-- aws_security_group_rule.app_in_tcp3000&#45;&gt;aws_security_group.web_sg -->
<g id="edge19" class="edge">
<title>aws_security_group_rule.app_in_tcp3000&#45;&gt;aws_security_group.web_sg</title>
<path fill="none" stroke="black" d="M435.1,-414C418.35,-416.98 401.19,-420.05 385,-423 372.44,-425.29 359.26,-427.71 346.2,-430.14"/>
<polygon fill="black" stroke="black" points="345.44,-426.72 336.25,-431.99 346.72,-433.6 345.44,-426.72"/>
</g>
<!-- aws_security_group_rule.app_out_http -->
<g id="node15" class="node">
<title>aws_security_group_rule.app_out_http</title>
<polygon fill="none" stroke="black" points="673.5,-306 404.5,-306 404.5,-270 673.5,-270 673.5,-306"/>
<text text-anchor="middle" x="539" y="-284.3" font-family="sans-serif" font-size="14.00">aws_security_group_rule.app_out_http</text>
</g>
<!-- aws_security_group_rule.app_out_http&#45;&gt;data.aws_prefix_list.s3_pl -->
<g id="edge20" class="edge">
<title>aws_security_group_rule.app_out_http&#45;&gt;data.aws_prefix_list.s3_pl</title>
<path fill="none" stroke="black" d="M435.1,-306C418.35,-308.98 401.19,-312.05 385,-315 370.43,-317.65 355.03,-320.5 339.94,-323.3"/>
<polygon fill="black" stroke="black" points="339.27,-319.87 330.08,-325.14 340.55,-326.75 339.27,-319.87"/>
</g>
<!-- aws_security_group_rule.app_out_http&#45;&gt;aws_security_group.app_sg -->
<g id="edge21" class="edge">
<title>aws_security_group_rule.app_out_http&#45;&gt;aws_security_group.app_sg</title>
<path fill="none" stroke="black" d="M404.27,-288C385.3,-288 366.01,-288 347.65,-288"/>
<polygon fill="black" stroke="black" points="347.55,-284.5 337.55,-288 347.55,-291.5 347.55,-284.5"/>
</g>
<!-- aws_security_group_rule.app_out_https -->
<g id="node16" class="node">
<title>aws_security_group_rule.app_out_https</title>
<polygon fill="none" stroke="black" points="677,-360 401,-360 401,-324 677,-324 677,-360"/>
<text text-anchor="middle" x="539" y="-338.3" font-family="sans-serif" font-size="14.00">aws_security_group_rule.app_out_https</text>
</g>
<!-- aws_security_group_rule.app_out_https&#45;&gt;data.aws_prefix_list.s3_pl -->
<g id="edge22" class="edge">
<title>aws_security_group_rule.app_out_https&#45;&gt;data.aws_prefix_list.s3_pl</title>
<path fill="none" stroke="black" d="M400.8,-342C380.35,-342 359.61,-342 340.15,-342"/>
<polygon fill="black" stroke="black" points="340.1,-338.5 330.1,-342 340.1,-345.5 340.1,-338.5"/>
</g>
<!-- aws_security_group_rule.app_out_https&#45;&gt;aws_security_group.app_sg -->
<g id="edge23" class="edge">
<title>aws_security_group_rule.app_out_https&#45;&gt;aws_security_group.app_sg</title>
<path fill="none" stroke="black" d="M435.1,-324C418.35,-321.02 401.19,-317.95 385,-315 372.44,-312.71 359.26,-310.29 346.2,-307.86"/>
<polygon fill="black" stroke="black" points="346.72,-304.4 336.25,-306.01 345.44,-311.28 346.72,-304.4"/>
</g>
<!-- aws_security_group_rule.app_out_tcp3306 -->
<g id="node17" class="node">
<title>aws_security_group_rule.app_out_tcp3306</title>
<polygon fill="none" stroke="black" points="686.5,-198 391.5,-198 391.5,-162 686.5,-162 686.5,-198"/>
<text text-anchor="middle" x="539" y="-176.3" font-family="sans-serif" font-size="14.00">aws_security_group_rule.app_out_tcp3306</text>
</g>
<!-- aws_security_group_rule.app_out_tcp3306&#45;&gt;aws_security_group.app_sg -->
<g id="edge24" class="edge">
<title>aws_security_group_rule.app_out_tcp3306&#45;&gt;aws_security_group.app_sg</title>
<path fill="none" stroke="black" d="M401.02,-198.13C395.45,-200.74 390.08,-203.68 385,-207 360.85,-222.78 372.58,-244.38 349,-261 346.89,-262.49 344.71,-263.89 342.47,-265.22"/>
<polygon fill="black" stroke="black" points="340.73,-262.17 333.55,-269.96 344.02,-268.35 340.73,-262.17"/>
</g>
<!-- aws_security_group_rule.app_out_tcp3306&#45;&gt;aws_security_group.db_sg -->
<g id="edge25" class="edge">
<title>aws_security_group_rule.app_out_tcp3306&#45;&gt;aws_security_group.db_sg</title>
<path fill="none" stroke="black" d="M435.1,-198C418.35,-200.98 401.19,-204.05 385,-207 371.81,-209.4 357.95,-211.96 344.25,-214.5"/>
<polygon fill="black" stroke="black" points="343.5,-211.08 334.31,-216.35 344.79,-217.96 343.5,-211.08"/>
</g>
<!-- aws_security_group_rule.db_in_tcp3306 -->
<g id="node18" class="node">
<title>aws_security_group_rule.db_in_tcp3306</title>
<polygon fill="none" stroke="black" points="678,-252 400,-252 400,-216 678,-216 678,-252"/>
<text text-anchor="middle" x="539" y="-230.3" font-family="sans-serif" font-size="14.00">aws_security_group_rule.db_in_tcp3306</text>
</g>
<!-- aws_security_group_rule.db_in_tcp3306&#45;&gt;aws_security_group.app_sg -->
<g id="edge26" class="edge">
<title>aws_security_group_rule.db_in_tcp3306&#45;&gt;aws_security_group.app_sg</title>
<path fill="none" stroke="black" d="M435.1,-252C418.35,-254.98 401.19,-258.05 385,-261 372.44,-263.29 359.26,-265.71 346.2,-268.14"/>
<polygon fill="black" stroke="black" points="345.44,-264.72 336.25,-269.99 346.72,-271.6 345.44,-264.72"/>
</g>
<!-- aws_security_group_rule.db_in_tcp3306&#45;&gt;aws_security_group.db_sg -->
<g id="edge27" class="edge">
<title>aws_security_group_rule.db_in_tcp3306&#45;&gt;aws_security_group.db_sg</title>
<path fill="none" stroke="black" d="M399.93,-234C381.23,-234 362.31,-234 344.36,-234"/>
<polygon fill="black" stroke="black" points="344.2,-230.5 334.2,-234 344.2,-237.5 344.2,-230.5"/>
</g>
<!-- aws_security_group_rule.opmng_in_ssh -->
<g id="node19" class="node">
<title>aws_security_group_rule.opmng_in_ssh</title>
<polygon fill="none" stroke="black" points="677.5,-846 400.5,-846 400.5,-810 677.5,-810 677.5,-846"/>
<text text-anchor="middle" x="539" y="-824.3" font-family="sans-serif" font-size="14.00">aws_security_group_rule.opmng_in_ssh</text>
</g>
<!-- aws_security_group_rule.opmng_in_ssh&#45;&gt;aws_security_group.opmng_sg -->
<g id="edge28" class="edge">
<title>aws_security_group_rule.opmng_in_ssh&#45;&gt;aws_security_group.opmng_sg</title>
<path fill="none" stroke="black" d="M435.1,-810C418.35,-807.02 401.19,-803.95 385,-801 372.44,-798.71 359.26,-796.29 346.2,-793.86"/>
<polygon fill="black" stroke="black" points="346.72,-790.4 336.25,-792.01 345.44,-797.28 346.72,-790.4"/>
</g>
<!-- aws_security_group_rule.opmng_in_tcp3000 -->
<g id="node20" class="node">
<title>aws_security_group_rule.opmng_in_tcp3000</title>
<polygon fill="none" stroke="black" points="693,-792 385,-792 385,-756 693,-756 693,-792"/>
<text text-anchor="middle" x="539" y="-770.3" font-family="sans-serif" font-size="14.00">aws_security_group_rule.opmng_in_tcp3000</text>
</g>
<!-- aws_security_group_rule.opmng_in_tcp3000&#45;&gt;aws_security_group.opmng_sg -->
<g id="edge29" class="edge">
<title>aws_security_group_rule.opmng_in_tcp3000&#45;&gt;aws_security_group.opmng_sg</title>
<path fill="none" stroke="black" d="M384.72,-774C376.24,-774 367.8,-774 359.48,-774"/>
<polygon fill="black" stroke="black" points="359.4,-770.5 349.4,-774 359.4,-777.5 359.4,-770.5"/>
</g>
<!-- aws_security_group_rule.opmng_out_http -->
<g id="node21" class="node">
<title>aws_security_group_rule.opmng_out_http</title>
<polygon fill="none" stroke="black" points="685,-738 393,-738 393,-702 685,-702 685,-738"/>
<text text-anchor="middle" x="539" y="-716.3" font-family="sans-serif" font-size="14.00">aws_security_group_rule.opmng_out_http</text>
</g>
<!-- aws_security_group_rule.opmng_out_http&#45;&gt;aws_security_group.opmng_sg -->
<g id="edge30" class="edge">
<title>aws_security_group_rule.opmng_out_http&#45;&gt;aws_security_group.opmng_sg</title>
<path fill="none" stroke="black" d="M435.1,-738C418.35,-740.98 401.19,-744.05 385,-747 372.44,-749.29 359.26,-751.71 346.2,-754.14"/>
<polygon fill="black" stroke="black" points="345.44,-750.72 336.25,-755.99 346.72,-757.6 345.44,-750.72"/>
</g>
<!-- aws_security_group_rule.opmng_out_https -->
<g id="node22" class="node">
<title>aws_security_group_rule.opmng_out_https</title>
<polygon fill="none" stroke="black" points="688.5,-900 389.5,-900 389.5,-864 688.5,-864 688.5,-900"/>
<text text-anchor="middle" x="539" y="-878.3" font-family="sans-serif" font-size="14.00">aws_security_group_rule.opmng_out_https</text>
</g>
<!-- aws_security_group_rule.opmng_out_https&#45;&gt;aws_security_group.opmng_sg -->
<g id="edge31" class="edge">
<title>aws_security_group_rule.opmng_out_https&#45;&gt;aws_security_group.opmng_sg</title>
<path fill="none" stroke="black" d="M414.29,-863.91C404.27,-861.32 394.4,-858.36 385,-855 345.28,-840.79 303.66,-816.17 275.45,-797.79"/>
<polygon fill="black" stroke="black" points="277.05,-794.66 266.78,-792.07 273.19,-800.5 277.05,-794.66"/>
</g>
<!-- aws_security_group_rule.web_in_http -->
<g id="node23" class="node">
<title>aws_security_group_rule.web_in_http</title>
<polygon fill="none" stroke="black" points="670.5,-522 407.5,-522 407.5,-486 670.5,-486 670.5,-522"/>
<text text-anchor="middle" x="539" y="-500.3" font-family="sans-serif" font-size="14.00">aws_security_group_rule.web_in_http</text>
</g>
<!-- aws_security_group_rule.web_in_http&#45;&gt;aws_security_group.web_sg -->
<g id="edge32" class="edge">
<title>aws_security_group_rule.web_in_http&#45;&gt;aws_security_group.web_sg</title>
<path fill="none" stroke="black" d="M435.1,-486C418.35,-483.02 401.19,-479.95 385,-477 372.44,-474.71 359.26,-472.29 346.2,-469.86"/>
<polygon fill="black" stroke="black" points="346.72,-466.4 336.25,-468.01 345.44,-473.28 346.72,-466.4"/>
</g>
<!-- aws_security_group_rule.web_in_https -->
<g id="node24" class="node">
<title>aws_security_group_rule.web_in_https</title>
<polygon fill="none" stroke="black" points="674,-576 404,-576 404,-540 674,-540 674,-576"/>
<text text-anchor="middle" x="539" y="-554.3" font-family="sans-serif" font-size="14.00">aws_security_group_rule.web_in_https</text>
</g>
<!-- aws_security_group_rule.web_in_https&#45;&gt;aws_security_group.web_sg -->
<g id="edge33" class="edge">
<title>aws_security_group_rule.web_in_https&#45;&gt;aws_security_group.web_sg</title>
<path fill="none" stroke="black" d="M409.36,-539.92C400.99,-537.34 392.8,-534.38 385,-531 366.65,-523.04 366.01,-514.51 349,-504 330.54,-492.59 309.35,-481.58 290.66,-472.51"/>
<polygon fill="black" stroke="black" points="291.95,-469.25 281.42,-468.09 288.93,-475.56 291.95,-469.25"/>
</g>
<!-- aws_security_group_rule.web_out_tcp3000 -->
<g id="node25" class="node">
<title>aws_security_group_rule.web_out_tcp3000</title>
<polygon fill="none" stroke="black" points="688.5,-468 389.5,-468 389.5,-432 688.5,-432 688.5,-468"/>
<text text-anchor="middle" x="539" y="-446.3" font-family="sans-serif" font-size="14.00">aws_security_group_rule.web_out_tcp3000</text>
</g>
<!-- aws_security_group_rule.web_out_tcp3000&#45;&gt;aws_security_group.app_sg -->
<g id="edge34" class="edge">
<title>aws_security_group_rule.web_out_tcp3000&#45;&gt;aws_security_group.app_sg</title>
<path fill="none" stroke="black" d="M397.04,-431.82C392.81,-429.19 388.78,-426.26 385,-423 346.69,-389.95 386.12,-349.38 349,-315 348,-314.08 346.98,-313.18 345.93,-312.32"/>
<polygon fill="black" stroke="black" points="347.62,-309.23 337.45,-306.26 343.55,-314.92 347.62,-309.23"/>
</g>
<!-- aws_security_group_rule.web_out_tcp3000&#45;&gt;aws_security_group.web_sg -->
<g id="edge35" class="edge">
<title>aws_security_group_rule.web_out_tcp3000&#45;&gt;aws_security_group.web_sg</title>
<path fill="none" stroke="black" d="M389.06,-450C375.82,-450 362.57,-450 349.76,-450"/>
<polygon fill="black" stroke="black" points="349.58,-446.5 339.58,-450 349.58,-453.5 349.58,-446.5"/>
</g>
<!-- aws_subnet.private_subnet_1a&#45;&gt;aws_vpc.vpc -->
<g id="edge36" class="edge">
<title>aws_subnet.private_subnet_1a&#45;&gt;aws_vpc.vpc</title>
<path fill="none" stroke="black" d="M141.69,-647.81C137.85,-645.22 134.26,-642.3 131,-639 85.44,-592.8 59.57,-391.25 51.37,-316.25"/>
<polygon fill="black" stroke="black" points="54.84,-315.71 50.29,-306.14 47.88,-316.45 54.84,-315.71"/>
</g>
<!-- aws_subnet.private_subnet_1c&#45;&gt;aws_vpc.vpc -->
<g id="edge37" class="edge">
<title>aws_subnet.private_subnet_1c&#45;&gt;aws_vpc.vpc</title>
<path fill="none" stroke="black" d="M185.31,-512.97C166.25,-504.46 145.87,-492.66 131,-477 86.77,-430.4 64.01,-356.25 54.35,-316.08"/>
<polygon fill="black" stroke="black" points="57.72,-315.13 52.07,-306.17 50.9,-316.7 57.72,-315.13"/>
</g>
<!-- aws_subnet.public_subnet_1a&#45;&gt;aws_vpc.vpc -->
<g id="edge38" class="edge">
<title>aws_subnet.public_subnet_1a&#45;&gt;aws_vpc.vpc</title>
<path fill="none" stroke="black" d="M142.57,-36.28C138.44,-38.84 134.55,-41.73 131,-45 68.56,-102.5 53.36,-209 49.68,-259.72"/>
<polygon fill="black" stroke="black" points="46.17,-259.75 49.04,-269.95 53.15,-260.19 46.17,-259.75"/>
</g>
<!-- aws_subnet.public_subnet_1c&#45;&gt;aws_vpc.vpc -->
<g id="edge39" class="edge">
<title>aws_subnet.public_subnet_1c&#45;&gt;aws_vpc.vpc</title>
<path fill="none" stroke="black" d="M150.26,-198.01C143.57,-200.62 137.07,-203.6 131,-207 106.4,-220.78 83.95,-243.83 68.71,-261.82"/>
<polygon fill="black" stroke="black" points="65.89,-259.74 62.23,-269.68 71.29,-264.2 65.89,-259.74"/>
</g>
</g>
</svg>
