<?xml version="1.0" encoding="UTF-8" standalone="no"?>
<!DOCTYPE svg PUBLIC "-//W3C//DTD SVG 1.1//EN"
 "http://www.w3.org/Graphics/SVG/1.1/DTD/svg11.dtd">
<!-- Generated by graphviz version 2.43.0 (0)
 -->
<!-- Title: G Pages: 1 -->
<svg width="701pt" height="746pt"
 viewBox="0.00 0.00 701.00 746.00" xmlns="http://www.w3.org/2000/svg" xmlns:xlink="http://www.w3.org/1999/xlink">
<g id="graph0" class="graph" transform="scale(1 1) rotate(0) translate(4 742)">
<title>G</title>
<polygon fill="white" stroke="transparent" points="-4,4 -4,-742 697,-742 697,4 -4,4"/>
<!-- aws_internet_gateway.igw -->
<g id="node1" class="node">
<title>aws_internet_gateway.igw</title>
<polygon fill="none" stroke="black" points="335,-576 145,-576 145,-540 335,-540 335,-576"/>
<text text-anchor="middle" x="240" y="-554.3" font-family="sans-serif" font-size="14.00">aws_internet_gateway.igw</text>
</g>
<!-- aws_vpc.vpc -->
<g id="node25" class="node">
<title>aws_vpc.vpc</title>
<polygon fill="none" stroke="black" points="95,-468 0,-468 0,-432 95,-432 95,-468"/>
<text text-anchor="middle" x="47.5" y="-446.3" font-family="sans-serif" font-size="14.00">aws_vpc.vpc</text>
</g>
<!-- aws_internet_gateway.igw&#45;&gt;aws_vpc.vpc -->
<g id="edge1" class="edge">
<title>aws_internet_gateway.igw&#45;&gt;aws_vpc.vpc</title>
<path fill="none" stroke="black" d="M150.26,-539.99C143.57,-537.38 137.07,-534.4 131,-531 106.4,-517.22 83.95,-494.17 68.71,-476.18"/>
<polygon fill="black" stroke="black" points="71.29,-473.8 62.23,-468.32 65.89,-478.26 71.29,-473.8"/>
</g>
<!-- aws_route.public_rt_igw -->
<g id="node2" class="node">
<title>aws_route.public_rt_igw</title>
<polygon fill="none" stroke="black" points="626,-576 452,-576 452,-540 626,-540 626,-576"/>
<text text-anchor="middle" x="539" y="-554.3" font-family="sans-serif" font-size="14.00">aws_route.public_rt_igw</text>
</g>
<!-- aws_route.public_rt_igw&#45;&gt;aws_internet_gateway.igw -->
<g id="edge2" class="edge">
<title>aws_route.public_rt_igw&#45;&gt;aws_internet_gateway.igw</title>
<path fill="none" stroke="black" d="M451.7,-558C418.42,-558 380.05,-558 345.25,-558"/>
<polygon fill="black" stroke="black" points="345.06,-554.5 335.06,-558 345.06,-561.5 345.06,-554.5"/>
</g>
<!-- aws_route_table.public_rt -->
<g id="node4" class="node">
<title>aws_route_table.public_rt</title>
<polygon fill="none" stroke="black" points="332,-468 148,-468 148,-432 332,-432 332,-468"/>
<text text-anchor="middle" x="240" y="-446.3" font-family="sans-serif" font-size="14.00">aws_route_table.public_rt</text>
</g>
<!-- aws_route.public_rt_igw&#45;&gt;aws_route_table.public_rt -->
<g id="edge3" class="edge">
<title>aws_route.public_rt_igw&#45;&gt;aws_route_table.public_rt</title>
<path fill="none" stroke="black" d="M451.69,-555.02C428.61,-551.06 404.65,-543.84 385,-531 360.85,-515.22 372.58,-493.62 349,-477 346.47,-475.22 343.84,-473.56 341.13,-472"/>
<polygon fill="black" stroke="black" points="342.7,-468.88 332.21,-467.41 339.5,-475.1 342.7,-468.88"/>
</g>
<!-- aws_route_table.private_rt -->
<g id="node3" class="node">
<title>aws_route_table.private_rt</title>
<polygon fill="none" stroke="black" points="335,-684 145,-684 145,-648 335,-648 335,-684"/>
<text text-anchor="middle" x="240" y="-662.3" font-family="sans-serif" font-size="14.00">aws_route_table.private_rt</text>
</g>
<!-- aws_route_table.private_rt&#45;&gt;aws_vpc.vpc -->
<g id="edge4" class="edge">
<title>aws_route_table.private_rt&#45;&gt;aws_vpc.vpc</title>
<path fill="none" stroke="black" d="M144.94,-648.5C139.97,-645.77 135.28,-642.62 131,-639 81.46,-597.1 60.72,-519.81 52.83,-478.23"/>
<polygon fill="black" stroke="black" points="56.24,-477.46 51.05,-468.23 49.35,-478.69 56.24,-477.46"/>
</g>
<!-- aws_route_table.public_rt&#45;&gt;aws_vpc.vpc -->
<g id="edge5" class="edge">
<title>aws_route_table.public_rt&#45;&gt;aws_vpc.vpc</title>
<path fill="none" stroke="black" d="M147.93,-450C133.37,-450 118.68,-450 105.23,-450"/>
<polygon fill="black" stroke="black" points="105.2,-446.5 95.2,-450 105.2,-453.5 105.2,-446.5"/>
</g>
<!-- aws_route_table_association.private_rt_1a -->
<g id="node5" class="node">
<title>aws_route_table_association.private_rt_1a</title>
<polygon fill="none" stroke="black" points="684.5,-725 393.5,-725 393.5,-689 684.5,-689 684.5,-725"/>
<text text-anchor="middle" x="539" y="-703.3" font-family="sans-serif" font-size="14.00">aws_route_table_association.private_rt_1a</text>
</g>
<!-- aws_route_table_association.private_rt_1a&#45;&gt;aws_route_table.private_rt -->
<g id="edge6" class="edge">
<title>aws_route_table_association.private_rt_1a&#45;&gt;aws_route_table.private_rt</title>
<path fill="none" stroke="black" d="M407.3,-688.96C386.53,-686.09 365.29,-683.16 345.24,-680.39"/>
<polygon fill="black" stroke="black" points="345.56,-676.9 335.18,-679 344.61,-683.84 345.56,-676.9"/>
</g>
<!-- aws_subnet.private_subnet_1a -->
<g id="node21" class="node">
<title>aws_subnet.private_subnet_1a</title>
<polygon fill="none" stroke="black" points="349,-738 131,-738 131,-702 349,-702 349,-738"/>
<text text-anchor="middle" x="240" y="-716.3" font-family="sans-serif" font-size="14.00">aws_subnet.private_subnet_1a</text>
</g>
<!-- aws_route_table_association.private_rt_1a&#45;&gt;aws_subnet.private_subnet_1a -->
<g id="edge7" class="edge">
<title>aws_route_table_association.private_rt_1a&#45;&gt;aws_subnet.private_subnet_1a</title>
<path fill="none" stroke="black" d="M393.42,-713.33C382.01,-713.83 370.57,-714.33 359.37,-714.82"/>
<polygon fill="black" stroke="black" points="359,-711.33 349.16,-715.27 359.3,-718.33 359,-711.33"/>
</g>
<!-- aws_route_table_association.private_rt_1c -->
<g id="node6" class="node">
<title>aws_route_table_association.private_rt_1c</title>
<polygon fill="none" stroke="black" points="684,-644 394,-644 394,-608 684,-608 684,-644"/>
<text text-anchor="middle" x="539" y="-622.3" font-family="sans-serif" font-size="14.00">aws_route_table_association.private_rt_1c</text>
</g>
<!-- aws_route_table_association.private_rt_1c&#45;&gt;aws_route_table.private_rt -->
<g id="edge8" class="edge">
<title>aws_route_table_association.private_rt_1c&#45;&gt;aws_route_table.private_rt</title>
<path fill="none" stroke="black" d="M404.27,-644.01C384.56,-646.66 364.51,-649.37 345.5,-651.93"/>
<polygon fill="black" stroke="black" points="344.81,-648.49 335.37,-653.29 345.75,-655.42 344.81,-648.49"/>
</g>
<!-- aws_subnet.private_subnet_1c -->
<g id="node22" class="node">
<title>aws_subnet.private_subnet_1c</title>
<polygon fill="none" stroke="black" points="349,-630 131,-630 131,-594 349,-594 349,-630"/>
<text text-anchor="middle" x="240" y="-608.3" font-family="sans-serif" font-size="14.00">aws_subnet.private_subnet_1c</text>
</g>
<!-- aws_route_table_association.private_rt_1c&#45;&gt;aws_subnet.private_subnet_1c -->
<g id="edge9" class="edge">
<title>aws_route_table_association.private_rt_1c&#45;&gt;aws_subnet.private_subnet_1c</title>
<path fill="none" stroke="black" d="M393.85,-619.21C382.31,-618.66 370.73,-618.12 359.4,-617.58"/>
<polygon fill="black" stroke="black" points="359.22,-614.07 349.07,-617.09 358.89,-621.06 359.22,-614.07"/>
</g>
<!-- aws_route_table_association.public_rt_1a -->
<g id="node7" class="node">
<title>aws_route_table_association.public_rt_1a</title>
<polygon fill="none" stroke="black" points="681.5,-522 396.5,-522 396.5,-486 681.5,-486 681.5,-522"/>
<text text-anchor="middle" x="539" y="-500.3" font-family="sans-serif" font-size="14.00">aws_route_table_association.public_rt_1a</text>
</g>
<!-- aws_route_table_association.public_rt_1a&#45;&gt;aws_route_table.public_rt -->
<g id="edge10" class="edge">
<title>aws_route_table_association.public_rt_1a&#45;&gt;aws_route_table.public_rt</title>
<path fill="none" stroke="black" d="M435.1,-486C418.35,-483.02 401.19,-479.95 385,-477 371.07,-474.47 356.39,-471.76 341.95,-469.07"/>
<polygon fill="black" stroke="black" points="342.47,-465.61 332,-467.21 341.19,-472.49 342.47,-465.61"/>
</g>
<!-- aws_subnet.public_subnet_1a -->
<g id="node23" class="node">
<title>aws_subnet.public_subnet_1a</title>
<polygon fill="none" stroke="black" points="346,-522 134,-522 134,-486 346,-486 346,-522"/>
<text text-anchor="middle" x="240" y="-500.3" font-family="sans-serif" font-size="14.00">aws_subnet.public_subnet_1a</text>
</g>
<!-- aws_route_table_association.public_rt_1a&#45;&gt;aws_subnet.public_subnet_1a -->
<g id="edge11" class="edge">
<title>aws_route_table_association.public_rt_1a&#45;&gt;aws_subnet.public_subnet_1a</title>
<path fill="none" stroke="black" d="M396.46,-504C383.14,-504 369.74,-504 356.7,-504"/>
<polygon fill="black" stroke="black" points="356.33,-500.5 346.33,-504 356.33,-507.5 356.33,-500.5"/>
</g>
<!-- aws_route_table_association.public_rt_1c -->
<g id="node8" class="node">
<title>aws_route_table_association.public_rt_1c</title>
<polygon fill="none" stroke="black" points="681,-468 397,-468 397,-432 681,-432 681,-468"/>
<text text-anchor="middle" x="539" y="-446.3" font-family="sans-serif" font-size="14.00">aws_route_table_association.public_rt_1c</text>
</g>
<!-- aws_route_table_association.public_rt_1c&#45;&gt;aws_route_table.public_rt -->
<g id="edge12" class="edge">
<title>aws_route_table_association.public_rt_1c&#45;&gt;aws_route_table.public_rt</title>
<path fill="none" stroke="black" d="M396.89,-450C378.5,-450 359.96,-450 342.4,-450"/>
<polygon fill="black" stroke="black" points="342.18,-446.5 332.18,-450 342.18,-453.5 342.18,-446.5"/>
</g>
<!-- aws_subnet.public_subnet_1c -->
<g id="node24" class="node">
<title>aws_subnet.public_subnet_1c</title>
<polygon fill="none" stroke="black" points="346,-414 134,-414 134,-378 346,-378 346,-414"/>
<text text-anchor="middle" x="240" y="-392.3" font-family="sans-serif" font-size="14.00">aws_subnet.public_subnet_1c</text>
</g>
<!-- aws_route_table_association.public_rt_1c&#45;&gt;aws_subnet.public_subnet_1c -->
<g id="edge13" class="edge">
<title>aws_route_table_association.public_rt_1c&#45;&gt;aws_subnet.public_subnet_1c</title>
<path fill="none" stroke="black" d="M435.1,-432C418.35,-429.02 401.19,-425.95 385,-423 372.44,-420.71 359.26,-418.29 346.2,-415.86"/>
<polygon fill="black" stroke="black" points="346.72,-412.4 336.25,-414.01 345.44,-419.28 346.72,-412.4"/>
</g>
<!-- aws_security_group.app_sg -->
<g id="node9" class="node">
<title>aws_security_group.app_sg</title>
<polygon fill="none" stroke="black" points="337.5,-198 142.5,-198 142.5,-162 337.5,-162 337.5,-198"/>
<text text-anchor="middle" x="240" y="-176.3" font-family="sans-serif" font-size="14.00">aws_security_group.app_sg</text>
</g>
<!-- aws_security_group.app_sg&#45;&gt;aws_vpc.vpc -->
<g id="edge14" class="edge">
<title>aws_security_group.app_sg&#45;&gt;aws_vpc.vpc</title>
<path fill="none" stroke="black" d="M184.08,-198.03C165.22,-206.48 145.28,-218.23 131,-234 81.23,-288.95 60.33,-377.04 52.55,-421.85"/>
<polygon fill="black" stroke="black" points="49.09,-421.32 50.93,-431.75 56,-422.45 49.09,-421.32"/>
</g>
<!-- aws_security_group.db_sg -->
<g id="node10" class="node">
<title>aws_security_group.db_sg</title>
<polygon fill="none" stroke="black" points="334,-279 146,-279 146,-243 334,-243 334,-279"/>
<text text-anchor="middle" x="240" y="-257.3" font-family="sans-serif" font-size="14.00">aws_security_group.db_sg</text>
</g>
<!-- aws_security_group.db_sg&#45;&gt;aws_vpc.vpc -->
<g id="edge15" class="edge">
<title>aws_security_group.db_sg&#45;&gt;aws_vpc.vpc</title>
<path fill="none" stroke="black" d="M188.89,-279.04C169.3,-287.79 147.6,-299.76 131,-315 97.74,-345.55 73.17,-392.54 59.85,-422.26"/>
<polygon fill="black" stroke="black" points="56.56,-421.06 55.77,-431.62 62.97,-423.85 56.56,-421.06"/>
</g>
<!-- aws_security_group.opmng_sg -->
<g id="node11" class="node">
<title>aws_security_group.opmng_sg</title>
<polygon fill="none" stroke="black" points="349,-360 131,-360 131,-324 349,-324 349,-360"/>
<text text-anchor="middle" x="240" y="-338.3" font-family="sans-serif" font-size="14.00">aws_security_group.opmng_sg</text>
</g>
<!-- aws_security_group.opmng_sg&#45;&gt;aws_vpc.vpc -->
<g id="edge16" class="edge">
<title>aws_security_group.opmng_sg&#45;&gt;aws_vpc.vpc</title>
<path fill="none" stroke="black" d="M150.26,-360.01C143.57,-362.62 137.07,-365.6 131,-369 106.4,-382.78 83.95,-405.83 68.71,-423.82"/>
<polygon fill="black" stroke="black" points="65.89,-421.74 62.23,-431.68 71.29,-426.2 65.89,-421.74"/>
</g>
<!-- aws_security_group.web_sg -->
<g id="node12" class="node">
<title>aws_security_group.web_sg</title>
<polygon fill="none" stroke="black" points="339.5,-117 140.5,-117 140.5,-81 339.5,-81 339.5,-117"/>
<text text-anchor="middle" x="240" y="-95.3" font-family="sans-serif" font-size="14.00">aws_security_group.web_sg</text>
</g>
<!-- aws_security_group.web_sg&#45;&gt;aws_vpc.vpc -->
<g id="edge17" class="edge">
<title>aws_security_group.web_sg&#45;&gt;aws_vpc.vpc</title>
<path fill="none" stroke="black" d="M181.57,-117.07C163.14,-125.39 144.13,-137.06 131,-153 64.51,-233.71 51.46,-364.25 49,-421.52"/>
<polygon fill="black" stroke="black" points="45.5,-421.54 48.65,-431.65 52.5,-421.78 45.5,-421.54"/>
</g>
<!-- aws_security_group_rule.db_in_tcp3306 -->
<g id="node13" class="node">
<title>aws_security_group_rule.db_in_tcp3306</title>
<polygon fill="none" stroke="black" points="678,-198 400,-198 400,-162 678,-162 678,-198"/>
<text text-anchor="middle" x="539" y="-176.3" font-family="sans-serif" font-size="14.00">aws_security_group_rule.db_in_tcp3306</text>
</g>
<!-- aws_security_group_rule.db_in_tcp3306&#45;&gt;aws_security_group.app_sg -->
<g id="edge18" class="edge">
<title>aws_security_group_rule.db_in_tcp3306&#45;&gt;aws_security_group.app_sg</title>
<path fill="none" stroke="black" d="M399.93,-180C382.5,-180 364.87,-180 348.01,-180"/>
<polygon fill="black" stroke="black" points="347.63,-176.5 337.63,-180 347.63,-183.5 347.63,-176.5"/>
</g>
<!-- aws_security_group_rule.db_in_tcp3306&#45;&gt;aws_security_group.db_sg -->
<g id="edge19" class="edge">
<title>aws_security_group_rule.db_in_tcp3306&#45;&gt;aws_security_group.db_sg</title>
<path fill="none" stroke="black" d="M422.62,-198.01C409.85,-200.7 397.1,-203.69 385,-207 353.55,-215.59 319.34,-228.27 292.16,-239.19"/>
<polygon fill="black" stroke="black" points="290.81,-235.96 282.86,-242.96 293.44,-242.45 290.81,-235.96"/>
</g>
<!-- aws_security_group_rule.opmng_in_ssh -->
<g id="node14" class="node">
<title>aws_security_group_rule.opmng_in_ssh</title>
<polygon fill="none" stroke="black" points="677.5,-360 400.5,-360 400.5,-324 677.5,-324 677.5,-360"/>
<text text-anchor="middle" x="539" y="-338.3" font-family="sans-serif" font-size="14.00">aws_security_group_rule.opmng_in_ssh</text>
</g>
<!-- aws_security_group_rule.opmng_in_ssh&#45;&gt;aws_security_group.opmng_sg -->
<g id="edge20" class="edge">
<title>aws_security_group_rule.opmng_in_ssh&#45;&gt;aws_security_group.opmng_sg</title>
<path fill="none" stroke="black" d="M400.37,-342C386.7,-342 372.92,-342 359.47,-342"/>
<polygon fill="black" stroke="black" points="359.27,-338.5 349.27,-342 359.27,-345.5 359.27,-338.5"/>
</g>
<!-- aws_security_group_rule.opmng_in_tcp3000 -->
<g id="node15" class="node">
<title>aws_security_group_rule.opmng_in_tcp3000</title>
<polygon fill="none" stroke="black" points="693,-306 385,-306 385,-270 693,-270 693,-306"/>
<text text-anchor="middle" x="539" y="-284.3" font-family="sans-serif" font-size="14.00">aws_security_group_rule.opmng_in_tcp3000</text>
</g>
<!-- aws_security_group_rule.opmng_in_tcp3000&#45;&gt;aws_security_group.opmng_sg -->
<g id="edge21" class="edge">
<title>aws_security_group_rule.opmng_in_tcp3000&#45;&gt;aws_security_group.opmng_sg</title>
<path fill="none" stroke="black" d="M435.1,-306C418.35,-308.98 401.19,-312.05 385,-315 372.44,-317.29 359.26,-319.71 346.2,-322.14"/>
<polygon fill="black" stroke="black" points="345.44,-318.72 336.25,-323.99 346.72,-325.6 345.44,-318.72"/>
</g>
<!-- aws_security_group_rule.opmng_out_http -->
<g id="node16" class="node">
<title>aws_security_group_rule.opmng_out_http</title>
<polygon fill="none" stroke="black" points="685,-252 393,-252 393,-216 685,-216 685,-252"/>
<text text-anchor="middle" x="539" y="-230.3" font-family="sans-serif" font-size="14.00">aws_security_group_rule.opmng_out_http</text>
</g>
<!-- aws_security_group_rule.opmng_out_http&#45;&gt;aws_security_group.opmng_sg -->
<g id="edge22" class="edge">
<title>aws_security_group_rule.opmng_out_http&#45;&gt;aws_security_group.opmng_sg</title>
<path fill="none" stroke="black" d="M409.36,-252.08C400.99,-254.66 392.8,-257.62 385,-261 366.65,-268.96 366.01,-277.49 349,-288 330.54,-299.41 309.35,-310.42 290.66,-319.49"/>
<polygon fill="black" stroke="black" points="288.93,-316.44 281.42,-323.91 291.95,-322.75 288.93,-316.44"/>
</g>
<!-- aws_security_group_rule.opmng_out_https -->
<g id="node17" class="node">
<title>aws_security_group_rule.opmng_out_https</title>
<polygon fill="none" stroke="black" points="688.5,-414 389.5,-414 389.5,-378 688.5,-378 688.5,-414"/>
<text text-anchor="middle" x="539" y="-392.3" font-family="sans-serif" font-size="14.00">aws_security_group_rule.opmng_out_https</text>
</g>
<!-- aws_security_group_rule.opmng_out_https&#45;&gt;aws_security_group.opmng_sg -->
<g id="edge23" class="edge">
<title>aws_security_group_rule.opmng_out_https&#45;&gt;aws_security_group.opmng_sg</title>
<path fill="none" stroke="black" d="M435.1,-378C418.35,-375.02 401.19,-371.95 385,-369 372.44,-366.71 359.26,-364.29 346.2,-361.86"/>
<polygon fill="black" stroke="black" points="346.72,-358.4 336.25,-360.01 345.44,-365.28 346.72,-358.4"/>
</g>
<!-- aws_security_group_rule.web_in_http -->
<g id="node18" class="node">
<title>aws_security_group_rule.web_in_http</title>
<polygon fill="none" stroke="black" points="670.5,-36 407.5,-36 407.5,0 670.5,0 670.5,-36"/>
<text text-anchor="middle" x="539" y="-14.3" font-family="sans-serif" font-size="14.00">aws_security_group_rule.web_in_http</text>
</g>
<!-- aws_security_group_rule.web_in_http&#45;&gt;aws_security_group.web_sg -->
<g id="edge24" class="edge">
<title>aws_security_group_rule.web_in_http&#45;&gt;aws_security_group.web_sg</title>
<path fill="none" stroke="black" d="M422.62,-36.01C409.85,-38.7 397.1,-41.69 385,-45 353.55,-53.59 319.34,-66.27 292.16,-77.19"/>
<polygon fill="black" stroke="black" points="290.81,-73.96 282.86,-80.96 293.44,-80.45 290.81,-73.96"/>
</g>
<!-- aws_security_group_rule.web_in_https -->
<g id="node19" class="node">
<title>aws_security_group_rule.web_in_https</title>
<polygon fill="none" stroke="black" points="674,-90 404,-90 404,-54 674,-54 674,-90"/>
<text text-anchor="middle" x="539" y="-68.3" font-family="sans-serif" font-size="14.00">aws_security_group_rule.web_in_https</text>
</g>
<!-- aws_security_group_rule.web_in_https&#45;&gt;aws_security_group.web_sg -->
<g id="edge25" class="edge">
<title>aws_security_group_rule.web_in_https&#45;&gt;aws_security_group.web_sg</title>
<path fill="none" stroke="black" d="M403.84,-84.2C385.85,-85.83 367.57,-87.49 350.08,-89.08"/>
<polygon fill="black" stroke="black" points="349.53,-85.62 339.89,-90.01 350.16,-92.59 349.53,-85.62"/>
</g>
<!-- aws_security_group_rule.web_out_tcp3000 -->
<g id="node20" class="node">
<title>aws_security_group_rule.web_out_tcp3000</title>
<polygon fill="none" stroke="black" points="688.5,-144 389.5,-144 389.5,-108 688.5,-108 688.5,-144"/>
<text text-anchor="middle" x="539" y="-122.3" font-family="sans-serif" font-size="14.00">aws_security_group_rule.web_out_tcp3000</text>
</g>
<!-- aws_security_group_rule.web_out_tcp3000&#45;&gt;aws_security_group.app_sg -->
<g id="edge26" class="edge">
<title>aws_security_group_rule.web_out_tcp3000&#45;&gt;aws_security_group.app_sg</title>
<path fill="none" stroke="black" d="M435.1,-144C418.35,-146.98 401.19,-150.05 385,-153 372.44,-155.29 359.26,-157.71 346.2,-160.14"/>
<polygon fill="black" stroke="black" points="345.44,-156.72 336.25,-161.99 346.72,-163.6 345.44,-156.72"/>
</g>
<!-- aws_security_group_rule.web_out_tcp3000&#45;&gt;aws_security_group.web_sg -->
<g id="edge27" class="edge">
<title>aws_security_group_rule.web_out_tcp3000&#45;&gt;aws_security_group.web_sg</title>
<path fill="none" stroke="black" d="M389.06,-112.46C375.82,-111.26 362.57,-110.05 349.76,-108.89"/>
<polygon fill="black" stroke="black" points="349.85,-105.38 339.58,-107.96 349.22,-112.35 349.85,-105.38"/>
</g>
<!-- aws_subnet.private_subnet_1a&#45;&gt;aws_vpc.vpc -->
<g id="edge28" class="edge">
<title>aws_subnet.private_subnet_1a&#45;&gt;aws_vpc.vpc</title>
<path fill="none" stroke="black" d="M142.57,-701.72C138.44,-699.16 134.55,-696.27 131,-693 68.56,-635.5 53.36,-529 49.68,-478.28"/>
<polygon fill="black" stroke="black" points="53.15,-477.81 49.04,-468.05 46.17,-478.25 53.15,-477.81"/>
</g>
<!-- aws_subnet.private_subnet_1c&#45;&gt;aws_vpc.vpc -->
<g id="edge29" class="edge">
<title>aws_subnet.private_subnet_1c&#45;&gt;aws_vpc.vpc</title>
<path fill="none" stroke="black" d="M145.76,-593.92C140.56,-591.33 135.59,-588.38 131,-585 94.21,-557.97 70.41,-509.13 58.25,-478.2"/>
<polygon fill="black" stroke="black" points="61.38,-476.57 54.57,-468.45 54.83,-479.04 61.38,-476.57"/>
</g>
<!-- aws_subnet.public_subnet_1a&#45;&gt;aws_vpc.vpc -->
<g id="edge30" class="edge">
<title>aws_subnet.public_subnet_1a&#45;&gt;aws_vpc.vpc</title>
<path fill="none" stroke="black" d="M163.87,-485.95C152.81,-483.08 141.59,-480.05 131,-477 122.48,-474.54 113.51,-471.79 104.76,-469"/>
<polygon fill="black" stroke="black" points="105.6,-465.6 95.01,-465.86 103.45,-472.26 105.6,-465.6"/>
</g>
<!-- aws_subnet.public_subnet_1c&#45;&gt;aws_vpc.vpc -->
<g id="edge31" class="edge">
<title>aws_subnet.public_subnet_1c&#45;&gt;aws_vpc.vpc</title>
<path fill="none" stroke="black" d="M163.87,-414.05C152.81,-416.92 141.59,-419.95 131,-423 122.48,-425.46 113.51,-428.21 104.76,-431"/>
<polygon fill="black" stroke="black" points="103.45,-427.74 95.01,-434.14 105.6,-434.4 103.45,-427.74"/>
</g>
</g>
</svg>
