<?xml version="1.0" encoding="UTF-8" standalone="no"?>
<!DOCTYPE svg PUBLIC "-//W3C//DTD SVG 1.1//EN"
 "http://www.w3.org/Graphics/SVG/1.1/DTD/svg11.dtd">
<!-- Generated by graphviz version 2.43.0 (0)
 -->
<!-- Title: G Pages: 1 -->
<svg width="2124pt" height="1432pt"
 viewBox="0.00 0.00 2124.00 1432.00" xmlns="http://www.w3.org/2000/svg" xmlns:xlink="http://www.w3.org/1999/xlink">
<g id="graph0" class="graph" transform="scale(1 1) rotate(0) translate(4 1428)">
<title>G</title>
<polygon fill="white" stroke="transparent" points="-4,4 -4,-1428 2120,-1428 2120,4 -4,4"/>
<!-- data.aws_ami.app -->
<g id="node1" class="node">
<title>data.aws_ami.app</title>
<polygon fill="none" stroke="black" points="922.5,-938 780.5,-938 780.5,-902 922.5,-902 922.5,-938"/>
<text text-anchor="middle" x="851.5" y="-916.3" font-family="sans-serif" font-size="14.00">data.aws_ami.app</text>
</g>
<!-- data.aws_iam_policy_document.ec2_assume_role -->
<g id="node2" class="node">
<title>data.aws_iam_policy_document.ec2_assume_role</title>
<polygon fill="none" stroke="black" points="357,-1316 0,-1316 0,-1280 357,-1280 357,-1316"/>
<text text-anchor="middle" x="178.5" y="-1294.3" font-family="sans-serif" font-size="14.00">data.aws_iam_policy_document.ec2_assume_role</text>
</g>
<!-- data.aws_prefix_list.s3_pl -->
<g id="node3" class="node">
<title>data.aws_prefix_list.s3_pl</title>
<polygon fill="none" stroke="black" points="948,-346 755,-346 755,-310 948,-310 948,-346"/>
<text text-anchor="middle" x="851.5" y="-324.3" font-family="sans-serif" font-size="14.00">data.aws_prefix_list.s3_pl</text>
</g>
<!-- aws_db_instance.mysql_standalone -->
<g id="node4" class="node">
<title>aws_db_instance.mysql_standalone</title>
<polygon fill="none" stroke="black" points="1850,-684 1587,-684 1587,-648 1850,-648 1850,-684"/>
<text text-anchor="middle" x="1718.5" y="-662.3" font-family="sans-serif" font-size="14.00">aws_db_instance.mysql_standalone</text>
</g>
<!-- aws_db_option_group.mysql_standalone_optiongroup -->
<g id="node5" class="node">
<title>aws_db_option_group.mysql_standalone_optiongroup</title>
<polygon fill="none" stroke="black" points="1522,-630 1136,-630 1136,-594 1522,-594 1522,-630"/>
<text text-anchor="middle" x="1329" y="-608.3" font-family="sans-serif" font-size="14.00">aws_db_option_group.mysql_standalone_optiongroup</text>
</g>
<!-- aws_db_instance.mysql_standalone&#45;&gt;aws_db_option_group.mysql_standalone_optiongroup -->
<g id="edge1" class="edge">
<title>aws_db_instance.mysql_standalone&#45;&gt;aws_db_option_group.mysql_standalone_optiongroup</title>
<path fill="none" stroke="black" d="M1610.12,-647.95C1590.47,-644.83 1570.14,-641.72 1551,-639 1532.59,-636.38 1513.29,-633.8 1494.09,-631.32"/>
<polygon fill="black" stroke="black" points="1494.43,-627.84 1484.06,-630.04 1493.54,-634.78 1494.43,-627.84"/>
</g>
<!-- aws_db_parameter_group.mysql_standalone_parametergroup -->
<g id="node6" class="node">
<title>aws_db_parameter_group.mysql_standalone_parametergroup</title>
<polygon fill="none" stroke="black" points="1551,-576 1107,-576 1107,-540 1551,-540 1551,-576"/>
<text text-anchor="middle" x="1329" y="-554.3" font-family="sans-serif" font-size="14.00">aws_db_parameter_group.mysql_standalone_parametergroup</text>
</g>
<!-- aws_db_instance.mysql_standalone&#45;&gt;aws_db_parameter_group.mysql_standalone_parametergroup -->
<g id="edge2" class="edge">
<title>aws_db_instance.mysql_standalone&#45;&gt;aws_db_parameter_group.mysql_standalone_parametergroup</title>
<path fill="none" stroke="black" d="M1688.03,-647.92C1655.67,-628.97 1601.56,-599.93 1551,-585 1542.65,-582.53 1534.06,-580.29 1525.33,-578.26"/>
<polygon fill="black" stroke="black" points="1525.95,-574.81 1515.43,-576.04 1524.43,-581.64 1525.95,-574.81"/>
</g>
<!-- aws_db_subnet_group.mysql_standalone_subnetgroup -->
<g id="node7" class="node">
<title>aws_db_subnet_group.mysql_standalone_subnetgroup</title>
<polygon fill="none" stroke="black" points="1526.5,-1100 1131.5,-1100 1131.5,-1064 1526.5,-1064 1526.5,-1100"/>
<text text-anchor="middle" x="1329" y="-1078.3" font-family="sans-serif" font-size="14.00">aws_db_subnet_group.mysql_standalone_subnetgroup</text>
</g>
<!-- aws_db_instance.mysql_standalone&#45;&gt;aws_db_subnet_group.mysql_standalone_subnetgroup -->
<g id="edge3" class="edge">
<title>aws_db_instance.mysql_standalone&#45;&gt;aws_db_subnet_group.mysql_standalone_subnetgroup</title>
<path fill="none" stroke="black" d="M1715.92,-684.11C1709.33,-747.32 1678.19,-959.51 1551,-1055 1546.15,-1058.64 1541.06,-1061.94 1535.78,-1064.92"/>
<polygon fill="black" stroke="black" points="1533.98,-1061.91 1526.74,-1069.64 1537.22,-1068.12 1533.98,-1061.91"/>
</g>
<!-- aws_security_group.db_sg -->
<g id="node25" class="node">
<title>aws_security_group.db_sg</title>
<polygon fill="none" stroke="black" points="951,-704 752,-704 752,-668 951,-668 951,-704"/>
<text text-anchor="middle" x="851.5" y="-682.3" font-family="sans-serif" font-size="14.00">aws_security_group.db_sg</text>
</g>
<!-- aws_db_instance.mysql_standalone&#45;&gt;aws_security_group.db_sg -->
<g id="edge4" class="edge">
<title>aws_db_instance.mysql_standalone&#45;&gt;aws_security_group.db_sg</title>
<path fill="none" stroke="black" d="M1690.37,-684.01C1658.56,-703.97 1603.47,-734.91 1551,-747 1454.85,-769.15 1198.69,-783.45 1107,-747 1086.55,-738.87 1090.91,-722.37 1071,-713 1037.25,-697.12 997.49,-689.42 961.2,-685.98"/>
<polygon fill="black" stroke="black" points="961.32,-682.47 951.06,-685.11 960.73,-689.45 961.32,-682.47"/>
</g>
<!-- random_string.db_password -->
<g id="node50" class="node">
<title>random_string.db_password</title>
<polygon fill="none" stroke="black" points="1435.5,-684 1222.5,-684 1222.5,-648 1435.5,-648 1435.5,-684"/>
<text text-anchor="middle" x="1329" y="-662.3" font-family="sans-serif" font-size="14.00">random_string.db_password</text>
</g>
<!-- aws_db_instance.mysql_standalone&#45;&gt;random_string.db_password -->
<g id="edge5" class="edge">
<title>aws_db_instance.mysql_standalone&#45;&gt;random_string.db_password</title>
<path fill="none" stroke="black" d="M1586.85,-666C1541.19,-666 1490.28,-666 1445.91,-666"/>
<polygon fill="black" stroke="black" points="1445.66,-662.5 1435.66,-666 1445.66,-669.5 1445.66,-662.5"/>
</g>
<!-- aws_subnet.private_subnet_1a -->
<g id="node45" class="node">
<title>aws_subnet.private_subnet_1a</title>
<polygon fill="none" stroke="black" points="966.5,-1154 736.5,-1154 736.5,-1118 966.5,-1118 966.5,-1154"/>
<text text-anchor="middle" x="851.5" y="-1132.3" font-family="sans-serif" font-size="14.00">aws_subnet.private_subnet_1a</text>
</g>
<!-- aws_db_subnet_group.mysql_standalone_subnetgroup&#45;&gt;aws_subnet.private_subnet_1a -->
<g id="edge6" class="edge">
<title>aws_db_subnet_group.mysql_standalone_subnetgroup&#45;&gt;aws_subnet.private_subnet_1a</title>
<path fill="none" stroke="black" d="M1169.33,-1100.02C1106.66,-1107.14 1035.71,-1115.19 976.86,-1121.88"/>
<polygon fill="black" stroke="black" points="976.31,-1118.42 966.77,-1123.02 977.1,-1125.37 976.31,-1118.42"/>
</g>
<!-- aws_subnet.private_subnet_1c -->
<g id="node46" class="node">
<title>aws_subnet.private_subnet_1c</title>
<polygon fill="none" stroke="black" points="966.5,-1100 736.5,-1100 736.5,-1064 966.5,-1064 966.5,-1100"/>
<text text-anchor="middle" x="851.5" y="-1078.3" font-family="sans-serif" font-size="14.00">aws_subnet.private_subnet_1c</text>
</g>
<!-- aws_db_subnet_group.mysql_standalone_subnetgroup&#45;&gt;aws_subnet.private_subnet_1c -->
<g id="edge7" class="edge">
<title>aws_db_subnet_group.mysql_standalone_subnetgroup&#45;&gt;aws_subnet.private_subnet_1c</title>
<path fill="none" stroke="black" d="M1131.16,-1082C1078.92,-1082 1023.95,-1082 976.77,-1082"/>
<polygon fill="black" stroke="black" points="976.52,-1078.5 966.52,-1082 976.52,-1085.5 976.52,-1078.5"/>
</g>
<!-- aws_iam_instance_profile.app_ec2_profile -->
<g id="node8" class="node">
<title>aws_iam_instance_profile.app_ec2_profile</title>
<polygon fill="none" stroke="black" points="1003.5,-1046 699.5,-1046 699.5,-1010 1003.5,-1010 1003.5,-1046"/>
<text text-anchor="middle" x="851.5" y="-1024.3" font-family="sans-serif" font-size="14.00">aws_iam_instance_profile.app_ec2_profile</text>
</g>
<!-- aws_iam_role.app_iam_role -->
<g id="node9" class="node">
<title>aws_iam_role.app_iam_role</title>
<polygon fill="none" stroke="black" points="596,-1316 393,-1316 393,-1280 596,-1280 596,-1316"/>
<text text-anchor="middle" x="494.5" y="-1294.3" font-family="sans-serif" font-size="14.00">aws_iam_role.app_iam_role</text>
</g>
<!-- aws_iam_instance_profile.app_ec2_profile&#45;&gt;aws_iam_role.app_iam_role -->
<g id="edge8" class="edge">
<title>aws_iam_instance_profile.app_ec2_profile&#45;&gt;aws_iam_role.app_iam_role</title>
<path fill="none" stroke="black" d="M699.28,-1028.02C675.38,-1033.13 652,-1041.58 632,-1055 554.75,-1106.83 516.54,-1217.86 502.31,-1269.94"/>
<polygon fill="black" stroke="black" points="498.86,-1269.27 499.7,-1279.83 505.63,-1271.05 498.86,-1269.27"/>
</g>
<!-- aws_iam_role.app_iam_role&#45;&gt;data.aws_iam_policy_document.ec2_assume_role -->
<g id="edge9" class="edge">
<title>aws_iam_role.app_iam_role&#45;&gt;data.aws_iam_policy_document.ec2_assume_role</title>
<path fill="none" stroke="black" d="M392.85,-1298C384.54,-1298 375.98,-1298 367.29,-1298"/>
<polygon fill="black" stroke="black" points="367.03,-1294.5 357.03,-1298 367.03,-1301.5 367.03,-1294.5"/>
</g>
<!-- aws_iam_role_policy_attachment.app_iam_role_ec2_readonly -->
<g id="node10" class="node">
<title>aws_iam_role_policy_attachment.app_iam_role_ec2_readonly</title>
<polygon fill="none" stroke="black" points="1069,-1424 634,-1424 634,-1388 1069,-1388 1069,-1424"/>
<text text-anchor="middle" x="851.5" y="-1402.3" font-family="sans-serif" font-size="14.00">aws_iam_role_policy_attachment.app_iam_role_ec2_readonly</text>
</g>
<!-- aws_iam_role_policy_attachment.app_iam_role_ec2_readonly&#45;&gt;aws_iam_role.app_iam_role -->
<g id="edge10" class="edge">
<title>aws_iam_role_policy_attachment.app_iam_role_ec2_readonly&#45;&gt;aws_iam_role.app_iam_role</title>
<path fill="none" stroke="black" d="M662.8,-1387.99C652.28,-1385.38 641.95,-1382.4 632,-1379 593.41,-1365.81 553.82,-1340.81 527.29,-1322.05"/>
<polygon fill="black" stroke="black" points="529.31,-1319.19 519.15,-1316.2 525.23,-1324.88 529.31,-1319.19"/>
</g>
<!-- aws_iam_role_policy_attachment.app_iam_role_s3_readonly -->
<g id="node11" class="node">
<title>aws_iam_role_policy_attachment.app_iam_role_s3_readonly</title>
<polygon fill="none" stroke="black" points="1065,-1370 638,-1370 638,-1334 1065,-1334 1065,-1370"/>
<text text-anchor="middle" x="851.5" y="-1348.3" font-family="sans-serif" font-size="14.00">aws_iam_role_policy_attachment.app_iam_role_s3_readonly</text>
</g>
<!-- aws_iam_role_policy_attachment.app_iam_role_s3_readonly&#45;&gt;aws_iam_role.app_iam_role -->
<g id="edge11" class="edge">
<title>aws_iam_role_policy_attachment.app_iam_role_s3_readonly&#45;&gt;aws_iam_role.app_iam_role</title>
<path fill="none" stroke="black" d="M693.36,-1333.97C672.69,-1331.19 651.81,-1328.18 632,-1325 618.85,-1322.89 605.04,-1320.44 591.45,-1317.89"/>
<polygon fill="black" stroke="black" points="592.09,-1314.45 581.62,-1316.02 590.79,-1321.32 592.09,-1314.45"/>
</g>
<!-- aws_iam_role_policy_attachment.app_iam_role_ssm_readonly -->
<g id="node12" class="node">
<title>aws_iam_role_policy_attachment.app_iam_role_ssm_readonly</title>
<polygon fill="none" stroke="black" points="1071,-1316 632,-1316 632,-1280 1071,-1280 1071,-1316"/>
<text text-anchor="middle" x="851.5" y="-1294.3" font-family="sans-serif" font-size="14.00">aws_iam_role_policy_attachment.app_iam_role_ssm_readonly</text>
</g>
<!-- aws_iam_role_policy_attachment.app_iam_role_ssm_readonly&#45;&gt;aws_iam_role.app_iam_role -->
<g id="edge12" class="edge">
<title>aws_iam_role_policy_attachment.app_iam_role_ssm_readonly&#45;&gt;aws_iam_role.app_iam_role</title>
<path fill="none" stroke="black" d="M631.99,-1298C623.25,-1298 614.66,-1298 606.29,-1298"/>
<polygon fill="black" stroke="black" points="606.21,-1294.5 596.21,-1298 606.21,-1301.5 606.21,-1294.5"/>
</g>
<!-- aws_iam_role_policy_attachment.app_iam_ssm_managed -->
<g id="node13" class="node">
<title>aws_iam_role_policy_attachment.app_iam_ssm_managed</title>
<polygon fill="none" stroke="black" points="1057.5,-1262 645.5,-1262 645.5,-1226 1057.5,-1226 1057.5,-1262"/>
<text text-anchor="middle" x="851.5" y="-1240.3" font-family="sans-serif" font-size="14.00">aws_iam_role_policy_attachment.app_iam_ssm_managed</text>
</g>
<!-- aws_iam_role_policy_attachment.app_iam_ssm_managed&#45;&gt;aws_iam_role.app_iam_role -->
<g id="edge13" class="edge">
<title>aws_iam_role_policy_attachment.app_iam_ssm_managed&#45;&gt;aws_iam_role.app_iam_role</title>
<path fill="none" stroke="black" d="M693.36,-1262.03C672.69,-1264.81 651.81,-1267.82 632,-1271 618.85,-1273.11 605.04,-1275.56 591.45,-1278.11"/>
<polygon fill="black" stroke="black" points="590.79,-1274.68 581.62,-1279.98 592.09,-1281.55 590.79,-1274.68"/>
</g>
<!-- aws_instance.app_server -->
<g id="node14" class="node">
<title>aws_instance.app_server</title>
<polygon fill="none" stroke="black" points="1424.5,-1046 1233.5,-1046 1233.5,-1010 1424.5,-1010 1424.5,-1046"/>
<text text-anchor="middle" x="1329" y="-1024.3" font-family="sans-serif" font-size="14.00">aws_instance.app_server</text>
</g>
<!-- aws_instance.app_server&#45;&gt;data.aws_ami.app -->
<g id="edge14" class="edge">
<title>aws_instance.app_server&#45;&gt;data.aws_ami.app</title>
<path fill="none" stroke="black" d="M1233.25,-1033.6C1191.81,-1031.89 1144.27,-1023.96 1107,-1001 1082.44,-985.87 1095.55,-962.15 1071,-947 1030.03,-921.72 976.49,-914.78 932.67,-914.25"/>
<polygon fill="black" stroke="black" points="932.62,-910.75 922.61,-914.24 932.61,-917.75 932.62,-910.75"/>
</g>
<!-- aws_instance.app_server&#45;&gt;aws_iam_instance_profile.app_ec2_profile -->
<g id="edge15" class="edge">
<title>aws_instance.app_server&#45;&gt;aws_iam_instance_profile.app_ec2_profile</title>
<path fill="none" stroke="black" d="M1233.49,-1028C1170.89,-1028 1087.17,-1028 1014.15,-1028"/>
<polygon fill="black" stroke="black" points="1013.92,-1024.5 1003.92,-1028 1013.92,-1031.5 1013.92,-1024.5"/>
</g>
<!-- aws_key_pair.keypair -->
<g id="node16" class="node">
<title>aws_key_pair.keypair</title>
<polygon fill="none" stroke="black" points="932.5,-992 770.5,-992 770.5,-956 932.5,-956 932.5,-992"/>
<text text-anchor="middle" x="851.5" y="-970.3" font-family="sans-serif" font-size="14.00">aws_key_pair.keypair</text>
</g>
<!-- aws_instance.app_server&#45;&gt;aws_key_pair.keypair -->
<g id="edge16" class="edge">
<title>aws_instance.app_server&#45;&gt;aws_key_pair.keypair</title>
<path fill="none" stroke="black" d="M1233.49,-1017.27C1148.9,-1007.66 1025.76,-993.68 942.56,-984.23"/>
<polygon fill="black" stroke="black" points="942.95,-980.75 932.62,-983.1 942.16,-987.7 942.95,-980.75"/>
</g>
<!-- aws_security_group.app_sg -->
<g id="node24" class="node">
<title>aws_security_group.app_sg</title>
<polygon fill="none" stroke="black" points="955,-495 748,-495 748,-459 955,-459 955,-495"/>
<text text-anchor="middle" x="851.5" y="-473.3" font-family="sans-serif" font-size="14.00">aws_security_group.app_sg</text>
</g>
<!-- aws_instance.app_server&#45;&gt;aws_security_group.app_sg -->
<g id="edge17" class="edge">
<title>aws_instance.app_server&#45;&gt;aws_security_group.app_sg</title>
<path fill="none" stroke="black" d="M1233.47,-1041.63C1189,-1042.44 1138.87,-1034.3 1107,-1001 1035.65,-926.44 1136.54,-617.72 1071,-538 1045.12,-506.52 1004.46,-490.52 965.2,-482.63"/>
<polygon fill="black" stroke="black" points="965.72,-479.17 955.26,-480.8 964.45,-486.05 965.72,-479.17"/>
</g>
<!-- aws_security_group.opmng_sg -->
<g id="node26" class="node">
<title>aws_security_group.opmng_sg</title>
<polygon fill="none" stroke="black" points="966.5,-884 736.5,-884 736.5,-848 966.5,-848 966.5,-884"/>
<text text-anchor="middle" x="851.5" y="-862.3" font-family="sans-serif" font-size="14.00">aws_security_group.opmng_sg</text>
</g>
<!-- aws_instance.app_server&#45;&gt;aws_security_group.opmng_sg -->
<g id="edge18" class="edge">
<title>aws_instance.app_server&#45;&gt;aws_security_group.opmng_sg</title>
<path fill="none" stroke="black" d="M1233.43,-1038.07C1190.55,-1037.62 1141.79,-1029.44 1107,-1001 1067.83,-968.98 1110.15,-925.05 1071,-893 1044.8,-871.55 1010.57,-861.71 977,-858.02"/>
<polygon fill="black" stroke="black" points="976.89,-854.5 966.61,-857.07 976.25,-861.47 976.89,-854.5"/>
</g>
<!-- aws_subnet.public_subnet_1a -->
<g id="node47" class="node">
<title>aws_subnet.public_subnet_1a</title>
<polygon fill="none" stroke="black" points="963.5,-758 739.5,-758 739.5,-722 963.5,-722 963.5,-758"/>
<text text-anchor="middle" x="851.5" y="-736.3" font-family="sans-serif" font-size="14.00">aws_subnet.public_subnet_1a</text>
</g>
<!-- aws_instance.app_server&#45;&gt;aws_subnet.public_subnet_1a -->
<g id="edge19" class="edge">
<title>aws_instance.app_server&#45;&gt;aws_subnet.public_subnet_1a</title>
<path fill="none" stroke="black" d="M1233.47,-1039.64C1189.95,-1039.71 1140.64,-1031.52 1107,-1001 1052.38,-951.44 1117.49,-896.26 1071,-839 1039.39,-800.07 989.17,-775.86 944.85,-761.13"/>
<polygon fill="black" stroke="black" points="945.79,-757.76 935.2,-758.04 943.65,-764.43 945.79,-757.76"/>
</g>
<!-- aws_internet_gateway.igw -->
<g id="node15" class="node">
<title>aws_internet_gateway.igw</title>
<polygon fill="none" stroke="black" points="949.5,-265 753.5,-265 753.5,-229 949.5,-229 949.5,-265"/>
<text text-anchor="middle" x="851.5" y="-243.3" font-family="sans-serif" font-size="14.00">aws_internet_gateway.igw</text>
</g>
<!-- aws_vpc.vpc -->
<g id="node49" class="node">
<title>aws_vpc.vpc</title>
<polygon fill="none" stroke="black" points="546.5,-704 442.5,-704 442.5,-668 546.5,-668 546.5,-704"/>
<text text-anchor="middle" x="494.5" y="-682.3" font-family="sans-serif" font-size="14.00">aws_vpc.vpc</text>
</g>
<!-- aws_internet_gateway.igw&#45;&gt;aws_vpc.vpc -->
<g id="edge20" class="edge">
<title>aws_internet_gateway.igw&#45;&gt;aws_vpc.vpc</title>
<path fill="none" stroke="black" d="M753.32,-250.89C711.54,-257.23 664.87,-271.22 632,-301 524.28,-398.61 501.55,-586.73 496.77,-657.85"/>
<polygon fill="black" stroke="black" points="493.27,-657.65 496.16,-667.85 500.26,-658.08 493.27,-657.65"/>
</g>
<!-- aws_route.public_rt_igw -->
<g id="node17" class="node">
<title>aws_route.public_rt_igw</title>
<polygon fill="none" stroke="black" points="1420,-252 1238,-252 1238,-216 1420,-216 1420,-252"/>
<text text-anchor="middle" x="1329" y="-230.3" font-family="sans-serif" font-size="14.00">aws_route.public_rt_igw</text>
</g>
<!-- aws_route.public_rt_igw&#45;&gt;aws_internet_gateway.igw -->
<g id="edge21" class="edge">
<title>aws_route.public_rt_igw&#45;&gt;aws_internet_gateway.igw</title>
<path fill="none" stroke="black" d="M1237.72,-236.47C1158.65,-238.63 1043.61,-241.78 959.84,-244.07"/>
<polygon fill="black" stroke="black" points="959.69,-240.57 949.79,-244.34 959.88,-247.57 959.69,-240.57"/>
</g>
<!-- aws_route_table.public_rt -->
<g id="node19" class="node">
<title>aws_route_table.public_rt</title>
<polygon fill="none" stroke="black" points="947.5,-427 755.5,-427 755.5,-391 947.5,-391 947.5,-427"/>
<text text-anchor="middle" x="851.5" y="-405.3" font-family="sans-serif" font-size="14.00">aws_route_table.public_rt</text>
</g>
<!-- aws_route.public_rt_igw&#45;&gt;aws_route_table.public_rt -->
<g id="edge22" class="edge">
<title>aws_route.public_rt_igw&#45;&gt;aws_route_table.public_rt</title>
<path fill="none" stroke="black" d="M1237.83,-224.58C1194.18,-224.75 1143.47,-232.5 1107,-261 1071.75,-288.55 1104.53,-325.38 1071,-355 1039.96,-382.43 997.15,-396.4 957.65,-403.36"/>
<polygon fill="black" stroke="black" points="957,-399.92 947.69,-404.98 958.12,-406.83 957,-399.92"/>
</g>
<!-- aws_route_table.private_rt -->
<g id="node18" class="node">
<title>aws_route_table.private_rt</title>
<polygon fill="none" stroke="black" points="951,-1208 752,-1208 752,-1172 951,-1172 951,-1208"/>
<text text-anchor="middle" x="851.5" y="-1186.3" font-family="sans-serif" font-size="14.00">aws_route_table.private_rt</text>
</g>
<!-- aws_route_table.private_rt&#45;&gt;aws_vpc.vpc -->
<g id="edge23" class="edge">
<title>aws_route_table.private_rt&#45;&gt;aws_vpc.vpc</title>
<path fill="none" stroke="black" d="M751.75,-1200.39C710.42,-1199.47 664.53,-1190.82 632,-1163 561.63,-1102.82 513.19,-807.31 499.47,-714.17"/>
<polygon fill="black" stroke="black" points="502.91,-713.48 498,-704.09 495.98,-714.49 502.91,-713.48"/>
</g>
<!-- aws_route_table.public_rt&#45;&gt;aws_vpc.vpc -->
<g id="edge24" class="edge">
<title>aws_route_table.public_rt&#45;&gt;aws_vpc.vpc</title>
<path fill="none" stroke="black" d="M755.46,-409.5C714.34,-413.86 667.6,-424.8 632,-450 558.24,-502.21 518.58,-607.81 503.18,-658.12"/>
<polygon fill="black" stroke="black" points="499.74,-657.4 500.26,-667.98 506.45,-659.39 499.74,-657.4"/>
</g>
<!-- aws_route_table_association.private_rt_1a -->
<g id="node20" class="node">
<title>aws_route_table_association.private_rt_1a</title>
<polygon fill="none" stroke="black" points="1482.5,-1208 1175.5,-1208 1175.5,-1172 1482.5,-1172 1482.5,-1208"/>
<text text-anchor="middle" x="1329" y="-1186.3" font-family="sans-serif" font-size="14.00">aws_route_table_association.private_rt_1a</text>
</g>
<!-- aws_route_table_association.private_rt_1a&#45;&gt;aws_route_table.private_rt -->
<g id="edge25" class="edge">
<title>aws_route_table_association.private_rt_1a&#45;&gt;aws_route_table.private_rt</title>
<path fill="none" stroke="black" d="M1175.26,-1190C1105.53,-1190 1024.57,-1190 961.17,-1190"/>
<polygon fill="black" stroke="black" points="961.15,-1186.5 951.15,-1190 961.15,-1193.5 961.15,-1186.5"/>
</g>
<!-- aws_route_table_association.private_rt_1a&#45;&gt;aws_subnet.private_subnet_1a -->
<g id="edge26" class="edge">
<title>aws_route_table_association.private_rt_1a&#45;&gt;aws_subnet.private_subnet_1a</title>
<path fill="none" stroke="black" d="M1175.26,-1172.65C1111.08,-1165.37 1037.37,-1157 976.62,-1150.1"/>
<polygon fill="black" stroke="black" points="976.93,-1146.61 966.59,-1148.96 976.14,-1153.56 976.93,-1146.61"/>
</g>
<!-- aws_route_table_association.private_rt_1c -->
<g id="node21" class="node">
<title>aws_route_table_association.private_rt_1c</title>
<polygon fill="none" stroke="black" points="1482,-1154 1176,-1154 1176,-1118 1482,-1118 1482,-1154"/>
<text text-anchor="middle" x="1329" y="-1132.3" font-family="sans-serif" font-size="14.00">aws_route_table_association.private_rt_1c</text>
</g>
<!-- aws_route_table_association.private_rt_1c&#45;&gt;aws_route_table.private_rt -->
<g id="edge27" class="edge">
<title>aws_route_table_association.private_rt_1c&#45;&gt;aws_route_table.private_rt</title>
<path fill="none" stroke="black" d="M1175.91,-1153.27C1106.02,-1161.21 1024.72,-1170.44 961.12,-1177.66"/>
<polygon fill="black" stroke="black" points="960.61,-1174.2 951.07,-1178.81 961.4,-1181.16 960.61,-1174.2"/>
</g>
<!-- aws_route_table_association.private_rt_1c&#45;&gt;aws_subnet.private_subnet_1c -->
<g id="edge28" class="edge">
<title>aws_route_table_association.private_rt_1c&#45;&gt;aws_subnet.private_subnet_1c</title>
<path fill="none" stroke="black" d="M1175.91,-1118.73C1111.57,-1111.42 1037.55,-1103.02 976.58,-1096.09"/>
<polygon fill="black" stroke="black" points="976.86,-1092.6 966.53,-1094.95 976.07,-1099.56 976.86,-1092.6"/>
</g>
<!-- aws_route_table_association.public_rt_1a -->
<g id="node22" class="node">
<title>aws_route_table_association.public_rt_1a</title>
<polygon fill="none" stroke="black" points="1479,-468 1179,-468 1179,-432 1479,-432 1479,-468"/>
<text text-anchor="middle" x="1329" y="-446.3" font-family="sans-serif" font-size="14.00">aws_route_table_association.public_rt_1a</text>
</g>
<!-- aws_route_table_association.public_rt_1a&#45;&gt;aws_route_table.public_rt -->
<g id="edge29" class="edge">
<title>aws_route_table_association.public_rt_1a&#45;&gt;aws_route_table.public_rt</title>
<path fill="none" stroke="black" d="M1178.85,-437.14C1107.11,-430.95 1022.81,-423.68 957.86,-418.08"/>
<polygon fill="black" stroke="black" points="957.87,-414.57 947.61,-417.2 957.27,-421.55 957.87,-414.57"/>
</g>
<!-- aws_route_table_association.public_rt_1a&#45;&gt;aws_subnet.public_subnet_1a -->
<g id="edge30" class="edge">
<title>aws_route_table_association.public_rt_1a&#45;&gt;aws_subnet.public_subnet_1a</title>
<path fill="none" stroke="black" d="M1178.85,-442.09C1152.1,-447.45 1126.55,-458.02 1107,-477 1030.86,-550.9 1147.08,-639.05 1071,-713 1045.32,-737.96 1009.17,-748.27 973.65,-751.3"/>
<polygon fill="black" stroke="black" points="973.41,-747.81 963.66,-751.97 973.87,-754.8 973.41,-747.81"/>
</g>
<!-- aws_route_table_association.public_rt_1c -->
<g id="node23" class="node">
<title>aws_route_table_association.public_rt_1c</title>
<polygon fill="none" stroke="black" points="1478.5,-414 1179.5,-414 1179.5,-378 1478.5,-378 1478.5,-414"/>
<text text-anchor="middle" x="1329" y="-392.3" font-family="sans-serif" font-size="14.00">aws_route_table_association.public_rt_1c</text>
</g>
<!-- aws_route_table_association.public_rt_1c&#45;&gt;aws_route_table.public_rt -->
<g id="edge31" class="edge">
<title>aws_route_table_association.public_rt_1c&#45;&gt;aws_route_table.public_rt</title>
<path fill="none" stroke="black" d="M1179.18,-400.07C1107.42,-402.03 1023.03,-404.34 958,-406.12"/>
<polygon fill="black" stroke="black" points="957.64,-402.62 947.74,-406.4 957.83,-409.62 957.64,-402.62"/>
</g>
<!-- aws_subnet.public_subnet_1c -->
<g id="node48" class="node">
<title>aws_subnet.public_subnet_1c</title>
<polygon fill="none" stroke="black" points="963,-583 740,-583 740,-547 963,-547 963,-583"/>
<text text-anchor="middle" x="851.5" y="-561.3" font-family="sans-serif" font-size="14.00">aws_subnet.public_subnet_1c</text>
</g>
<!-- aws_route_table_association.public_rt_1c&#45;&gt;aws_subnet.public_subnet_1c -->
<g id="edge32" class="edge">
<title>aws_route_table_association.public_rt_1c&#45;&gt;aws_subnet.public_subnet_1c</title>
<path fill="none" stroke="black" d="M1179.39,-393.06C1153.44,-398.2 1128.05,-407.42 1107,-423 1075.33,-446.43 1100.81,-478.25 1071,-504 1043.62,-527.65 1007.75,-542.18 973.02,-551.09"/>
<polygon fill="black" stroke="black" points="972.15,-547.7 963.26,-553.46 973.8,-554.5 972.15,-547.7"/>
</g>
<!-- aws_security_group.app_sg&#45;&gt;aws_vpc.vpc -->
<g id="edge33" class="edge">
<title>aws_security_group.app_sg&#45;&gt;aws_vpc.vpc</title>
<path fill="none" stroke="black" d="M747.84,-493.37C709.55,-502.55 666.94,-516.62 632,-538 580.27,-569.65 535.96,-626.38 512.78,-659.65"/>
<polygon fill="black" stroke="black" points="509.84,-657.75 507.08,-667.98 515.61,-661.7 509.84,-657.75"/>
</g>
<!-- aws_security_group.db_sg&#45;&gt;aws_vpc.vpc -->
<g id="edge34" class="edge">
<title>aws_security_group.db_sg&#45;&gt;aws_vpc.vpc</title>
<path fill="none" stroke="black" d="M751.61,-686C689.17,-686 610.45,-686 556.88,-686"/>
<polygon fill="black" stroke="black" points="556.85,-682.5 546.85,-686 556.85,-689.5 556.85,-682.5"/>
</g>
<!-- aws_security_group.opmng_sg&#45;&gt;aws_vpc.vpc -->
<g id="edge35" class="edge">
<title>aws_security_group.opmng_sg&#45;&gt;aws_vpc.vpc</title>
<path fill="none" stroke="black" d="M806.71,-847.85C762.11,-828.96 691.27,-797.9 632,-767 597.53,-749.03 559.61,-726.28 532.5,-709.46"/>
<polygon fill="black" stroke="black" points="534.08,-706.32 523.74,-704 530.37,-712.26 534.08,-706.32"/>
</g>
<!-- aws_security_group.web_sg -->
<g id="node27" class="node">
<title>aws_security_group.web_sg</title>
<polygon fill="none" stroke="black" points="956,-144 747,-144 747,-108 956,-108 956,-144"/>
<text text-anchor="middle" x="851.5" y="-122.3" font-family="sans-serif" font-size="14.00">aws_security_group.web_sg</text>
</g>
<!-- aws_security_group.web_sg&#45;&gt;aws_vpc.vpc -->
<g id="edge36" class="edge">
<title>aws_security_group.web_sg&#45;&gt;aws_vpc.vpc</title>
<path fill="none" stroke="black" d="M765.1,-144.05C719.75,-157.76 666.43,-181.12 632,-220 515.37,-351.71 498.18,-578.35 495.81,-657.63"/>
<polygon fill="black" stroke="black" points="492.31,-657.73 495.57,-667.81 499.31,-657.9 492.31,-657.73"/>
</g>
<!-- aws_security_group_rule.app_in_tcp3000 -->
<g id="node28" class="node">
<title>aws_security_group_rule.app_in_tcp3000</title>
<polygon fill="none" stroke="black" points="1480,-144 1178,-144 1178,-108 1480,-108 1480,-144"/>
<text text-anchor="middle" x="1329" y="-122.3" font-family="sans-serif" font-size="14.00">aws_security_group_rule.app_in_tcp3000</text>
</g>
<!-- aws_security_group_rule.app_in_tcp3000&#45;&gt;aws_security_group.app_sg -->
<g id="edge37" class="edge">
<title>aws_security_group_rule.app_in_tcp3000&#45;&gt;aws_security_group.app_sg</title>
<path fill="none" stroke="black" d="M1177.91,-117.82C1151.39,-123.25 1126.18,-133.92 1107,-153 1017.12,-242.43 1157.97,-343.74 1071,-436 1044.02,-464.62 1003.91,-476.95 965.38,-481.42"/>
<polygon fill="black" stroke="black" points="964.71,-477.97 955.1,-482.44 965.4,-484.94 964.71,-477.97"/>
</g>
<!-- aws_security_group_rule.app_in_tcp3000&#45;&gt;aws_security_group.web_sg -->
<g id="edge38" class="edge">
<title>aws_security_group_rule.app_in_tcp3000&#45;&gt;aws_security_group.web_sg</title>
<path fill="none" stroke="black" d="M1177.88,-126C1109.42,-126 1029.69,-126 966.29,-126"/>
<polygon fill="black" stroke="black" points="966.26,-122.5 956.26,-126 966.26,-129.5 966.26,-122.5"/>
</g>
<!-- aws_security_group_rule.app_out_http -->
<g id="node29" class="node">
<title>aws_security_group_rule.app_out_http</title>
<polygon fill="none" stroke="black" points="1470,-360 1188,-360 1188,-324 1470,-324 1470,-360"/>
<text text-anchor="middle" x="1329" y="-338.3" font-family="sans-serif" font-size="14.00">aws_security_group_rule.app_out_http</text>
</g>
<!-- aws_security_group_rule.app_out_http&#45;&gt;data.aws_prefix_list.s3_pl -->
<g id="edge39" class="edge">
<title>aws_security_group_rule.app_out_http&#45;&gt;data.aws_prefix_list.s3_pl</title>
<path fill="none" stroke="black" d="M1187.91,-337.88C1114.56,-335.72 1026.19,-333.11 958.58,-331.12"/>
<polygon fill="black" stroke="black" points="958.44,-327.62 948.34,-330.82 958.23,-334.61 958.44,-327.62"/>
</g>
<!-- aws_security_group_rule.app_out_http&#45;&gt;aws_security_group.app_sg -->
<g id="edge40" class="edge">
<title>aws_security_group_rule.app_out_http&#45;&gt;aws_security_group.app_sg</title>
<path fill="none" stroke="black" d="M1187.82,-339.01C1159.23,-343.73 1130.69,-352.8 1107,-369 1079.09,-388.08 1098.28,-416.04 1071,-436 1040.68,-458.18 1001.82,-469.43 965.3,-474.84"/>
<polygon fill="black" stroke="black" points="964.52,-471.41 955.08,-476.21 965.45,-478.35 964.52,-471.41"/>
</g>
<!-- aws_security_group_rule.app_out_https -->
<g id="node30" class="node">
<title>aws_security_group_rule.app_out_https</title>
<polygon fill="none" stroke="black" points="1474,-306 1184,-306 1184,-270 1474,-270 1474,-306"/>
<text text-anchor="middle" x="1329" y="-284.3" font-family="sans-serif" font-size="14.00">aws_security_group_rule.app_out_https</text>
</g>
<!-- aws_security_group_rule.app_out_https&#45;&gt;data.aws_prefix_list.s3_pl -->
<g id="edge41" class="edge">
<title>aws_security_group_rule.app_out_https&#45;&gt;data.aws_prefix_list.s3_pl</title>
<path fill="none" stroke="black" d="M1183.72,-300.14C1111.07,-306.25 1024.56,-313.53 958.18,-319.11"/>
<polygon fill="black" stroke="black" points="957.79,-315.63 948.12,-319.96 958.38,-322.61 957.79,-315.63"/>
</g>
<!-- aws_security_group_rule.app_out_https&#45;&gt;aws_security_group.app_sg -->
<g id="edge42" class="edge">
<title>aws_security_group_rule.app_out_https&#45;&gt;aws_security_group.app_sg</title>
<path fill="none" stroke="black" d="M1183.99,-281.69C1155.97,-286.7 1128.63,-296.73 1107,-315 1064.14,-351.21 1112.68,-398.44 1071,-436 1042.38,-461.8 1002.85,-473.71 965.28,-478.64"/>
<polygon fill="black" stroke="black" points="964.79,-475.17 955.26,-479.8 965.6,-482.13 964.79,-475.17"/>
</g>
<!-- aws_security_group_rule.app_out_tcp3306 -->
<g id="node31" class="node">
<title>aws_security_group_rule.app_out_tcp3306</title>
<polygon fill="none" stroke="black" points="1484.5,-522 1173.5,-522 1173.5,-486 1484.5,-486 1484.5,-522"/>
<text text-anchor="middle" x="1329" y="-500.3" font-family="sans-serif" font-size="14.00">aws_security_group_rule.app_out_tcp3306</text>
</g>
<!-- aws_security_group_rule.app_out_tcp3306&#45;&gt;aws_security_group.app_sg -->
<g id="edge43" class="edge">
<title>aws_security_group_rule.app_out_tcp3306&#45;&gt;aws_security_group.app_sg</title>
<path fill="none" stroke="black" d="M1173.29,-495.22C1105.49,-491.37 1027.4,-486.93 965.23,-483.4"/>
<polygon fill="black" stroke="black" points="965.19,-479.89 955,-482.82 964.79,-486.88 965.19,-479.89"/>
</g>
<!-- aws_security_group_rule.app_out_tcp3306&#45;&gt;aws_security_group.db_sg -->
<g id="edge44" class="edge">
<title>aws_security_group_rule.app_out_tcp3306&#45;&gt;aws_security_group.db_sg</title>
<path fill="none" stroke="black" d="M1173.29,-504.59C1149.79,-509.73 1126.81,-518.03 1107,-531 1080.66,-548.24 1094.63,-571.2 1071,-592 1031.66,-626.64 977.61,-650.04 933.11,-664.83"/>
<polygon fill="black" stroke="black" points="931.92,-661.54 923.48,-667.95 934.07,-668.2 931.92,-661.54"/>
</g>
<!-- aws_security_group_rule.db_in_tcp3306 -->
<g id="node32" class="node">
<title>aws_security_group_rule.db_in_tcp3306</title>
<polygon fill="none" stroke="black" points="1475.5,-738 1182.5,-738 1182.5,-702 1475.5,-702 1475.5,-738"/>
<text text-anchor="middle" x="1329" y="-716.3" font-family="sans-serif" font-size="14.00">aws_security_group_rule.db_in_tcp3306</text>
</g>
<!-- aws_security_group_rule.db_in_tcp3306&#45;&gt;aws_security_group.app_sg -->
<g id="edge45" class="edge">
<title>aws_security_group_rule.db_in_tcp3306&#45;&gt;aws_security_group.app_sg</title>
<path fill="none" stroke="black" d="M1182.26,-727.14C1154.61,-722.02 1127.84,-711.73 1107,-693 1054.4,-645.73 1119.9,-589.1 1071,-538 1043.44,-509.2 1003.52,-493.64 965.33,-485.35"/>
<polygon fill="black" stroke="black" points="965.63,-481.84 955.14,-483.3 964.25,-488.7 965.63,-481.84"/>
</g>
<!-- aws_security_group_rule.db_in_tcp3306&#45;&gt;aws_security_group.db_sg -->
<g id="edge46" class="edge">
<title>aws_security_group_rule.db_in_tcp3306&#45;&gt;aws_security_group.db_sg</title>
<path fill="none" stroke="black" d="M1182.43,-709.59C1111.28,-704.5 1027.1,-698.48 961.58,-693.8"/>
<polygon fill="black" stroke="black" points="961.45,-690.28 951.23,-693.06 960.95,-697.26 961.45,-690.28"/>
</g>
<!-- aws_security_group_rule.opmng_in_ssh -->
<g id="node33" class="node">
<title>aws_security_group_rule.opmng_in_ssh</title>
<polygon fill="none" stroke="black" points="1474,-992 1184,-992 1184,-956 1474,-956 1474,-992"/>
<text text-anchor="middle" x="1329" y="-970.3" font-family="sans-serif" font-size="14.00">aws_security_group_rule.opmng_in_ssh</text>
</g>
<!-- aws_security_group_rule.opmng_in_ssh&#45;&gt;aws_security_group.opmng_sg -->
<g id="edge47" class="edge">
<title>aws_security_group_rule.opmng_in_ssh&#45;&gt;aws_security_group.opmng_sg</title>
<path fill="none" stroke="black" d="M1183.73,-974.38C1156.81,-969.58 1129.95,-961.14 1107,-947 1082.44,-931.87 1095.55,-908.15 1071,-893 1043.07,-875.76 1009.29,-867.05 976.73,-863.09"/>
<polygon fill="black" stroke="black" points="976.99,-859.6 966.68,-862.01 976.25,-866.56 976.99,-859.6"/>
</g>
<!-- aws_security_group_rule.opmng_in_tcp3000 -->
<g id="node34" class="node">
<title>aws_security_group_rule.opmng_in_tcp3000</title>
<polygon fill="none" stroke="black" points="1491,-938 1167,-938 1167,-902 1491,-902 1491,-938"/>
<text text-anchor="middle" x="1329" y="-916.3" font-family="sans-serif" font-size="14.00">aws_security_group_rule.opmng_in_tcp3000</text>
</g>
<!-- aws_security_group_rule.opmng_in_tcp3000&#45;&gt;aws_security_group.opmng_sg -->
<g id="edge48" class="edge">
<title>aws_security_group_rule.opmng_in_tcp3000&#45;&gt;aws_security_group.opmng_sg</title>
<path fill="none" stroke="black" d="M1169.33,-901.98C1106.66,-894.86 1035.71,-886.81 976.86,-880.12"/>
<polygon fill="black" stroke="black" points="977.1,-876.63 966.77,-878.98 976.31,-883.58 977.1,-876.63"/>
</g>
<!-- aws_security_group_rule.opmng_out_http -->
<g id="node35" class="node">
<title>aws_security_group_rule.opmng_out_http</title>
<polygon fill="none" stroke="black" points="1481.5,-884 1176.5,-884 1176.5,-848 1481.5,-848 1481.5,-884"/>
<text text-anchor="middle" x="1329" y="-862.3" font-family="sans-serif" font-size="14.00">aws_security_group_rule.opmng_out_http</text>
</g>
<!-- aws_security_group_rule.opmng_out_http&#45;&gt;aws_security_group.opmng_sg -->
<g id="edge49" class="edge">
<title>aws_security_group_rule.opmng_out_http&#45;&gt;aws_security_group.opmng_sg</title>
<path fill="none" stroke="black" d="M1176.24,-866C1111.88,-866 1037.79,-866 976.75,-866"/>
<polygon fill="black" stroke="black" points="976.68,-862.5 966.68,-866 976.68,-869.5 976.68,-862.5"/>
</g>
<!-- aws_security_group_rule.opmng_out_https -->
<g id="node36" class="node">
<title>aws_security_group_rule.opmng_out_https</title>
<polygon fill="none" stroke="black" points="1485,-830 1173,-830 1173,-794 1485,-794 1485,-830"/>
<text text-anchor="middle" x="1329" y="-808.3" font-family="sans-serif" font-size="14.00">aws_security_group_rule.opmng_out_https</text>
</g>
<!-- aws_security_group_rule.opmng_out_https&#45;&gt;aws_security_group.opmng_sg -->
<g id="edge50" class="edge">
<title>aws_security_group_rule.opmng_out_https&#45;&gt;aws_security_group.opmng_sg</title>
<path fill="none" stroke="black" d="M1172.96,-829.61C1109.43,-836.82 1036.89,-845.06 976.91,-851.87"/>
<polygon fill="black" stroke="black" points="976.17,-848.43 966.63,-853.04 976.96,-855.39 976.17,-848.43"/>
</g>
<!-- aws_security_group_rule.web_in_http -->
<g id="node37" class="node">
<title>aws_security_group_rule.web_in_http</title>
<polygon fill="none" stroke="black" points="1466.5,-36 1191.5,-36 1191.5,0 1466.5,0 1466.5,-36"/>
<text text-anchor="middle" x="1329" y="-14.3" font-family="sans-serif" font-size="14.00">aws_security_group_rule.web_in_http</text>
</g>
<!-- aws_security_group_rule.web_in_http&#45;&gt;aws_security_group.web_sg -->
<g id="edge51" class="edge">
<title>aws_security_group_rule.web_in_http&#45;&gt;aws_security_group.web_sg</title>
<path fill="none" stroke="black" d="M1191.46,-30.64C1163.36,-34.37 1134.1,-39.09 1107,-45 1037.84,-60.09 960.66,-85.99 909.62,-104.44"/>
<polygon fill="black" stroke="black" points="908.29,-101.2 900.09,-107.91 910.68,-107.78 908.29,-101.2"/>
</g>
<!-- aws_security_group_rule.web_in_https -->
<g id="node38" class="node">
<title>aws_security_group_rule.web_in_https</title>
<polygon fill="none" stroke="black" points="1470,-90 1188,-90 1188,-54 1470,-54 1470,-90"/>
<text text-anchor="middle" x="1329" y="-68.3" font-family="sans-serif" font-size="14.00">aws_security_group_rule.web_in_https</text>
</g>
<!-- aws_security_group_rule.web_in_https&#45;&gt;aws_security_group.web_sg -->
<g id="edge52" class="edge">
<title>aws_security_group_rule.web_in_https&#45;&gt;aws_security_group.web_sg</title>
<path fill="none" stroke="black" d="M1187.91,-87.91C1117.29,-95.93 1032.77,-105.53 966.23,-113.08"/>
<polygon fill="black" stroke="black" points="965.68,-109.62 956.13,-114.23 966.47,-116.58 965.68,-109.62"/>
</g>
<!-- aws_security_group_rule.web_out_tcp3000 -->
<g id="node39" class="node">
<title>aws_security_group_rule.web_out_tcp3000</title>
<polygon fill="none" stroke="black" points="1486,-198 1172,-198 1172,-162 1486,-162 1486,-198"/>
<text text-anchor="middle" x="1329" y="-176.3" font-family="sans-serif" font-size="14.00">aws_security_group_rule.web_out_tcp3000</text>
</g>
<!-- aws_security_group_rule.web_out_tcp3000&#45;&gt;aws_security_group.app_sg -->
<g id="edge53" class="edge">
<title>aws_security_group_rule.web_out_tcp3000&#45;&gt;aws_security_group.app_sg</title>
<path fill="none" stroke="black" d="M1171.83,-173.71C1147.68,-179.45 1124.86,-189.74 1107,-207 1032.91,-278.59 1142.77,-362.08 1071,-436 1043.73,-464.09 1003.76,-476.36 965.45,-480.93"/>
<polygon fill="black" stroke="black" points="964.82,-477.47 955.23,-481.98 965.53,-484.44 964.82,-477.47"/>
</g>
<!-- aws_security_group_rule.web_out_tcp3000&#45;&gt;aws_security_group.web_sg -->
<g id="edge54" class="edge">
<title>aws_security_group_rule.web_out_tcp3000&#45;&gt;aws_security_group.web_sg</title>
<path fill="none" stroke="black" d="M1171.97,-162.28C1104.9,-154.66 1027.95,-145.93 966.38,-138.93"/>
<polygon fill="black" stroke="black" points="966.57,-135.43 956.24,-137.78 965.78,-142.39 966.57,-135.43"/>
</g>
<!-- aws_ssm_parameter.database -->
<g id="node40" class="node">
<title>aws_ssm_parameter.database</title>
<polygon fill="none" stroke="black" points="2113.5,-792 1888.5,-792 1888.5,-756 2113.5,-756 2113.5,-792"/>
<text text-anchor="middle" x="2001" y="-770.3" font-family="sans-serif" font-size="14.00">aws_ssm_parameter.database</text>
</g>
<!-- aws_ssm_parameter.database&#45;&gt;aws_db_instance.mysql_standalone -->
<g id="edge55" class="edge">
<title>aws_ssm_parameter.database&#45;&gt;aws_db_instance.mysql_standalone</title>
<path fill="none" stroke="black" d="M1914.73,-755.99C1904.95,-753.28 1895.2,-750.28 1886,-747 1841.44,-731.1 1793.09,-706.72 1760.03,-688.85"/>
<polygon fill="black" stroke="black" points="1761.59,-685.71 1751.13,-684 1758.24,-691.86 1761.59,-685.71"/>
</g>
<!-- aws_ssm_parameter.host -->
<g id="node41" class="node">
<title>aws_ssm_parameter.host</title>
<polygon fill="none" stroke="black" points="2096.5,-738 1905.5,-738 1905.5,-702 2096.5,-702 2096.5,-738"/>
<text text-anchor="middle" x="2001" y="-716.3" font-family="sans-serif" font-size="14.00">aws_ssm_parameter.host</text>
</g>
<!-- aws_ssm_parameter.host&#45;&gt;aws_db_instance.mysql_standalone -->
<g id="edge56" class="edge">
<title>aws_ssm_parameter.host&#45;&gt;aws_db_instance.mysql_standalone</title>
<path fill="none" stroke="black" d="M1906.21,-701.94C1879.54,-696.81 1850.35,-691.19 1823.13,-685.95"/>
<polygon fill="black" stroke="black" points="1823.69,-682.49 1813.2,-684.04 1822.36,-689.37 1823.69,-682.49"/>
</g>
<!-- aws_ssm_parameter.password -->
<g id="node42" class="node">
<title>aws_ssm_parameter.password</title>
<polygon fill="none" stroke="black" points="2114.5,-684 1887.5,-684 1887.5,-648 2114.5,-648 2114.5,-684"/>
<text text-anchor="middle" x="2001" y="-662.3" font-family="sans-serif" font-size="14.00">aws_ssm_parameter.password</text>
</g>
<!-- aws_ssm_parameter.password&#45;&gt;aws_db_instance.mysql_standalone -->
<g id="edge57" class="edge">
<title>aws_ssm_parameter.password&#45;&gt;aws_db_instance.mysql_standalone</title>
<path fill="none" stroke="black" d="M1887.12,-666C1878.27,-666 1869.27,-666 1860.27,-666"/>
<polygon fill="black" stroke="black" points="1860.11,-662.5 1850.11,-666 1860.11,-669.5 1860.11,-662.5"/>
</g>
<!-- aws_ssm_parameter.port -->
<g id="node43" class="node">
<title>aws_ssm_parameter.port</title>
<polygon fill="none" stroke="black" points="2096,-630 1906,-630 1906,-594 2096,-594 2096,-630"/>
<text text-anchor="middle" x="2001" y="-608.3" font-family="sans-serif" font-size="14.00">aws_ssm_parameter.port</text>
</g>
<!-- aws_ssm_parameter.port&#45;&gt;aws_db_instance.mysql_standalone -->
<g id="edge58" class="edge">
<title>aws_ssm_parameter.port&#45;&gt;aws_db_instance.mysql_standalone</title>
<path fill="none" stroke="black" d="M1906.21,-630.06C1879.54,-635.19 1850.35,-640.81 1823.13,-646.05"/>
<polygon fill="black" stroke="black" points="1822.36,-642.63 1813.2,-647.96 1823.69,-649.51 1822.36,-642.63"/>
</g>
<!-- aws_ssm_parameter.username -->
<g id="node44" class="node">
<title>aws_ssm_parameter.username</title>
<polygon fill="none" stroke="black" points="2116,-576 1886,-576 1886,-540 2116,-540 2116,-576"/>
<text text-anchor="middle" x="2001" y="-554.3" font-family="sans-serif" font-size="14.00">aws_ssm_parameter.username</text>
</g>
<!-- aws_ssm_parameter.username&#45;&gt;aws_db_instance.mysql_standalone -->
<g id="edge59" class="edge">
<title>aws_ssm_parameter.username&#45;&gt;aws_db_instance.mysql_standalone</title>
<path fill="none" stroke="black" d="M1914.73,-576.01C1904.95,-578.72 1895.2,-581.72 1886,-585 1841.44,-600.9 1793.09,-625.28 1760.03,-643.15"/>
<polygon fill="black" stroke="black" points="1758.24,-640.14 1751.13,-648 1761.59,-646.29 1758.24,-640.14"/>
</g>
<!-- aws_subnet.private_subnet_1a&#45;&gt;aws_vpc.vpc -->
<g id="edge60" class="edge">
<title>aws_subnet.private_subnet_1a&#45;&gt;aws_vpc.vpc</title>
<path fill="none" stroke="black" d="M736.25,-1145.09C699.46,-1142.37 660.8,-1132.81 632,-1109 508.42,-1006.84 495.53,-791.86 495.05,-714.49"/>
<polygon fill="black" stroke="black" points="498.55,-714.11 495.06,-704.11 491.55,-714.11 498.55,-714.11"/>
</g>
<!-- aws_subnet.private_subnet_1c&#45;&gt;aws_vpc.vpc -->
<g id="edge61" class="edge">
<title>aws_subnet.private_subnet_1c&#45;&gt;aws_vpc.vpc</title>
<path fill="none" stroke="black" d="M736.26,-1090.35C699.68,-1087.51 661.14,-1078.07 632,-1055 522.71,-968.47 500.92,-785.39 496.58,-714.7"/>
<polygon fill="black" stroke="black" points="500.06,-714.14 496.02,-704.35 493.07,-714.52 500.06,-714.14"/>
</g>
<!-- aws_subnet.public_subnet_1a&#45;&gt;aws_vpc.vpc -->
<g id="edge62" class="edge">
<title>aws_subnet.public_subnet_1a&#45;&gt;aws_vpc.vpc</title>
<path fill="none" stroke="black" d="M739.4,-727.85C704.91,-723.65 666.81,-718.59 632,-713 607.16,-709.01 579.95,-703.8 556.4,-699.03"/>
<polygon fill="black" stroke="black" points="557.05,-695.59 546.55,-697.01 555.64,-702.44 557.05,-695.59"/>
</g>
<!-- aws_subnet.public_subnet_1c&#45;&gt;aws_vpc.vpc -->
<g id="edge63" class="edge">
<title>aws_subnet.public_subnet_1c&#45;&gt;aws_vpc.vpc</title>
<path fill="none" stroke="black" d="M797.35,-583.11C732.83,-605.11 624.24,-642.12 556.41,-665.24"/>
<polygon fill="black" stroke="black" points="555.04,-662.01 546.7,-668.55 557.3,-668.63 555.04,-662.01"/>
</g>
</g>
</svg>
