<?xml version="1.0" encoding="UTF-8" standalone="no"?>
<!DOCTYPE svg PUBLIC "-//W3C//DTD SVG 1.1//EN"
 "http://www.w3.org/Graphics/SVG/1.1/DTD/svg11.dtd">
<!-- Generated by graphviz version 2.43.0 (0)
 -->
<!-- Title: G Pages: 1 -->
<svg width="2124pt" height="1541pt"
 viewBox="0.00 0.00 2124.00 1541.00" xmlns="http://www.w3.org/2000/svg" xmlns:xlink="http://www.w3.org/1999/xlink">
<g id="graph0" class="graph" transform="scale(1 1) rotate(0) translate(4 1537)">
<title>G</title>
<polygon fill="white" stroke="transparent" points="-4,4 -4,-1537 2120,-1537 2120,4 -4,4"/>
<!-- data.aws_ami.app -->
<g id="node1" class="node">
<title>data.aws_ami.app</title>
<polygon fill="none" stroke="black" points="922.5,-1425 780.5,-1425 780.5,-1389 922.5,-1389 922.5,-1425"/>
<text text-anchor="middle" x="851.5" y="-1403.3" font-family="sans-serif" font-size="14.00">data.aws_ami.app</text>
</g>
<!-- data.aws_iam_policy_document.ec2_assume_role -->
<g id="node2" class="node">
<title>data.aws_iam_policy_document.ec2_assume_role</title>
<polygon fill="none" stroke="black" points="357,-1317 0,-1317 0,-1281 357,-1281 357,-1317"/>
<text text-anchor="middle" x="178.5" y="-1295.3" font-family="sans-serif" font-size="14.00">data.aws_iam_policy_document.ec2_assume_role</text>
</g>
<!-- data.aws_prefix_list.s3_pl -->
<g id="node3" class="node">
<title>data.aws_prefix_list.s3_pl</title>
<polygon fill="none" stroke="black" points="948,-63 755,-63 755,-27 948,-27 948,-63"/>
<text text-anchor="middle" x="851.5" y="-41.3" font-family="sans-serif" font-size="14.00">data.aws_prefix_list.s3_pl</text>
</g>
<!-- aws_db_instance.mysql_standalone -->
<g id="node4" class="node">
<title>aws_db_instance.mysql_standalone</title>
<polygon fill="none" stroke="black" points="1850,-468 1587,-468 1587,-432 1850,-432 1850,-468"/>
<text text-anchor="middle" x="1718.5" y="-446.3" font-family="sans-serif" font-size="14.00">aws_db_instance.mysql_standalone</text>
</g>
<!-- aws_db_option_group.mysql_standalone_optiongroup -->
<g id="node5" class="node">
<title>aws_db_option_group.mysql_standalone_optiongroup</title>
<polygon fill="none" stroke="black" points="1522,-414 1136,-414 1136,-378 1522,-378 1522,-414"/>
<text text-anchor="middle" x="1329" y="-392.3" font-family="sans-serif" font-size="14.00">aws_db_option_group.mysql_standalone_optiongroup</text>
</g>
<!-- aws_db_instance.mysql_standalone&#45;&gt;aws_db_option_group.mysql_standalone_optiongroup -->
<g id="edge1" class="edge">
<title>aws_db_instance.mysql_standalone&#45;&gt;aws_db_option_group.mysql_standalone_optiongroup</title>
<path fill="none" stroke="black" d="M1610.12,-431.95C1590.47,-428.83 1570.14,-425.72 1551,-423 1532.59,-420.38 1513.29,-417.8 1494.09,-415.32"/>
<polygon fill="black" stroke="black" points="1494.43,-411.84 1484.06,-414.04 1493.54,-418.78 1494.43,-411.84"/>
</g>
<!-- aws_db_parameter_group.mysql_standalone_parametergroup -->
<g id="node6" class="node">
<title>aws_db_parameter_group.mysql_standalone_parametergroup</title>
<polygon fill="none" stroke="black" points="1551,-360 1107,-360 1107,-324 1551,-324 1551,-360"/>
<text text-anchor="middle" x="1329" y="-338.3" font-family="sans-serif" font-size="14.00">aws_db_parameter_group.mysql_standalone_parametergroup</text>
</g>
<!-- aws_db_instance.mysql_standalone&#45;&gt;aws_db_parameter_group.mysql_standalone_parametergroup -->
<g id="edge2" class="edge">
<title>aws_db_instance.mysql_standalone&#45;&gt;aws_db_parameter_group.mysql_standalone_parametergroup</title>
<path fill="none" stroke="black" d="M1688.03,-431.92C1655.67,-412.97 1601.56,-383.93 1551,-369 1542.65,-366.53 1534.06,-364.29 1525.33,-362.26"/>
<polygon fill="black" stroke="black" points="1525.95,-358.81 1515.43,-360.04 1524.43,-365.64 1525.95,-358.81"/>
</g>
<!-- aws_db_subnet_group.mysql_standalone_subnetgroup -->
<g id="node7" class="node">
<title>aws_db_subnet_group.mysql_standalone_subnetgroup</title>
<polygon fill="none" stroke="black" points="1526.5,-668 1131.5,-668 1131.5,-632 1526.5,-632 1526.5,-668"/>
<text text-anchor="middle" x="1329" y="-646.3" font-family="sans-serif" font-size="14.00">aws_db_subnet_group.mysql_standalone_subnetgroup</text>
</g>
<!-- aws_db_instance.mysql_standalone&#45;&gt;aws_db_subnet_group.mysql_standalone_subnetgroup -->
<g id="edge3" class="edge">
<title>aws_db_instance.mysql_standalone&#45;&gt;aws_db_subnet_group.mysql_standalone_subnetgroup</title>
<path fill="none" stroke="black" d="M1706.4,-468.04C1682.86,-504.48 1624.1,-586.5 1551,-623 1546.26,-625.37 1541.39,-627.56 1536.42,-629.59"/>
<polygon fill="black" stroke="black" points="1534.85,-626.44 1526.76,-633.28 1537.35,-632.98 1534.85,-626.44"/>
</g>
<!-- aws_security_group.db_sg -->
<g id="node26" class="node">
<title>aws_security_group.db_sg</title>
<polygon fill="none" stroke="black" points="951,-587 752,-587 752,-551 951,-551 951,-587"/>
<text text-anchor="middle" x="851.5" y="-565.3" font-family="sans-serif" font-size="14.00">aws_security_group.db_sg</text>
</g>
<!-- aws_db_instance.mysql_standalone&#45;&gt;aws_security_group.db_sg -->
<g id="edge4" class="edge">
<title>aws_db_instance.mysql_standalone&#45;&gt;aws_security_group.db_sg</title>
<path fill="none" stroke="black" d="M1613.76,-468.06C1593.01,-471.32 1571.34,-474.48 1551,-477 1354.44,-501.31 1302.91,-485.95 1107,-515 1049.32,-523.55 985.09,-537.21 935.58,-548.66"/>
<polygon fill="black" stroke="black" points="934.52,-545.31 925.57,-550.99 936.1,-552.13 934.52,-545.31"/>
</g>
<!-- random_string.db_password -->
<g id="node51" class="node">
<title>random_string.db_password</title>
<polygon fill="none" stroke="black" points="1435.5,-468 1222.5,-468 1222.5,-432 1435.5,-432 1435.5,-468"/>
<text text-anchor="middle" x="1329" y="-446.3" font-family="sans-serif" font-size="14.00">random_string.db_password</text>
</g>
<!-- aws_db_instance.mysql_standalone&#45;&gt;random_string.db_password -->
<g id="edge5" class="edge">
<title>aws_db_instance.mysql_standalone&#45;&gt;random_string.db_password</title>
<path fill="none" stroke="black" d="M1586.85,-450C1541.19,-450 1490.28,-450 1445.91,-450"/>
<polygon fill="black" stroke="black" points="1445.66,-446.5 1435.66,-450 1445.66,-453.5 1445.66,-446.5"/>
</g>
<!-- aws_subnet.private_subnet_1a -->
<g id="node46" class="node">
<title>aws_subnet.private_subnet_1a</title>
<polygon fill="none" stroke="black" points="966.5,-772 736.5,-772 736.5,-736 966.5,-736 966.5,-772"/>
<text text-anchor="middle" x="851.5" y="-750.3" font-family="sans-serif" font-size="14.00">aws_subnet.private_subnet_1a</text>
</g>
<!-- aws_db_subnet_group.mysql_standalone_subnetgroup&#45;&gt;aws_subnet.private_subnet_1a -->
<g id="edge6" class="edge">
<title>aws_db_subnet_group.mysql_standalone_subnetgroup&#45;&gt;aws_subnet.private_subnet_1a</title>
<path fill="none" stroke="black" d="M1131.32,-665.03C1122.89,-668.46 1114.73,-672.42 1107,-677 1083.43,-690.94 1094.56,-713.04 1071,-727 1042.84,-743.69 1009.06,-752.23 976.59,-756.21"/>
<polygon fill="black" stroke="black" points="976.12,-752.74 966.56,-757.3 976.88,-759.7 976.12,-752.74"/>
</g>
<!-- aws_subnet.private_subnet_1c -->
<g id="node47" class="node">
<title>aws_subnet.private_subnet_1c</title>
<polygon fill="none" stroke="black" points="966.5,-718 736.5,-718 736.5,-682 966.5,-682 966.5,-718"/>
<text text-anchor="middle" x="851.5" y="-696.3" font-family="sans-serif" font-size="14.00">aws_subnet.private_subnet_1c</text>
</g>
<!-- aws_db_subnet_group.mysql_standalone_subnetgroup&#45;&gt;aws_subnet.private_subnet_1c -->
<g id="edge7" class="edge">
<title>aws_db_subnet_group.mysql_standalone_subnetgroup&#45;&gt;aws_subnet.private_subnet_1c</title>
<path fill="none" stroke="black" d="M1156.67,-668.02C1097.17,-674.27 1031.63,-681.16 976.67,-686.94"/>
<polygon fill="black" stroke="black" points="976.12,-683.48 966.54,-688.01 976.85,-690.44 976.12,-683.48"/>
</g>
<!-- aws_iam_instance_profile.app_ec2_profile -->
<g id="node8" class="node">
<title>aws_iam_instance_profile.app_ec2_profile</title>
<polygon fill="none" stroke="black" points="1003.5,-1533 699.5,-1533 699.5,-1497 1003.5,-1497 1003.5,-1533"/>
<text text-anchor="middle" x="851.5" y="-1511.3" font-family="sans-serif" font-size="14.00">aws_iam_instance_profile.app_ec2_profile</text>
</g>
<!-- aws_iam_role.app_iam_role -->
<g id="node9" class="node">
<title>aws_iam_role.app_iam_role</title>
<polygon fill="none" stroke="black" points="596,-1317 393,-1317 393,-1281 596,-1281 596,-1317"/>
<text text-anchor="middle" x="494.5" y="-1295.3" font-family="sans-serif" font-size="14.00">aws_iam_role.app_iam_role</text>
</g>
<!-- aws_iam_instance_profile.app_ec2_profile&#45;&gt;aws_iam_role.app_iam_role -->
<g id="edge8" class="edge">
<title>aws_iam_instance_profile.app_ec2_profile&#45;&gt;aws_iam_role.app_iam_role</title>
<path fill="none" stroke="black" d="M699.38,-1512.77C675.73,-1507.87 652.4,-1500.06 632,-1488 567.84,-1450.05 525.36,-1368.9 506.56,-1326.34"/>
<polygon fill="black" stroke="black" points="509.77,-1324.93 502.6,-1317.13 503.34,-1327.7 509.77,-1324.93"/>
</g>
<!-- aws_iam_role.app_iam_role&#45;&gt;data.aws_iam_policy_document.ec2_assume_role -->
<g id="edge9" class="edge">
<title>aws_iam_role.app_iam_role&#45;&gt;data.aws_iam_policy_document.ec2_assume_role</title>
<path fill="none" stroke="black" d="M392.85,-1299C384.54,-1299 375.98,-1299 367.29,-1299"/>
<polygon fill="black" stroke="black" points="367.03,-1295.5 357.03,-1299 367.03,-1302.5 367.03,-1295.5"/>
</g>
<!-- aws_iam_role_policy_attachment.app_iam_role_ec2_readonly -->
<g id="node10" class="node">
<title>aws_iam_role_policy_attachment.app_iam_role_ec2_readonly</title>
<polygon fill="none" stroke="black" points="1069,-1371 634,-1371 634,-1335 1069,-1335 1069,-1371"/>
<text text-anchor="middle" x="851.5" y="-1349.3" font-family="sans-serif" font-size="14.00">aws_iam_role_policy_attachment.app_iam_role_ec2_readonly</text>
</g>
<!-- aws_iam_role_policy_attachment.app_iam_role_ec2_readonly&#45;&gt;aws_iam_role.app_iam_role -->
<g id="edge10" class="edge">
<title>aws_iam_role_policy_attachment.app_iam_role_ec2_readonly&#45;&gt;aws_iam_role.app_iam_role</title>
<path fill="none" stroke="black" d="M693.36,-1334.97C672.69,-1332.19 651.81,-1329.18 632,-1326 618.85,-1323.89 605.04,-1321.44 591.45,-1318.89"/>
<polygon fill="black" stroke="black" points="592.09,-1315.45 581.62,-1317.02 590.79,-1322.32 592.09,-1315.45"/>
</g>
<!-- aws_iam_role_policy_attachment.app_iam_role_s3_readonly -->
<g id="node11" class="node">
<title>aws_iam_role_policy_attachment.app_iam_role_s3_readonly</title>
<polygon fill="none" stroke="black" points="1065,-1317 638,-1317 638,-1281 1065,-1281 1065,-1317"/>
<text text-anchor="middle" x="851.5" y="-1295.3" font-family="sans-serif" font-size="14.00">aws_iam_role_policy_attachment.app_iam_role_s3_readonly</text>
</g>
<!-- aws_iam_role_policy_attachment.app_iam_role_s3_readonly&#45;&gt;aws_iam_role.app_iam_role -->
<g id="edge11" class="edge">
<title>aws_iam_role_policy_attachment.app_iam_role_s3_readonly&#45;&gt;aws_iam_role.app_iam_role</title>
<path fill="none" stroke="black" d="M637.85,-1299C627.1,-1299 616.54,-1299 606.32,-1299"/>
<polygon fill="black" stroke="black" points="606.22,-1295.5 596.22,-1299 606.22,-1302.5 606.22,-1295.5"/>
</g>
<!-- aws_iam_role_policy_attachment.app_iam_role_ssm_readonly -->
<g id="node12" class="node">
<title>aws_iam_role_policy_attachment.app_iam_role_ssm_readonly</title>
<polygon fill="none" stroke="black" points="1071,-1263 632,-1263 632,-1227 1071,-1227 1071,-1263"/>
<text text-anchor="middle" x="851.5" y="-1241.3" font-family="sans-serif" font-size="14.00">aws_iam_role_policy_attachment.app_iam_role_ssm_readonly</text>
</g>
<!-- aws_iam_role_policy_attachment.app_iam_role_ssm_readonly&#45;&gt;aws_iam_role.app_iam_role -->
<g id="edge12" class="edge">
<title>aws_iam_role_policy_attachment.app_iam_role_ssm_readonly&#45;&gt;aws_iam_role.app_iam_role</title>
<path fill="none" stroke="black" d="M693.36,-1263.03C672.69,-1265.81 651.81,-1268.82 632,-1272 618.85,-1274.11 605.04,-1276.56 591.45,-1279.11"/>
<polygon fill="black" stroke="black" points="590.79,-1275.68 581.62,-1280.98 592.09,-1282.55 590.79,-1275.68"/>
</g>
<!-- aws_iam_role_policy_attachment.app_iam_ssm_managed -->
<g id="node13" class="node">
<title>aws_iam_role_policy_attachment.app_iam_ssm_managed</title>
<polygon fill="none" stroke="black" points="1057.5,-1209 645.5,-1209 645.5,-1173 1057.5,-1173 1057.5,-1209"/>
<text text-anchor="middle" x="851.5" y="-1187.3" font-family="sans-serif" font-size="14.00">aws_iam_role_policy_attachment.app_iam_ssm_managed</text>
</g>
<!-- aws_iam_role_policy_attachment.app_iam_ssm_managed&#45;&gt;aws_iam_role.app_iam_role -->
<g id="edge13" class="edge">
<title>aws_iam_role_policy_attachment.app_iam_ssm_managed&#45;&gt;aws_iam_role.app_iam_role</title>
<path fill="none" stroke="black" d="M662.8,-1209.01C652.28,-1211.62 641.95,-1214.6 632,-1218 593.41,-1231.19 553.82,-1256.19 527.29,-1274.95"/>
<polygon fill="black" stroke="black" points="525.23,-1272.12 519.15,-1280.8 529.31,-1277.81 525.23,-1272.12"/>
</g>
<!-- aws_instance.app_server -->
<g id="node14" class="node">
<title>aws_instance.app_server</title>
<polygon fill="none" stroke="black" points="1424.5,-1343 1233.5,-1343 1233.5,-1307 1424.5,-1307 1424.5,-1343"/>
<text text-anchor="middle" x="1329" y="-1321.3" font-family="sans-serif" font-size="14.00">aws_instance.app_server</text>
</g>
<!-- aws_instance.app_server&#45;&gt;data.aws_ami.app -->
<g id="edge14" class="edge">
<title>aws_instance.app_server&#45;&gt;data.aws_ami.app</title>
<path fill="none" stroke="black" d="M1252.43,-1343C1201.41,-1354.7 1132.42,-1369.65 1071,-1380 1025.39,-1387.68 974.07,-1394.14 932.63,-1398.81"/>
<polygon fill="black" stroke="black" points="932.14,-1395.34 922.59,-1399.92 932.92,-1402.3 932.14,-1395.34"/>
</g>
<!-- aws_instance.app_server&#45;&gt;aws_iam_instance_profile.app_ec2_profile -->
<g id="edge15" class="edge">
<title>aws_instance.app_server&#45;&gt;aws_iam_instance_profile.app_ec2_profile</title>
<path fill="none" stroke="black" d="M1306.73,-1343.24C1264.82,-1378.03 1167.24,-1453.51 1071,-1488 1052.76,-1494.54 1033.18,-1499.54 1013.5,-1503.37"/>
<polygon fill="black" stroke="black" points="1012.73,-1499.95 1003.53,-1505.21 1014,-1506.84 1012.73,-1499.95"/>
</g>
<!-- aws_key_pair.keypair -->
<g id="node16" class="node">
<title>aws_key_pair.keypair</title>
<polygon fill="none" stroke="black" points="932.5,-1479 770.5,-1479 770.5,-1443 932.5,-1443 932.5,-1479"/>
<text text-anchor="middle" x="851.5" y="-1457.3" font-family="sans-serif" font-size="14.00">aws_key_pair.keypair</text>
</g>
<!-- aws_instance.app_server&#45;&gt;aws_key_pair.keypair -->
<g id="edge16" class="edge">
<title>aws_instance.app_server&#45;&gt;aws_key_pair.keypair</title>
<path fill="none" stroke="black" d="M1293.76,-1343.18C1245.51,-1367.93 1154.09,-1411.72 1071,-1434 1029.56,-1445.11 982.46,-1451.67 942.63,-1455.53"/>
<polygon fill="black" stroke="black" points="942.3,-1452.05 932.66,-1456.46 942.94,-1459.02 942.3,-1452.05"/>
</g>
<!-- aws_security_group.app_sg -->
<g id="node25" class="node">
<title>aws_security_group.app_sg</title>
<polygon fill="none" stroke="black" points="955,-651 748,-651 748,-615 955,-615 955,-651"/>
<text text-anchor="middle" x="851.5" y="-629.3" font-family="sans-serif" font-size="14.00">aws_security_group.app_sg</text>
</g>
<!-- aws_instance.app_server&#45;&gt;aws_security_group.app_sg -->
<g id="edge17" class="edge">
<title>aws_instance.app_server&#45;&gt;aws_security_group.app_sg</title>
<path fill="none" stroke="black" d="M1246.44,-1306.99C1197.51,-1291.67 1138.77,-1264.34 1107,-1217 1039.48,-1116.41 1151.6,-763.45 1071,-673 1044.68,-643.47 1004.37,-631.18 965.51,-627.06"/>
<polygon fill="black" stroke="black" points="965.4,-623.53 955.13,-626.14 964.79,-630.51 965.4,-623.53"/>
</g>
<!-- aws_security_group.opmng_sg -->
<g id="node27" class="node">
<title>aws_security_group.opmng_sg</title>
<polygon fill="none" stroke="black" points="966.5,-279 736.5,-279 736.5,-243 966.5,-243 966.5,-279"/>
<text text-anchor="middle" x="851.5" y="-257.3" font-family="sans-serif" font-size="14.00">aws_security_group.opmng_sg</text>
</g>
<!-- aws_instance.app_server&#45;&gt;aws_security_group.opmng_sg -->
<g id="edge18" class="edge">
<title>aws_instance.app_server&#45;&gt;aws_security_group.opmng_sg</title>
<path fill="none" stroke="black" d="M1245.68,-1306.96C1196.78,-1291.66 1138.35,-1264.36 1107,-1217 1024.08,-1091.75 1123.51,-682.74 1071,-542 1030.09,-432.36 930.14,-331.16 880.89,-285.92"/>
<polygon fill="black" stroke="black" points="883.19,-283.28 873.43,-279.14 878.48,-288.46 883.19,-283.28"/>
</g>
<!-- aws_subnet.public_subnet_1a -->
<g id="node48" class="node">
<title>aws_subnet.public_subnet_1a</title>
<polygon fill="none" stroke="black" points="963.5,-1155 739.5,-1155 739.5,-1119 963.5,-1119 963.5,-1155"/>
<text text-anchor="middle" x="851.5" y="-1133.3" font-family="sans-serif" font-size="14.00">aws_subnet.public_subnet_1a</text>
</g>
<!-- aws_instance.app_server&#45;&gt;aws_subnet.public_subnet_1a -->
<g id="edge19" class="edge">
<title>aws_instance.app_server&#45;&gt;aws_subnet.public_subnet_1a</title>
<path fill="none" stroke="black" d="M1272.02,-1306.89C1224.31,-1289.43 1155.88,-1259.38 1107,-1217 1085.49,-1198.34 1095.3,-1178.85 1071,-1164 1042.26,-1146.43 1007.41,-1137.76 974.06,-1133.94"/>
<polygon fill="black" stroke="black" points="974.07,-1130.43 963.77,-1132.91 973.37,-1137.39 974.07,-1130.43"/>
</g>
<!-- aws_internet_gateway.igw -->
<g id="node15" class="node">
<title>aws_internet_gateway.igw</title>
<polygon fill="none" stroke="black" points="949.5,-1101 753.5,-1101 753.5,-1065 949.5,-1065 949.5,-1101"/>
<text text-anchor="middle" x="851.5" y="-1079.3" font-family="sans-serif" font-size="14.00">aws_internet_gateway.igw</text>
</g>
<!-- aws_vpc.vpc -->
<g id="node50" class="node">
<title>aws_vpc.vpc</title>
<polygon fill="none" stroke="black" points="546.5,-826 442.5,-826 442.5,-790 546.5,-790 546.5,-826"/>
<text text-anchor="middle" x="494.5" y="-804.3" font-family="sans-serif" font-size="14.00">aws_vpc.vpc</text>
</g>
<!-- aws_internet_gateway.igw&#45;&gt;aws_vpc.vpc -->
<g id="edge20" class="edge">
<title>aws_internet_gateway.igw&#45;&gt;aws_vpc.vpc</title>
<path fill="none" stroke="black" d="M753.42,-1089.72C712.87,-1088.03 667.13,-1079.79 632,-1056 553.41,-1002.78 515.71,-888.72 501.94,-835.9"/>
<polygon fill="black" stroke="black" points="505.33,-835.03 499.49,-826.19 498.54,-836.74 505.33,-835.03"/>
</g>
<!-- aws_lb.alb -->
<g id="node17" class="node">
<title>aws_lb.alb</title>
<polygon fill="none" stroke="black" points="1373.5,-1046 1284.5,-1046 1284.5,-1010 1373.5,-1010 1373.5,-1046"/>
<text text-anchor="middle" x="1329" y="-1024.3" font-family="sans-serif" font-size="14.00">aws_lb.alb</text>
</g>
<!-- aws_security_group.web_sg -->
<g id="node28" class="node">
<title>aws_security_group.web_sg</title>
<polygon fill="none" stroke="black" points="956,-887 747,-887 747,-851 956,-851 956,-887"/>
<text text-anchor="middle" x="851.5" y="-865.3" font-family="sans-serif" font-size="14.00">aws_security_group.web_sg</text>
</g>
<!-- aws_lb.alb&#45;&gt;aws_security_group.web_sg -->
<g id="edge21" class="edge">
<title>aws_lb.alb&#45;&gt;aws_security_group.web_sg</title>
<path fill="none" stroke="black" d="M1284.29,-1032.81C1237.05,-1035.82 1161.28,-1034.12 1107,-1001 1082.69,-986.17 1093.49,-965.47 1071,-948 1035.61,-920.51 989.79,-902 949.25,-889.85"/>
<polygon fill="black" stroke="black" points="950.2,-886.48 939.62,-887.05 948.24,-893.2 950.2,-886.48"/>
</g>
<!-- aws_lb.alb&#45;&gt;aws_subnet.public_subnet_1a -->
<g id="edge22" class="edge">
<title>aws_lb.alb&#45;&gt;aws_subnet.public_subnet_1a</title>
<path fill="none" stroke="black" d="M1284.18,-1023.01C1236.85,-1019.85 1160.99,-1021.42 1107,-1055 1082.19,-1070.43 1095.8,-1094.55 1071,-1110 1042.33,-1127.86 1007.43,-1136.6 974,-1140.4"/>
<polygon fill="black" stroke="black" points="973.29,-1136.95 963.68,-1141.43 973.98,-1143.92 973.29,-1136.95"/>
</g>
<!-- aws_subnet.public_subnet_1c -->
<g id="node49" class="node">
<title>aws_subnet.public_subnet_1c</title>
<polygon fill="none" stroke="black" points="963,-993 740,-993 740,-957 963,-957 963,-993"/>
<text text-anchor="middle" x="851.5" y="-971.3" font-family="sans-serif" font-size="14.00">aws_subnet.public_subnet_1c</text>
</g>
<!-- aws_lb.alb&#45;&gt;aws_subnet.public_subnet_1c -->
<g id="edge23" class="edge">
<title>aws_lb.alb&#45;&gt;aws_subnet.public_subnet_1c</title>
<path fill="none" stroke="black" d="M1284.12,-1023.11C1214.14,-1015.31 1074.83,-999.78 973.35,-988.47"/>
<polygon fill="black" stroke="black" points="973.67,-984.98 963.35,-987.36 972.9,-991.94 973.67,-984.98"/>
</g>
<!-- aws_route.public_rt_igw -->
<g id="node18" class="node">
<title>aws_route.public_rt_igw</title>
<polygon fill="none" stroke="black" points="1420,-1154 1238,-1154 1238,-1118 1420,-1118 1420,-1154"/>
<text text-anchor="middle" x="1329" y="-1132.3" font-family="sans-serif" font-size="14.00">aws_route.public_rt_igw</text>
</g>
<!-- aws_route.public_rt_igw&#45;&gt;aws_internet_gateway.igw -->
<g id="edge24" class="edge">
<title>aws_route.public_rt_igw&#45;&gt;aws_internet_gateway.igw</title>
<path fill="none" stroke="black" d="M1237.72,-1125.94C1158.65,-1117.12 1043.61,-1104.3 959.84,-1094.96"/>
<polygon fill="black" stroke="black" points="960.11,-1091.47 949.79,-1093.84 959.34,-1098.43 960.11,-1091.47"/>
</g>
<!-- aws_route_table.public_rt -->
<g id="node20" class="node">
<title>aws_route_table.public_rt</title>
<polygon fill="none" stroke="black" points="947.5,-1047 755.5,-1047 755.5,-1011 947.5,-1011 947.5,-1047"/>
<text text-anchor="middle" x="851.5" y="-1025.3" font-family="sans-serif" font-size="14.00">aws_route_table.public_rt</text>
</g>
<!-- aws_route.public_rt_igw&#45;&gt;aws_route_table.public_rt -->
<g id="edge25" class="edge">
<title>aws_route.public_rt_igw&#45;&gt;aws_route_table.public_rt</title>
<path fill="none" stroke="black" d="M1237.98,-1141.61C1195.51,-1140.28 1145.77,-1132.66 1107,-1109 1082.69,-1094.17 1095.3,-1070.85 1071,-1056 1037.54,-1035.55 995.81,-1027.16 957.82,-1024.44"/>
<polygon fill="black" stroke="black" points="957.92,-1020.94 947.73,-1023.84 957.5,-1027.93 957.92,-1020.94"/>
</g>
<!-- aws_route_table.private_rt -->
<g id="node19" class="node">
<title>aws_route_table.private_rt</title>
<polygon fill="none" stroke="black" points="951,-826 752,-826 752,-790 951,-790 951,-826"/>
<text text-anchor="middle" x="851.5" y="-804.3" font-family="sans-serif" font-size="14.00">aws_route_table.private_rt</text>
</g>
<!-- aws_route_table.private_rt&#45;&gt;aws_vpc.vpc -->
<g id="edge26" class="edge">
<title>aws_route_table.private_rt&#45;&gt;aws_vpc.vpc</title>
<path fill="none" stroke="black" d="M751.61,-808C689.17,-808 610.45,-808 556.88,-808"/>
<polygon fill="black" stroke="black" points="556.85,-804.5 546.85,-808 556.85,-811.5 556.85,-804.5"/>
</g>
<!-- aws_route_table.public_rt&#45;&gt;aws_vpc.vpc -->
<g id="edge27" class="edge">
<title>aws_route_table.public_rt&#45;&gt;aws_vpc.vpc</title>
<path fill="none" stroke="black" d="M755.45,-1033.87C714.92,-1031.91 668.63,-1023.97 632,-1002 566.64,-962.79 524.44,-878.87 506.07,-835.39"/>
<polygon fill="black" stroke="black" points="509.25,-833.92 502.22,-826 502.78,-836.58 509.25,-833.92"/>
</g>
<!-- aws_route_table_association.private_rt_1a -->
<g id="node21" class="node">
<title>aws_route_table_association.private_rt_1a</title>
<polygon fill="none" stroke="black" points="1482.5,-776 1175.5,-776 1175.5,-740 1482.5,-740 1482.5,-776"/>
<text text-anchor="middle" x="1329" y="-754.3" font-family="sans-serif" font-size="14.00">aws_route_table_association.private_rt_1a</text>
</g>
<!-- aws_route_table_association.private_rt_1a&#45;&gt;aws_route_table.private_rt -->
<g id="edge28" class="edge">
<title>aws_route_table_association.private_rt_1a&#45;&gt;aws_route_table.private_rt</title>
<path fill="none" stroke="black" d="M1175.26,-774.06C1105.53,-781.39 1024.57,-789.91 961.17,-796.57"/>
<polygon fill="black" stroke="black" points="960.73,-793.1 951.15,-797.63 961.46,-800.06 960.73,-793.1"/>
</g>
<!-- aws_route_table_association.private_rt_1a&#45;&gt;aws_subnet.private_subnet_1a -->
<g id="edge29" class="edge">
<title>aws_route_table_association.private_rt_1a&#45;&gt;aws_subnet.private_subnet_1a</title>
<path fill="none" stroke="black" d="M1175.26,-756.72C1111.08,-756.18 1037.37,-755.56 976.62,-755.04"/>
<polygon fill="black" stroke="black" points="976.62,-751.54 966.59,-754.96 976.56,-758.54 976.62,-751.54"/>
</g>
<!-- aws_route_table_association.private_rt_1c -->
<g id="node22" class="node">
<title>aws_route_table_association.private_rt_1c</title>
<polygon fill="none" stroke="black" points="1482,-722 1176,-722 1176,-686 1482,-686 1482,-722"/>
<text text-anchor="middle" x="1329" y="-700.3" font-family="sans-serif" font-size="14.00">aws_route_table_association.private_rt_1c</text>
</g>
<!-- aws_route_table_association.private_rt_1c&#45;&gt;aws_route_table.private_rt -->
<g id="edge30" class="edge">
<title>aws_route_table_association.private_rt_1c&#45;&gt;aws_route_table.private_rt</title>
<path fill="none" stroke="black" d="M1175.72,-705.88C1151.61,-710.8 1127.79,-718.7 1107,-731 1083.43,-744.94 1094.56,-767.04 1071,-781 1038.46,-800.28 998.43,-808.69 961.57,-811.75"/>
<polygon fill="black" stroke="black" points="960.99,-808.28 951.26,-812.48 961.48,-815.26 960.99,-808.28"/>
</g>
<!-- aws_route_table_association.private_rt_1c&#45;&gt;aws_subnet.private_subnet_1c -->
<g id="edge31" class="edge">
<title>aws_route_table_association.private_rt_1c&#45;&gt;aws_subnet.private_subnet_1c</title>
<path fill="none" stroke="black" d="M1175.91,-702.72C1111.57,-702.18 1037.55,-701.56 976.58,-701.04"/>
<polygon fill="black" stroke="black" points="976.56,-697.54 966.53,-700.96 976.5,-704.54 976.56,-697.54"/>
</g>
<!-- aws_route_table_association.public_rt_1a -->
<g id="node23" class="node">
<title>aws_route_table_association.public_rt_1a</title>
<polygon fill="none" stroke="black" points="1479,-1208 1179,-1208 1179,-1172 1479,-1172 1479,-1208"/>
<text text-anchor="middle" x="1329" y="-1186.3" font-family="sans-serif" font-size="14.00">aws_route_table_association.public_rt_1a</text>
</g>
<!-- aws_route_table_association.public_rt_1a&#45;&gt;aws_route_table.public_rt -->
<g id="edge32" class="edge">
<title>aws_route_table_association.public_rt_1a&#45;&gt;aws_route_table.public_rt</title>
<path fill="none" stroke="black" d="M1178.74,-1194.63C1152.7,-1189.37 1127.45,-1179.67 1107,-1163 1068.11,-1131.3 1109.87,-1087.73 1071,-1056 1039.74,-1030.49 997.11,-1021.42 957.8,-1019.58"/>
<polygon fill="black" stroke="black" points="957.73,-1016.08 947.62,-1019.26 957.51,-1023.07 957.73,-1016.08"/>
</g>
<!-- aws_route_table_association.public_rt_1a&#45;&gt;aws_subnet.public_subnet_1a -->
<g id="edge33" class="edge">
<title>aws_route_table_association.public_rt_1a&#45;&gt;aws_subnet.public_subnet_1a</title>
<path fill="none" stroke="black" d="M1178.85,-1173.38C1112.94,-1166.03 1036.41,-1157.5 974.04,-1150.55"/>
<polygon fill="black" stroke="black" points="974.09,-1147.03 963.76,-1149.4 973.31,-1153.99 974.09,-1147.03"/>
</g>
<!-- aws_route_table_association.public_rt_1c -->
<g id="node24" class="node">
<title>aws_route_table_association.public_rt_1c</title>
<polygon fill="none" stroke="black" points="1478.5,-1100 1179.5,-1100 1179.5,-1064 1478.5,-1064 1478.5,-1100"/>
<text text-anchor="middle" x="1329" y="-1078.3" font-family="sans-serif" font-size="14.00">aws_route_table_association.public_rt_1c</text>
</g>
<!-- aws_route_table_association.public_rt_1c&#45;&gt;aws_route_table.public_rt -->
<g id="edge34" class="edge">
<title>aws_route_table_association.public_rt_1c&#45;&gt;aws_route_table.public_rt</title>
<path fill="none" stroke="black" d="M1179.18,-1065.41C1107.42,-1057.41 1023.03,-1048.01 958,-1040.76"/>
<polygon fill="black" stroke="black" points="958.06,-1037.24 947.74,-1039.62 957.29,-1044.2 958.06,-1037.24"/>
</g>
<!-- aws_route_table_association.public_rt_1c&#45;&gt;aws_subnet.public_subnet_1c -->
<g id="edge35" class="edge">
<title>aws_route_table_association.public_rt_1c&#45;&gt;aws_subnet.public_subnet_1c</title>
<path fill="none" stroke="black" d="M1179.48,-1081.42C1154.02,-1076.52 1128.78,-1068.29 1107,-1055 1082.69,-1040.17 1095.3,-1016.85 1071,-1002 1042.11,-984.34 1007.05,-975.67 973.55,-971.89"/>
<polygon fill="black" stroke="black" points="973.51,-968.36 963.21,-970.86 972.82,-975.33 973.51,-968.36"/>
</g>
<!-- aws_security_group.app_sg&#45;&gt;aws_vpc.vpc -->
<g id="edge36" class="edge">
<title>aws_security_group.app_sg&#45;&gt;aws_vpc.vpc</title>
<path fill="none" stroke="black" d="M747.95,-639.03C709.89,-644.48 667.4,-654.55 632,-673 581.75,-699.19 538.04,-750.14 514.35,-781.41"/>
<polygon fill="black" stroke="black" points="511.36,-779.55 508.21,-789.67 516.98,-783.73 511.36,-779.55"/>
</g>
<!-- aws_security_group.db_sg&#45;&gt;aws_vpc.vpc -->
<g id="edge37" class="edge">
<title>aws_security_group.db_sg&#45;&gt;aws_vpc.vpc</title>
<path fill="none" stroke="black" d="M751.98,-569.13C712.1,-573.22 667.26,-583.29 632,-606 565.83,-648.61 523.77,-735.89 505.71,-780.47"/>
<polygon fill="black" stroke="black" points="502.44,-779.22 502.02,-789.81 508.95,-781.79 502.44,-779.22"/>
</g>
<!-- aws_security_group.opmng_sg&#45;&gt;aws_vpc.vpc -->
<g id="edge38" class="edge">
<title>aws_security_group.opmng_sg&#45;&gt;aws_vpc.vpc</title>
<path fill="none" stroke="black" d="M834.39,-279.18C796.35,-322.64 699.1,-436.74 632,-542 579.01,-625.12 529.52,-731.31 507.5,-780.59"/>
<polygon fill="black" stroke="black" points="504.21,-779.38 503.35,-789.94 510.6,-782.22 504.21,-779.38"/>
</g>
<!-- aws_security_group.web_sg&#45;&gt;aws_vpc.vpc -->
<g id="edge39" class="edge">
<title>aws_security_group.web_sg&#45;&gt;aws_vpc.vpc</title>
<path fill="none" stroke="black" d="M746.99,-853.78C710.58,-848.19 669.43,-841.61 632,-835 607.23,-830.62 580.03,-825.34 556.47,-820.61"/>
<polygon fill="black" stroke="black" points="557.11,-817.17 546.61,-818.63 555.72,-824.03 557.11,-817.17"/>
</g>
<!-- aws_security_group_rule.app_in_tcp3000 -->
<g id="node29" class="node">
<title>aws_security_group_rule.app_in_tcp3000</title>
<polygon fill="none" stroke="black" points="1480,-884 1178,-884 1178,-848 1480,-848 1480,-884"/>
<text text-anchor="middle" x="1329" y="-862.3" font-family="sans-serif" font-size="14.00">aws_security_group_rule.app_in_tcp3000</text>
</g>
<!-- aws_security_group_rule.app_in_tcp3000&#45;&gt;aws_security_group.app_sg -->
<g id="edge40" class="edge">
<title>aws_security_group_rule.app_in_tcp3000&#45;&gt;aws_security_group.app_sg</title>
<path fill="none" stroke="black" d="M1177.77,-872.54C1151.66,-867.14 1126.63,-856.91 1107,-839 1051.22,-788.13 1125.24,-725.51 1071,-673 1043.08,-645.98 1003.3,-634.03 965.31,-629.47"/>
<polygon fill="black" stroke="black" points="965.49,-625.97 955.18,-628.43 964.77,-632.94 965.49,-625.97"/>
</g>
<!-- aws_security_group_rule.app_in_tcp3000&#45;&gt;aws_security_group.web_sg -->
<g id="edge41" class="edge">
<title>aws_security_group_rule.app_in_tcp3000&#45;&gt;aws_security_group.web_sg</title>
<path fill="none" stroke="black" d="M1177.88,-866.95C1109.42,-867.38 1029.69,-867.88 966.29,-868.28"/>
<polygon fill="black" stroke="black" points="966.24,-864.78 956.26,-868.35 966.28,-871.78 966.24,-864.78"/>
</g>
<!-- aws_security_group_rule.app_out_http -->
<g id="node30" class="node">
<title>aws_security_group_rule.app_out_http</title>
<polygon fill="none" stroke="black" points="1470,-90 1188,-90 1188,-54 1470,-54 1470,-90"/>
<text text-anchor="middle" x="1329" y="-68.3" font-family="sans-serif" font-size="14.00">aws_security_group_rule.app_out_http</text>
</g>
<!-- aws_security_group_rule.app_out_http&#45;&gt;data.aws_prefix_list.s3_pl -->
<g id="edge42" class="edge">
<title>aws_security_group_rule.app_out_http&#45;&gt;data.aws_prefix_list.s3_pl</title>
<path fill="none" stroke="black" d="M1187.91,-64.05C1114.56,-59.88 1026.19,-54.86 958.58,-51.02"/>
<polygon fill="black" stroke="black" points="958.52,-47.51 948.34,-50.44 958.13,-54.5 958.52,-47.51"/>
</g>
<!-- aws_security_group_rule.app_out_http&#45;&gt;aws_security_group.app_sg -->
<g id="edge43" class="edge">
<title>aws_security_group_rule.app_out_http&#45;&gt;aws_security_group.app_sg</title>
<path fill="none" stroke="black" d="M1187.92,-61.07C1157.53,-65.71 1128.19,-76.74 1107,-99 1030.65,-179.21 1145.48,-514.05 1071,-596 1044.51,-625.14 1004.28,-636.9 965.52,-640.51"/>
<polygon fill="black" stroke="black" points="964.89,-637.04 955.18,-641.29 965.41,-644.02 964.89,-637.04"/>
</g>
<!-- aws_security_group_rule.app_out_https -->
<g id="node31" class="node">
<title>aws_security_group_rule.app_out_https</title>
<polygon fill="none" stroke="black" points="1474,-36 1184,-36 1184,0 1474,0 1474,-36"/>
<text text-anchor="middle" x="1329" y="-14.3" font-family="sans-serif" font-size="14.00">aws_security_group_rule.app_out_https</text>
</g>
<!-- aws_security_group_rule.app_out_https&#45;&gt;data.aws_prefix_list.s3_pl -->
<g id="edge44" class="edge">
<title>aws_security_group_rule.app_out_https&#45;&gt;data.aws_prefix_list.s3_pl</title>
<path fill="none" stroke="black" d="M1183.72,-26.19C1111.07,-30.32 1024.56,-35.23 958.18,-39"/>
<polygon fill="black" stroke="black" points="957.9,-35.51 948.12,-39.57 958.3,-42.5 957.9,-35.51"/>
</g>
<!-- aws_security_group_rule.app_out_https&#45;&gt;aws_security_group.app_sg -->
<g id="edge45" class="edge">
<title>aws_security_group_rule.app_out_https&#45;&gt;aws_security_group.app_sg</title>
<path fill="none" stroke="black" d="M1183.8,-7.61C1154.85,-12.6 1127.18,-23.65 1107,-45 1022.71,-134.17 1153.21,-504.9 1071,-596 1044.56,-625.3 1004.22,-637.06 965.37,-640.63"/>
<polygon fill="black" stroke="black" points="964.72,-637.17 955.01,-641.4 965.24,-644.15 964.72,-637.17"/>
</g>
<!-- aws_security_group_rule.app_out_tcp3306 -->
<g id="node32" class="node">
<title>aws_security_group_rule.app_out_tcp3306</title>
<polygon fill="none" stroke="black" points="1484.5,-614 1173.5,-614 1173.5,-578 1484.5,-578 1484.5,-614"/>
<text text-anchor="middle" x="1329" y="-592.3" font-family="sans-serif" font-size="14.00">aws_security_group_rule.app_out_tcp3306</text>
</g>
<!-- aws_security_group_rule.app_out_tcp3306&#45;&gt;aws_security_group.app_sg -->
<g id="edge46" class="edge">
<title>aws_security_group_rule.app_out_tcp3306&#45;&gt;aws_security_group.app_sg</title>
<path fill="none" stroke="black" d="M1173.29,-608.04C1105.49,-613.31 1027.4,-619.39 965.23,-624.23"/>
<polygon fill="black" stroke="black" points="964.7,-620.76 955,-625.02 965.25,-627.74 964.7,-620.76"/>
</g>
<!-- aws_security_group_rule.app_out_tcp3306&#45;&gt;aws_security_group.db_sg -->
<g id="edge47" class="edge">
<title>aws_security_group_rule.app_out_tcp3306&#45;&gt;aws_security_group.db_sg</title>
<path fill="none" stroke="black" d="M1173.29,-587.22C1104.08,-583.29 1024.14,-578.75 961.37,-575.18"/>
<polygon fill="black" stroke="black" points="961.23,-571.67 951.05,-574.6 960.84,-578.66 961.23,-571.67"/>
</g>
<!-- aws_security_group_rule.db_in_tcp3306 -->
<g id="node33" class="node">
<title>aws_security_group_rule.db_in_tcp3306</title>
<polygon fill="none" stroke="black" points="1475.5,-560 1182.5,-560 1182.5,-524 1475.5,-524 1475.5,-560"/>
<text text-anchor="middle" x="1329" y="-538.3" font-family="sans-serif" font-size="14.00">aws_security_group_rule.db_in_tcp3306</text>
</g>
<!-- aws_security_group_rule.db_in_tcp3306&#45;&gt;aws_security_group.app_sg -->
<g id="edge48" class="edge">
<title>aws_security_group_rule.db_in_tcp3306&#45;&gt;aws_security_group.app_sg</title>
<path fill="none" stroke="black" d="M1182.31,-548.85C1156.62,-553.12 1130.58,-559.51 1107,-569 1088.45,-576.47 1089.38,-588.11 1071,-596 1038.1,-610.13 1000.24,-618.87 965.38,-624.28"/>
<polygon fill="black" stroke="black" points="964.54,-620.87 955.16,-625.79 965.56,-627.8 964.54,-620.87"/>
</g>
<!-- aws_security_group_rule.db_in_tcp3306&#45;&gt;aws_security_group.db_sg -->
<g id="edge49" class="edge">
<title>aws_security_group_rule.db_in_tcp3306&#45;&gt;aws_security_group.db_sg</title>
<path fill="none" stroke="black" d="M1182.43,-550.27C1111.28,-554.31 1027.1,-559.09 961.58,-562.81"/>
<polygon fill="black" stroke="black" points="961.01,-559.33 951.23,-563.39 961.41,-566.32 961.01,-559.33"/>
</g>
<!-- aws_security_group_rule.opmng_in_ssh -->
<g id="node34" class="node">
<title>aws_security_group_rule.opmng_in_ssh</title>
<polygon fill="none" stroke="black" points="1474,-306 1184,-306 1184,-270 1474,-270 1474,-306"/>
<text text-anchor="middle" x="1329" y="-284.3" font-family="sans-serif" font-size="14.00">aws_security_group_rule.opmng_in_ssh</text>
</g>
<!-- aws_security_group_rule.opmng_in_ssh&#45;&gt;aws_security_group.opmng_sg -->
<g id="edge50" class="edge">
<title>aws_security_group_rule.opmng_in_ssh&#45;&gt;aws_security_group.opmng_sg</title>
<path fill="none" stroke="black" d="M1183.72,-279.81C1117.7,-276.06 1040.24,-271.66 976.84,-268.06"/>
<polygon fill="black" stroke="black" points="976.97,-264.56 966.79,-267.49 976.57,-271.55 976.97,-264.56"/>
</g>
<!-- aws_security_group_rule.opmng_in_tcp3000 -->
<g id="node35" class="node">
<title>aws_security_group_rule.opmng_in_tcp3000</title>
<polygon fill="none" stroke="black" points="1491,-252 1167,-252 1167,-216 1491,-216 1491,-252"/>
<text text-anchor="middle" x="1329" y="-230.3" font-family="sans-serif" font-size="14.00">aws_security_group_rule.opmng_in_tcp3000</text>
</g>
<!-- aws_security_group_rule.opmng_in_tcp3000&#45;&gt;aws_security_group.opmng_sg -->
<g id="edge51" class="edge">
<title>aws_security_group_rule.opmng_in_tcp3000&#45;&gt;aws_security_group.opmng_sg</title>
<path fill="none" stroke="black" d="M1166.69,-243.16C1104.69,-246.68 1034.94,-250.64 976.93,-253.93"/>
<polygon fill="black" stroke="black" points="976.4,-250.46 966.61,-254.52 976.8,-257.45 976.4,-250.46"/>
</g>
<!-- aws_security_group_rule.opmng_out_http -->
<g id="node36" class="node">
<title>aws_security_group_rule.opmng_out_http</title>
<polygon fill="none" stroke="black" points="1481.5,-198 1176.5,-198 1176.5,-162 1481.5,-162 1481.5,-198"/>
<text text-anchor="middle" x="1329" y="-176.3" font-family="sans-serif" font-size="14.00">aws_security_group_rule.opmng_out_http</text>
</g>
<!-- aws_security_group_rule.opmng_out_http&#45;&gt;aws_security_group.opmng_sg -->
<g id="edge52" class="edge">
<title>aws_security_group_rule.opmng_out_http&#45;&gt;aws_security_group.opmng_sg</title>
<path fill="none" stroke="black" d="M1176.47,-196.73C1153.16,-199.82 1129.4,-203.26 1107,-207 1050.73,-216.39 988.04,-229.66 938.96,-240.69"/>
<polygon fill="black" stroke="black" points="937.99,-237.32 929.01,-242.94 939.54,-244.15 937.99,-237.32"/>
</g>
<!-- aws_security_group_rule.opmng_out_https -->
<g id="node37" class="node">
<title>aws_security_group_rule.opmng_out_https</title>
<polygon fill="none" stroke="black" points="1485,-144 1173,-144 1173,-108 1485,-108 1485,-144"/>
<text text-anchor="middle" x="1329" y="-122.3" font-family="sans-serif" font-size="14.00">aws_security_group_rule.opmng_out_https</text>
</g>
<!-- aws_security_group_rule.opmng_out_https&#45;&gt;aws_security_group.opmng_sg -->
<g id="edge53" class="edge">
<title>aws_security_group_rule.opmng_out_https&#45;&gt;aws_security_group.opmng_sg</title>
<path fill="none" stroke="black" d="M1172.98,-139.35C1150.65,-142.89 1128.1,-147.35 1107,-153 1029.68,-173.69 945.11,-213.25 895.54,-238.32"/>
<polygon fill="black" stroke="black" points="893.72,-235.31 886.4,-242.97 896.9,-241.55 893.72,-235.31"/>
</g>
<!-- aws_security_group_rule.web_in_http -->
<g id="node38" class="node">
<title>aws_security_group_rule.web_in_http</title>
<polygon fill="none" stroke="black" points="1466.5,-992 1191.5,-992 1191.5,-956 1466.5,-956 1466.5,-992"/>
<text text-anchor="middle" x="1329" y="-970.3" font-family="sans-serif" font-size="14.00">aws_security_group_rule.web_in_http</text>
</g>
<!-- aws_security_group_rule.web_in_http&#45;&gt;aws_security_group.web_sg -->
<g id="edge54" class="edge">
<title>aws_security_group_rule.web_in_http&#45;&gt;aws_security_group.web_sg</title>
<path fill="none" stroke="black" d="M1191.21,-961.1C1163.2,-957.39 1134.03,-952.75 1107,-947 1038.84,-932.51 962.68,-908.03 911.59,-890.35"/>
<polygon fill="black" stroke="black" points="912.63,-887.01 902.04,-887.03 910.33,-893.62 912.63,-887.01"/>
</g>
<!-- aws_security_group_rule.web_in_https -->
<g id="node39" class="node">
<title>aws_security_group_rule.web_in_https</title>
<polygon fill="none" stroke="black" points="1470,-938 1188,-938 1188,-902 1470,-902 1470,-938"/>
<text text-anchor="middle" x="1329" y="-916.3" font-family="sans-serif" font-size="14.00">aws_security_group_rule.web_in_https</text>
</g>
<!-- aws_security_group_rule.web_in_https&#45;&gt;aws_security_group.web_sg -->
<g id="edge55" class="edge">
<title>aws_security_group_rule.web_in_https&#45;&gt;aws_security_group.web_sg</title>
<path fill="none" stroke="black" d="M1187.91,-904.97C1117.29,-897.4 1032.77,-888.33 966.23,-881.2"/>
<polygon fill="black" stroke="black" points="966.45,-877.7 956.13,-880.12 965.7,-884.66 966.45,-877.7"/>
</g>
<!-- aws_security_group_rule.web_out_tcp3000 -->
<g id="node40" class="node">
<title>aws_security_group_rule.web_out_tcp3000</title>
<polygon fill="none" stroke="black" points="1486,-830 1172,-830 1172,-794 1486,-794 1486,-830"/>
<text text-anchor="middle" x="1329" y="-808.3" font-family="sans-serif" font-size="14.00">aws_security_group_rule.web_out_tcp3000</text>
</g>
<!-- aws_security_group_rule.web_out_tcp3000&#45;&gt;aws_security_group.app_sg -->
<g id="edge56" class="edge">
<title>aws_security_group_rule.web_out_tcp3000&#45;&gt;aws_security_group.app_sg</title>
<path fill="none" stroke="black" d="M1171.72,-815.35C1148.14,-809.8 1125.55,-800.33 1107,-785 1066.7,-751.69 1110.29,-707.49 1071,-673 1042.13,-647.66 1002.66,-635.98 965.19,-631.17"/>
<polygon fill="black" stroke="black" points="965.54,-627.69 955.2,-630.04 964.75,-634.65 965.54,-627.69"/>
</g>
<!-- aws_security_group_rule.web_out_tcp3000&#45;&gt;aws_security_group.web_sg -->
<g id="edge57" class="edge">
<title>aws_security_group_rule.web_out_tcp3000&#45;&gt;aws_security_group.web_sg</title>
<path fill="none" stroke="black" d="M1177.55,-830.04C1109.11,-838.24 1029.46,-847.79 966.13,-855.38"/>
<polygon fill="black" stroke="black" points="965.63,-851.91 956.12,-856.58 966.46,-858.86 965.63,-851.91"/>
</g>
<!-- aws_ssm_parameter.database -->
<g id="node41" class="node">
<title>aws_ssm_parameter.database</title>
<polygon fill="none" stroke="black" points="2113.5,-576 1888.5,-576 1888.5,-540 2113.5,-540 2113.5,-576"/>
<text text-anchor="middle" x="2001" y="-554.3" font-family="sans-serif" font-size="14.00">aws_ssm_parameter.database</text>
</g>
<!-- aws_ssm_parameter.database&#45;&gt;aws_db_instance.mysql_standalone -->
<g id="edge58" class="edge">
<title>aws_ssm_parameter.database&#45;&gt;aws_db_instance.mysql_standalone</title>
<path fill="none" stroke="black" d="M1914.73,-539.99C1904.95,-537.28 1895.2,-534.28 1886,-531 1841.44,-515.1 1793.09,-490.72 1760.03,-472.85"/>
<polygon fill="black" stroke="black" points="1761.59,-469.71 1751.13,-468 1758.24,-475.86 1761.59,-469.71"/>
</g>
<!-- aws_ssm_parameter.host -->
<g id="node42" class="node">
<title>aws_ssm_parameter.host</title>
<polygon fill="none" stroke="black" points="2096.5,-522 1905.5,-522 1905.5,-486 2096.5,-486 2096.5,-522"/>
<text text-anchor="middle" x="2001" y="-500.3" font-family="sans-serif" font-size="14.00">aws_ssm_parameter.host</text>
</g>
<!-- aws_ssm_parameter.host&#45;&gt;aws_db_instance.mysql_standalone -->
<g id="edge59" class="edge">
<title>aws_ssm_parameter.host&#45;&gt;aws_db_instance.mysql_standalone</title>
<path fill="none" stroke="black" d="M1906.21,-485.94C1879.54,-480.81 1850.35,-475.19 1823.13,-469.95"/>
<polygon fill="black" stroke="black" points="1823.69,-466.49 1813.2,-468.04 1822.36,-473.37 1823.69,-466.49"/>
</g>
<!-- aws_ssm_parameter.password -->
<g id="node43" class="node">
<title>aws_ssm_parameter.password</title>
<polygon fill="none" stroke="black" points="2114.5,-468 1887.5,-468 1887.5,-432 2114.5,-432 2114.5,-468"/>
<text text-anchor="middle" x="2001" y="-446.3" font-family="sans-serif" font-size="14.00">aws_ssm_parameter.password</text>
</g>
<!-- aws_ssm_parameter.password&#45;&gt;aws_db_instance.mysql_standalone -->
<g id="edge60" class="edge">
<title>aws_ssm_parameter.password&#45;&gt;aws_db_instance.mysql_standalone</title>
<path fill="none" stroke="black" d="M1887.12,-450C1878.27,-450 1869.27,-450 1860.27,-450"/>
<polygon fill="black" stroke="black" points="1860.11,-446.5 1850.11,-450 1860.11,-453.5 1860.11,-446.5"/>
</g>
<!-- aws_ssm_parameter.port -->
<g id="node44" class="node">
<title>aws_ssm_parameter.port</title>
<polygon fill="none" stroke="black" points="2096,-414 1906,-414 1906,-378 2096,-378 2096,-414"/>
<text text-anchor="middle" x="2001" y="-392.3" font-family="sans-serif" font-size="14.00">aws_ssm_parameter.port</text>
</g>
<!-- aws_ssm_parameter.port&#45;&gt;aws_db_instance.mysql_standalone -->
<g id="edge61" class="edge">
<title>aws_ssm_parameter.port&#45;&gt;aws_db_instance.mysql_standalone</title>
<path fill="none" stroke="black" d="M1906.21,-414.06C1879.54,-419.19 1850.35,-424.81 1823.13,-430.05"/>
<polygon fill="black" stroke="black" points="1822.36,-426.63 1813.2,-431.96 1823.69,-433.51 1822.36,-426.63"/>
</g>
<!-- aws_ssm_parameter.username -->
<g id="node45" class="node">
<title>aws_ssm_parameter.username</title>
<polygon fill="none" stroke="black" points="2116,-360 1886,-360 1886,-324 2116,-324 2116,-360"/>
<text text-anchor="middle" x="2001" y="-338.3" font-family="sans-serif" font-size="14.00">aws_ssm_parameter.username</text>
</g>
<!-- aws_ssm_parameter.username&#45;&gt;aws_db_instance.mysql_standalone -->
<g id="edge62" class="edge">
<title>aws_ssm_parameter.username&#45;&gt;aws_db_instance.mysql_standalone</title>
<path fill="none" stroke="black" d="M1914.73,-360.01C1904.95,-362.72 1895.2,-365.72 1886,-369 1841.44,-384.9 1793.09,-409.28 1760.03,-427.15"/>
<polygon fill="black" stroke="black" points="1758.24,-424.14 1751.13,-432 1761.59,-430.29 1758.24,-424.14"/>
</g>
<!-- aws_subnet.private_subnet_1a&#45;&gt;aws_vpc.vpc -->
<g id="edge63" class="edge">
<title>aws_subnet.private_subnet_1a&#45;&gt;aws_vpc.vpc</title>
<path fill="none" stroke="black" d="M736.31,-766.53C702.64,-770.65 665.78,-775.58 632,-781 607.16,-784.99 579.95,-790.2 556.4,-794.97"/>
<polygon fill="black" stroke="black" points="555.64,-791.56 546.55,-796.99 557.05,-798.41 555.64,-791.56"/>
</g>
<!-- aws_subnet.private_subnet_1c&#45;&gt;aws_vpc.vpc -->
<g id="edge64" class="edge">
<title>aws_subnet.private_subnet_1c&#45;&gt;aws_vpc.vpc</title>
<path fill="none" stroke="black" d="M736.22,-705.17C702.04,-709.09 664.91,-715.75 632,-727 593.41,-740.19 553.82,-765.19 527.29,-783.95"/>
<polygon fill="black" stroke="black" points="525.23,-781.12 519.15,-789.8 529.31,-786.81 525.23,-781.12"/>
</g>
<!-- aws_subnet.public_subnet_1a&#45;&gt;aws_vpc.vpc -->
<g id="edge65" class="edge">
<title>aws_subnet.public_subnet_1a&#45;&gt;aws_vpc.vpc</title>
<path fill="none" stroke="black" d="M739.42,-1144.33C702.25,-1141.6 662.55,-1132.49 632,-1110 539.77,-1042.1 508.44,-897.21 499.07,-836.11"/>
<polygon fill="black" stroke="black" points="502.51,-835.44 497.61,-826.04 495.58,-836.44 502.51,-835.44"/>
</g>
<!-- aws_subnet.public_subnet_1c&#45;&gt;aws_vpc.vpc -->
<g id="edge66" class="edge">
<title>aws_subnet.public_subnet_1c&#45;&gt;aws_vpc.vpc</title>
<path fill="none" stroke="black" d="M789.17,-956.93C744.51,-942.79 683.15,-921.33 632,-896 594.84,-877.6 555.32,-851.29 528.42,-832.24"/>
<polygon fill="black" stroke="black" points="530.32,-829.3 520.15,-826.33 526.25,-834.99 530.32,-829.3"/>
</g>
</g>
</svg>
