<?xml version="1.0" encoding="UTF-8" standalone="no"?>
<!DOCTYPE svg PUBLIC "-//W3C//DTD SVG 1.1//EN"
 "http://www.w3.org/Graphics/SVG/1.1/DTD/svg11.dtd">
<!-- Generated by graphviz version 2.43.0 (0)
 -->
<!-- Title: G Pages: 1 -->
<svg width="792pt" height="152pt"
 viewBox="0.00 0.00 792.00 152.00" xmlns="http://www.w3.org/2000/svg" xmlns:xlink="http://www.w3.org/1999/xlink">
<g id="graph0" class="graph" transform="scale(1 1) rotate(0) translate(4 148)">
<title>G</title>
<polygon fill="white" stroke="transparent" points="-4,4 -4,-148 788,-148 788,4 -4,4"/>
<!-- data.aws_iam_policy_document.billing_deny -->
<g id="node1" class="node">
<title>data.aws_iam_policy_document.billing_deny</title>
<polygon fill="none" stroke="black" points="377,-36 54,-36 54,0 377,0 377,-36"/>
<text text-anchor="middle" x="215.5" y="-14.3" font-family="sans-serif" font-size="14.00">data.aws_iam_policy_document.billing_deny</text>
</g>
<!-- data.aws_iam_policy_document.ec2_rebootable -->
<g id="node2" class="node">
<title>data.aws_iam_policy_document.ec2_rebootable</title>
<polygon fill="none" stroke="black" points="387.5,-90 43.5,-90 43.5,-54 387.5,-54 387.5,-90"/>
<text text-anchor="middle" x="215.5" y="-68.3" font-family="sans-serif" font-size="14.00">data.aws_iam_policy_document.ec2_rebootable</text>
</g>
<!-- data.aws_iam_policy_document.iam_change_own_password -->
<g id="node3" class="node">
<title>data.aws_iam_policy_document.iam_change_own_password</title>
<polygon fill="none" stroke="black" points="431,-144 0,-144 0,-108 431,-108 431,-144"/>
<text text-anchor="middle" x="215.5" y="-122.3" font-family="sans-serif" font-size="14.00">data.aws_iam_policy_document.iam_change_own_password</text>
</g>
<!-- aws_iam_policy.billing_deny -->
<g id="node4" class="node">
<title>aws_iam_policy.billing_deny</title>
<polygon fill="none" stroke="black" points="730,-36 521,-36 521,0 730,0 730,-36"/>
<text text-anchor="middle" x="625.5" y="-14.3" font-family="sans-serif" font-size="14.00">aws_iam_policy.billing_deny</text>
</g>
<!-- aws_iam_policy.billing_deny&#45;&gt;data.aws_iam_policy_document.billing_deny -->
<g id="edge1" class="edge">
<title>aws_iam_policy.billing_deny&#45;&gt;data.aws_iam_policy_document.billing_deny</title>
<path fill="none" stroke="black" d="M520.75,-18C480.26,-18 432.75,-18 387.47,-18"/>
<polygon fill="black" stroke="black" points="387.24,-14.5 377.24,-18 387.24,-21.5 387.24,-14.5"/>
</g>
<!-- aws_iam_policy.ec2_rebootable -->
<g id="node5" class="node">
<title>aws_iam_policy.ec2_rebootable</title>
<polygon fill="none" stroke="black" points="740.5,-90 510.5,-90 510.5,-54 740.5,-54 740.5,-90"/>
<text text-anchor="middle" x="625.5" y="-68.3" font-family="sans-serif" font-size="14.00">aws_iam_policy.ec2_rebootable</text>
</g>
<!-- aws_iam_policy.ec2_rebootable&#45;&gt;data.aws_iam_policy_document.ec2_rebootable -->
<g id="edge2" class="edge">
<title>aws_iam_policy.ec2_rebootable&#45;&gt;data.aws_iam_policy_document.ec2_rebootable</title>
<path fill="none" stroke="black" d="M510.31,-72C475.36,-72 436.01,-72 397.75,-72"/>
<polygon fill="black" stroke="black" points="397.52,-68.5 387.52,-72 397.52,-75.5 397.52,-68.5"/>
</g>
<!-- aws_iam_policy.iam_change_own_password -->
<g id="node6" class="node">
<title>aws_iam_policy.iam_change_own_password</title>
<polygon fill="none" stroke="black" points="784,-144 467,-144 467,-108 784,-108 784,-144"/>
<text text-anchor="middle" x="625.5" y="-122.3" font-family="sans-serif" font-size="14.00">aws_iam_policy.iam_change_own_password</text>
</g>
<!-- aws_iam_policy.iam_change_own_password&#45;&gt;data.aws_iam_policy_document.iam_change_own_password -->
<g id="edge3" class="edge">
<title>aws_iam_policy.iam_change_own_password&#45;&gt;data.aws_iam_policy_document.iam_change_own_password</title>
<path fill="none" stroke="black" d="M466.76,-126C458.38,-126 449.88,-126 441.34,-126"/>
<polygon fill="black" stroke="black" points="441.3,-122.5 431.3,-126 441.3,-129.5 441.3,-122.5"/>
</g>
</g>
</svg>
