<?xml version="1.0" encoding="UTF-8" standalone="no"?>
<!DOCTYPE svg PUBLIC "-//W3C//DTD SVG 1.1//EN"
 "http://www.w3.org/Graphics/SVG/1.1/DTD/svg11.dtd">
<!-- Generated by graphviz version 2.43.0 (0)
 -->
<!-- Title: G Pages: 1 -->
<svg width="684pt" height="368pt"
 viewBox="0.00 0.00 684.00 368.00" xmlns="http://www.w3.org/2000/svg" xmlns:xlink="http://www.w3.org/1999/xlink">
<g id="graph0" class="graph" transform="scale(1 1) rotate(0) translate(4 364)">
<title>G</title>
<polygon fill="white" stroke="transparent" points="-4,4 -4,-364 680,-364 680,4 -4,4"/>
<!-- aws_internet_gateway.igw -->
<g id="node1" class="node">
<title>aws_internet_gateway.igw</title>
<polygon fill="none" stroke="black" points="335,-198 145,-198 145,-162 335,-162 335,-198"/>
<text text-anchor="middle" x="240" y="-176.3" font-family="sans-serif" font-size="14.00">aws_internet_gateway.igw</text>
</g>
<!-- aws_vpc.vpc -->
<g id="node13" class="node">
<title>aws_vpc.vpc</title>
<polygon fill="none" stroke="black" points="95,-198 0,-198 0,-162 95,-162 95,-198"/>
<text text-anchor="middle" x="47.5" y="-176.3" font-family="sans-serif" font-size="14.00">aws_vpc.vpc</text>
</g>
<!-- aws_internet_gateway.igw&#45;&gt;aws_vpc.vpc -->
<g id="edge1" class="edge">
<title>aws_internet_gateway.igw&#45;&gt;aws_vpc.vpc</title>
<path fill="none" stroke="black" d="M144.87,-180C131.39,-180 117.89,-180 105.43,-180"/>
<polygon fill="black" stroke="black" points="105.24,-176.5 95.24,-180 105.24,-183.5 105.24,-176.5"/>
</g>
<!-- aws_route.public_rt_igw -->
<g id="node2" class="node">
<title>aws_route.public_rt_igw</title>
<polygon fill="none" stroke="black" points="617.5,-198 443.5,-198 443.5,-162 617.5,-162 617.5,-198"/>
<text text-anchor="middle" x="530.5" y="-176.3" font-family="sans-serif" font-size="14.00">aws_route.public_rt_igw</text>
</g>
<!-- aws_route.public_rt_igw&#45;&gt;aws_internet_gateway.igw -->
<g id="edge2" class="edge">
<title>aws_route.public_rt_igw&#45;&gt;aws_internet_gateway.igw</title>
<path fill="none" stroke="black" d="M443.33,-180C412.54,-180 377.52,-180 345.36,-180"/>
<polygon fill="black" stroke="black" points="345.03,-176.5 335.03,-180 345.03,-183.5 345.03,-176.5"/>
</g>
<!-- aws_route_table.public_rt -->
<g id="node4" class="node">
<title>aws_route_table.public_rt</title>
<polygon fill="none" stroke="black" points="332,-90 148,-90 148,-54 332,-54 332,-90"/>
<text text-anchor="middle" x="240" y="-68.3" font-family="sans-serif" font-size="14.00">aws_route_table.public_rt</text>
</g>
<!-- aws_route.public_rt_igw&#45;&gt;aws_route_table.public_rt -->
<g id="edge3" class="edge">
<title>aws_route.public_rt_igw&#45;&gt;aws_route_table.public_rt</title>
<path fill="none" stroke="black" d="M443.43,-175.37C423.05,-171.28 402.25,-164.39 385,-153 360.93,-137.1 372.58,-115.62 349,-99 346.47,-97.22 343.84,-95.56 341.13,-94"/>
<polygon fill="black" stroke="black" points="342.7,-90.88 332.21,-89.41 339.5,-97.1 342.7,-90.88"/>
</g>
<!-- aws_route_table.private_rt -->
<g id="node3" class="node">
<title>aws_route_table.private_rt</title>
<polygon fill="none" stroke="black" points="335,-306 145,-306 145,-270 335,-270 335,-306"/>
<text text-anchor="middle" x="240" y="-284.3" font-family="sans-serif" font-size="14.00">aws_route_table.private_rt</text>
</g>
<!-- aws_route_table.private_rt&#45;&gt;aws_vpc.vpc -->
<g id="edge4" class="edge">
<title>aws_route_table.private_rt&#45;&gt;aws_vpc.vpc</title>
<path fill="none" stroke="black" d="M150.26,-269.99C143.57,-267.38 137.07,-264.4 131,-261 106.4,-247.22 83.95,-224.17 68.71,-206.18"/>
<polygon fill="black" stroke="black" points="71.29,-203.8 62.23,-198.32 65.89,-208.26 71.29,-203.8"/>
</g>
<!-- aws_route_table.public_rt&#45;&gt;aws_vpc.vpc -->
<g id="edge5" class="edge">
<title>aws_route_table.public_rt&#45;&gt;aws_vpc.vpc</title>
<path fill="none" stroke="black" d="M150.26,-90.01C143.57,-92.62 137.07,-95.6 131,-99 106.4,-112.78 83.95,-135.83 68.71,-153.82"/>
<polygon fill="black" stroke="black" points="65.89,-151.74 62.23,-161.68 71.29,-156.2 65.89,-151.74"/>
</g>
<!-- aws_route_table_association.private_rt_1a -->
<g id="node5" class="node">
<title>aws_route_table_association.private_rt_1a</title>
<polygon fill="none" stroke="black" points="676,-333 385,-333 385,-297 676,-297 676,-333"/>
<text text-anchor="middle" x="530.5" y="-311.3" font-family="sans-serif" font-size="14.00">aws_route_table_association.private_rt_1a</text>
</g>
<!-- aws_route_table_association.private_rt_1a&#45;&gt;aws_route_table.private_rt -->
<g id="edge6" class="edge">
<title>aws_route_table_association.private_rt_1a&#45;&gt;aws_route_table.private_rt</title>
<path fill="none" stroke="black" d="M384.83,-301.46C371.51,-300.21 358.21,-298.97 345.36,-297.77"/>
<polygon fill="black" stroke="black" points="345.44,-294.26 335.16,-296.81 344.79,-301.23 345.44,-294.26"/>
</g>
<!-- aws_subnet.private_subnet_1a -->
<g id="node9" class="node">
<title>aws_subnet.private_subnet_1a</title>
<polygon fill="none" stroke="black" points="349,-360 131,-360 131,-324 349,-324 349,-360"/>
<text text-anchor="middle" x="240" y="-338.3" font-family="sans-serif" font-size="14.00">aws_subnet.private_subnet_1a</text>
</g>
<!-- aws_route_table_association.private_rt_1a&#45;&gt;aws_subnet.private_subnet_1a -->
<g id="edge7" class="edge">
<title>aws_route_table_association.private_rt_1a&#45;&gt;aws_subnet.private_subnet_1a</title>
<path fill="none" stroke="black" d="M384.83,-328.54C376.33,-329.33 367.84,-330.13 359.46,-330.91"/>
<polygon fill="black" stroke="black" points="358.95,-327.45 349.32,-331.86 359.6,-334.42 358.95,-327.45"/>
</g>
<!-- aws_route_table_association.private_rt_1c -->
<g id="node6" class="node">
<title>aws_route_table_association.private_rt_1c</title>
<polygon fill="none" stroke="black" points="675.5,-252 385.5,-252 385.5,-216 675.5,-216 675.5,-252"/>
<text text-anchor="middle" x="530.5" y="-230.3" font-family="sans-serif" font-size="14.00">aws_route_table_association.private_rt_1c</text>
</g>
<!-- aws_route_table_association.private_rt_1c&#45;&gt;aws_route_table.private_rt -->
<g id="edge8" class="edge">
<title>aws_route_table_association.private_rt_1c&#45;&gt;aws_route_table.private_rt</title>
<path fill="none" stroke="black" d="M433.03,-252.06C404.9,-257.32 374.03,-263.1 345.43,-268.45"/>
<polygon fill="black" stroke="black" points="344.6,-265.05 335.42,-270.33 345.89,-271.93 344.6,-265.05"/>
</g>
<!-- aws_subnet.private_subnet_1c -->
<g id="node10" class="node">
<title>aws_subnet.private_subnet_1c</title>
<polygon fill="none" stroke="black" points="349,-252 131,-252 131,-216 349,-216 349,-252"/>
<text text-anchor="middle" x="240" y="-230.3" font-family="sans-serif" font-size="14.00">aws_subnet.private_subnet_1c</text>
</g>
<!-- aws_route_table_association.private_rt_1c&#45;&gt;aws_subnet.private_subnet_1c -->
<g id="edge9" class="edge">
<title>aws_route_table_association.private_rt_1c&#45;&gt;aws_subnet.private_subnet_1c</title>
<path fill="none" stroke="black" d="M385.25,-234C376.54,-234 367.84,-234 359.25,-234"/>
<polygon fill="black" stroke="black" points="359.25,-230.5 349.25,-234 359.25,-237.5 359.25,-230.5"/>
</g>
<!-- aws_route_table_association.public_rt_1a -->
<g id="node7" class="node">
<title>aws_route_table_association.public_rt_1a</title>
<polygon fill="none" stroke="black" points="673,-144 388,-144 388,-108 673,-108 673,-144"/>
<text text-anchor="middle" x="530.5" y="-122.3" font-family="sans-serif" font-size="14.00">aws_route_table_association.public_rt_1a</text>
</g>
<!-- aws_route_table_association.public_rt_1a&#45;&gt;aws_route_table.public_rt -->
<g id="edge10" class="edge">
<title>aws_route_table_association.public_rt_1a&#45;&gt;aws_route_table.public_rt</title>
<path fill="none" stroke="black" d="M433.03,-107.94C403.75,-102.46 371.5,-96.43 341.92,-90.89"/>
<polygon fill="black" stroke="black" points="342.48,-87.43 332.01,-89.03 341.19,-94.31 342.48,-87.43"/>
</g>
<!-- aws_subnet.public_subnet_1a -->
<g id="node11" class="node">
<title>aws_subnet.public_subnet_1a</title>
<polygon fill="none" stroke="black" points="346,-144 134,-144 134,-108 346,-108 346,-144"/>
<text text-anchor="middle" x="240" y="-122.3" font-family="sans-serif" font-size="14.00">aws_subnet.public_subnet_1a</text>
</g>
<!-- aws_route_table_association.public_rt_1a&#45;&gt;aws_subnet.public_subnet_1a -->
<g id="edge11" class="edge">
<title>aws_route_table_association.public_rt_1a&#45;&gt;aws_subnet.public_subnet_1a</title>
<path fill="none" stroke="black" d="M387.79,-126C377.31,-126 366.82,-126 356.53,-126"/>
<polygon fill="black" stroke="black" points="356.32,-122.5 346.32,-126 356.32,-129.5 356.32,-122.5"/>
</g>
<!-- aws_route_table_association.public_rt_1c -->
<g id="node8" class="node">
<title>aws_route_table_association.public_rt_1c</title>
<polygon fill="none" stroke="black" points="672.5,-63 388.5,-63 388.5,-27 672.5,-27 672.5,-63"/>
<text text-anchor="middle" x="530.5" y="-41.3" font-family="sans-serif" font-size="14.00">aws_route_table_association.public_rt_1c</text>
</g>
<!-- aws_route_table_association.public_rt_1c&#45;&gt;aws_route_table.public_rt -->
<g id="edge12" class="edge">
<title>aws_route_table_association.public_rt_1c&#45;&gt;aws_route_table.public_rt</title>
<path fill="none" stroke="black" d="M388.21,-58.22C372.78,-59.67 357.31,-61.12 342.5,-62.5"/>
<polygon fill="black" stroke="black" points="341.99,-59.03 332.36,-63.45 342.64,-66 341.99,-59.03"/>
</g>
<!-- aws_subnet.public_subnet_1c -->
<g id="node12" class="node">
<title>aws_subnet.public_subnet_1c</title>
<polygon fill="none" stroke="black" points="346,-36 134,-36 134,0 346,0 346,-36"/>
<text text-anchor="middle" x="240" y="-14.3" font-family="sans-serif" font-size="14.00">aws_subnet.public_subnet_1c</text>
</g>
<!-- aws_route_table_association.public_rt_1c&#45;&gt;aws_subnet.public_subnet_1c -->
<g id="edge13" class="edge">
<title>aws_route_table_association.public_rt_1c&#45;&gt;aws_subnet.public_subnet_1c</title>
<path fill="none" stroke="black" d="M388.21,-31.78C377.5,-30.77 366.76,-29.77 356.25,-28.79"/>
<polygon fill="black" stroke="black" points="356.52,-25.3 346.24,-27.85 355.87,-32.27 356.52,-25.3"/>
</g>
<!-- aws_subnet.private_subnet_1a&#45;&gt;aws_vpc.vpc -->
<g id="edge14" class="edge">
<title>aws_subnet.private_subnet_1a&#45;&gt;aws_vpc.vpc</title>
<path fill="none" stroke="black" d="M145.76,-323.92C140.56,-321.33 135.59,-318.38 131,-315 94.21,-287.97 70.41,-239.13 58.25,-208.2"/>
<polygon fill="black" stroke="black" points="61.38,-206.57 54.57,-198.45 54.83,-209.04 61.38,-206.57"/>
</g>
<!-- aws_subnet.private_subnet_1c&#45;&gt;aws_vpc.vpc -->
<g id="edge15" class="edge">
<title>aws_subnet.private_subnet_1c&#45;&gt;aws_vpc.vpc</title>
<path fill="none" stroke="black" d="M163.87,-215.95C152.81,-213.08 141.59,-210.05 131,-207 122.48,-204.54 113.51,-201.79 104.76,-199"/>
<polygon fill="black" stroke="black" points="105.6,-195.6 95.01,-195.86 103.45,-202.26 105.6,-195.6"/>
</g>
<!-- aws_subnet.public_subnet_1a&#45;&gt;aws_vpc.vpc -->
<g id="edge16" class="edge">
<title>aws_subnet.public_subnet_1a&#45;&gt;aws_vpc.vpc</title>
<path fill="none" stroke="black" d="M163.87,-144.05C152.81,-146.92 141.59,-149.95 131,-153 122.48,-155.46 113.51,-158.21 104.76,-161"/>
<polygon fill="black" stroke="black" points="103.45,-157.74 95.01,-164.14 105.6,-164.4 103.45,-157.74"/>
</g>
<!-- aws_subnet.public_subnet_1c&#45;&gt;aws_vpc.vpc -->
<g id="edge17" class="edge">
<title>aws_subnet.public_subnet_1c&#45;&gt;aws_vpc.vpc</title>
<path fill="none" stroke="black" d="M145.76,-36.08C140.56,-38.67 135.59,-41.62 131,-45 94.21,-72.03 70.41,-120.87 58.25,-151.8"/>
<polygon fill="black" stroke="black" points="54.83,-150.96 54.57,-161.55 61.38,-153.43 54.83,-150.96"/>
</g>
</g>
</svg>
