<?xml version="1.0" encoding="UTF-8" standalone="no"?>
<!DOCTYPE svg PUBLIC "-//W3C//DTD SVG 1.1//EN"
 "http://www.w3.org/Graphics/SVG/1.1/DTD/svg11.dtd">
<!-- Generated by graphviz version 2.43.0 (0)
 -->
<!-- Title: G Pages: 1 -->
<svg width="2169pt" height="1556pt"
 viewBox="0.00 0.00 2169.00 1556.00" xmlns="http://www.w3.org/2000/svg" xmlns:xlink="http://www.w3.org/1999/xlink">
<g id="graph0" class="graph" transform="scale(1 1) rotate(0) translate(4 1552)">
<title>G</title>
<polygon fill="white" stroke="transparent" points="-4,4 -4,-1552 2165,-1552 2165,4 -4,4"/>
<!-- data.aws_ami.app -->
<g id="node1" class="node">
<title>data.aws_ami.app</title>
<polygon fill="none" stroke="black" points="922.5,-1224 780.5,-1224 780.5,-1188 922.5,-1188 922.5,-1224"/>
<text text-anchor="middle" x="851.5" y="-1202.3" font-family="sans-serif" font-size="14.00">data.aws_ami.app</text>
</g>
<!-- data.aws_iam_policy_document.ec2_assume_role -->
<g id="node2" class="node">
<title>data.aws_iam_policy_document.ec2_assume_role</title>
<polygon fill="none" stroke="black" points="357,-1440 0,-1440 0,-1404 357,-1404 357,-1440"/>
<text text-anchor="middle" x="178.5" y="-1418.3" font-family="sans-serif" font-size="14.00">data.aws_iam_policy_document.ec2_assume_role</text>
</g>
<!-- data.aws_prefix_list.s3_pl -->
<g id="node3" class="node">
<title>data.aws_prefix_list.s3_pl</title>
<polygon fill="none" stroke="black" points="948,-1008 755,-1008 755,-972 948,-972 948,-1008"/>
<text text-anchor="middle" x="851.5" y="-986.3" font-family="sans-serif" font-size="14.00">data.aws_prefix_list.s3_pl</text>
</g>
<!-- aws_db_instance.mysql_standalone -->
<g id="node4" class="node">
<title>aws_db_instance.mysql_standalone</title>
<polygon fill="none" stroke="black" points="1872.5,-144 1609.5,-144 1609.5,-108 1872.5,-108 1872.5,-144"/>
<text text-anchor="middle" x="1741" y="-122.3" font-family="sans-serif" font-size="14.00">aws_db_instance.mysql_standalone</text>
</g>
<!-- aws_db_option_group.mysql_standalone_optiongroup -->
<g id="node5" class="node">
<title>aws_db_option_group.mysql_standalone_optiongroup</title>
<polygon fill="none" stroke="black" points="1522,-144 1136,-144 1136,-108 1522,-108 1522,-144"/>
<text text-anchor="middle" x="1329" y="-122.3" font-family="sans-serif" font-size="14.00">aws_db_option_group.mysql_standalone_optiongroup</text>
</g>
<!-- aws_db_instance.mysql_standalone&#45;&gt;aws_db_option_group.mysql_standalone_optiongroup -->
<g id="edge1" class="edge">
<title>aws_db_instance.mysql_standalone&#45;&gt;aws_db_option_group.mysql_standalone_optiongroup</title>
<path fill="none" stroke="black" d="M1609.43,-126C1584.8,-126 1558.51,-126 1532.27,-126"/>
<polygon fill="black" stroke="black" points="1532.23,-122.5 1522.23,-126 1532.23,-129.5 1532.23,-122.5"/>
</g>
<!-- aws_db_parameter_group.mysql_standalone_parametergroup -->
<g id="node6" class="node">
<title>aws_db_parameter_group.mysql_standalone_parametergroup</title>
<polygon fill="none" stroke="black" points="1551,-90 1107,-90 1107,-54 1551,-54 1551,-90"/>
<text text-anchor="middle" x="1329" y="-68.3" font-family="sans-serif" font-size="14.00">aws_db_parameter_group.mysql_standalone_parametergroup</text>
</g>
<!-- aws_db_instance.mysql_standalone&#45;&gt;aws_db_parameter_group.mysql_standalone_parametergroup -->
<g id="edge2" class="edge">
<title>aws_db_instance.mysql_standalone&#45;&gt;aws_db_parameter_group.mysql_standalone_parametergroup</title>
<path fill="none" stroke="black" d="M1616.53,-107.99C1594.71,-104.92 1572.19,-101.81 1551,-99 1531.66,-96.44 1511.35,-93.84 1491.22,-91.31"/>
<polygon fill="black" stroke="black" points="1491.39,-87.8 1481.03,-90.04 1490.52,-94.75 1491.39,-87.8"/>
</g>
<!-- aws_db_subnet_group.mysql_standalone_subnetgroup -->
<g id="node7" class="node">
<title>aws_db_subnet_group.mysql_standalone_subnetgroup</title>
<polygon fill="none" stroke="black" points="1526.5,-252 1131.5,-252 1131.5,-216 1526.5,-216 1526.5,-252"/>
<text text-anchor="middle" x="1329" y="-230.3" font-family="sans-serif" font-size="14.00">aws_db_subnet_group.mysql_standalone_subnetgroup</text>
</g>
<!-- aws_db_instance.mysql_standalone&#45;&gt;aws_db_subnet_group.mysql_standalone_subnetgroup -->
<g id="edge3" class="edge">
<title>aws_db_instance.mysql_standalone&#45;&gt;aws_db_subnet_group.mysql_standalone_subnetgroup</title>
<path fill="none" stroke="black" d="M1705.88,-144.13C1668.82,-162.98 1607.36,-191.81 1551,-207 1541.55,-209.55 1531.81,-211.85 1521.93,-213.94"/>
<polygon fill="black" stroke="black" points="1521.11,-210.54 1512.01,-215.96 1522.5,-217.4 1521.11,-210.54"/>
</g>
<!-- aws_security_group.db_sg -->
<g id="node28" class="node">
<title>aws_security_group.db_sg</title>
<polygon fill="none" stroke="black" points="951,-1116 752,-1116 752,-1080 951,-1080 951,-1116"/>
<text text-anchor="middle" x="851.5" y="-1094.3" font-family="sans-serif" font-size="14.00">aws_security_group.db_sg</text>
</g>
<!-- aws_db_instance.mysql_standalone&#45;&gt;aws_security_group.db_sg -->
<g id="edge4" class="edge">
<title>aws_db_instance.mysql_standalone&#45;&gt;aws_security_group.db_sg</title>
<path fill="none" stroke="black" d="M1739.76,-144.08C1737.64,-271.97 1718.04,-1039.27 1551,-1179 1513.16,-1210.65 1150.5,-1202.28 1107,-1179 1081.57,-1165.39 1095.55,-1140.15 1071,-1125 1038.67,-1105.05 998.5,-1096.52 961.45,-1093.55"/>
<polygon fill="black" stroke="black" points="961.31,-1090.03 951.1,-1092.86 960.84,-1097.02 961.31,-1090.03"/>
</g>
<!-- random_string.db_password -->
<g id="node53" class="node">
<title>random_string.db_password</title>
<polygon fill="none" stroke="black" points="1435.5,-36 1222.5,-36 1222.5,0 1435.5,0 1435.5,-36"/>
<text text-anchor="middle" x="1329" y="-14.3" font-family="sans-serif" font-size="14.00">random_string.db_password</text>
</g>
<!-- aws_db_instance.mysql_standalone&#45;&gt;random_string.db_password -->
<g id="edge5" class="edge">
<title>aws_db_instance.mysql_standalone&#45;&gt;random_string.db_password</title>
<path fill="none" stroke="black" d="M1705.88,-107.87C1668.82,-89.02 1607.36,-60.19 1551,-45 1517.37,-35.94 1480.04,-29.91 1445.77,-25.9"/>
<polygon fill="black" stroke="black" points="1446.05,-22.41 1435.72,-24.77 1445.27,-29.37 1446.05,-22.41"/>
</g>
<!-- aws_subnet.private_subnet_1a -->
<g id="node48" class="node">
<title>aws_subnet.private_subnet_1a</title>
<polygon fill="none" stroke="black" points="966.5,-360 736.5,-360 736.5,-324 966.5,-324 966.5,-360"/>
<text text-anchor="middle" x="851.5" y="-338.3" font-family="sans-serif" font-size="14.00">aws_subnet.private_subnet_1a</text>
</g>
<!-- aws_db_subnet_group.mysql_standalone_subnetgroup&#45;&gt;aws_subnet.private_subnet_1a -->
<g id="edge6" class="edge">
<title>aws_db_subnet_group.mysql_standalone_subnetgroup&#45;&gt;aws_subnet.private_subnet_1a</title>
<path fill="none" stroke="black" d="M1131.38,-248.57C1122.91,-252.12 1114.73,-256.24 1107,-261 1082.44,-276.13 1095.55,-299.85 1071,-315 1043.07,-332.24 1009.29,-340.95 976.73,-344.91"/>
<polygon fill="black" stroke="black" points="976.25,-341.44 966.68,-345.99 976.99,-348.4 976.25,-341.44"/>
</g>
<!-- aws_subnet.private_subnet_1c -->
<g id="node49" class="node">
<title>aws_subnet.private_subnet_1c</title>
<polygon fill="none" stroke="black" points="966.5,-252 736.5,-252 736.5,-216 966.5,-216 966.5,-252"/>
<text text-anchor="middle" x="851.5" y="-230.3" font-family="sans-serif" font-size="14.00">aws_subnet.private_subnet_1c</text>
</g>
<!-- aws_db_subnet_group.mysql_standalone_subnetgroup&#45;&gt;aws_subnet.private_subnet_1c -->
<g id="edge7" class="edge">
<title>aws_db_subnet_group.mysql_standalone_subnetgroup&#45;&gt;aws_subnet.private_subnet_1c</title>
<path fill="none" stroke="black" d="M1131.16,-234C1078.92,-234 1023.95,-234 976.77,-234"/>
<polygon fill="black" stroke="black" points="976.52,-230.5 966.52,-234 976.52,-237.5 976.52,-230.5"/>
</g>
<!-- aws_iam_instance_profile.app_ec2_profile -->
<g id="node8" class="node">
<title>aws_iam_instance_profile.app_ec2_profile</title>
<polygon fill="none" stroke="black" points="1003.5,-1278 699.5,-1278 699.5,-1242 1003.5,-1242 1003.5,-1278"/>
<text text-anchor="middle" x="851.5" y="-1256.3" font-family="sans-serif" font-size="14.00">aws_iam_instance_profile.app_ec2_profile</text>
</g>
<!-- aws_iam_role.app_iam_role -->
<g id="node9" class="node">
<title>aws_iam_role.app_iam_role</title>
<polygon fill="none" stroke="black" points="596,-1440 393,-1440 393,-1404 596,-1404 596,-1440"/>
<text text-anchor="middle" x="494.5" y="-1418.3" font-family="sans-serif" font-size="14.00">aws_iam_role.app_iam_role</text>
</g>
<!-- aws_iam_instance_profile.app_ec2_profile&#45;&gt;aws_iam_role.app_iam_role -->
<g id="edge8" class="edge">
<title>aws_iam_instance_profile.app_ec2_profile&#45;&gt;aws_iam_role.app_iam_role</title>
<path fill="none" stroke="black" d="M699.25,-1265.54C675.98,-1270.08 652.81,-1276.91 632,-1287 580.74,-1311.85 537.08,-1363.7 513.72,-1395.42"/>
<polygon fill="black" stroke="black" points="510.69,-1393.63 507.68,-1403.79 516.37,-1397.73 510.69,-1393.63"/>
</g>
<!-- aws_iam_role.app_iam_role&#45;&gt;data.aws_iam_policy_document.ec2_assume_role -->
<g id="edge9" class="edge">
<title>aws_iam_role.app_iam_role&#45;&gt;data.aws_iam_policy_document.ec2_assume_role</title>
<path fill="none" stroke="black" d="M392.85,-1422C384.54,-1422 375.98,-1422 367.29,-1422"/>
<polygon fill="black" stroke="black" points="367.03,-1418.5 357.03,-1422 367.03,-1425.5 367.03,-1418.5"/>
</g>
<!-- aws_iam_role_policy_attachment.app_iam_role_ec2_readonly -->
<g id="node10" class="node">
<title>aws_iam_role_policy_attachment.app_iam_role_ec2_readonly</title>
<polygon fill="none" stroke="black" points="1069,-1548 634,-1548 634,-1512 1069,-1512 1069,-1548"/>
<text text-anchor="middle" x="851.5" y="-1526.3" font-family="sans-serif" font-size="14.00">aws_iam_role_policy_attachment.app_iam_role_ec2_readonly</text>
</g>
<!-- aws_iam_role_policy_attachment.app_iam_role_ec2_readonly&#45;&gt;aws_iam_role.app_iam_role -->
<g id="edge10" class="edge">
<title>aws_iam_role_policy_attachment.app_iam_role_ec2_readonly&#45;&gt;aws_iam_role.app_iam_role</title>
<path fill="none" stroke="black" d="M662.8,-1511.99C652.28,-1509.38 641.95,-1506.4 632,-1503 593.41,-1489.81 553.82,-1464.81 527.29,-1446.05"/>
<polygon fill="black" stroke="black" points="529.31,-1443.19 519.15,-1440.2 525.23,-1448.88 529.31,-1443.19"/>
</g>
<!-- aws_iam_role_policy_attachment.app_iam_role_s3_readonly -->
<g id="node11" class="node">
<title>aws_iam_role_policy_attachment.app_iam_role_s3_readonly</title>
<polygon fill="none" stroke="black" points="1065,-1494 638,-1494 638,-1458 1065,-1458 1065,-1494"/>
<text text-anchor="middle" x="851.5" y="-1472.3" font-family="sans-serif" font-size="14.00">aws_iam_role_policy_attachment.app_iam_role_s3_readonly</text>
</g>
<!-- aws_iam_role_policy_attachment.app_iam_role_s3_readonly&#45;&gt;aws_iam_role.app_iam_role -->
<g id="edge11" class="edge">
<title>aws_iam_role_policy_attachment.app_iam_role_s3_readonly&#45;&gt;aws_iam_role.app_iam_role</title>
<path fill="none" stroke="black" d="M693.36,-1457.97C672.69,-1455.19 651.81,-1452.18 632,-1449 618.85,-1446.89 605.04,-1444.44 591.45,-1441.89"/>
<polygon fill="black" stroke="black" points="592.09,-1438.45 581.62,-1440.02 590.79,-1445.32 592.09,-1438.45"/>
</g>
<!-- aws_iam_role_policy_attachment.app_iam_role_ssm_readonly -->
<g id="node12" class="node">
<title>aws_iam_role_policy_attachment.app_iam_role_ssm_readonly</title>
<polygon fill="none" stroke="black" points="1071,-1440 632,-1440 632,-1404 1071,-1404 1071,-1440"/>
<text text-anchor="middle" x="851.5" y="-1418.3" font-family="sans-serif" font-size="14.00">aws_iam_role_policy_attachment.app_iam_role_ssm_readonly</text>
</g>
<!-- aws_iam_role_policy_attachment.app_iam_role_ssm_readonly&#45;&gt;aws_iam_role.app_iam_role -->
<g id="edge12" class="edge">
<title>aws_iam_role_policy_attachment.app_iam_role_ssm_readonly&#45;&gt;aws_iam_role.app_iam_role</title>
<path fill="none" stroke="black" d="M631.99,-1422C623.25,-1422 614.66,-1422 606.29,-1422"/>
<polygon fill="black" stroke="black" points="606.21,-1418.5 596.21,-1422 606.21,-1425.5 606.21,-1418.5"/>
</g>
<!-- aws_iam_role_policy_attachment.app_iam_ssm_managed -->
<g id="node13" class="node">
<title>aws_iam_role_policy_attachment.app_iam_ssm_managed</title>
<polygon fill="none" stroke="black" points="1057.5,-1386 645.5,-1386 645.5,-1350 1057.5,-1350 1057.5,-1386"/>
<text text-anchor="middle" x="851.5" y="-1364.3" font-family="sans-serif" font-size="14.00">aws_iam_role_policy_attachment.app_iam_ssm_managed</text>
</g>
<!-- aws_iam_role_policy_attachment.app_iam_ssm_managed&#45;&gt;aws_iam_role.app_iam_role -->
<g id="edge13" class="edge">
<title>aws_iam_role_policy_attachment.app_iam_ssm_managed&#45;&gt;aws_iam_role.app_iam_role</title>
<path fill="none" stroke="black" d="M693.36,-1386.03C672.69,-1388.81 651.81,-1391.82 632,-1395 618.85,-1397.11 605.04,-1399.56 591.45,-1402.11"/>
<polygon fill="black" stroke="black" points="590.79,-1398.68 581.62,-1403.98 592.09,-1405.55 590.79,-1398.68"/>
</g>
<!-- aws_instance.app_server -->
<g id="node14" class="node">
<title>aws_instance.app_server</title>
<polygon fill="none" stroke="black" points="1424.5,-1262 1233.5,-1262 1233.5,-1226 1424.5,-1226 1424.5,-1262"/>
<text text-anchor="middle" x="1329" y="-1240.3" font-family="sans-serif" font-size="14.00">aws_instance.app_server</text>
</g>
<!-- aws_instance.app_server&#45;&gt;data.aws_ami.app -->
<g id="edge14" class="edge">
<title>aws_instance.app_server&#45;&gt;data.aws_ami.app</title>
<path fill="none" stroke="black" d="M1233.49,-1236.45C1145.48,-1229.41 1015.72,-1219.04 932.66,-1212.41"/>
<polygon fill="black" stroke="black" points="932.76,-1208.9 922.51,-1211.6 932.2,-1215.88 932.76,-1208.9"/>
</g>
<!-- aws_instance.app_server&#45;&gt;aws_iam_instance_profile.app_ec2_profile -->
<g id="edge15" class="edge">
<title>aws_instance.app_server&#45;&gt;aws_iam_instance_profile.app_ec2_profile</title>
<path fill="none" stroke="black" d="M1233.49,-1247.18C1170.89,-1249.29 1087.17,-1252.1 1014.15,-1254.56"/>
<polygon fill="black" stroke="black" points="1013.8,-1251.07 1003.92,-1254.9 1014.04,-1258.07 1013.8,-1251.07"/>
</g>
<!-- aws_key_pair.keypair -->
<g id="node16" class="node">
<title>aws_key_pair.keypair</title>
<polygon fill="none" stroke="black" points="932.5,-1170 770.5,-1170 770.5,-1134 932.5,-1134 932.5,-1170"/>
<text text-anchor="middle" x="851.5" y="-1148.3" font-family="sans-serif" font-size="14.00">aws_key_pair.keypair</text>
</g>
<!-- aws_instance.app_server&#45;&gt;aws_key_pair.keypair -->
<g id="edge16" class="edge">
<title>aws_instance.app_server&#45;&gt;aws_key_pair.keypair</title>
<path fill="none" stroke="black" d="M1233.31,-1242.6C1192.8,-1238.94 1145.97,-1230.48 1107,-1212 1087.39,-1202.7 1090.71,-1188.1 1071,-1179 1031.33,-1160.69 983.52,-1153.35 942.75,-1150.83"/>
<polygon fill="black" stroke="black" points="942.72,-1147.32 932.55,-1150.29 942.35,-1154.31 942.72,-1147.32"/>
</g>
<!-- aws_security_group.app_sg -->
<g id="node27" class="node">
<title>aws_security_group.app_sg</title>
<polygon fill="none" stroke="black" points="955,-1062 748,-1062 748,-1026 955,-1026 955,-1062"/>
<text text-anchor="middle" x="851.5" y="-1040.3" font-family="sans-serif" font-size="14.00">aws_security_group.app_sg</text>
</g>
<!-- aws_instance.app_server&#45;&gt;aws_security_group.app_sg -->
<g id="edge17" class="edge">
<title>aws_instance.app_server&#45;&gt;aws_security_group.app_sg</title>
<path fill="none" stroke="black" d="M1233.35,-1236.11C1189.94,-1227.93 1140.74,-1211.56 1107,-1179 1070.59,-1143.87 1110.15,-1103.05 1071,-1071 1041.8,-1047.1 1002.63,-1037.62 965.52,-1034.99"/>
<polygon fill="black" stroke="black" points="965.29,-1031.47 955.12,-1034.42 964.91,-1038.46 965.29,-1031.47"/>
</g>
<!-- aws_security_group.opmng_sg -->
<g id="node29" class="node">
<title>aws_security_group.opmng_sg</title>
<polygon fill="none" stroke="black" points="966.5,-873 736.5,-873 736.5,-837 966.5,-837 966.5,-873"/>
<text text-anchor="middle" x="851.5" y="-851.3" font-family="sans-serif" font-size="14.00">aws_security_group.opmng_sg</text>
</g>
<!-- aws_instance.app_server&#45;&gt;aws_security_group.opmng_sg -->
<g id="edge18" class="edge">
<title>aws_instance.app_server&#45;&gt;aws_security_group.opmng_sg</title>
<path fill="none" stroke="black" d="M1233.26,-1238.73C1188.74,-1231.24 1138.62,-1214.7 1107,-1179 1042.46,-1106.15 1129,-1041.15 1071,-963 1038.62,-919.37 983.75,-892.34 937.1,-876.23"/>
<polygon fill="black" stroke="black" points="938.18,-872.9 927.59,-873.05 935.96,-879.54 938.18,-872.9"/>
</g>
<!-- aws_subnet.public_subnet_1a -->
<g id="node50" class="node">
<title>aws_subnet.public_subnet_1a</title>
<polygon fill="none" stroke="black" points="963.5,-630 739.5,-630 739.5,-594 963.5,-594 963.5,-630"/>
<text text-anchor="middle" x="851.5" y="-608.3" font-family="sans-serif" font-size="14.00">aws_subnet.public_subnet_1a</text>
</g>
<!-- aws_instance.app_server&#45;&gt;aws_subnet.public_subnet_1a -->
<g id="edge19" class="edge">
<title>aws_instance.app_server&#45;&gt;aws_subnet.public_subnet_1a</title>
<path fill="none" stroke="black" d="M1233.41,-1239.75C1188.36,-1232.57 1137.74,-1215.98 1107,-1179 1056.88,-1118.7 1104.87,-898.72 1071,-828 1029.94,-742.28 940.18,-671.24 889.41,-635.98"/>
<polygon fill="black" stroke="black" points="891.23,-632.98 881,-630.22 887.27,-638.76 891.23,-632.98"/>
</g>
<!-- aws_internet_gateway.igw -->
<g id="node15" class="node">
<title>aws_internet_gateway.igw</title>
<polygon fill="none" stroke="black" points="949.5,-414 753.5,-414 753.5,-378 949.5,-378 949.5,-414"/>
<text text-anchor="middle" x="851.5" y="-392.3" font-family="sans-serif" font-size="14.00">aws_internet_gateway.igw</text>
</g>
<!-- aws_vpc.vpc -->
<g id="node52" class="node">
<title>aws_vpc.vpc</title>
<polygon fill="none" stroke="black" points="546.5,-549 442.5,-549 442.5,-513 546.5,-513 546.5,-549"/>
<text text-anchor="middle" x="494.5" y="-527.3" font-family="sans-serif" font-size="14.00">aws_vpc.vpc</text>
</g>
<!-- aws_internet_gateway.igw&#45;&gt;aws_vpc.vpc -->
<g id="edge20" class="edge">
<title>aws_internet_gateway.igw&#45;&gt;aws_vpc.vpc</title>
<path fill="none" stroke="black" d="M753.49,-396.71C714.51,-399.84 669.91,-407.14 632,-423 587.03,-441.81 544.53,-479.8 519.25,-505.32"/>
<polygon fill="black" stroke="black" points="516.43,-503.2 511.97,-512.81 521.45,-508.08 516.43,-503.2"/>
</g>
<!-- aws_lb.alb -->
<g id="node17" class="node">
<title>aws_lb.alb</title>
<polygon fill="none" stroke="black" points="1373.5,-630 1284.5,-630 1284.5,-594 1373.5,-594 1373.5,-630"/>
<text text-anchor="middle" x="1329" y="-608.3" font-family="sans-serif" font-size="14.00">aws_lb.alb</text>
</g>
<!-- aws_security_group.web_sg -->
<g id="node30" class="node">
<title>aws_security_group.web_sg</title>
<polygon fill="none" stroke="black" points="956,-576 747,-576 747,-540 956,-540 956,-576"/>
<text text-anchor="middle" x="851.5" y="-554.3" font-family="sans-serif" font-size="14.00">aws_security_group.web_sg</text>
</g>
<!-- aws_lb.alb&#45;&gt;aws_security_group.web_sg -->
<g id="edge21" class="edge">
<title>aws_lb.alb&#45;&gt;aws_security_group.web_sg</title>
<path fill="none" stroke="black" d="M1284.12,-607.02C1212.47,-598.88 1068.15,-582.49 966.16,-570.91"/>
<polygon fill="black" stroke="black" points="966.45,-567.42 956.12,-569.77 965.66,-574.37 966.45,-567.42"/>
</g>
<!-- aws_lb.alb&#45;&gt;aws_subnet.public_subnet_1a -->
<g id="edge22" class="edge">
<title>aws_lb.alb&#45;&gt;aws_subnet.public_subnet_1a</title>
<path fill="none" stroke="black" d="M1284.12,-612C1214.25,-612 1075.28,-612 973.84,-612"/>
<polygon fill="black" stroke="black" points="973.83,-608.5 963.83,-612 973.83,-615.5 973.83,-608.5"/>
</g>
<!-- aws_subnet.public_subnet_1c -->
<g id="node51" class="node">
<title>aws_subnet.public_subnet_1c</title>
<polygon fill="none" stroke="black" points="963,-522 740,-522 740,-486 963,-486 963,-522"/>
<text text-anchor="middle" x="851.5" y="-500.3" font-family="sans-serif" font-size="14.00">aws_subnet.public_subnet_1c</text>
</g>
<!-- aws_lb.alb&#45;&gt;aws_subnet.public_subnet_1c -->
<g id="edge23" class="edge">
<title>aws_lb.alb&#45;&gt;aws_subnet.public_subnet_1c</title>
<path fill="none" stroke="black" d="M1284.23,-616.9C1236.95,-619.99 1161.13,-618.35 1107,-585 1082.44,-569.87 1095.55,-546.15 1071,-531 1042.11,-513.17 1006.97,-504.47 973.39,-500.7"/>
<polygon fill="black" stroke="black" points="973.32,-497.17 963.03,-499.68 972.64,-504.14 973.32,-497.17"/>
</g>
<!-- aws_lb_target_group.alb_target_group -->
<g id="node18" class="node">
<title>aws_lb_target_group.alb_target_group</title>
<polygon fill="none" stroke="black" points="991,-1332 712,-1332 712,-1296 991,-1296 991,-1332"/>
<text text-anchor="middle" x="851.5" y="-1310.3" font-family="sans-serif" font-size="14.00">aws_lb_target_group.alb_target_group</text>
</g>
<!-- aws_lb_target_group.alb_target_group&#45;&gt;aws_vpc.vpc -->
<g id="edge24" class="edge">
<title>aws_lb_target_group.alb_target_group&#45;&gt;aws_vpc.vpc</title>
<path fill="none" stroke="black" d="M711.91,-1322.71C682.41,-1318 653.66,-1307.49 632,-1287 523.72,-1184.58 500.46,-684.75 496.31,-559.5"/>
<polygon fill="black" stroke="black" points="499.79,-559.09 495.98,-549.21 492.8,-559.31 499.79,-559.09"/>
</g>
<!-- aws_lb_target_group_attachment.instance -->
<g id="node19" class="node">
<title>aws_lb_target_group_attachment.instance</title>
<polygon fill="none" stroke="black" points="1895,-1291 1587,-1291 1587,-1255 1895,-1255 1895,-1291"/>
<text text-anchor="middle" x="1741" y="-1269.3" font-family="sans-serif" font-size="14.00">aws_lb_target_group_attachment.instance</text>
</g>
<!-- aws_lb_target_group_attachment.instance&#45;&gt;aws_instance.app_server -->
<g id="edge25" class="edge">
<title>aws_lb_target_group_attachment.instance&#45;&gt;aws_instance.app_server</title>
<path fill="none" stroke="black" d="M1586.75,-1262.16C1536.1,-1258.58 1480.95,-1254.68 1434.79,-1251.41"/>
<polygon fill="black" stroke="black" points="1435,-1247.92 1424.78,-1250.7 1434.51,-1254.9 1435,-1247.92"/>
</g>
<!-- aws_lb_target_group_attachment.instance&#45;&gt;aws_lb_target_group.alb_target_group -->
<g id="edge26" class="edge">
<title>aws_lb_target_group_attachment.instance&#45;&gt;aws_lb_target_group.alb_target_group</title>
<path fill="none" stroke="black" d="M1586.93,-1280.07C1422.76,-1287.66 1163.83,-1299.62 1001.32,-1307.12"/>
<polygon fill="black" stroke="black" points="1001.07,-1303.63 991.24,-1307.59 1001.39,-1310.63 1001.07,-1303.63"/>
</g>
<!-- aws_route.public_rt_igw -->
<g id="node20" class="node">
<title>aws_route.public_rt_igw</title>
<polygon fill="none" stroke="black" points="1420,-360 1238,-360 1238,-324 1420,-324 1420,-360"/>
<text text-anchor="middle" x="1329" y="-338.3" font-family="sans-serif" font-size="14.00">aws_route.public_rt_igw</text>
</g>
<!-- aws_route.public_rt_igw&#45;&gt;aws_internet_gateway.igw -->
<g id="edge27" class="edge">
<title>aws_route.public_rt_igw&#45;&gt;aws_internet_gateway.igw</title>
<path fill="none" stroke="black" d="M1237.72,-352.25C1158.65,-361.23 1043.61,-374.3 959.84,-383.81"/>
<polygon fill="black" stroke="black" points="959.33,-380.35 949.79,-384.95 960.12,-387.3 959.33,-380.35"/>
</g>
<!-- aws_route_table.public_rt -->
<g id="node22" class="node">
<title>aws_route_table.public_rt</title>
<polygon fill="none" stroke="black" points="947.5,-468 755.5,-468 755.5,-432 947.5,-432 947.5,-468"/>
<text text-anchor="middle" x="851.5" y="-446.3" font-family="sans-serif" font-size="14.00">aws_route_table.public_rt</text>
</g>
<!-- aws_route.public_rt_igw&#45;&gt;aws_route_table.public_rt -->
<g id="edge28" class="edge">
<title>aws_route.public_rt_igw&#45;&gt;aws_route_table.public_rt</title>
<path fill="none" stroke="black" d="M1237.89,-336.24C1195.4,-337.53 1145.67,-345.18 1107,-369 1082.44,-384.13 1095.55,-407.85 1071,-423 1037.56,-443.64 995.73,-452.05 957.66,-454.73"/>
<polygon fill="black" stroke="black" points="957.33,-451.25 947.55,-455.32 957.73,-458.24 957.33,-451.25"/>
</g>
<!-- aws_route_table.private_rt -->
<g id="node21" class="node">
<title>aws_route_table.private_rt</title>
<polygon fill="none" stroke="black" points="951,-306 752,-306 752,-270 951,-270 951,-306"/>
<text text-anchor="middle" x="851.5" y="-284.3" font-family="sans-serif" font-size="14.00">aws_route_table.private_rt</text>
</g>
<!-- aws_route_table.private_rt&#45;&gt;aws_vpc.vpc -->
<g id="edge29" class="edge">
<title>aws_route_table.private_rt&#45;&gt;aws_vpc.vpc</title>
<path fill="none" stroke="black" d="M751.91,-282.42C712.02,-284.48 667.19,-292.69 632,-315 561.32,-359.81 520.68,-455.88 504.19,-503.33"/>
<polygon fill="black" stroke="black" points="500.83,-502.35 500.95,-512.94 507.46,-504.59 500.83,-502.35"/>
</g>
<!-- aws_route_table.public_rt&#45;&gt;aws_vpc.vpc -->
<g id="edge30" class="edge">
<title>aws_route_table.public_rt&#45;&gt;aws_vpc.vpc</title>
<path fill="none" stroke="black" d="M755.42,-456.46C716.72,-460.45 671.81,-466.84 632,-477 601.43,-484.8 568.51,-497.68 542.65,-508.91"/>
<polygon fill="black" stroke="black" points="541.2,-505.72 533.47,-512.96 544.03,-512.13 541.2,-505.72"/>
</g>
<!-- aws_route_table_association.private_rt_1a -->
<g id="node23" class="node">
<title>aws_route_table_association.private_rt_1a</title>
<polygon fill="none" stroke="black" points="1482.5,-306 1175.5,-306 1175.5,-270 1482.5,-270 1482.5,-306"/>
<text text-anchor="middle" x="1329" y="-284.3" font-family="sans-serif" font-size="14.00">aws_route_table_association.private_rt_1a</text>
</g>
<!-- aws_route_table_association.private_rt_1a&#45;&gt;aws_route_table.private_rt -->
<g id="edge31" class="edge">
<title>aws_route_table_association.private_rt_1a&#45;&gt;aws_route_table.private_rt</title>
<path fill="none" stroke="black" d="M1175.26,-288C1105.53,-288 1024.57,-288 961.17,-288"/>
<polygon fill="black" stroke="black" points="961.15,-284.5 951.15,-288 961.15,-291.5 961.15,-284.5"/>
</g>
<!-- aws_route_table_association.private_rt_1a&#45;&gt;aws_subnet.private_subnet_1a -->
<g id="edge32" class="edge">
<title>aws_route_table_association.private_rt_1a&#45;&gt;aws_subnet.private_subnet_1a</title>
<path fill="none" stroke="black" d="M1175.26,-305.35C1111.08,-312.63 1037.37,-321 976.62,-327.9"/>
<polygon fill="black" stroke="black" points="976.14,-324.44 966.59,-329.04 976.93,-331.39 976.14,-324.44"/>
</g>
<!-- aws_route_table_association.private_rt_1c -->
<g id="node24" class="node">
<title>aws_route_table_association.private_rt_1c</title>
<polygon fill="none" stroke="black" points="1482,-198 1176,-198 1176,-162 1482,-162 1482,-198"/>
<text text-anchor="middle" x="1329" y="-176.3" font-family="sans-serif" font-size="14.00">aws_route_table_association.private_rt_1c</text>
</g>
<!-- aws_route_table_association.private_rt_1c&#45;&gt;aws_route_table.private_rt -->
<g id="edge33" class="edge">
<title>aws_route_table_association.private_rt_1c&#45;&gt;aws_route_table.private_rt</title>
<path fill="none" stroke="black" d="M1175.92,-181.12C1151.64,-186.1 1127.73,-194.23 1107,-207 1082.44,-222.13 1095.55,-245.85 1071,-261 1038.67,-280.95 998.5,-289.48 961.45,-292.45"/>
<polygon fill="black" stroke="black" points="960.84,-288.98 951.1,-293.14 961.31,-295.97 960.84,-288.98"/>
</g>
<!-- aws_route_table_association.private_rt_1c&#45;&gt;aws_subnet.private_subnet_1c -->
<g id="edge34" class="edge">
<title>aws_route_table_association.private_rt_1c&#45;&gt;aws_subnet.private_subnet_1c</title>
<path fill="none" stroke="black" d="M1175.91,-197.27C1111.57,-204.58 1037.55,-212.98 976.58,-219.91"/>
<polygon fill="black" stroke="black" points="976.07,-216.44 966.53,-221.05 976.86,-223.4 976.07,-216.44"/>
</g>
<!-- aws_route_table_association.public_rt_1a -->
<g id="node25" class="node">
<title>aws_route_table_association.public_rt_1a</title>
<polygon fill="none" stroke="black" points="1479,-576 1179,-576 1179,-540 1479,-540 1479,-576"/>
<text text-anchor="middle" x="1329" y="-554.3" font-family="sans-serif" font-size="14.00">aws_route_table_association.public_rt_1a</text>
</g>
<!-- aws_route_table_association.public_rt_1a&#45;&gt;aws_route_table.public_rt -->
<g id="edge35" class="edge">
<title>aws_route_table_association.public_rt_1a&#45;&gt;aws_route_table.public_rt</title>
<path fill="none" stroke="black" d="M1178.81,-557.46C1153.55,-552.53 1128.56,-544.28 1107,-531 1082.44,-515.87 1095.55,-492.15 1071,-477 1037.56,-456.36 995.73,-447.95 957.66,-445.27"/>
<polygon fill="black" stroke="black" points="957.73,-441.76 947.55,-444.68 957.33,-448.75 957.73,-441.76"/>
</g>
<!-- aws_route_table_association.public_rt_1a&#45;&gt;aws_subnet.public_subnet_1a -->
<g id="edge36" class="edge">
<title>aws_route_table_association.public_rt_1a&#45;&gt;aws_subnet.public_subnet_1a</title>
<path fill="none" stroke="black" d="M1178.85,-574.94C1112.94,-582.42 1036.41,-591.11 974.04,-598.2"/>
<polygon fill="black" stroke="black" points="973.3,-594.76 963.76,-599.36 974.09,-601.71 973.3,-594.76"/>
</g>
<!-- aws_route_table_association.public_rt_1c -->
<g id="node26" class="node">
<title>aws_route_table_association.public_rt_1c</title>
<polygon fill="none" stroke="black" points="1478.5,-414 1179.5,-414 1179.5,-378 1478.5,-378 1478.5,-414"/>
<text text-anchor="middle" x="1329" y="-392.3" font-family="sans-serif" font-size="14.00">aws_route_table_association.public_rt_1c</text>
</g>
<!-- aws_route_table_association.public_rt_1c&#45;&gt;aws_route_table.public_rt -->
<g id="edge37" class="edge">
<title>aws_route_table_association.public_rt_1c&#45;&gt;aws_route_table.public_rt</title>
<path fill="none" stroke="black" d="M1179.18,-412.9C1107.42,-421.05 1023.03,-430.63 958,-438.02"/>
<polygon fill="black" stroke="black" points="957.28,-434.58 947.74,-439.18 958.07,-441.53 957.28,-434.58"/>
</g>
<!-- aws_route_table_association.public_rt_1c&#45;&gt;aws_subnet.public_subnet_1c -->
<g id="edge38" class="edge">
<title>aws_route_table_association.public_rt_1c&#45;&gt;aws_subnet.public_subnet_1c</title>
<path fill="none" stroke="black" d="M1179.39,-396.43C1153.93,-401.34 1128.72,-409.62 1107,-423 1082.44,-438.13 1095.55,-461.85 1071,-477 1042.11,-494.83 1006.97,-503.53 973.39,-507.3"/>
<polygon fill="black" stroke="black" points="972.64,-503.86 963.03,-508.32 973.32,-510.83 972.64,-503.86"/>
</g>
<!-- aws_security_group.app_sg&#45;&gt;aws_vpc.vpc -->
<g id="edge39" class="edge">
<title>aws_security_group.app_sg&#45;&gt;aws_vpc.vpc</title>
<path fill="none" stroke="black" d="M747.8,-1054.36C707.49,-1053 663.45,-1044.03 632,-1017 560.4,-955.46 512.64,-653.28 499.3,-559.09"/>
<polygon fill="black" stroke="black" points="502.76,-558.57 497.91,-549.15 495.83,-559.54 502.76,-558.57"/>
</g>
<!-- aws_security_group.db_sg&#45;&gt;aws_vpc.vpc -->
<g id="edge40" class="edge">
<title>aws_security_group.db_sg&#45;&gt;aws_vpc.vpc</title>
<path fill="none" stroke="black" d="M751.89,-1108.88C710.34,-1108.11 664.24,-1099.45 632,-1071 553.13,-1001.39 509.73,-660.05 498.47,-559.14"/>
<polygon fill="black" stroke="black" points="501.94,-558.66 497.37,-549.1 494.98,-559.42 501.94,-558.66"/>
</g>
<!-- aws_security_group.opmng_sg&#45;&gt;aws_vpc.vpc -->
<g id="edge41" class="edge">
<title>aws_security_group.opmng_sg&#45;&gt;aws_vpc.vpc</title>
<path fill="none" stroke="black" d="M830.65,-836.89C770.76,-782.22 591.72,-618.81 522.88,-555.99"/>
<polygon fill="black" stroke="black" points="525.17,-553.34 515.43,-549.19 520.45,-558.51 525.17,-553.34"/>
</g>
<!-- aws_security_group.web_sg&#45;&gt;aws_vpc.vpc -->
<g id="edge42" class="edge">
<title>aws_security_group.web_sg&#45;&gt;aws_vpc.vpc</title>
<path fill="none" stroke="black" d="M746.86,-550.12C685.28,-545.43 609.25,-539.65 557.03,-535.68"/>
<polygon fill="black" stroke="black" points="557.15,-532.18 546.92,-534.91 556.62,-539.16 557.15,-532.18"/>
</g>
<!-- aws_security_group_rule.app_in_tcp3000 -->
<g id="node31" class="node">
<title>aws_security_group_rule.app_in_tcp3000</title>
<polygon fill="none" stroke="black" points="1480,-792 1178,-792 1178,-756 1480,-756 1480,-792"/>
<text text-anchor="middle" x="1329" y="-770.3" font-family="sans-serif" font-size="14.00">aws_security_group_rule.app_in_tcp3000</text>
</g>
<!-- aws_security_group_rule.app_in_tcp3000&#45;&gt;aws_security_group.app_sg -->
<g id="edge43" class="edge">
<title>aws_security_group_rule.app_in_tcp3000&#45;&gt;aws_security_group.app_sg</title>
<path fill="none" stroke="black" d="M1177.92,-766.53C1151.56,-771.94 1126.41,-782.42 1107,-801 1036.7,-868.3 1141.26,-949.65 1071,-1017 1043.14,-1043.71 1003.26,-1053.55 965.18,-1055.67"/>
<polygon fill="black" stroke="black" points="964.89,-1052.18 955.03,-1056.06 965.15,-1059.18 964.89,-1052.18"/>
</g>
<!-- aws_security_group_rule.app_in_tcp3000&#45;&gt;aws_security_group.web_sg -->
<g id="edge44" class="edge">
<title>aws_security_group_rule.app_in_tcp3000&#45;&gt;aws_security_group.web_sg</title>
<path fill="none" stroke="black" d="M1177.84,-780.46C1151.73,-775.07 1126.68,-764.86 1107,-747 1052.38,-697.44 1125.59,-634.6 1071,-585 1042.89,-559.46 1003.68,-549.68 966.22,-547.27"/>
<polygon fill="black" stroke="black" points="966.39,-543.77 956.23,-546.8 966.06,-550.77 966.39,-543.77"/>
</g>
<!-- aws_security_group_rule.app_out_http -->
<g id="node32" class="node">
<title>aws_security_group_rule.app_out_http</title>
<polygon fill="none" stroke="black" points="1470,-1062 1188,-1062 1188,-1026 1470,-1026 1470,-1062"/>
<text text-anchor="middle" x="1329" y="-1040.3" font-family="sans-serif" font-size="14.00">aws_security_group_rule.app_out_http</text>
</g>
<!-- aws_security_group_rule.app_out_http&#45;&gt;data.aws_prefix_list.s3_pl -->
<g id="edge45" class="edge">
<title>aws_security_group_rule.app_out_http&#45;&gt;data.aws_prefix_list.s3_pl</title>
<path fill="none" stroke="black" d="M1187.91,-1028.09C1114.56,-1019.76 1026.19,-1009.73 958.58,-1002.05"/>
<polygon fill="black" stroke="black" points="958.67,-998.53 948.34,-1000.88 957.88,-1005.49 958.67,-998.53"/>
</g>
<!-- aws_security_group_rule.app_out_http&#45;&gt;aws_security_group.app_sg -->
<g id="edge46" class="edge">
<title>aws_security_group_rule.app_out_http&#45;&gt;aws_security_group.app_sg</title>
<path fill="none" stroke="black" d="M1187.91,-1044C1116.9,-1044 1031.83,-1044 965.13,-1044"/>
<polygon fill="black" stroke="black" points="965.01,-1040.5 955.01,-1044 965.01,-1047.5 965.01,-1040.5"/>
</g>
<!-- aws_security_group_rule.app_out_https -->
<g id="node33" class="node">
<title>aws_security_group_rule.app_out_https</title>
<polygon fill="none" stroke="black" points="1474,-1008 1184,-1008 1184,-972 1474,-972 1474,-1008"/>
<text text-anchor="middle" x="1329" y="-986.3" font-family="sans-serif" font-size="14.00">aws_security_group_rule.app_out_https</text>
</g>
<!-- aws_security_group_rule.app_out_https&#45;&gt;data.aws_prefix_list.s3_pl -->
<g id="edge47" class="edge">
<title>aws_security_group_rule.app_out_https&#45;&gt;data.aws_prefix_list.s3_pl</title>
<path fill="none" stroke="black" d="M1183.72,-990C1111.07,-990 1024.56,-990 958.18,-990"/>
<polygon fill="black" stroke="black" points="958.12,-986.5 948.12,-990 958.12,-993.5 958.12,-986.5"/>
</g>
<!-- aws_security_group_rule.app_out_https&#45;&gt;aws_security_group.app_sg -->
<g id="edge48" class="edge">
<title>aws_security_group_rule.app_out_https&#45;&gt;aws_security_group.app_sg</title>
<path fill="none" stroke="black" d="M1183.72,-1006.39C1113.68,-1014.34 1030.77,-1023.76 965.42,-1031.18"/>
<polygon fill="black" stroke="black" points="964.63,-1027.74 955.09,-1032.35 965.42,-1034.7 964.63,-1027.74"/>
</g>
<!-- aws_security_group_rule.app_out_tcp3306 -->
<g id="node34" class="node">
<title>aws_security_group_rule.app_out_tcp3306</title>
<polygon fill="none" stroke="black" points="1484.5,-1116 1173.5,-1116 1173.5,-1080 1484.5,-1080 1484.5,-1116"/>
<text text-anchor="middle" x="1329" y="-1094.3" font-family="sans-serif" font-size="14.00">aws_security_group_rule.app_out_tcp3306</text>
</g>
<!-- aws_security_group_rule.app_out_tcp3306&#45;&gt;aws_security_group.app_sg -->
<g id="edge49" class="edge">
<title>aws_security_group_rule.app_out_tcp3306&#45;&gt;aws_security_group.app_sg</title>
<path fill="none" stroke="black" d="M1173.29,-1080.43C1105.49,-1072.73 1027.4,-1063.86 965.23,-1056.8"/>
<polygon fill="black" stroke="black" points="965.34,-1053.29 955,-1055.64 964.55,-1060.25 965.34,-1053.29"/>
</g>
<!-- aws_security_group_rule.app_out_tcp3306&#45;&gt;aws_security_group.db_sg -->
<g id="edge50" class="edge">
<title>aws_security_group_rule.app_out_tcp3306&#45;&gt;aws_security_group.db_sg</title>
<path fill="none" stroke="black" d="M1173.29,-1098C1104.08,-1098 1024.14,-1098 961.37,-1098"/>
<polygon fill="black" stroke="black" points="961.05,-1094.5 951.05,-1098 961.05,-1101.5 961.05,-1094.5"/>
</g>
<!-- aws_security_group_rule.db_in_tcp3306 -->
<g id="node35" class="node">
<title>aws_security_group_rule.db_in_tcp3306</title>
<polygon fill="none" stroke="black" points="1475.5,-1170 1182.5,-1170 1182.5,-1134 1475.5,-1134 1475.5,-1170"/>
<text text-anchor="middle" x="1329" y="-1148.3" font-family="sans-serif" font-size="14.00">aws_security_group_rule.db_in_tcp3306</text>
</g>
<!-- aws_security_group_rule.db_in_tcp3306&#45;&gt;aws_security_group.app_sg -->
<g id="edge51" class="edge">
<title>aws_security_group_rule.db_in_tcp3306&#45;&gt;aws_security_group.app_sg</title>
<path fill="none" stroke="black" d="M1182.28,-1152.12C1155.84,-1147.28 1129.54,-1138.89 1107,-1125 1082.44,-1109.87 1095.55,-1086.15 1071,-1071 1039.78,-1051.74 1001.26,-1043.12 965.3,-1039.88"/>
<polygon fill="black" stroke="black" points="965.47,-1036.38 955.23,-1039.1 964.93,-1043.36 965.47,-1036.38"/>
</g>
<!-- aws_security_group_rule.db_in_tcp3306&#45;&gt;aws_security_group.db_sg -->
<g id="edge52" class="edge">
<title>aws_security_group_rule.db_in_tcp3306&#45;&gt;aws_security_group.db_sg</title>
<path fill="none" stroke="black" d="M1182.43,-1135.47C1111.13,-1127.37 1026.75,-1117.79 961.17,-1110.34"/>
<polygon fill="black" stroke="black" points="961.56,-1106.86 951.23,-1109.21 960.77,-1113.82 961.56,-1106.86"/>
</g>
<!-- aws_security_group_rule.opmng_in_ssh -->
<g id="node36" class="node">
<title>aws_security_group_rule.opmng_in_ssh</title>
<polygon fill="none" stroke="black" points="1474,-900 1184,-900 1184,-864 1474,-864 1474,-900"/>
<text text-anchor="middle" x="1329" y="-878.3" font-family="sans-serif" font-size="14.00">aws_security_group_rule.opmng_in_ssh</text>
</g>
<!-- aws_security_group_rule.opmng_in_ssh&#45;&gt;aws_security_group.opmng_sg -->
<g id="edge53" class="edge">
<title>aws_security_group_rule.opmng_in_ssh&#45;&gt;aws_security_group.opmng_sg</title>
<path fill="none" stroke="black" d="M1183.72,-873.81C1117.7,-870.06 1040.24,-865.66 976.84,-862.06"/>
<polygon fill="black" stroke="black" points="976.97,-858.56 966.79,-861.49 976.57,-865.55 976.97,-858.56"/>
</g>
<!-- aws_security_group_rule.opmng_in_tcp3000 -->
<g id="node37" class="node">
<title>aws_security_group_rule.opmng_in_tcp3000</title>
<polygon fill="none" stroke="black" points="1491,-846 1167,-846 1167,-810 1491,-810 1491,-846"/>
<text text-anchor="middle" x="1329" y="-824.3" font-family="sans-serif" font-size="14.00">aws_security_group_rule.opmng_in_tcp3000</text>
</g>
<!-- aws_security_group_rule.opmng_in_tcp3000&#45;&gt;aws_security_group.opmng_sg -->
<g id="edge54" class="edge">
<title>aws_security_group_rule.opmng_in_tcp3000&#45;&gt;aws_security_group.opmng_sg</title>
<path fill="none" stroke="black" d="M1166.69,-837.16C1104.69,-840.68 1034.94,-844.64 976.93,-847.93"/>
<polygon fill="black" stroke="black" points="976.4,-844.46 966.61,-848.52 976.8,-851.45 976.4,-844.46"/>
</g>
<!-- aws_security_group_rule.opmng_out_http -->
<g id="node38" class="node">
<title>aws_security_group_rule.opmng_out_http</title>
<polygon fill="none" stroke="black" points="1481.5,-684 1176.5,-684 1176.5,-648 1481.5,-648 1481.5,-684"/>
<text text-anchor="middle" x="1329" y="-662.3" font-family="sans-serif" font-size="14.00">aws_security_group_rule.opmng_out_http</text>
</g>
<!-- aws_security_group_rule.opmng_out_http&#45;&gt;aws_security_group.opmng_sg -->
<g id="edge55" class="edge">
<title>aws_security_group_rule.opmng_out_http&#45;&gt;aws_security_group.opmng_sg</title>
<path fill="none" stroke="black" d="M1176.42,-675.43C1152.77,-679.49 1128.92,-685.14 1107,-693 1017.19,-725.2 926.33,-793.6 881.39,-830.38"/>
<polygon fill="black" stroke="black" points="879.02,-827.79 873.54,-836.86 883.48,-833.19 879.02,-827.79"/>
</g>
<!-- aws_security_group_rule.opmng_out_https -->
<g id="node39" class="node">
<title>aws_security_group_rule.opmng_out_https</title>
<polygon fill="none" stroke="black" points="1485,-954 1173,-954 1173,-918 1485,-918 1485,-954"/>
<text text-anchor="middle" x="1329" y="-932.3" font-family="sans-serif" font-size="14.00">aws_security_group_rule.opmng_out_https</text>
</g>
<!-- aws_security_group_rule.opmng_out_https&#45;&gt;aws_security_group.opmng_sg -->
<g id="edge56" class="edge">
<title>aws_security_group_rule.opmng_out_https&#45;&gt;aws_security_group.opmng_sg</title>
<path fill="none" stroke="black" d="M1172.9,-918.79C1150.73,-915.83 1128.26,-912.55 1107,-909 1050.73,-899.61 988.04,-886.34 938.96,-875.31"/>
<polygon fill="black" stroke="black" points="939.54,-871.85 929.01,-873.06 937.99,-878.68 939.54,-871.85"/>
</g>
<!-- aws_security_group_rule.web_in_http -->
<g id="node40" class="node">
<title>aws_security_group_rule.web_in_http</title>
<polygon fill="none" stroke="black" points="1466.5,-468 1191.5,-468 1191.5,-432 1466.5,-432 1466.5,-468"/>
<text text-anchor="middle" x="1329" y="-446.3" font-family="sans-serif" font-size="14.00">aws_security_group_rule.web_in_http</text>
</g>
<!-- aws_security_group_rule.web_in_http&#45;&gt;aws_security_group.web_sg -->
<g id="edge57" class="edge">
<title>aws_security_group_rule.web_in_http&#45;&gt;aws_security_group.web_sg</title>
<path fill="none" stroke="black" d="M1191.25,-448.37C1161.84,-452.89 1132.09,-461.54 1107,-477 1082.44,-492.13 1095.55,-515.85 1071,-531 1040,-550.13 1001.81,-558.76 966.07,-562.05"/>
<polygon fill="black" stroke="black" points="965.75,-558.57 956.06,-562.84 966.31,-565.54 965.75,-558.57"/>
</g>
<!-- aws_security_group_rule.web_in_https -->
<g id="node41" class="node">
<title>aws_security_group_rule.web_in_https</title>
<polygon fill="none" stroke="black" points="1470,-522 1188,-522 1188,-486 1470,-486 1470,-522"/>
<text text-anchor="middle" x="1329" y="-500.3" font-family="sans-serif" font-size="14.00">aws_security_group_rule.web_in_https</text>
</g>
<!-- aws_security_group_rule.web_in_https&#45;&gt;aws_security_group.web_sg -->
<g id="edge58" class="edge">
<title>aws_security_group_rule.web_in_https&#45;&gt;aws_security_group.web_sg</title>
<path fill="none" stroke="black" d="M1187.91,-519.91C1117.29,-527.93 1032.77,-537.53 966.23,-545.08"/>
<polygon fill="black" stroke="black" points="965.68,-541.62 956.13,-546.23 966.47,-548.58 965.68,-541.62"/>
</g>
<!-- aws_security_group_rule.web_out_tcp3000 -->
<g id="node42" class="node">
<title>aws_security_group_rule.web_out_tcp3000</title>
<polygon fill="none" stroke="black" points="1486,-738 1172,-738 1172,-702 1486,-702 1486,-738"/>
<text text-anchor="middle" x="1329" y="-716.3" font-family="sans-serif" font-size="14.00">aws_security_group_rule.web_out_tcp3000</text>
</g>
<!-- aws_security_group_rule.web_out_tcp3000&#45;&gt;aws_security_group.app_sg -->
<g id="edge59" class="edge">
<title>aws_security_group_rule.web_out_tcp3000&#45;&gt;aws_security_group.app_sg</title>
<path fill="none" stroke="black" d="M1171.77,-713.29C1147.55,-719.06 1124.73,-729.47 1107,-747 1020.93,-832.13 1157.01,-931.81 1071,-1017 1043.52,-1044.22 1003.61,-1054.14 965.41,-1056.18"/>
<polygon fill="black" stroke="black" points="965.08,-1052.69 955.21,-1056.55 965.33,-1059.69 965.08,-1052.69"/>
</g>
<!-- aws_security_group_rule.web_out_tcp3000&#45;&gt;aws_security_group.web_sg -->
<g id="edge60" class="edge">
<title>aws_security_group_rule.web_out_tcp3000&#45;&gt;aws_security_group.web_sg</title>
<path fill="none" stroke="black" d="M1171.86,-723.18C1148.27,-717.65 1125.63,-708.23 1107,-693 1067.83,-660.98 1110.15,-617.05 1071,-585 1042.07,-561.32 1003.36,-551.79 966.55,-549.06"/>
<polygon fill="black" stroke="black" points="966.42,-545.55 956.23,-548.46 966.01,-552.54 966.42,-545.55"/>
</g>
<!-- aws_ssm_parameter.database -->
<g id="node43" class="node">
<title>aws_ssm_parameter.database</title>
<polygon fill="none" stroke="black" points="2158.5,-252 1933.5,-252 1933.5,-216 2158.5,-216 2158.5,-252"/>
<text text-anchor="middle" x="2046" y="-230.3" font-family="sans-serif" font-size="14.00">aws_ssm_parameter.database</text>
</g>
<!-- aws_ssm_parameter.database&#45;&gt;aws_db_instance.mysql_standalone -->
<g id="edge61" class="edge">
<title>aws_ssm_parameter.database&#45;&gt;aws_db_instance.mysql_standalone</title>
<path fill="none" stroke="black" d="M1961.41,-215.96C1951.1,-213.22 1940.75,-210.22 1931,-207 1881,-190.5 1825.87,-166.12 1788.13,-148.43"/>
<polygon fill="black" stroke="black" points="1789.45,-145.18 1778.92,-144.08 1786.47,-151.51 1789.45,-145.18"/>
</g>
<!-- aws_ssm_parameter.host -->
<g id="node44" class="node">
<title>aws_ssm_parameter.host</title>
<polygon fill="none" stroke="black" points="2141.5,-198 1950.5,-198 1950.5,-162 2141.5,-162 2141.5,-198"/>
<text text-anchor="middle" x="2046" y="-176.3" font-family="sans-serif" font-size="14.00">aws_ssm_parameter.host</text>
</g>
<!-- aws_ssm_parameter.host&#45;&gt;aws_db_instance.mysql_standalone -->
<g id="edge62" class="edge">
<title>aws_ssm_parameter.host&#45;&gt;aws_db_instance.mysql_standalone</title>
<path fill="none" stroke="black" d="M1950.38,-163.14C1919.67,-157.66 1885.31,-151.54 1853.49,-145.87"/>
<polygon fill="black" stroke="black" points="1853.71,-142.35 1843.25,-144.05 1852.48,-149.25 1853.71,-142.35"/>
</g>
<!-- aws_ssm_parameter.password -->
<g id="node45" class="node">
<title>aws_ssm_parameter.password</title>
<polygon fill="none" stroke="black" points="2159.5,-144 1932.5,-144 1932.5,-108 2159.5,-108 2159.5,-144"/>
<text text-anchor="middle" x="2046" y="-122.3" font-family="sans-serif" font-size="14.00">aws_ssm_parameter.password</text>
</g>
<!-- aws_ssm_parameter.password&#45;&gt;aws_db_instance.mysql_standalone -->
<g id="edge63" class="edge">
<title>aws_ssm_parameter.password&#45;&gt;aws_db_instance.mysql_standalone</title>
<path fill="none" stroke="black" d="M1932.17,-126C1916.08,-126 1899.36,-126 1882.82,-126"/>
<polygon fill="black" stroke="black" points="1882.54,-122.5 1872.54,-126 1882.54,-129.5 1882.54,-122.5"/>
</g>
<!-- aws_ssm_parameter.port -->
<g id="node46" class="node">
<title>aws_ssm_parameter.port</title>
<polygon fill="none" stroke="black" points="2141,-90 1951,-90 1951,-54 2141,-54 2141,-90"/>
<text text-anchor="middle" x="2046" y="-68.3" font-family="sans-serif" font-size="14.00">aws_ssm_parameter.port</text>
</g>
<!-- aws_ssm_parameter.port&#45;&gt;aws_db_instance.mysql_standalone -->
<g id="edge64" class="edge">
<title>aws_ssm_parameter.port&#45;&gt;aws_db_instance.mysql_standalone</title>
<path fill="none" stroke="black" d="M1950.79,-88.79C1919.85,-94.3 1885.18,-100.48 1853.11,-106.2"/>
<polygon fill="black" stroke="black" points="1852.48,-102.76 1843.25,-107.96 1853.71,-109.65 1852.48,-102.76"/>
</g>
<!-- aws_ssm_parameter.username -->
<g id="node47" class="node">
<title>aws_ssm_parameter.username</title>
<polygon fill="none" stroke="black" points="2161,-36 1931,-36 1931,0 2161,0 2161,-36"/>
<text text-anchor="middle" x="2046" y="-14.3" font-family="sans-serif" font-size="14.00">aws_ssm_parameter.username</text>
</g>
<!-- aws_ssm_parameter.username&#45;&gt;aws_db_instance.mysql_standalone -->
<g id="edge65" class="edge">
<title>aws_ssm_parameter.username&#45;&gt;aws_db_instance.mysql_standalone</title>
<path fill="none" stroke="black" d="M1961.41,-36.04C1951.1,-38.78 1940.75,-41.78 1931,-45 1881,-61.5 1825.87,-85.88 1788.13,-103.57"/>
<polygon fill="black" stroke="black" points="1786.47,-100.49 1778.92,-107.92 1789.45,-106.82 1786.47,-100.49"/>
</g>
<!-- aws_subnet.private_subnet_1a&#45;&gt;aws_vpc.vpc -->
<g id="edge66" class="edge">
<title>aws_subnet.private_subnet_1a&#45;&gt;aws_vpc.vpc</title>
<path fill="none" stroke="black" d="M736.41,-340.21C701.23,-343.73 663.5,-351.92 632,-369 574.33,-400.27 530.75,-466.62 509.63,-503.98"/>
<polygon fill="black" stroke="black" points="506.52,-502.37 504.75,-512.81 512.65,-505.75 506.52,-502.37"/>
</g>
<!-- aws_subnet.private_subnet_1c&#45;&gt;aws_vpc.vpc -->
<g id="edge67" class="edge">
<title>aws_subnet.private_subnet_1c&#45;&gt;aws_vpc.vpc</title>
<path fill="none" stroke="black" d="M736.31,-227.72C700.25,-230.82 662.02,-239.89 632,-261 548.04,-320.04 512.72,-446.26 500.71,-502.7"/>
<polygon fill="black" stroke="black" points="497.24,-502.21 498.67,-512.71 504.1,-503.61 497.24,-502.21"/>
</g>
<!-- aws_subnet.public_subnet_1a&#45;&gt;aws_vpc.vpc -->
<g id="edge68" class="edge">
<title>aws_subnet.public_subnet_1a&#45;&gt;aws_vpc.vpc</title>
<path fill="none" stroke="black" d="M739.45,-603.79C704.7,-599.75 666.44,-593.79 632,-585 601.43,-577.2 568.51,-564.32 542.65,-553.09"/>
<polygon fill="black" stroke="black" points="544.03,-549.87 533.47,-549.04 541.2,-556.28 544.03,-549.87"/>
</g>
<!-- aws_subnet.public_subnet_1c&#45;&gt;aws_vpc.vpc -->
<g id="edge69" class="edge">
<title>aws_subnet.public_subnet_1c&#45;&gt;aws_vpc.vpc</title>
<path fill="none" stroke="black" d="M739.64,-512.43C679.3,-517.02 606.95,-522.52 556.75,-526.34"/>
<polygon fill="black" stroke="black" points="556.41,-522.86 546.7,-527.11 556.94,-529.84 556.41,-522.86"/>
</g>
</g>
</svg>
