<?xml version="1.0" encoding="UTF-8" standalone="no"?>
<!DOCTYPE svg PUBLIC "-//W3C//DTD SVG 1.1//EN"
 "http://www.w3.org/Graphics/SVG/1.1/DTD/svg11.dtd">
<!-- Generated by graphviz version 2.43.0 (0)
 -->
<!-- Title: G Pages: 1 -->
<svg width="1858pt" height="1270pt"
 viewBox="0.00 0.00 1858.00 1270.00" xmlns="http://www.w3.org/2000/svg" xmlns:xlink="http://www.w3.org/1999/xlink">
<g id="graph0" class="graph" transform="scale(1 1) rotate(0) translate(4 1266)">
<title>G</title>
<polygon fill="white" stroke="transparent" points="-4,4 -4,-1266 1854,-1266 1854,4 -4,4"/>
<!-- data.aws_ami.app -->
<g id="node1" class="node">
<title>data.aws_ami.app</title>
<polygon fill="none" stroke="black" points="922.5,-938 780.5,-938 780.5,-902 922.5,-902 922.5,-938"/>
<text text-anchor="middle" x="851.5" y="-916.3" font-family="sans-serif" font-size="14.00">data.aws_ami.app</text>
</g>
<!-- data.aws_iam_policy_document.ec2_assume_role -->
<g id="node2" class="node">
<title>data.aws_iam_policy_document.ec2_assume_role</title>
<polygon fill="none" stroke="black" points="357,-1154 0,-1154 0,-1118 357,-1118 357,-1154"/>
<text text-anchor="middle" x="178.5" y="-1132.3" font-family="sans-serif" font-size="14.00">data.aws_iam_policy_document.ec2_assume_role</text>
</g>
<!-- data.aws_prefix_list.s3_pl -->
<g id="node3" class="node">
<title>data.aws_prefix_list.s3_pl</title>
<polygon fill="none" stroke="black" points="948,-460 755,-460 755,-424 948,-424 948,-460"/>
<text text-anchor="middle" x="851.5" y="-438.3" font-family="sans-serif" font-size="14.00">data.aws_prefix_list.s3_pl</text>
</g>
<!-- aws_db_instance.mysql_standalone -->
<g id="node4" class="node">
<title>aws_db_instance.mysql_standalone</title>
<polygon fill="none" stroke="black" points="1850,-676 1587,-676 1587,-640 1850,-640 1850,-676"/>
<text text-anchor="middle" x="1718.5" y="-654.3" font-family="sans-serif" font-size="14.00">aws_db_instance.mysql_standalone</text>
</g>
<!-- aws_db_option_group.mysql_standalone_optiongroup -->
<g id="node5" class="node">
<title>aws_db_option_group.mysql_standalone_optiongroup</title>
<polygon fill="none" stroke="black" points="1522,-1100 1136,-1100 1136,-1064 1522,-1064 1522,-1100"/>
<text text-anchor="middle" x="1329" y="-1078.3" font-family="sans-serif" font-size="14.00">aws_db_option_group.mysql_standalone_optiongroup</text>
</g>
<!-- aws_db_instance.mysql_standalone&#45;&gt;aws_db_option_group.mysql_standalone_optiongroup -->
<g id="edge1" class="edge">
<title>aws_db_instance.mysql_standalone&#45;&gt;aws_db_option_group.mysql_standalone_optiongroup</title>
<path fill="none" stroke="black" d="M1716.09,-676.02C1710.04,-739.93 1680.35,-957.15 1551,-1055 1544.85,-1059.65 1538.32,-1063.74 1531.51,-1067.33"/>
<polygon fill="black" stroke="black" points="1529.52,-1064.4 1522.05,-1071.91 1532.57,-1070.7 1529.52,-1064.4"/>
</g>
<!-- aws_db_parameter_group.mysql_standalone_parametergroup -->
<g id="node6" class="node">
<title>aws_db_parameter_group.mysql_standalone_parametergroup</title>
<polygon fill="none" stroke="black" points="1551,-884 1107,-884 1107,-848 1551,-848 1551,-884"/>
<text text-anchor="middle" x="1329" y="-862.3" font-family="sans-serif" font-size="14.00">aws_db_parameter_group.mysql_standalone_parametergroup</text>
</g>
<!-- aws_db_instance.mysql_standalone&#45;&gt;aws_db_parameter_group.mysql_standalone_parametergroup -->
<g id="edge2" class="edge">
<title>aws_db_instance.mysql_standalone&#45;&gt;aws_db_parameter_group.mysql_standalone_parametergroup</title>
<path fill="none" stroke="black" d="M1707.14,-676C1684.38,-713.67 1626.02,-800.48 1551,-839 1547.57,-840.76 1544.08,-842.42 1540.53,-843.99"/>
<polygon fill="black" stroke="black" points="1538.9,-840.88 1531,-847.94 1541.58,-847.35 1538.9,-840.88"/>
</g>
<!-- aws_db_subnet_group.mysql_standalone_subnetgroup -->
<g id="node7" class="node">
<title>aws_db_subnet_group.mysql_standalone_subnetgroup</title>
<polygon fill="none" stroke="black" points="1526.5,-36 1131.5,-36 1131.5,0 1526.5,0 1526.5,-36"/>
<text text-anchor="middle" x="1329" y="-14.3" font-family="sans-serif" font-size="14.00">aws_db_subnet_group.mysql_standalone_subnetgroup</text>
</g>
<!-- aws_db_instance.mysql_standalone&#45;&gt;aws_db_subnet_group.mysql_standalone_subnetgroup -->
<g id="edge3" class="edge">
<title>aws_db_instance.mysql_standalone&#45;&gt;aws_db_subnet_group.mysql_standalone_subnetgroup</title>
<path fill="none" stroke="black" d="M1715.29,-639.95C1703.61,-547.39 1645.84,-127.11 1551,-45 1546.11,-40.77 1540.91,-36.97 1535.47,-33.57"/>
<polygon fill="black" stroke="black" points="1537.15,-30.5 1526.73,-28.56 1533.67,-36.57 1537.15,-30.5"/>
</g>
<!-- aws_security_group.db_sg -->
<g id="node25" class="node">
<title>aws_security_group.db_sg</title>
<polygon fill="none" stroke="black" points="951,-614 752,-614 752,-578 951,-578 951,-614"/>
<text text-anchor="middle" x="851.5" y="-592.3" font-family="sans-serif" font-size="14.00">aws_security_group.db_sg</text>
</g>
<!-- aws_db_instance.mysql_standalone&#45;&gt;aws_security_group.db_sg -->
<g id="edge4" class="edge">
<title>aws_db_instance.mysql_standalone&#45;&gt;aws_security_group.db_sg</title>
<path fill="none" stroke="black" d="M1586.73,-668.33C1461.84,-674.83 1269.17,-676.06 1107,-639 1089.93,-635.1 1087.87,-627.68 1071,-623 1035.97,-613.28 996.81,-607.06 961.42,-603.07"/>
<polygon fill="black" stroke="black" points="961.38,-599.55 951.06,-601.96 960.63,-606.51 961.38,-599.55"/>
</g>
<!-- random_string.db_password -->
<g id="node45" class="node">
<title>random_string.db_password</title>
<polygon fill="none" stroke="black" points="1435.5,-468 1222.5,-468 1222.5,-432 1435.5,-432 1435.5,-468"/>
<text text-anchor="middle" x="1329" y="-446.3" font-family="sans-serif" font-size="14.00">random_string.db_password</text>
</g>
<!-- aws_db_instance.mysql_standalone&#45;&gt;random_string.db_password -->
<g id="edge5" class="edge">
<title>aws_db_instance.mysql_standalone&#45;&gt;random_string.db_password</title>
<path fill="none" stroke="black" d="M1707.14,-640C1684.38,-602.33 1626.02,-515.52 1551,-477 1519.08,-460.61 1481.24,-452.56 1445.99,-448.95"/>
<polygon fill="black" stroke="black" points="1445.9,-445.43 1435.63,-448.01 1445.27,-452.4 1445.9,-445.43"/>
</g>
<!-- aws_subnet.private_subnet_1a -->
<g id="node40" class="node">
<title>aws_subnet.private_subnet_1a</title>
<polygon fill="none" stroke="black" points="966.5,-144 736.5,-144 736.5,-108 966.5,-108 966.5,-144"/>
<text text-anchor="middle" x="851.5" y="-122.3" font-family="sans-serif" font-size="14.00">aws_subnet.private_subnet_1a</text>
</g>
<!-- aws_db_subnet_group.mysql_standalone_subnetgroup&#45;&gt;aws_subnet.private_subnet_1a -->
<g id="edge6" class="edge">
<title>aws_db_subnet_group.mysql_standalone_subnetgroup&#45;&gt;aws_subnet.private_subnet_1a</title>
<path fill="none" stroke="black" d="M1131.38,-32.57C1122.91,-36.12 1114.73,-40.24 1107,-45 1082.44,-60.13 1095.55,-83.85 1071,-99 1043.07,-116.24 1009.29,-124.95 976.73,-128.91"/>
<polygon fill="black" stroke="black" points="976.25,-125.44 966.68,-129.99 976.99,-132.4 976.25,-125.44"/>
</g>
<!-- aws_subnet.private_subnet_1c -->
<g id="node41" class="node">
<title>aws_subnet.private_subnet_1c</title>
<polygon fill="none" stroke="black" points="966.5,-90 736.5,-90 736.5,-54 966.5,-54 966.5,-90"/>
<text text-anchor="middle" x="851.5" y="-68.3" font-family="sans-serif" font-size="14.00">aws_subnet.private_subnet_1c</text>
</g>
<!-- aws_db_subnet_group.mysql_standalone_subnetgroup&#45;&gt;aws_subnet.private_subnet_1c -->
<g id="edge7" class="edge">
<title>aws_db_subnet_group.mysql_standalone_subnetgroup&#45;&gt;aws_subnet.private_subnet_1c</title>
<path fill="none" stroke="black" d="M1169.33,-36.02C1106.66,-43.14 1035.71,-51.19 976.86,-57.88"/>
<polygon fill="black" stroke="black" points="976.31,-54.42 966.77,-59.02 977.1,-61.37 976.31,-54.42"/>
</g>
<!-- aws_iam_instance_profile.app_ec2_profile -->
<g id="node8" class="node">
<title>aws_iam_instance_profile.app_ec2_profile</title>
<polygon fill="none" stroke="black" points="1003.5,-992 699.5,-992 699.5,-956 1003.5,-956 1003.5,-992"/>
<text text-anchor="middle" x="851.5" y="-970.3" font-family="sans-serif" font-size="14.00">aws_iam_instance_profile.app_ec2_profile</text>
</g>
<!-- aws_iam_role.app_iam_role -->
<g id="node9" class="node">
<title>aws_iam_role.app_iam_role</title>
<polygon fill="none" stroke="black" points="596,-1154 393,-1154 393,-1118 596,-1118 596,-1154"/>
<text text-anchor="middle" x="494.5" y="-1132.3" font-family="sans-serif" font-size="14.00">aws_iam_role.app_iam_role</text>
</g>
<!-- aws_iam_instance_profile.app_ec2_profile&#45;&gt;aws_iam_role.app_iam_role -->
<g id="edge8" class="edge">
<title>aws_iam_instance_profile.app_ec2_profile&#45;&gt;aws_iam_role.app_iam_role</title>
<path fill="none" stroke="black" d="M699.25,-979.54C675.98,-984.08 652.81,-990.91 632,-1001 580.74,-1025.85 537.08,-1077.7 513.72,-1109.42"/>
<polygon fill="black" stroke="black" points="510.69,-1107.63 507.68,-1117.79 516.37,-1111.73 510.69,-1107.63"/>
</g>
<!-- aws_iam_role.app_iam_role&#45;&gt;data.aws_iam_policy_document.ec2_assume_role -->
<g id="edge9" class="edge">
<title>aws_iam_role.app_iam_role&#45;&gt;data.aws_iam_policy_document.ec2_assume_role</title>
<path fill="none" stroke="black" d="M392.85,-1136C384.54,-1136 375.98,-1136 367.29,-1136"/>
<polygon fill="black" stroke="black" points="367.03,-1132.5 357.03,-1136 367.03,-1139.5 367.03,-1132.5"/>
</g>
<!-- aws_iam_role_policy_attachment.app_iam_role_ec2_readonly -->
<g id="node10" class="node">
<title>aws_iam_role_policy_attachment.app_iam_role_ec2_readonly</title>
<polygon fill="none" stroke="black" points="1069,-1100 634,-1100 634,-1064 1069,-1064 1069,-1100"/>
<text text-anchor="middle" x="851.5" y="-1078.3" font-family="sans-serif" font-size="14.00">aws_iam_role_policy_attachment.app_iam_role_ec2_readonly</text>
</g>
<!-- aws_iam_role_policy_attachment.app_iam_role_ec2_readonly&#45;&gt;aws_iam_role.app_iam_role -->
<g id="edge10" class="edge">
<title>aws_iam_role_policy_attachment.app_iam_role_ec2_readonly&#45;&gt;aws_iam_role.app_iam_role</title>
<path fill="none" stroke="black" d="M693.36,-1100.03C672.69,-1102.81 651.81,-1105.82 632,-1109 618.85,-1111.11 605.04,-1113.56 591.45,-1116.11"/>
<polygon fill="black" stroke="black" points="590.79,-1112.68 581.62,-1117.98 592.09,-1119.55 590.79,-1112.68"/>
</g>
<!-- aws_iam_role_policy_attachment.app_iam_role_s3_readonly -->
<g id="node11" class="node">
<title>aws_iam_role_policy_attachment.app_iam_role_s3_readonly</title>
<polygon fill="none" stroke="black" points="1065,-1262 638,-1262 638,-1226 1065,-1226 1065,-1262"/>
<text text-anchor="middle" x="851.5" y="-1240.3" font-family="sans-serif" font-size="14.00">aws_iam_role_policy_attachment.app_iam_role_s3_readonly</text>
</g>
<!-- aws_iam_role_policy_attachment.app_iam_role_s3_readonly&#45;&gt;aws_iam_role.app_iam_role -->
<g id="edge11" class="edge">
<title>aws_iam_role_policy_attachment.app_iam_role_s3_readonly&#45;&gt;aws_iam_role.app_iam_role</title>
<path fill="none" stroke="black" d="M662.8,-1225.99C652.28,-1223.38 641.95,-1220.4 632,-1217 593.41,-1203.81 553.82,-1178.81 527.29,-1160.05"/>
<polygon fill="black" stroke="black" points="529.31,-1157.19 519.15,-1154.2 525.23,-1162.88 529.31,-1157.19"/>
</g>
<!-- aws_iam_role_policy_attachment.app_iam_role_ssm_readonly -->
<g id="node12" class="node">
<title>aws_iam_role_policy_attachment.app_iam_role_ssm_readonly</title>
<polygon fill="none" stroke="black" points="1071,-1208 632,-1208 632,-1172 1071,-1172 1071,-1208"/>
<text text-anchor="middle" x="851.5" y="-1186.3" font-family="sans-serif" font-size="14.00">aws_iam_role_policy_attachment.app_iam_role_ssm_readonly</text>
</g>
<!-- aws_iam_role_policy_attachment.app_iam_role_ssm_readonly&#45;&gt;aws_iam_role.app_iam_role -->
<g id="edge12" class="edge">
<title>aws_iam_role_policy_attachment.app_iam_role_ssm_readonly&#45;&gt;aws_iam_role.app_iam_role</title>
<path fill="none" stroke="black" d="M693.36,-1171.97C672.69,-1169.19 651.81,-1166.18 632,-1163 618.85,-1160.89 605.04,-1158.44 591.45,-1155.89"/>
<polygon fill="black" stroke="black" points="592.09,-1152.45 581.62,-1154.02 590.79,-1159.32 592.09,-1152.45"/>
</g>
<!-- aws_iam_role_policy_attachment.app_iam_ssm_managed -->
<g id="node13" class="node">
<title>aws_iam_role_policy_attachment.app_iam_ssm_managed</title>
<polygon fill="none" stroke="black" points="1057.5,-1154 645.5,-1154 645.5,-1118 1057.5,-1118 1057.5,-1154"/>
<text text-anchor="middle" x="851.5" y="-1132.3" font-family="sans-serif" font-size="14.00">aws_iam_role_policy_attachment.app_iam_ssm_managed</text>
</g>
<!-- aws_iam_role_policy_attachment.app_iam_ssm_managed&#45;&gt;aws_iam_role.app_iam_role -->
<g id="edge13" class="edge">
<title>aws_iam_role_policy_attachment.app_iam_ssm_managed&#45;&gt;aws_iam_role.app_iam_role</title>
<path fill="none" stroke="black" d="M645.28,-1136C632.09,-1136 619.1,-1136 606.63,-1136"/>
<polygon fill="black" stroke="black" points="606.28,-1132.5 596.28,-1136 606.28,-1139.5 606.28,-1132.5"/>
</g>
<!-- aws_instance.app_server -->
<g id="node14" class="node">
<title>aws_instance.app_server</title>
<polygon fill="none" stroke="black" points="1424.5,-938 1233.5,-938 1233.5,-902 1424.5,-902 1424.5,-938"/>
<text text-anchor="middle" x="1329" y="-916.3" font-family="sans-serif" font-size="14.00">aws_instance.app_server</text>
</g>
<!-- aws_instance.app_server&#45;&gt;data.aws_ami.app -->
<g id="edge14" class="edge">
<title>aws_instance.app_server&#45;&gt;data.aws_ami.app</title>
<path fill="none" stroke="black" d="M1233.49,-920C1145.48,-920 1015.72,-920 932.66,-920"/>
<polygon fill="black" stroke="black" points="932.51,-916.5 922.51,-920 932.51,-923.5 932.51,-916.5"/>
</g>
<!-- aws_instance.app_server&#45;&gt;aws_iam_instance_profile.app_ec2_profile -->
<g id="edge15" class="edge">
<title>aws_instance.app_server&#45;&gt;aws_iam_instance_profile.app_ec2_profile</title>
<path fill="none" stroke="black" d="M1233.49,-930.73C1170.89,-937.84 1087.17,-947.35 1014.15,-955.64"/>
<polygon fill="black" stroke="black" points="1013.46,-952.2 1003.92,-956.8 1014.25,-959.15 1013.46,-952.2"/>
</g>
<!-- aws_key_pair.keypair -->
<g id="node16" class="node">
<title>aws_key_pair.keypair</title>
<polygon fill="none" stroke="black" points="932.5,-884 770.5,-884 770.5,-848 932.5,-848 932.5,-884"/>
<text text-anchor="middle" x="851.5" y="-862.3" font-family="sans-serif" font-size="14.00">aws_key_pair.keypair</text>
</g>
<!-- aws_instance.app_server&#45;&gt;aws_key_pair.keypair -->
<g id="edge16" class="edge">
<title>aws_instance.app_server&#45;&gt;aws_key_pair.keypair</title>
<path fill="none" stroke="black" d="M1233.49,-909.27C1148.9,-899.66 1025.76,-885.68 942.56,-876.23"/>
<polygon fill="black" stroke="black" points="942.95,-872.75 932.62,-875.1 942.16,-879.7 942.95,-872.75"/>
</g>
<!-- aws_security_group.app_sg -->
<g id="node24" class="node">
<title>aws_security_group.app_sg</title>
<polygon fill="none" stroke="black" points="955,-541 748,-541 748,-505 955,-505 955,-541"/>
<text text-anchor="middle" x="851.5" y="-519.3" font-family="sans-serif" font-size="14.00">aws_security_group.app_sg</text>
</g>
<!-- aws_instance.app_server&#45;&gt;aws_security_group.app_sg -->
<g id="edge17" class="edge">
<title>aws_instance.app_server&#45;&gt;aws_security_group.app_sg</title>
<path fill="none" stroke="black" d="M1233.38,-933.18C1189.17,-933.8 1139.28,-925.63 1107,-893 1005.11,-789.99 1168.37,-676.29 1071,-569 1044.39,-539.68 1004.24,-526.44 965.59,-521.1"/>
<polygon fill="black" stroke="black" points="965.62,-517.58 955.27,-519.86 964.78,-524.53 965.62,-517.58"/>
</g>
<!-- aws_security_group.opmng_sg -->
<g id="node26" class="node">
<title>aws_security_group.opmng_sg</title>
<polygon fill="none" stroke="black" points="966.5,-1046 736.5,-1046 736.5,-1010 966.5,-1010 966.5,-1046"/>
<text text-anchor="middle" x="851.5" y="-1024.3" font-family="sans-serif" font-size="14.00">aws_security_group.opmng_sg</text>
</g>
<!-- aws_instance.app_server&#45;&gt;aws_security_group.opmng_sg -->
<g id="edge18" class="edge">
<title>aws_instance.app_server&#45;&gt;aws_security_group.opmng_sg</title>
<path fill="none" stroke="black" d="M1233.25,-914.4C1191.81,-916.11 1144.27,-924.04 1107,-947 1082.44,-962.13 1095.55,-985.85 1071,-1001 1043.07,-1018.24 1009.29,-1026.95 976.73,-1030.91"/>
<polygon fill="black" stroke="black" points="976.25,-1027.44 966.68,-1031.99 976.99,-1034.4 976.25,-1027.44"/>
</g>
<!-- aws_subnet.public_subnet_1a -->
<g id="node42" class="node">
<title>aws_subnet.public_subnet_1a</title>
<polygon fill="none" stroke="black" points="963.5,-830 739.5,-830 739.5,-794 963.5,-794 963.5,-830"/>
<text text-anchor="middle" x="851.5" y="-808.3" font-family="sans-serif" font-size="14.00">aws_subnet.public_subnet_1a</text>
</g>
<!-- aws_instance.app_server&#45;&gt;aws_subnet.public_subnet_1a -->
<g id="edge19" class="edge">
<title>aws_instance.app_server&#45;&gt;aws_subnet.public_subnet_1a</title>
<path fill="none" stroke="black" d="M1233.25,-925.6C1191.81,-923.89 1144.27,-915.96 1107,-893 1082.44,-877.87 1095.55,-854.15 1071,-839 1042.26,-821.26 1007.33,-812.56 973.9,-808.75"/>
<polygon fill="black" stroke="black" points="973.88,-805.24 963.59,-807.73 973.19,-812.2 973.88,-805.24"/>
</g>
<!-- aws_internet_gateway.igw -->
<g id="node15" class="node">
<title>aws_internet_gateway.igw</title>
<polygon fill="none" stroke="black" points="949.5,-668 753.5,-668 753.5,-632 949.5,-632 949.5,-668"/>
<text text-anchor="middle" x="851.5" y="-646.3" font-family="sans-serif" font-size="14.00">aws_internet_gateway.igw</text>
</g>
<!-- aws_vpc.vpc -->
<g id="node44" class="node">
<title>aws_vpc.vpc</title>
<polygon fill="none" stroke="black" points="546.5,-614 442.5,-614 442.5,-578 546.5,-578 546.5,-614"/>
<text text-anchor="middle" x="494.5" y="-592.3" font-family="sans-serif" font-size="14.00">aws_vpc.vpc</text>
</g>
<!-- aws_internet_gateway.igw&#45;&gt;aws_vpc.vpc -->
<g id="edge20" class="edge">
<title>aws_internet_gateway.igw&#45;&gt;aws_vpc.vpc</title>
<path fill="none" stroke="black" d="M753.48,-639.54C715.5,-635.04 671.63,-629.36 632,-623 607.16,-619.01 579.95,-613.8 556.4,-609.03"/>
<polygon fill="black" stroke="black" points="557.05,-605.59 546.55,-607.01 555.64,-612.44 557.05,-605.59"/>
</g>
<!-- aws_route.public_rt_igw -->
<g id="node17" class="node">
<title>aws_route.public_rt_igw</title>
<polygon fill="none" stroke="black" points="1420,-722 1238,-722 1238,-686 1420,-686 1420,-722"/>
<text text-anchor="middle" x="1329" y="-700.3" font-family="sans-serif" font-size="14.00">aws_route.public_rt_igw</text>
</g>
<!-- aws_route.public_rt_igw&#45;&gt;aws_internet_gateway.igw -->
<g id="edge21" class="edge">
<title>aws_route.public_rt_igw&#45;&gt;aws_internet_gateway.igw</title>
<path fill="none" stroke="black" d="M1237.72,-693.75C1158.65,-684.77 1043.61,-671.7 959.84,-662.19"/>
<polygon fill="black" stroke="black" points="960.12,-658.7 949.79,-661.05 959.33,-665.65 960.12,-658.7"/>
</g>
<!-- aws_route_table.public_rt -->
<g id="node19" class="node">
<title>aws_route_table.public_rt</title>
<polygon fill="none" stroke="black" points="947.5,-722 755.5,-722 755.5,-686 947.5,-686 947.5,-722"/>
<text text-anchor="middle" x="851.5" y="-700.3" font-family="sans-serif" font-size="14.00">aws_route_table.public_rt</text>
</g>
<!-- aws_route.public_rt_igw&#45;&gt;aws_route_table.public_rt -->
<g id="edge22" class="edge">
<title>aws_route.public_rt_igw&#45;&gt;aws_route_table.public_rt</title>
<path fill="none" stroke="black" d="M1237.72,-704C1158,-704 1041.72,-704 957.79,-704"/>
<polygon fill="black" stroke="black" points="957.72,-700.5 947.72,-704 957.72,-707.5 957.72,-700.5"/>
</g>
<!-- aws_route_table.private_rt -->
<g id="node18" class="node">
<title>aws_route_table.private_rt</title>
<polygon fill="none" stroke="black" points="951,-198 752,-198 752,-162 951,-162 951,-198"/>
<text text-anchor="middle" x="851.5" y="-176.3" font-family="sans-serif" font-size="14.00">aws_route_table.private_rt</text>
</g>
<!-- aws_route_table.private_rt&#45;&gt;aws_vpc.vpc -->
<g id="edge23" class="edge">
<title>aws_route_table.private_rt&#45;&gt;aws_vpc.vpc</title>
<path fill="none" stroke="black" d="M752.04,-198.05C710.64,-209.94 664.62,-229.4 632,-261 541.59,-348.56 509.08,-504.33 499.23,-567.85"/>
<polygon fill="black" stroke="black" points="495.74,-567.52 497.74,-577.92 502.66,-568.54 495.74,-567.52"/>
</g>
<!-- aws_route_table.public_rt&#45;&gt;aws_vpc.vpc -->
<g id="edge24" class="edge">
<title>aws_route_table.public_rt&#45;&gt;aws_vpc.vpc</title>
<path fill="none" stroke="black" d="M755.29,-700.77C716.26,-697.27 671.15,-690.38 632,-677 593.41,-663.81 553.82,-638.81 527.29,-620.05"/>
<polygon fill="black" stroke="black" points="529.31,-617.19 519.15,-614.2 525.23,-622.88 529.31,-617.19"/>
</g>
<!-- aws_route_table_association.private_rt_1a -->
<g id="node20" class="node">
<title>aws_route_table_association.private_rt_1a</title>
<polygon fill="none" stroke="black" points="1482.5,-144 1175.5,-144 1175.5,-108 1482.5,-108 1482.5,-144"/>
<text text-anchor="middle" x="1329" y="-122.3" font-family="sans-serif" font-size="14.00">aws_route_table_association.private_rt_1a</text>
</g>
<!-- aws_route_table_association.private_rt_1a&#45;&gt;aws_route_table.private_rt -->
<g id="edge25" class="edge">
<title>aws_route_table_association.private_rt_1a&#45;&gt;aws_route_table.private_rt</title>
<path fill="none" stroke="black" d="M1175.26,-143.35C1105.53,-151.26 1024.57,-160.46 961.17,-167.66"/>
<polygon fill="black" stroke="black" points="960.69,-164.19 951.15,-168.8 961.48,-171.15 960.69,-164.19"/>
</g>
<!-- aws_route_table_association.private_rt_1a&#45;&gt;aws_subnet.private_subnet_1a -->
<g id="edge26" class="edge">
<title>aws_route_table_association.private_rt_1a&#45;&gt;aws_subnet.private_subnet_1a</title>
<path fill="none" stroke="black" d="M1175.26,-126C1111.08,-126 1037.37,-126 976.62,-126"/>
<polygon fill="black" stroke="black" points="976.59,-122.5 966.59,-126 976.59,-129.5 976.59,-122.5"/>
</g>
<!-- aws_route_table_association.private_rt_1c -->
<g id="node21" class="node">
<title>aws_route_table_association.private_rt_1c</title>
<polygon fill="none" stroke="black" points="1482,-90 1176,-90 1176,-54 1482,-54 1482,-90"/>
<text text-anchor="middle" x="1329" y="-68.3" font-family="sans-serif" font-size="14.00">aws_route_table_association.private_rt_1c</text>
</g>
<!-- aws_route_table_association.private_rt_1c&#45;&gt;aws_route_table.private_rt -->
<g id="edge27" class="edge">
<title>aws_route_table_association.private_rt_1c&#45;&gt;aws_route_table.private_rt</title>
<path fill="none" stroke="black" d="M1175.92,-73.12C1151.64,-78.1 1127.73,-86.23 1107,-99 1082.44,-114.13 1095.55,-137.85 1071,-153 1038.67,-172.95 998.5,-181.48 961.45,-184.45"/>
<polygon fill="black" stroke="black" points="960.84,-180.98 951.1,-185.14 961.31,-187.97 960.84,-180.98"/>
</g>
<!-- aws_route_table_association.private_rt_1c&#45;&gt;aws_subnet.private_subnet_1c -->
<g id="edge28" class="edge">
<title>aws_route_table_association.private_rt_1c&#45;&gt;aws_subnet.private_subnet_1c</title>
<path fill="none" stroke="black" d="M1175.91,-72C1111.57,-72 1037.55,-72 976.58,-72"/>
<polygon fill="black" stroke="black" points="976.53,-68.5 966.53,-72 976.53,-75.5 976.53,-68.5"/>
</g>
<!-- aws_route_table_association.public_rt_1a -->
<g id="node22" class="node">
<title>aws_route_table_association.public_rt_1a</title>
<polygon fill="none" stroke="black" points="1479,-830 1179,-830 1179,-794 1479,-794 1479,-830"/>
<text text-anchor="middle" x="1329" y="-808.3" font-family="sans-serif" font-size="14.00">aws_route_table_association.public_rt_1a</text>
</g>
<!-- aws_route_table_association.public_rt_1a&#45;&gt;aws_route_table.public_rt -->
<g id="edge29" class="edge">
<title>aws_route_table_association.public_rt_1a&#45;&gt;aws_route_table.public_rt</title>
<path fill="none" stroke="black" d="M1178.81,-811.46C1153.55,-806.53 1128.56,-798.28 1107,-785 1082.44,-769.87 1095.55,-746.15 1071,-731 1037.56,-710.36 995.73,-701.95 957.66,-699.27"/>
<polygon fill="black" stroke="black" points="957.73,-695.76 947.55,-698.68 957.33,-702.75 957.73,-695.76"/>
</g>
<!-- aws_route_table_association.public_rt_1a&#45;&gt;aws_subnet.public_subnet_1a -->
<g id="edge30" class="edge">
<title>aws_route_table_association.public_rt_1a&#45;&gt;aws_subnet.public_subnet_1a</title>
<path fill="none" stroke="black" d="M1178.85,-812C1112.94,-812 1036.41,-812 974.04,-812"/>
<polygon fill="black" stroke="black" points="973.76,-808.5 963.76,-812 973.76,-815.5 973.76,-808.5"/>
</g>
<!-- aws_route_table_association.public_rt_1c -->
<g id="node23" class="node">
<title>aws_route_table_association.public_rt_1c</title>
<polygon fill="none" stroke="black" points="1478.5,-776 1179.5,-776 1179.5,-740 1478.5,-740 1478.5,-776"/>
<text text-anchor="middle" x="1329" y="-754.3" font-family="sans-serif" font-size="14.00">aws_route_table_association.public_rt_1c</text>
</g>
<!-- aws_route_table_association.public_rt_1c&#45;&gt;aws_route_table.public_rt -->
<g id="edge31" class="edge">
<title>aws_route_table_association.public_rt_1c&#45;&gt;aws_route_table.public_rt</title>
<path fill="none" stroke="black" d="M1179.18,-741.1C1107.42,-732.95 1023.03,-723.37 958,-715.98"/>
<polygon fill="black" stroke="black" points="958.07,-712.47 947.74,-714.82 957.28,-719.42 958.07,-712.47"/>
</g>
<!-- aws_subnet.public_subnet_1c -->
<g id="node43" class="node">
<title>aws_subnet.public_subnet_1c</title>
<polygon fill="none" stroke="black" points="963,-776 740,-776 740,-740 963,-740 963,-776"/>
<text text-anchor="middle" x="851.5" y="-754.3" font-family="sans-serif" font-size="14.00">aws_subnet.public_subnet_1c</text>
</g>
<!-- aws_route_table_association.public_rt_1c&#45;&gt;aws_subnet.public_subnet_1c -->
<g id="edge32" class="edge">
<title>aws_route_table_association.public_rt_1c&#45;&gt;aws_subnet.public_subnet_1c</title>
<path fill="none" stroke="black" d="M1179.18,-758C1112.99,-758 1036.05,-758 973.47,-758"/>
<polygon fill="black" stroke="black" points="973.16,-754.5 963.16,-758 973.16,-761.5 973.16,-754.5"/>
</g>
<!-- aws_security_group.app_sg&#45;&gt;aws_vpc.vpc -->
<g id="edge33" class="edge">
<title>aws_security_group.app_sg&#45;&gt;aws_vpc.vpc</title>
<path fill="none" stroke="black" d="M762.75,-541.04C698.63,-554.23 613.32,-571.77 556.52,-583.45"/>
<polygon fill="black" stroke="black" points="555.69,-580.05 546.6,-585.49 557.1,-586.91 555.69,-580.05"/>
</g>
<!-- aws_security_group.db_sg&#45;&gt;aws_vpc.vpc -->
<g id="edge34" class="edge">
<title>aws_security_group.db_sg&#45;&gt;aws_vpc.vpc</title>
<path fill="none" stroke="black" d="M751.61,-596C689.17,-596 610.45,-596 556.88,-596"/>
<polygon fill="black" stroke="black" points="556.85,-592.5 546.85,-596 556.85,-599.5 556.85,-592.5"/>
</g>
<!-- aws_security_group.opmng_sg&#45;&gt;aws_vpc.vpc -->
<g id="edge35" class="edge">
<title>aws_security_group.opmng_sg&#45;&gt;aws_vpc.vpc</title>
<path fill="none" stroke="black" d="M736.43,-1036.88C699.65,-1034.14 660.95,-1024.62 632,-1001 513.09,-903.99 497.22,-699.37 495.51,-624.35"/>
<polygon fill="black" stroke="black" points="499.01,-624.19 495.35,-614.25 492.01,-624.3 499.01,-624.19"/>
</g>
<!-- aws_security_group.web_sg -->
<g id="node27" class="node">
<title>aws_security_group.web_sg</title>
<polygon fill="none" stroke="black" points="956,-306 747,-306 747,-270 956,-270 956,-306"/>
<text text-anchor="middle" x="851.5" y="-284.3" font-family="sans-serif" font-size="14.00">aws_security_group.web_sg</text>
</g>
<!-- aws_security_group.web_sg&#45;&gt;aws_vpc.vpc -->
<g id="edge36" class="edge">
<title>aws_security_group.web_sg&#45;&gt;aws_vpc.vpc</title>
<path fill="none" stroke="black" d="M808.67,-306.13C762.19,-327.62 686.49,-366.67 632,-415 579.48,-461.59 533.87,-531.13 511.05,-569.02"/>
<polygon fill="black" stroke="black" points="507.85,-567.55 505.75,-577.94 513.87,-571.13 507.85,-567.55"/>
</g>
<!-- aws_security_group_rule.app_in_tcp3000 -->
<g id="node28" class="node">
<title>aws_security_group_rule.app_in_tcp3000</title>
<polygon fill="none" stroke="black" points="1480,-306 1178,-306 1178,-270 1480,-270 1480,-306"/>
<text text-anchor="middle" x="1329" y="-284.3" font-family="sans-serif" font-size="14.00">aws_security_group_rule.app_in_tcp3000</text>
</g>
<!-- aws_security_group_rule.app_in_tcp3000&#45;&gt;aws_security_group.app_sg -->
<g id="edge37" class="edge">
<title>aws_security_group_rule.app_in_tcp3000&#45;&gt;aws_security_group.app_sg</title>
<path fill="none" stroke="black" d="M1177.72,-281.78C1151.69,-287.16 1126.71,-297.32 1107,-315 1054.69,-361.95 1120.39,-418.98 1071,-469 1043.28,-497.08 1003.43,-511.4 965.33,-518.46"/>
<polygon fill="black" stroke="black" points="964.45,-515.06 955.17,-520.19 965.62,-521.97 964.45,-515.06"/>
</g>
<!-- aws_security_group_rule.app_in_tcp3000&#45;&gt;aws_security_group.web_sg -->
<g id="edge38" class="edge">
<title>aws_security_group_rule.app_in_tcp3000&#45;&gt;aws_security_group.web_sg</title>
<path fill="none" stroke="black" d="M1177.88,-288C1109.42,-288 1029.69,-288 966.29,-288"/>
<polygon fill="black" stroke="black" points="966.26,-284.5 956.26,-288 966.26,-291.5 966.26,-284.5"/>
</g>
<!-- aws_security_group_rule.app_out_http -->
<g id="node29" class="node">
<title>aws_security_group_rule.app_out_http</title>
<polygon fill="none" stroke="black" points="1470,-522 1188,-522 1188,-486 1470,-486 1470,-522"/>
<text text-anchor="middle" x="1329" y="-500.3" font-family="sans-serif" font-size="14.00">aws_security_group_rule.app_out_http</text>
</g>
<!-- aws_security_group_rule.app_out_http&#45;&gt;data.aws_prefix_list.s3_pl -->
<g id="edge39" class="edge">
<title>aws_security_group_rule.app_out_http&#45;&gt;data.aws_prefix_list.s3_pl</title>
<path fill="none" stroke="black" d="M1187.96,-487.22C1161.08,-483.9 1133.16,-480.4 1107,-477 1058.07,-470.65 1003.9,-463.25 958.16,-456.89"/>
<polygon fill="black" stroke="black" points="958.62,-453.42 948.23,-455.51 957.65,-460.36 958.62,-453.42"/>
</g>
<!-- aws_security_group_rule.app_out_http&#45;&gt;aws_security_group.app_sg -->
<g id="edge40" class="edge">
<title>aws_security_group_rule.app_out_http&#45;&gt;aws_security_group.app_sg</title>
<path fill="none" stroke="black" d="M1187.91,-509.6C1116.9,-512.44 1031.83,-515.83 965.13,-518.5"/>
<polygon fill="black" stroke="black" points="964.86,-515.01 955.01,-518.9 965.14,-522 964.86,-515.01"/>
</g>
<!-- aws_security_group_rule.app_out_https -->
<g id="node30" class="node">
<title>aws_security_group_rule.app_out_https</title>
<polygon fill="none" stroke="black" points="1474,-414 1184,-414 1184,-378 1474,-378 1474,-414"/>
<text text-anchor="middle" x="1329" y="-392.3" font-family="sans-serif" font-size="14.00">aws_security_group_rule.app_out_https</text>
</g>
<!-- aws_security_group_rule.app_out_https&#45;&gt;data.aws_prefix_list.s3_pl -->
<g id="edge41" class="edge">
<title>aws_security_group_rule.app_out_https&#45;&gt;data.aws_prefix_list.s3_pl</title>
<path fill="none" stroke="black" d="M1183.72,-409.96C1111.07,-416.99 1024.56,-425.35 958.18,-431.78"/>
<polygon fill="black" stroke="black" points="957.73,-428.3 948.12,-432.75 958.41,-435.27 957.73,-428.3"/>
</g>
<!-- aws_security_group_rule.app_out_https&#45;&gt;aws_security_group.app_sg -->
<g id="edge42" class="edge">
<title>aws_security_group_rule.app_out_https&#45;&gt;aws_security_group.app_sg</title>
<path fill="none" stroke="black" d="M1183.97,-397.13C1157.18,-401.82 1130.31,-409.84 1107,-423 1084.4,-435.77 1092.79,-454.89 1071,-469 1039.59,-489.33 1001.11,-502.01 965.25,-509.91"/>
<polygon fill="black" stroke="black" points="964.28,-506.54 955.21,-512.02 965.71,-513.39 964.28,-506.54"/>
</g>
<!-- aws_security_group_rule.app_out_tcp3306 -->
<g id="node31" class="node">
<title>aws_security_group_rule.app_out_tcp3306</title>
<polygon fill="none" stroke="black" points="1484.5,-630 1173.5,-630 1173.5,-594 1484.5,-594 1484.5,-630"/>
<text text-anchor="middle" x="1329" y="-608.3" font-family="sans-serif" font-size="14.00">aws_security_group_rule.app_out_tcp3306</text>
</g>
<!-- aws_security_group_rule.app_out_tcp3306&#45;&gt;aws_security_group.app_sg -->
<g id="edge43" class="edge">
<title>aws_security_group_rule.app_out_tcp3306&#45;&gt;aws_security_group.app_sg</title>
<path fill="none" stroke="black" d="M1173.48,-599.07C1150.97,-595.47 1128.23,-590.87 1107,-585 1090.12,-580.33 1087.66,-574.39 1071,-569 1037.18,-558.06 999.55,-549.05 965.19,-542"/>
<polygon fill="black" stroke="black" points="965.6,-538.52 955.11,-539.97 964.22,-545.38 965.6,-538.52"/>
</g>
<!-- aws_security_group_rule.app_out_tcp3306&#45;&gt;aws_security_group.db_sg -->
<g id="edge44" class="edge">
<title>aws_security_group_rule.app_out_tcp3306&#45;&gt;aws_security_group.db_sg</title>
<path fill="none" stroke="black" d="M1173.29,-606.79C1104.08,-604.47 1024.14,-601.78 961.37,-599.66"/>
<polygon fill="black" stroke="black" points="961.16,-596.15 951.05,-599.32 960.93,-603.15 961.16,-596.15"/>
</g>
<!-- aws_security_group_rule.db_in_tcp3306 -->
<g id="node32" class="node">
<title>aws_security_group_rule.db_in_tcp3306</title>
<polygon fill="none" stroke="black" points="1475.5,-576 1182.5,-576 1182.5,-540 1475.5,-540 1475.5,-576"/>
<text text-anchor="middle" x="1329" y="-554.3" font-family="sans-serif" font-size="14.00">aws_security_group_rule.db_in_tcp3306</text>
</g>
<!-- aws_security_group_rule.db_in_tcp3306&#45;&gt;aws_security_group.app_sg -->
<g id="edge45" class="edge">
<title>aws_security_group_rule.db_in_tcp3306&#45;&gt;aws_security_group.app_sg</title>
<path fill="none" stroke="black" d="M1182.43,-547.28C1112.7,-542.15 1030.47,-536.1 965.54,-531.32"/>
<polygon fill="black" stroke="black" points="965.5,-527.81 955.27,-530.56 964.99,-534.79 965.5,-527.81"/>
</g>
<!-- aws_security_group_rule.db_in_tcp3306&#45;&gt;aws_security_group.db_sg -->
<g id="edge46" class="edge">
<title>aws_security_group_rule.db_in_tcp3306&#45;&gt;aws_security_group.db_sg</title>
<path fill="none" stroke="black" d="M1182.43,-569.63C1111.28,-575.32 1027.1,-582.05 961.58,-587.28"/>
<polygon fill="black" stroke="black" points="960.92,-583.82 951.23,-588.11 961.48,-590.8 960.92,-583.82"/>
</g>
<!-- aws_security_group_rule.opmng_in_ssh -->
<g id="node33" class="node">
<title>aws_security_group_rule.opmng_in_ssh</title>
<polygon fill="none" stroke="black" points="1474,-1046 1184,-1046 1184,-1010 1474,-1010 1474,-1046"/>
<text text-anchor="middle" x="1329" y="-1024.3" font-family="sans-serif" font-size="14.00">aws_security_group_rule.opmng_in_ssh</text>
</g>
<!-- aws_security_group_rule.opmng_in_ssh&#45;&gt;aws_security_group.opmng_sg -->
<g id="edge47" class="edge">
<title>aws_security_group_rule.opmng_in_ssh&#45;&gt;aws_security_group.opmng_sg</title>
<path fill="none" stroke="black" d="M1183.72,-1028C1117.7,-1028 1040.24,-1028 976.84,-1028"/>
<polygon fill="black" stroke="black" points="976.79,-1024.5 966.79,-1028 976.79,-1031.5 976.79,-1024.5"/>
</g>
<!-- aws_security_group_rule.opmng_in_tcp3000 -->
<g id="node34" class="node">
<title>aws_security_group_rule.opmng_in_tcp3000</title>
<polygon fill="none" stroke="black" points="1491,-992 1167,-992 1167,-956 1491,-956 1491,-992"/>
<text text-anchor="middle" x="1329" y="-970.3" font-family="sans-serif" font-size="14.00">aws_security_group_rule.opmng_in_tcp3000</text>
</g>
<!-- aws_security_group_rule.opmng_in_tcp3000&#45;&gt;aws_security_group.opmng_sg -->
<g id="edge48" class="edge">
<title>aws_security_group_rule.opmng_in_tcp3000&#45;&gt;aws_security_group.opmng_sg</title>
<path fill="none" stroke="black" d="M1169.33,-992.02C1106.66,-999.14 1035.71,-1007.19 976.86,-1013.88"/>
<polygon fill="black" stroke="black" points="976.31,-1010.42 966.77,-1015.02 977.1,-1017.37 976.31,-1010.42"/>
</g>
<!-- aws_security_group_rule.opmng_out_http -->
<g id="node35" class="node">
<title>aws_security_group_rule.opmng_out_http</title>
<polygon fill="none" stroke="black" points="1481.5,-1208 1176.5,-1208 1176.5,-1172 1481.5,-1172 1481.5,-1208"/>
<text text-anchor="middle" x="1329" y="-1186.3" font-family="sans-serif" font-size="14.00">aws_security_group_rule.opmng_out_http</text>
</g>
<!-- aws_security_group_rule.opmng_out_http&#45;&gt;aws_security_group.opmng_sg -->
<g id="edge49" class="edge">
<title>aws_security_group_rule.opmng_out_http&#45;&gt;aws_security_group.opmng_sg</title>
<path fill="none" stroke="black" d="M1176.42,-1194.2C1151.19,-1188.83 1126.83,-1179.21 1107,-1163 1067.83,-1130.98 1110.15,-1087.05 1071,-1055 1044.8,-1033.55 1010.57,-1023.71 977,-1020.02"/>
<polygon fill="black" stroke="black" points="976.89,-1016.5 966.61,-1019.07 976.25,-1023.47 976.89,-1016.5"/>
</g>
<!-- aws_security_group_rule.opmng_out_https -->
<g id="node36" class="node">
<title>aws_security_group_rule.opmng_out_https</title>
<polygon fill="none" stroke="black" points="1485,-1154 1173,-1154 1173,-1118 1485,-1118 1485,-1154"/>
<text text-anchor="middle" x="1329" y="-1132.3" font-family="sans-serif" font-size="14.00">aws_security_group_rule.opmng_out_https</text>
</g>
<!-- aws_security_group_rule.opmng_out_https&#45;&gt;aws_security_group.opmng_sg -->
<g id="edge50" class="edge">
<title>aws_security_group_rule.opmng_out_https&#45;&gt;aws_security_group.opmng_sg</title>
<path fill="none" stroke="black" d="M1172.74,-1134.21C1149.56,-1129.18 1126.83,-1121.22 1107,-1109 1082.44,-1093.87 1095.55,-1070.15 1071,-1055 1043.07,-1037.76 1009.29,-1029.05 976.73,-1025.09"/>
<polygon fill="black" stroke="black" points="976.99,-1021.6 966.68,-1024.01 976.25,-1028.56 976.99,-1021.6"/>
</g>
<!-- aws_security_group_rule.web_in_http -->
<g id="node37" class="node">
<title>aws_security_group_rule.web_in_http</title>
<polygon fill="none" stroke="black" points="1466.5,-198 1191.5,-198 1191.5,-162 1466.5,-162 1466.5,-198"/>
<text text-anchor="middle" x="1329" y="-176.3" font-family="sans-serif" font-size="14.00">aws_security_group_rule.web_in_http</text>
</g>
<!-- aws_security_group_rule.web_in_http&#45;&gt;aws_security_group.web_sg -->
<g id="edge51" class="edge">
<title>aws_security_group_rule.web_in_http&#45;&gt;aws_security_group.web_sg</title>
<path fill="none" stroke="black" d="M1191.46,-192.64C1163.36,-196.37 1134.1,-201.09 1107,-207 1037.84,-222.09 960.66,-247.99 909.62,-266.44"/>
<polygon fill="black" stroke="black" points="908.29,-263.2 900.09,-269.91 910.68,-269.78 908.29,-263.2"/>
</g>
<!-- aws_security_group_rule.web_in_https -->
<g id="node38" class="node">
<title>aws_security_group_rule.web_in_https</title>
<polygon fill="none" stroke="black" points="1470,-252 1188,-252 1188,-216 1470,-216 1470,-252"/>
<text text-anchor="middle" x="1329" y="-230.3" font-family="sans-serif" font-size="14.00">aws_security_group_rule.web_in_https</text>
</g>
<!-- aws_security_group_rule.web_in_https&#45;&gt;aws_security_group.web_sg -->
<g id="edge52" class="edge">
<title>aws_security_group_rule.web_in_https&#45;&gt;aws_security_group.web_sg</title>
<path fill="none" stroke="black" d="M1187.91,-249.91C1117.29,-257.93 1032.77,-267.53 966.23,-275.08"/>
<polygon fill="black" stroke="black" points="965.68,-271.62 956.13,-276.23 966.47,-278.58 965.68,-271.62"/>
</g>
<!-- aws_security_group_rule.web_out_tcp3000 -->
<g id="node39" class="node">
<title>aws_security_group_rule.web_out_tcp3000</title>
<polygon fill="none" stroke="black" points="1486,-360 1172,-360 1172,-324 1486,-324 1486,-360"/>
<text text-anchor="middle" x="1329" y="-338.3" font-family="sans-serif" font-size="14.00">aws_security_group_rule.web_out_tcp3000</text>
</g>
<!-- aws_security_group_rule.web_out_tcp3000&#45;&gt;aws_security_group.app_sg -->
<g id="edge53" class="edge">
<title>aws_security_group_rule.web_out_tcp3000&#45;&gt;aws_security_group.app_sg</title>
<path fill="none" stroke="black" d="M1171.88,-339.27C1148.36,-344.76 1125.73,-354.05 1107,-369 1070.07,-398.46 1106.08,-437.37 1071,-469 1042.1,-495.06 1002.61,-509.02 965.15,-516.34"/>
<polygon fill="black" stroke="black" points="964.38,-512.93 955.16,-518.15 965.63,-519.82 964.38,-512.93"/>
</g>
<!-- aws_security_group_rule.web_out_tcp3000&#45;&gt;aws_security_group.web_sg -->
<g id="edge54" class="edge">
<title>aws_security_group_rule.web_out_tcp3000&#45;&gt;aws_security_group.web_sg</title>
<path fill="none" stroke="black" d="M1171.97,-324.28C1104.9,-316.66 1027.95,-307.93 966.38,-300.93"/>
<polygon fill="black" stroke="black" points="966.57,-297.43 956.24,-299.78 965.78,-304.39 966.57,-297.43"/>
</g>
<!-- aws_subnet.private_subnet_1a&#45;&gt;aws_vpc.vpc -->
<g id="edge55" class="edge">
<title>aws_subnet.private_subnet_1a&#45;&gt;aws_vpc.vpc</title>
<path fill="none" stroke="black" d="M736.36,-116.67C699.46,-119.35 660.71,-128.94 632,-153 503.27,-260.86 493.71,-487.25 494.57,-567.25"/>
<polygon fill="black" stroke="black" points="491.08,-567.6 494.75,-577.54 498.08,-567.48 491.08,-567.6"/>
</g>
<!-- aws_subnet.private_subnet_1c&#45;&gt;aws_vpc.vpc -->
<g id="edge56" class="edge">
<title>aws_subnet.private_subnet_1c&#45;&gt;aws_vpc.vpc</title>
<path fill="none" stroke="black" d="M736.49,-62.12C699.39,-64.71 660.48,-74.38 632,-99 558.92,-162.18 512.01,-472.37 499.11,-567.92"/>
<polygon fill="black" stroke="black" points="495.62,-567.62 497.78,-577.99 502.56,-568.54 495.62,-567.62"/>
</g>
<!-- aws_subnet.public_subnet_1a&#45;&gt;aws_vpc.vpc -->
<g id="edge57" class="edge">
<title>aws_subnet.public_subnet_1a&#45;&gt;aws_vpc.vpc</title>
<path fill="none" stroke="black" d="M739.27,-815.54C703.01,-812.32 663.91,-803.88 632,-785 567.84,-747.05 525.36,-665.9 506.56,-623.34"/>
<polygon fill="black" stroke="black" points="509.77,-621.93 502.6,-614.13 503.34,-624.7 509.77,-621.93"/>
</g>
<!-- aws_subnet.public_subnet_1c&#45;&gt;aws_vpc.vpc -->
<g id="edge58" class="edge">
<title>aws_subnet.public_subnet_1c&#45;&gt;aws_vpc.vpc</title>
<path fill="none" stroke="black" d="M739.83,-758.3C704,-754.81 665.02,-747.01 632,-731 580.74,-706.15 537.08,-654.3 513.72,-622.58"/>
<polygon fill="black" stroke="black" points="516.37,-620.27 507.68,-614.21 510.69,-624.37 516.37,-620.27"/>
</g>
</g>
</svg>
